<?xml version="1.0" encoding="utf-8"?>
<!-- Generator: Adobe Illustrator 23.0.1, SVG Export Plug-In . SVG Version: 6.00 Build 0)  -->
<svg version="1.1" id="Layer_1" xmlns="http://www.w3.org/2000/svg" xmlns:xlink="http://www.w3.org/1999/xlink" x="0px" y="0px"
	 viewBox="0 0 390.3 43" style="enable-background:new 0 0 390.3 43;" xml:space="preserve">
<style type="text/css">
	.st0{fill:#553876;}
</style>
<g>
	<path class="st0" d="M19.34,31.19c-1.78,1.64-4.05,2.46-6.82,2.46c-1.33,0-2.49-0.17-3.48-0.52c-1.15-0.37-2.14-0.87-2.98-1.51
		l-2.17,1.66H3.12v-7.89h1.31c0.45,1.98,1.37,3.69,2.76,5.11c1.39,1.43,3.21,2.14,5.47,2.14c1.93,0,3.54-0.53,4.84-1.59
		c1.33-1.08,1.99-2.39,1.99-3.92c0-1.67-0.74-2.89-2.21-3.69c-1.57-0.82-3.52-1.51-5.88-2.06c-2.83-0.66-4.88-1.62-6.15-2.89
		c-1.27-1.29-1.9-2.99-1.9-5.07c0-2.17,0.77-3.95,2.31-5.35c1.6-1.4,3.57-2.1,5.92-2.1c1.27,0,2.44,0.16,3.53,0.48
		c1.08,0.32,2.09,0.81,3.03,1.47l1.72-1.55h0.86v7.49h-1.45c-0.27-1.96-1.1-3.61-2.49-4.95c-1.39-1.29-3.15-1.94-5.29-1.94
		c-1.54,0-2.86,0.45-3.98,1.35c-1.12,0.9-1.67,1.97-1.67,3.21c0,1.51,0.57,2.48,1.72,2.93c1.18,0.5,2.88,1,5.11,1.51
		c3.53,0.79,5.95,1.84,7.28,3.13c1.36,1.35,2.03,3.24,2.03,5.67C21.96,27.44,21.09,29.58,19.34,31.19z"/>
	<path class="st0" d="M42.8,31.67c-1.57,1.32-3.34,1.98-5.33,1.98c-2.26,0-4.26-1.04-6.01-3.13c-1.75-2.09-2.62-4.52-2.62-7.29
		c0-3.06,0.89-5.69,2.67-7.89c1.78-2.19,3.92-3.29,6.42-3.29c2.2,0,4.07,0.85,5.6,2.54c1.57,1.69,2.35,3.74,2.35,6.14
		c0,0.16-0.01,0.3-0.02,0.42c-0.02,0.12-0.04,0.23-0.07,0.34c0,0.19-0.11,0.28-0.32,0.28H34.21v3.81c0,2.3,0.3,4.1,0.9,5.39
		c0.57,1.27,1.6,1.9,3.07,1.9c1.84,0,3.33-0.82,4.47-2.46c0.57-0.82,1.05-1.63,1.42-2.44c0.38-0.81,0.64-1.61,0.79-2.4h1.13
		C45.38,28.31,44.31,30.35,42.8,31.67z M40.04,14.23c-0.54-0.92-1.36-1.39-2.44-1.39c-1.42,0-2.32,0.61-2.71,1.82
		c-0.45,1.24-0.68,3.04-0.68,5.39v0.71h6.55l0.09-2.73C40.89,16.47,40.61,15.21,40.04,14.23z"/>
	<path class="st0" d="M69.28,33.05c-0.63,0.4-1.45,0.59-2.44,0.59c-1.15,0-1.99-0.26-2.53-0.79c-0.6-0.58-0.95-1.24-1.04-1.98
		c-1.06,1-2.12,1.72-3.21,2.14c-1.18,0.45-2.32,0.67-3.44,0.67c-1.48,0-2.62-0.48-3.43-1.43c-0.81-0.98-1.22-2.19-1.22-3.65
		c0-1.85,0.63-3.33,1.9-4.44c1.27-1.14,2.91-1.86,4.93-2.18c0.33-0.05,0.68-0.09,1.04-0.12c0.36-0.03,0.74-0.05,1.13-0.08
		c0.39-0.03,0.77-0.04,1.13-0.04c0.39,0,0.78,0,1.18,0V15.3c0-0.69-0.32-1.27-0.95-1.74c-0.69-0.48-1.39-0.71-2.08-0.71
		c-0.84,0-1.58,0.13-2.21,0.4c-0.69,0.29-1.04,0.55-1.04,0.79c0,0.05,0.12,0.29,0.36,0.71c0.27,0.45,0.41,0.95,0.41,1.51
		c-0.12,1.14-0.89,1.7-2.3,1.7c-1.45,0-2.19-0.59-2.21-1.78c-0.03-1.14,0.63-2.11,1.99-2.93c1.36-0.79,3.13-1.19,5.33-1.19
		c2.05,0,3.8,0.45,5.24,1.35c1.39,0.9,2.08,2.07,2.08,3.53v14.19c0,0.26,0.09,0.45,0.27,0.55c0.21,0.16,0.48,0.24,0.81,0.24
		c0.24,0,0.53-0.12,0.86-0.36c0.15-0.13,0.29-0.24,0.43-0.34c0.14-0.09,0.23-0.17,0.29-0.22l0.54,0.56
		C70.52,32.13,69.92,32.63,69.28,33.05z M63.27,23.58c-0.45-0.29-0.92-0.53-1.4-0.71c-0.24-0.08-0.5-0.12-0.77-0.12
		c-0.33,0-0.72,0.04-1.18,0.12c-1.02,0.24-1.81,0.73-2.35,1.47c-0.57,0.74-0.86,1.76-0.86,3.05c0,1.24,0.23,2.27,0.68,3.09
		c0.45,0.82,1.18,1.23,2.17,1.23c1.11,0,2-0.57,2.67-1.7c0.69-1.16,1.04-2.48,1.04-3.96V23.58z"/>
	<path class="st0" d="M88.26,31.94c-1.08,1.16-2.64,1.74-4.65,1.74c-0.78,0-1.6-0.15-2.44-0.44c-0.81-0.32-1.57-0.74-2.26-1.27
		l-1.31,1.19h-0.72v-5.79h1.22c0.27,1.58,0.9,2.89,1.9,3.92c1.02,1.03,2.29,1.55,3.8,1.55c1.11,0,2.08-0.4,2.89-1.19
		c0.84-0.77,1.27-1.76,1.27-2.97c0-1.29-0.36-2.21-1.08-2.73c-0.72-0.5-1.99-0.94-3.8-1.31c-0.78-0.16-1.52-0.39-2.21-0.69
		c-0.69-0.3-1.34-0.68-1.94-1.13c-1.24-0.92-1.85-2.43-1.85-4.52c0-1.93,0.54-3.45,1.63-4.56c1.08-1.14,2.49-1.7,4.2-1.7
		c0.84,0,1.66,0.12,2.44,0.36c0.72,0.24,1.36,0.54,1.9,0.91l0.72-1.43h0.77v5.07h-1.18c-0.09-0.95-0.57-1.88-1.45-2.77
		c-0.9-0.9-1.97-1.35-3.21-1.35c-1.21,0-2.12,0.4-2.76,1.19c-0.66,0.77-0.99,1.7-0.99,2.81c0,0.95,0.32,1.67,0.95,2.14
		c0.72,0.55,2.05,1.04,3.98,1.47c1.15,0.24,2.1,0.52,2.87,0.85c0.77,0.33,1.35,0.75,1.74,1.25c0.78,1,1.18,2.48,1.18,4.44
		C89.85,29.13,89.32,30.78,88.26,31.94z"/>
	<path class="st0" d="M111.22,30.4c-1.93,2.17-4.16,3.25-6.69,3.25c-2.5,0-4.7-1.07-6.6-3.21c-1.93-2.17-2.89-4.69-2.89-7.57
		c0-2.91,0.95-5.43,2.85-7.57c1.93-2.17,4.14-3.25,6.64-3.25c2.53,0,4.75,1.07,6.64,3.21c1.93,2.17,2.89,4.7,2.89,7.61
		C114.07,25.75,113.12,28.26,111.22,30.4z M108.65,20.25c0-2.48-0.29-4.32-0.86-5.51c-0.6-1.27-1.69-1.9-3.25-1.9
		c-1.54,0-2.61,0.62-3.21,1.86c-0.57,1.24-0.86,3.09-0.86,5.55v5.19c0,2.48,0.29,4.32,0.86,5.51c0.57,1.27,1.64,1.9,3.21,1.9
		c1.57,0,2.65-0.62,3.25-1.86c0.57-1.24,0.86-3.09,0.86-5.55V20.25z"/>
	<path class="st0" d="M129.57,33.05v-0.99h2.85V19.86c0-1.03-0.04-1.94-0.11-2.73c-0.08-0.79-0.19-1.45-0.34-1.98
		c-0.33-1.11-1.01-1.66-2.03-1.66c-1.3,0-2.46,0.81-3.48,2.42c-1.06,1.64-1.58,3.96-1.58,6.98v9.2h2.85v0.99h-10.71v-0.99h3.07
		V13.28h-3.07v-0.99l7.86-0.2v3.77c0.78-1.4,1.78-2.38,2.98-2.93c1.2-0.58,2.46-0.87,3.75-0.87c1.99,0,3.42,0.67,4.29,2.02
		c0.84,1.32,1.27,3.3,1.27,5.95v12.05h2.89v0.99H129.57z"/>
	<path class="st0" d="M153.44,13.95c-0.9,1.27-2,2.22-3.3,2.85c-0.15,0.08-0.29,0.12-0.41,0.12c-0.15,0.05-0.3,0.01-0.45-0.12
		c-0.12-0.08-0.18-0.17-0.18-0.28c0-0.08,0.09-0.18,0.27-0.32c0.48-0.29,0.96-0.65,1.42-1.07c0.47-0.42,0.91-0.9,1.33-1.43
		c0.87-1.08,1.31-2.1,1.31-3.05c0-1.08-0.23-1.62-0.68-1.62c-0.42,0-0.72,0.3-0.9,0.91c-0.27,0.77-0.99,1.15-2.17,1.15h-0.45
		c-1.45-0.11-2.17-0.96-2.17-2.58c0-0.82,0.33-1.44,0.99-1.86c0.69-0.45,1.46-0.67,2.31-0.67c1.27,0,2.32,0.37,3.16,1.11
		c0.84,0.74,1.27,1.89,1.27,3.45C154.79,11.55,154.34,12.68,153.44,13.95z"/>
	<path class="st0" d="M174.36,31.94c-1.08,1.16-2.64,1.74-4.65,1.74c-0.78,0-1.6-0.15-2.44-0.44c-0.81-0.32-1.57-0.74-2.26-1.27
		l-1.31,1.19h-0.72v-5.79h1.22c0.27,1.58,0.9,2.89,1.9,3.92c1.02,1.03,2.29,1.55,3.8,1.55c1.11,0,2.08-0.4,2.89-1.19
		c0.84-0.77,1.27-1.76,1.27-2.97c0-1.29-0.36-2.21-1.08-2.73c-0.72-0.5-1.99-0.94-3.8-1.31c-0.78-0.16-1.52-0.39-2.21-0.69
		c-0.69-0.3-1.34-0.68-1.94-1.13c-1.24-0.92-1.85-2.43-1.85-4.52c0-1.93,0.54-3.45,1.63-4.56c1.08-1.14,2.49-1.7,4.2-1.7
		c0.84,0,1.66,0.12,2.44,0.36c0.72,0.24,1.36,0.54,1.9,0.91l0.72-1.43h0.77v5.07h-1.18c-0.09-0.95-0.57-1.88-1.45-2.77
		c-0.9-0.9-1.97-1.35-3.21-1.35c-1.21,0-2.12,0.4-2.76,1.19c-0.66,0.77-0.99,1.7-0.99,2.81c0,0.95,0.32,1.67,0.95,2.14
		c0.72,0.55,2.05,1.04,3.98,1.47c1.15,0.24,2.1,0.52,2.87,0.85c0.77,0.33,1.35,0.75,1.74,1.25c0.78,1,1.18,2.48,1.18,4.44
		C175.94,29.13,175.42,30.78,174.36,31.94z"/>
	<path class="st0" d="M222.45,24.41c-0.12,2.96-1.25,5.23-3.39,6.82c-2.14,1.61-4.85,2.42-8.14,2.42c-4.19,0-7.64-1.29-10.35-3.88
		c-2.77-2.59-4.16-5.84-4.16-9.75c0-3.86,1.4-7.16,4.2-9.91c2.8-2.75,6.16-4.12,10.08-4.12c1.57,0,2.97,0.2,4.2,0.59
		c1.27,0.4,2.3,0.89,3.12,1.47l1.85-1.67h1.04v7.65h-1.31c-0.87-2.69-2.09-4.53-3.66-5.51c-1.6-1.03-3.24-1.55-4.93-1.55
		c-2.86,0-4.9,0.79-6.1,2.38c-1.24,1.61-1.85,4.02-1.85,7.21v5.39c0,3.7,0.53,6.41,1.58,8.12c1.05,1.72,3.06,2.58,6.01,2.58
		c1.6,0,2.88-0.37,3.84-1.11c1.02-0.74,1.54-2.03,1.54-3.88v-3.25h-4.56v-0.99h14.15v0.99H222.45z"/>
	<path class="st0" d="M241.97,16.84h-0.18c-1.48,0-2.26-0.58-2.35-1.74l0.18-1.31c0-0.08-0.03-0.15-0.09-0.2
		c-0.06,0-0.11-0.01-0.14-0.02c-0.03-0.01-0.08-0.02-0.14-0.02c-1.17,0-2.26,1.06-3.25,3.17c-0.99,2.14-1.49,4.6-1.49,7.37v7.97
		h4.07v0.99h-11.62v-0.99h2.67V13.28h-2.98v-0.99l7.77-0.2v4.4c0.96-1.59,1.96-2.71,2.98-3.37c1.08-0.71,2.27-1.07,3.57-1.07
		c1.11,0,1.97,0.25,2.58,0.75c0.63,0.53,0.95,1.16,0.95,1.9C244.44,16.13,243.6,16.84,241.97,16.84z"/>
	<path class="st0" d="M261.22,31.67c-1.57,1.32-3.34,1.98-5.33,1.98c-2.26,0-4.26-1.04-6.01-3.13c-1.75-2.09-2.62-4.52-2.62-7.29
		c0-3.06,0.89-5.69,2.67-7.89c1.78-2.19,3.92-3.29,6.42-3.29c2.2,0,4.07,0.85,5.6,2.54c1.57,1.69,2.35,3.74,2.35,6.14
		c0,0.16-0.01,0.3-0.02,0.42c-0.02,0.12-0.04,0.23-0.07,0.34c0,0.19-0.11,0.28-0.32,0.28h-11.25v3.81c0,2.3,0.3,4.1,0.9,5.39
		c0.57,1.27,1.6,1.9,3.07,1.9c1.84,0,3.33-0.82,4.47-2.46c0.57-0.82,1.05-1.63,1.42-2.44c0.38-0.81,0.64-1.61,0.79-2.4h1.13
		C263.8,28.31,262.73,30.35,261.22,31.67z M258.47,14.23c-0.54-0.92-1.36-1.39-2.44-1.39c-1.42,0-2.32,0.61-2.71,1.82
		c-0.45,1.24-0.68,3.04-0.68,5.39v0.71h6.55l0.09-2.73C259.31,16.47,259.04,15.21,258.47,14.23z"/>
	<path class="st0" d="M283.55,31.67c-1.57,1.32-3.34,1.98-5.33,1.98c-2.26,0-4.26-1.04-6.01-3.13c-1.75-2.09-2.62-4.52-2.62-7.29
		c0-3.06,0.89-5.69,2.67-7.89c1.78-2.19,3.92-3.29,6.42-3.29c2.2,0,4.07,0.85,5.6,2.54c1.57,1.69,2.35,3.74,2.35,6.14
		c0,0.16-0.01,0.3-0.02,0.42c-0.02,0.12-0.04,0.23-0.07,0.34c0,0.19-0.11,0.28-0.32,0.28h-11.25v3.81c0,2.3,0.3,4.1,0.9,5.39
		c0.57,1.27,1.6,1.9,3.07,1.9c1.84,0,3.33-0.82,4.47-2.46c0.57-0.82,1.05-1.63,1.42-2.44c0.38-0.81,0.64-1.61,0.79-2.4h1.13
		C286.13,28.31,285.06,30.35,283.55,31.67z M280.79,14.23c-0.54-0.92-1.36-1.39-2.44-1.39c-1.42,0-2.32,0.61-2.71,1.82
		c-0.45,1.24-0.68,3.04-0.68,5.39v0.71h6.55l0.09-2.73C281.64,16.47,281.36,15.21,280.79,14.23z"/>
	<path class="st0" d="M301.31,32.54c-0.84,0.74-2.19,1.11-4.02,1.11c-1.69,0-2.86-0.24-3.53-0.71c-0.72-0.48-1.08-1.31-1.08-2.5
		V13.48h-2.89v-1.19h2.89V8.96l4.88-1.03v4.36h4.25v1.19h-4.25v16.88c0,0.61,0.12,1.06,0.36,1.35c0.27,0.26,0.72,0.4,1.36,0.4
		c0.75,0,1.34-0.2,1.76-0.59c0.45-0.4,0.8-0.9,1.04-1.51l0.9,0.4C302.77,31.09,302.21,31.8,301.31,32.54z"/>
	<path class="st0" d="M306.37,33.05v-0.99h3.39V13.28h-3.25v-0.99l8.13-0.2v19.98h3.3v0.99H306.37z M314.01,9.71
		c-0.51,0.45-1.12,0.67-1.81,0.67c-0.69,0-1.3-0.22-1.81-0.67c-0.51-0.45-0.77-0.98-0.77-1.59c0-0.63,0.26-1.18,0.77-1.62
		c0.51-0.45,1.11-0.67,1.81-0.67c0.69,0,1.29,0.22,1.81,0.67c0.51,0.45,0.77,0.98,0.77,1.59C314.78,8.72,314.52,9.26,314.01,9.71z"
		/>
	<path class="st0" d="M334.35,33.05v-0.99h2.85V19.86c0-1.03-0.04-1.94-0.11-2.73c-0.08-0.79-0.19-1.45-0.34-1.98
		c-0.33-1.11-1.01-1.66-2.03-1.66c-1.3,0-2.46,0.81-3.48,2.42c-1.06,1.64-1.58,3.96-1.58,6.98v9.2h2.85v0.99h-10.71v-0.99h3.07
		V13.28h-3.07v-0.99l7.86-0.2v3.77c0.78-1.4,1.78-2.38,2.98-2.93c1.21-0.58,2.46-0.87,3.75-0.87c1.99,0,3.42,0.67,4.29,2.02
		c0.84,1.32,1.27,3.3,1.27,5.95v12.05h2.89v0.99H334.35z"/>
	<path class="st0" d="M367.7,14.51c-0.33,0.29-0.66,0.44-0.99,0.44c-0.72,0-1.19-0.21-1.4-0.63c-0.24-0.45-0.48-0.67-0.72-0.67
		c-0.3,0-0.6,0.16-0.9,0.48c-0.09,0.11-0.18,0.2-0.27,0.3c-0.09,0.09-0.17,0.19-0.23,0.3c0.87,1.08,1.31,2.38,1.31,3.88
		c0,1.9-0.6,3.49-1.81,4.76c-1.27,1.22-2.88,1.82-4.84,1.82c-2.14,0-3.77,0.28-4.88,0.83c-1.17,0.55-1.76,1.44-1.76,2.66
		c0,1.27,0.98,1.93,2.94,1.98c1.99,0.03,5.09,0.07,9.31,0.12c1.17,0,2.11,0.32,2.8,0.95c0.72,0.69,1.08,1.69,1.08,3.01
		c0,2.32-0.95,4.17-2.85,5.55c-1.93,1.37-4.26,2.06-7,2.06c-2.29,0-4.14-0.41-5.56-1.23c-1.45-0.82-2.17-1.82-2.17-3.01
		c0-1.06,0.35-1.89,1.04-2.5c0.48-0.42,1.25-0.9,2.31-1.43c-2.23-0.21-3.34-1.77-3.34-4.68c0-1.45,0.39-2.6,1.17-3.45
		c0.75-0.82,1.82-1.43,3.21-1.82c-0.24-0.13-0.47-0.28-0.68-0.44c-0.21-0.16-0.41-0.32-0.59-0.48c-1.39-1.21-2.08-2.72-2.08-4.52
		c0-2.01,0.63-3.63,1.9-4.88c1.33-1.24,2.97-1.86,4.93-1.86c1.9,0,3.51,0.63,4.84,1.9l0.13,0.12c0.84-0.92,1.48-1.51,1.9-1.74
		c0.6-0.29,1.17-0.44,1.72-0.44c0.45,0,0.87,0.13,1.27,0.4c0.42,0.29,0.63,0.67,0.63,1.15C368.11,13.89,367.97,14.24,367.7,14.51z
		 M364.99,34.88c-0.51-0.26-1.34-0.4-2.49-0.4c-1.45,0-2.79-0.02-4.02-0.06c-1.24-0.04-2.4-0.09-3.48-0.14
		c-1.02,0.21-1.64,0.54-1.85,0.99c-0.3,0.55-0.45,1.28-0.45,2.18c0,1.03,0.39,1.93,1.17,2.69c0.81,0.79,2.08,1.19,3.8,1.19
		c1.93,0,3.77-0.46,5.51-1.39c1.72-0.95,2.58-2.26,2.58-3.92C365.76,35.5,365.5,35.12,364.99,34.88z M360.11,15.85
		c-0.03-0.74-0.08-1.32-0.14-1.74c-0.15-0.85-0.89-1.27-2.21-1.27c-1.33,0-2.08,0.42-2.26,1.27c-0.12,0.42-0.2,1-0.25,1.74
		c-0.04,0.74-0.07,1.65-0.07,2.73c0,1.11,0.02,2.05,0.07,2.81c0.04,0.77,0.1,1.36,0.16,1.78c0.18,0.87,0.92,1.31,2.21,1.31
		c1.42,0,2.18-0.41,2.3-1.23c0.06-0.42,0.11-1.02,0.16-1.78c0.04-0.77,0.07-1.72,0.07-2.85C360.15,17.52,360.14,16.59,360.11,15.85z
		"/>
	<path class="st0" d="M384.15,31.94c-1.08,1.16-2.64,1.74-4.66,1.74c-0.78,0-1.6-0.15-2.44-0.44c-0.81-0.32-1.57-0.74-2.26-1.27
		l-1.31,1.19h-0.72v-5.79h1.22c0.27,1.58,0.9,2.89,1.9,3.92c1.02,1.03,2.29,1.55,3.8,1.55c1.11,0,2.08-0.4,2.89-1.19
		c0.84-0.77,1.27-1.76,1.27-2.97c0-1.29-0.36-2.21-1.08-2.73c-0.72-0.5-1.99-0.94-3.8-1.31c-0.78-0.16-1.52-0.39-2.21-0.69
		c-0.69-0.3-1.34-0.68-1.94-1.13c-1.24-0.92-1.85-2.43-1.85-4.52c0-1.93,0.54-3.45,1.63-4.56c1.08-1.14,2.49-1.7,4.2-1.7
		c0.84,0,1.66,0.12,2.44,0.36c0.72,0.24,1.36,0.54,1.9,0.91l0.72-1.43h0.77v5.07h-1.17c-0.09-0.95-0.57-1.88-1.45-2.77
		c-0.9-0.9-1.97-1.35-3.21-1.35c-1.21,0-2.12,0.4-2.76,1.19c-0.66,0.77-0.99,1.7-0.99,2.81c0,0.95,0.32,1.67,0.95,2.14
		c0.72,0.55,2.05,1.04,3.98,1.47c1.14,0.24,2.1,0.52,2.87,0.85c0.77,0.33,1.35,0.75,1.74,1.25c0.78,1,1.17,2.48,1.17,4.44
		C385.73,29.13,385.21,30.78,384.15,31.94z"/>
</g>
</svg>
