<?xml version="1.0" encoding="utf-8"?>
<!-- Generator: Adobe Illustrator 21.1.0, SVG Export Plug-In . SVG Version: 6.00 Build 0)  -->
<svg version="1.1" id="Layer_1" xmlns="http://www.w3.org/2000/svg" xmlns:xlink="http://www.w3.org/1999/xlink" x="0px" y="0px"
	 width="327px" height="316px" viewBox="0 0 327 316" style="enable-background:new 0 0 327 316;" xml:space="preserve">
<style type="text/css">
	.st0{fill:#AFB1B4;}
	.st1{fill:#FCC600;}
	.st2{fill:#2397D4;}
</style>
<path class="st0" d="M206.8,165.5c-0.3,0.2-0.8,0.2-1.2,0.1c-0.8-0.1-0.8-0.2-0.8-1C205.5,163.9,206.8,164.7,206.8,165.5
	C206.4,165.8,206.8,165.3,206.8,165.5z"/>
<path class="st0" d="M187,171.9c1,0,4.4-0.3,3.2,1.8c-0.8,1.4-1.6,2.2-3,3c-0.6,0.3-1.5,0.1-2.1,0.6c-1.1,0-1.2-0.8-1.2-1.8
	c0.2-0.1,0.6-1.4,0.7-1.7C185,172.8,186,172.2,187,171.9C187,171.9,186.1,172.2,187,171.9z"/>
<path class="st0" d="M196.8,15.1c-0.1,0.1-1.2,1.7-0.5,1.7c0.6-0.1,1.5-1.2,1.7-1.7c0-0.3,1.1-1.2,1.4-1.5c1.9-1.5,1.8,2,1.2,3.1
	c0,1-1.7,2.2-1.7,3.5c0,0-1.3,3.2-1.5,3.6c-1.2,2.6-2.4,5.8-2.4,8.5c-0.2,0-0.4,1.1-0.7,1.3c-0.6,0.4-1.3,0.3-1.9,0.6
	c-0.7,0.2-0.9,0.6-0.9,1.3c-0.5,1.1-1.5,1.4-2.4,2c-0.6,0.4-1.2,0.1-1.8,0.8c-0.3,0.5,0.3,1.4,0.8,1.7c0.4,0.3-0.3,0.9-0.3,1.2
	c-0.4,0-0.4,0.6,0,0.7c0.6,0,1.1,0.1,1.5,0.3c1.1,0.6,2.4,2.6,1.2,3.6c-0.5,0.4-0.8,1-0.2,1.5c0.2,0.2,1.7,1.6,0.3,1.5
	c-0.8,0.1-0.8,1.4-1,1.9c-0.2,0.8-0.7,1.2-1.5,1.3c-0.2,0.1-1.3,0.4-1.4,0.6c-0.1,1,0.5,2.9-0.1,3.7c-1.1,1.5-2.7,2.5-0.4,4
	c0.5,0,1,0.9,1.3,1c0,0.6,0,1.1,0,1.7c0,0.8-0.1,0.3-0.4,0.9c-0.2,0.5-0.1,0.6-0.3,1c-0.3,0.5-0.7,0.8-1,1.1
	c-0.6,0.6-1.7,1.7-2.5,1.7c-1.1,0-1.2-0.4-1.2-1.5c-0.2-0.6-1.5-1.1-2-0.9c-0.3,0.1-0.7,0.4-0.8,0.8c-0.4,0-0.8,0-1.2,0
	c-0.5,0-1.4-0.4-1.7-0.8c-1.6-2.4-1.8,1.7-2.7,1.6c-1.8,0-3.7-0.1-5.5-0.3c-0.9-0.1-1.9,0-2.7-0.3c-1.1-0.4-0.6-1-0.8-1.9
	c-0.3-1,0-2.1,0.6-2.9c0.5-0.7,1.2-1,1.7-1.7c2.9,0,0.6-1.9-0.1-3.2c-0.4-0.8-0.3-1.8,0-2.6c0.4-0.9,1.9-0.6,2.7-0.6
	c0.6,0,1,0.9,1.7,1c-0.1,0.8,0.8,1.6,0.8,2.2c0.7,1.2,1.2,0.6,2.2,0.5c-0.3-0.8-1.8-1.7-1.8-2.3c-0.8-0.7-0.6-1.7-0.1-2.6
	c0.2-0.3,0.8-0.7,0.2-1c-0.5-0.3-1.2-0.1-1.7-0.1c-1.7,0.1-2.7-0.1-2.6-1.9c0.1-0.6,0.6-1.2,0.8-1.8c0.1-0.4,0.1-0.7,0.1-1.1
	c0.3-0.6,1-1,1.6-1.5c0.8-0.6,1.9-1.4,2.8-0.9c0.9,0.5,2,0.8,2.9,1.3c0.6,0.3,0.6-1,0.6-1.4c0-0.3-1.8-0.6-2.2-0.9
	c-1.2-1-2.2-2.6-2.8-4c-0.3-0.8-0.5-1.7-1.2-2.2c-0.3-0.2-1.5-1.5-1.5-1.9c0-1-0.1-2.1,0.1-3.1c0.3-1.3,0.5-1.2,1.7-1.2
	c2.2,0,3.3,2.2,4.4,3.6c0.2,0.3,1.2,1.7,1.4,0.8c0.1-0.9-0.5-1.4-1-1.9c-0.3-0.4-0.8-1-1.1-1.5c-0.9-1,0.7-1.3,1.1-2
	c0.7,0,1.2-1,1.8-1c0.6-0.4,1-0.4,1.6-0.8c0.4-0.2,0.6-0.5,0.6-0.9c0-0.3,0.6-0.7,0.8-1c0.3-0.4,0.8-0.9,1.2-1.2c0-0.4-0.8-1-1-1.4
	c-0.1-0.2-0.6-1.7-1-0.6c-0.3,0.8-0.7,1.2-1,1.9c-0.5,0.8-0.9,1.5-1.7,2c-1.1,0.8-1.9,0.4-3.1,0.7c-1.2,0.3-4.2,1.4-4.2-0.6
	c-0.1-1.1,0.4-1.7,0.5-2.7c-1-0.7-1.2,1.3-1.5,1.5c-0.5,0.3-0.6,1-1.4,1.1c-0.8,0.1-1.6-0.5-2.2-1c-0.8-0.7-0.6-1-0.3-1.7
	s-1.2-0.6-1.5-0.6c-0.6-0.9-0.4-1.8,0.1-2.6c0.3-0.5,1.3-1.2,1.3-1.8c0-0.1-1.7-1.1-2-1.2c-0.6,0-1.7-0.3-1.8-1
	c0.3,0.1,0.5-0.8,0.7-1c-0.1-0.3,0.7-0.6,1-0.7c0.4-0.3,1.5-1.2,2-1.2c0.6-0.3,1-1,1.5-1.3L180,1.9l10-1.4h3.8l3.8,3.8
	C197.7,4.4,197.3,14.4,196.8,15.1z"/>
<path class="st0" d="M161.3,22.2c0.1,0.4,0.5,1.2,0.7,1.7c0,0.1,0.8,1.8,0.8,1.8c0.4,1.8,2.2,2.5,2.8,4.2c0.4,1,0.3,1.7,1,2.5
	c0.6,0.6,1.2,1.2,1.5,1.9c0.3,0.8,0,1.8,0.8,2.3c0.4,0.9,1.5,1.4,2.2,2c3.4,3.7-3.7,5.8-3.8,9.2c-0.4,0.1-0.9,1-1.2,1.3
	c-0.6,0.8-1.1,0.3-1.8,0.3c-0.6,0-0.6,0.9-0.7,1.4c0,0.3-1.7,0.3-2.2,0.3c-1.5-0.4-2.3-2.4-3.1-3.5c-0.9-1.3-2.9-3.7-1.3-5.1
	c0.4-0.4,4.4-1.5,2.4-2.7c-0.6-0.3-3.4-0.8-3.7,0.1c-0.5,0-1.2-0.3-1.5-0.8c-0.5-0.8,0.3-1.2,0.2-1.8c-0.1-0.3-0.2-0.3-0.5-0.3
	c-0.3-0.3-0.6-0.9-0.8-1.3c0-0.8,0.1-1.4,0.4-2.1c0.5-1,3.2-0.1,1.4-2.2c-0.7-0.8-1.2-1.1-0.7-2.3c0.2-0.4,1.7-0.9,1.7-1
	c1.7,0,0.6-1.2-0.2-1.9c-1.2-1.1,0.5-2.2,1.3-3c0.7-0.7,0.6-1.7,1.3-2.2C159.1,20.4,160.7,21.7,161.3,22.2
	C161.3,22.4,160.9,21.8,161.3,22.2z"/>
<path class="st0" d="M148.2,31.9c0.6,0.5,1.1,1,1.4,1.9c0.3,1-0.8,2-1.7,1.2c-0.3-0.3-1.2-1-1.2-1.5
	C146.7,32.6,147.1,31.9,148.2,31.9C148.4,32.2,148,31.9,148.2,31.9z"/>
<path class="st0" d="M119.4,46.7c1.1,0.3,0.8,2,2,1.5c0.7-0.3,2-0.3,2.8-0.3c1,0,1.9,0,2.9,0c0,0.5-0.1,0.8-0.1,1.2
	c-0.1,0.6-0.3,3.2-0.7,3.2c0.2,1.5-1.7,1.9-2.8,1.7c-1.2-0.2-2-1.1-2.5-2.2c-0.4-1-0.4-1.9-1.5-2.4
	C118.8,49.2,118.3,46.7,119.4,46.7C119.9,46.8,119.2,46.7,119.4,46.7z"/>
<path class="st0" d="M114.7,53.8c-0.8,0.4-1,1.4-1,2.2c-0.3,0.3-0.5,1-0.7,1.2c-0.3,0.3-1,0.4-1.3,0.8c-0.3,0.3-0.6,0.8-1,1
	c-1.1,0.4-0.8-0.6-1.2-0.6c0-0.6,0.1-1.1,0.1-1.5c0.5-0.3,0.7-0.7,0.8-1.2c-1.5,0.4-2.5,1.7-3.5,2.8c-0.6,0.6-3.1,3.5-4,2.2
	c-0.4-0.7-0.2-1.7-1.2-1.7c-0.7,0-1.3-0.1-2-0.2c-1.2-0.1-1.2-1-0.8-1.9c0.6-1.5,3.7-2.1,5-2.7c1.7-0.9,2.9-2.2,4.5-3.3
	c1.8-1.3,4-1,6.1-1C116.1,51.1,116.2,52.4,114.7,53.8C114.5,53.9,115.2,53.4,114.7,53.8z"/>
<path class="st0" d="M119.2,63.6c0.1,0.4,0.6,0.7,0.7,1.2c0,0.6-0.1,1.1-0.1,1.7c0.1,1.5,0.3,2.8,2,2.6c1.3,0,0.4,2.2,0.3,2.9
	c-0.1,1-0.6,2.5-1.1,3.4c-0.4,0.6-1.3,0.8-1.9,1.2c-0.4,0.3-1,1.1-1.6,1c-1.7,0.5-3.9-0.1-5-1.5c-2.6-3.3,5.1-2.2,4.4-4.2
	c-0.4,0-2.6-0.4-2.6-0.7c-0.2-0.8-0.8-0.7-1.3-0.3c-0.8,0.4-1.1,0.5-1.9,0.5c-1.6-0.8-2.1-2.5-3.5-3.3c-0.3-1.2-0.3-1.4,0.8-2
	c0.6-0.3,0.1-1.2,0.5-1.5c0.7-0.5,1-1,1.2-1.7c0.3-1,1-1.4,1.5-2.2c0.4,0,1.2-0.4,1.5-0.7c0.8-1,3.3-1,3.7,0.3
	C117.3,61.8,117.8,62.7,119.2,63.6C119.2,63.8,118.8,63.3,119.2,63.6z"/>
<path class="st0" d="M105.2,62.3c0.5-0.2,2.3-0.7,2.5-1.2c0.6,0,1.1-0.4,1.4,0.1c0.2,0.5,0.1,1-0.3,1.4c-0.8,0.9-2.2,1.3-2.7,2.4
	c-0.7,0-0.4,0.3-1-0.4C104.4,63.9,104.5,63,105.2,62.3C105.3,62.2,104.7,62.7,105.2,62.3z"/>
<path class="st0" d="M160.8,64.4c1.2,0.1,1.2,0.5,1.3,1.5c0.1,0.5,0.6,1.1,1.2,1.1c0.7,0.6,0.6,1.8,0.3,2.5c0,0.3-0.2,0.3-0.2,0.6
	c0,0.4,0.3,0.5,0.3,0.8c0.5,0.8,1,0.9,1.2,1.8c0.1,0.4,0.8,0.8,1.2,0.8c1.2,0.1,2.4,0.6,3.7,0.7c0.6,0.1,1.2,0.3,1.8,0.3
	s1.7-0.7,2.3-1c1.1-0.6,2.2-1.7,3.4-1.9c0.8-0.2,1.9-0.1,2.8-0.1c0.1,0.3,1.7,0.2,1.9,0.3c0.3,0.3,1,0.6,1.4,0.8
	c1.1,0.4,1.8,1.5,2.7,2.2c0.3,0.3,0.3,0.9,0.6,1.3c0.1,0.1-0.4,1-0.4,1.5c0.1,1-0.2,4.4-1.7,4.4c-1.4,0.6-3.3,1.2-4.6,0.7
	c-1.2,0-0.7-1.5-2.2-0.6c-1,0.6-1.5,1.2-2.6,1c-0.9-0.1-2.2,0.1-3.3,0.1c-1.2,0-2.5,0-3.8,0c-1-0.1-1.2-1-1.8-1.5
	c-0.6,0-1.4,1-1.8,1.4c-0.8,0.6-1.7-0.3-2.4-0.6c-0.3-0.6-1.7-0.3-2.3-0.7c0-0.4-0.3-0.5-0.3-0.8c-0.1-0.3,0.1-0.8,0-1.1
	c-0.1-0.6-0.3-1.2-0.5-1.9c-0.3-1-0.6-2.6-0.1-3.6c0.5-1.2,0.6-3.3-0.3-4.4c-0.8-0.8-0.8-2.1-2.2-2.2c-1.3-0.1-2.6,0-3.7-1
	c-0.9-0.8-2.2-2.4-2.2-3.7c-0.1-1.5,0.9-1.8,2.4-1.8c1.4,0,3.1,0.6,4,1.8C156.6,65,159.6,64.4,160.8,64.4
	C161.5,64.5,160.2,64.4,160.8,64.4z"/>
<path class="st0" d="M98.1,71.7c0,1.1,2.2,3.3,3.3,3.3c0,0.9,3.7-0.5,3.7,1.7c0.8,1.8,1.7,3.8,1.7,5.8c0,2.4-3.4,2-4.8,2.7
	c-1.2,0.6-3.7,1.4-4.5,2.6c-0.6,0-1.5,1.1-1.9,1.5c-0.6,0.6-1.5,1-2.2,1.7c-1,1.2-1.3,3-2.8,3.8c-1.3,0.7-2.8,0.3-4.1,0.6
	c-0.5,0.1-0.6,0.1-1.2,0.1c-0.2,0-0.5,0-0.7,0c-0.5,0.2-0.8,0.1-0.9-0.3c0-0.6-0.2-1-0.2-1.5c0.1-1.5-0.6-3.1-1.2-4.5
	c-0.4-0.8-0.8-1.5-1.2-2.3c-0.8-1.5-0.3-1.5,0.6-2.7c0.8,0,1.5-1.5,1.8-2c0.3-1.1,1.3-1.9,1.9-2.8c1-1.6,2.5-2.9,3.4-4.6
	c0.6-0.3,1.3-1.6,1.3-2.3c0-0.8-0.3-2.4,0-2.8c0.8-1.5,2.7-0.1,4-0.1c0.5,0.6,1.6,0.6,2.2,0.9c0.4,0.1,0.8,0.3,1.2,0.3
	C97.5,70.9,98,71.8,98.1,71.7C98.1,72,98,71.8,98.1,71.7z"/>
<path class="st0" d="M133.3,76.2c-0.1-0.3-0.4-0.1-0.6-0.3c-0.1-0.3,0.1-1.3,0.3-1.6c0.4-0.6,1.5-1.1,1.9-0.3
	c0.1,0.3,0.9,1.7,0.3,1.8C134.8,76,133.9,76.2,133.3,76.2C133.2,75.9,133.5,76.2,133.3,76.2z"/>
<path class="st0" d="M156.8,80.6c-0.3,1.2-1.5,1.2-2.5,1.2c-0.7,0-1.5-1.2-2.2-1.2c-0.1-0.4-0.7-0.6-1-0.8c-0.3,0-0.9-0.8-1.1-1
	c-0.6-0.8,0.3-1.9,0.6-2.6c1-2.1,2.7-3.5,4.9-1.9C157.2,74.2,156.8,79.7,156.8,80.6C156.7,81.1,156.8,79.7,156.8,80.6z"/>
<path class="st0" d="M139.6,87.8c0.3,0.1,0.6-0.1,1.1,0.1c0.6,0.3,1.1,0.6,1.7,0.8c1.2,0.6,2.4-1,3.7-1c0.9,0,1.4-0.3,1.6,0.7
	c0.1,0.7,0.3,1.8-0.3,2.3c-0.6,0.6,0.4,0.7,0.4,1.3c-0.3,0.4-1.5,1.5-1.5,2c-0.1,0.4-0.9,0.7-0.8,1.1c0.2,0.6,1.1,0.4,1.5,1.2
	c0.1,0.4,1.5,4.4,1.5,4.4c0,2-0.1,3.3-1.5,4.9c-0.8,0.8-2.3,0.5-2.3,1.9c-1.3,1.2-2,1.7-3.4,0.4c-0.5-0.4-1.4-1.1-1.4-1.8
	c-0.2-0.6-0.1-1.8-0.7-2.3c-0.8-2.4-6.2-4.5-4.1-7.6c0.2-0.3,0.6-1,0.9-1c0.6-0.1,1.7,0.6,2.1,1c1.4,1.7,1.7-0.7,2.2-1.4
	c0.7-1-0.8-1.9-1.2-2.8c-0.4-0.8-0.5-1.9-0.1-2.7C139.1,88.9,139.6,88.3,139.6,87.8C139.8,87.8,139.6,87.9,139.6,87.8z"/>
<path class="st0" d="M178.9,151.5c0.1,0.6,1.2,2.8,1.8,2.8c1.4,0,3.3,1.5,4.3,2.4c1.2,1,3.7,1.8,4.4,3.3c0.3,0.8,0.8,3.2,1.8,3.3
	c0.7,0.1,1.5-0.2,2.3-0.2c0.8,0.1,1.5,1.5,1.5,2.2c-0.5,1.9-1.9,2.6-3.5,1.9c-1.2-0.4-2.9-0.1-3.5-1.4c-0.6-1.3-2.4-2.8-3.4-1.4
	c0,1.5-1,3-2,4c-0.6,0.6-1.2,1.3-1.7,1.9c-0.1,0.1-1.6,1.2-1.6,0.9c-2.1,0-0.2-2.4-1.7-3.1c-1.2-0.6-2.7,0-4-0.6
	c-1.1-0.6,1.7-2.8,1.7-3.5c0-2.4,0.1-4.8,0.1-7.1c0-0.4,0.3-1.1,0.3-1.5c0.1-0.4,0-1,0-1.3c0.1,0,0.3-0.3,0.3-0.4
	C176.1,152.6,177.3,149.6,178.9,151.5C178.9,151.7,178,150.4,178.9,151.5z"/>
<path class="st0" d="M201.6,167c0.1-0.6,0.8-0.3,1.2-0.1c0.8,0.3,1,0.9,1,1.7c-0.4,0.2-0.8,0.6-1.3,0.1
	C202.1,168.3,201.4,167.7,201.6,167C201.6,166.9,201.4,167.8,201.6,167z"/>
<path class="st0" d="M280.1,265.6c0,0,3.4,2.9,3.5,1.5c2,0,3.6-1,5.5-1c0,0.5-0.5,1.1-0.5,1.5c-0.1,0.6,0.1,1.1-0.1,1.7
	c0,0.6-3.7-0.1-4.3-0.1c-1-0.1-1.6-0.3-2.4-0.5c-0.3-0.1-1.1,0.1-1.2-0.2c-0.1-0.2-0.4-0.2-0.6-0.2
	C278.2,268.4,279.1,265.7,280.1,265.6C280.2,265.6,279.7,265.6,280.1,265.6z"/>
<path class="st0" d="M150.4,45.3c0.8,0,1.3,1.2,2.2,1.2c0.3,0.4,0.8,0.6,1.2,0.8c0.8,0,0.5,0.4,0.6,1c0.3,1.2,0.2,2.5,0.2,3.7
	c-0.8,0.4-1.7,1.7-2.6,1.5c-1.8,0-1.8-3.1-2.6-4.2c-0.6-0.8-0.6-1.3-0.5-2.5C148.9,46,149.3,45.3,150.4,45.3
	C150.6,45.3,148.5,45.3,150.4,45.3z"/>
<path class="st0" d="M155.3,54.1c1-0.3,2.2,1.1,1.9,2c-0.3,1.4-1.7,1.9-2.9,1.8c-0.8,0-2.2-0.9-2.3-1.7
	C151.8,54.5,154.1,54.1,155.3,54.1C155.8,54,154.9,54.1,155.3,54.1z"/>
<path class="st0" d="M136.3,56.6c0,0.6,0.2,1.1-0.5,1.5c-0.8,0.5-1.7-0.6-1.7-1.4c0-1-0.1-1.7,0.5-2.2
	C135.4,53.9,136.1,56.3,136.3,56.6C136.3,56.8,135.8,55.9,136.3,56.6z"/>
<path class="st0" d="M128,60.2c0,0.1-0.1,1.9,0,1.8c0,1.5-0.4,2.6-0.6,4c-0.3,3.5,5.1-0.2,4.6,2.8c0.3,0.9,0.3,2.6-0.1,3.6
	c-0.3,0.6-1.7,3.5-2.6,3.2c-0.6,0.2-1.2,0.3-1.9,0.3c-0.8,0-1.3-0.5-2.1-0.6c-0.5-0.1-0.8-0.4-1.4-0.5s-1,0.7-1.6,0.7
	c0-1.2,0.8-2.6,0.8-4c0.8-1.6,1.1-3,1.3-4.6c0.1-1.2,0.6-2.6,0.6-3.9C125.4,62.1,126.2,58,128,60.2C128,60.4,127.7,59.9,128,60.2z"
	/>
<path class="st0" d="M157.5,86.5c0.7,0,1.2,0.8,1.8,0.7c0.9-0.1,2.1,0.6,2.8,1.2c0.3,0.3,1.1,0.5,1,1c-0.5,0.7-0.9,1.5-1.3,2.2
	c0.1,1.1-1,2.4-1.6,3.3c-0.4,0.6-0.6,3.1-1,3.3c-0.2,0.5-1.9,0.5-2.4,0.5c-3.3-0.2-0.8,4.1-2.9,4.8c-1.2,0.4-1.6,0.1-2.5-0.4
	c-0.7-0.3-0.3-2.7-0.6-2.7c0-1.3-0.3-2.6-0.3-4c0-0.9,0.4-2.1,0.3-2.9c-0.1-0.9,0.3-1.7,0.6-2.6c0.4-1,0.4-2.2,1-3.1
	C153,86.3,156.3,85.6,157.5,86.5C157.7,86.5,157.2,86.3,157.5,86.5z"/>
<path class="st0" d="M117.6,90.6c0.1,0.7-0.6,1.8-0.5,2.3c-0.3,0-0.6-1.2-0.7-1.4C116.3,91,117.4,90.1,117.6,90.6
	C117.6,91.5,117.4,90.3,117.6,90.6z"/>
<path class="st0" d="M190.8,95.1c-1.9,0.7-2.6-0.3-3.4-1.9c-0.6-1.2-1.9-2.9-1.7-4.4c3.3,0,5.8-0.6,8.3,2.2c0.5,0.6,3,3.2,1.1,3.3
	C193.9,94.2,191.7,94.1,190.8,95.1C190.4,95.2,191,94.8,190.8,95.1z"/>
<path class="st0" d="M194.8,124.2c0.1,0.8-1,1.2-1.3,1.8c-1,0,0-1,0.3-1.5c0.3-0.6,0.6-3.9,1.5-3.8
	C195.3,121.3,195.1,123.8,194.8,124.2C194.8,124.6,195.1,123.9,194.8,124.2z"/>
<path class="st0" d="M147.9,126.1c0.1,1,1,1.9,1,2.8c0,0.3,0.3,1,0.1,1.3c-0.1,0.2-0.9,0.8-1.1,0.8c-2.7,1.7-4.6-1.4-6.6-2.4
	c-1.2-0.6-2.1-1.1-1.4-2.4c0.7-1.1,1.7-2.3,2.3-3.5c1-0.6,1.3-2.3,2.6-0.8c0.6,0.7,1.2,1.2,1.7,1.9
	C147.1,124.5,147.4,125.3,147.9,126.1C147.9,126.3,147.3,125.2,147.9,126.1z"/>
<path class="st0" d="M208.4,131c0.6-0.1,1.2,0.3,1.2,0.9c0,1-1,0.8-1.6,0.8c-0.3,0-0.6-0.6-0.8-0.8C206.6,131,207.7,130.9,208.4,131
	C208.7,130.9,207.7,130.9,208.4,131z"/>
<path class="st0" d="M205.7,131.7c0.2,0.9-0.1,1.8,0,2.6c0.1,0.6,0,1.9-0.3,2.3c-0.6,0.7-1.6,1.2-2.5,1.3c-0.6,0.1-1.1,0-1.5-0.3
	c-0.3-0.2-0.6-1-0.9-1.1c0-2.6-0.6-5.1,1.4-6.9c0.4-0.3,2.4-0.7,2.4,0C204.8,129.7,205.9,131.7,205.7,131.7
	C205.8,132.2,205.3,131.7,205.7,131.7z"/>
<path class="st0" d="M199.6,175.9c0.1,0.6,0.1,2.2-0.3,2.6c-1,1-0.8,1.6-2.2,0.8c-0.9-0.5-0.7-2.4-0.3-3.2c0.2-0.5,0.5-1.2,1-1.5
	C198.5,174.6,199.4,175.1,199.6,175.9C199.6,176.2,199.4,175,199.6,175.9z"/>
<path class="st0" d="M303.7,223.8c1,2.6,0,5.8,0,8.5c-0.1,0-0.4,1.8-0.3,2c0.3,1,1.7-1.7,1.9-1.7c0.7,0,1.2,0.4,1.8,0.3
	c0.4,0,0.3,0.8,0.3,1c0,1.3-0.1,1.2,1.2,1.2c1.2,0,2-0.6,3.1-0.8c0.8-0.1,1.6-0.9,2.3-0.9c1-0.1,3.4-1.3,3.7,0.6
	c0.1,1.1-0.3,2.9,1.3,3.1c0.8,0.1,1.5-0.5,2.4-0.1c1,0.5-0.7,2.2-1,2.6c-0.6,0.8-0.1,1-0.1,2c-0.1,0.8,0.8,0.9,0.7,1.4
	c0,0.1,0.5-0.4,0.5-0.8c0.3,0,1.2-1.2,1.5-1.5c0.1,0.2,0.2,0.3,0.5,0.3c0,0.3-0.1,0.8,0.1,1.1c0.5,0.9,1,0.5,1.7,0
	c1-0.7,1.1,0.3,1,1.1c-0.1,1.1,0.1,2.3,0.1,3.5c0,0.5-0.9,2.2-1.5,2.2c-1.4,0-0.8-0.6-1.8-1c-0.5-0.2-0.8,0.8-1,1
	c-0.8,0.6-0.8-1.9-0.8-2.1c-0.1-0.6-0.3-3.3-1.2-3.3c-0.7,0-0.6,1.3-0.6,1.7c-0.3,0.9-0.8,1.2-1.3,1.9c-1,1.2-0.6,2.8-1.2,4.2
	c-0.6,1.5-4.7,1.5-3,0.1c0.4-0.3,1.3-1.8,1.2-2.4c-0.1-1-0.8-1-1.5-0.4c-0.5-0.1-2.1,0-2.7,0.3c-1.5,0.6-2.6,2-4.2,2.4
	c-0.3,0.1-0.8-0.1-1.2,0c-0.3,0.1-0.5,0.3-0.9,0.3c-0.5,0-2.1,0.4-2.4,0.8c-1.6,0-4.2,2.6-4.6-0.2c-0.1-1.1,0.8-1.5,0.8-2.4
	c0.8-0.2,0.1-1.4,0.1-1.8c-1.4-0.6,0.1-2.8,0.1-3.9c0.1-1-0.1-1.8-0.1-2.7c0-1.7,0-3.4,0-5.1c0-1.2,0.1-2.8,0.3-4
	c0.3-1.2,0-2.4,0.3-3.5c0.3-1,0-1.9,0.5-2.7C300.8,224.7,302.2,222.6,303.7,223.8C303.9,224,303.5,223.5,303.7,223.8z"/>
<path class="st0" d="M283.7,247c1.8,0,2.2,2.3-0.2,2.2c-0.5,0-3-0.1-3.3,0.3c-0.9,0-1.7,0-2.6,0c-0.1-0.2-1.3-0.8-1.5-0.8
	c-0.4-0.8-3-0.3-3-1.5c1.1-1.3,1.8-0.9,3.5-1.2C279,245.5,281.5,246.3,283.7,247C283.9,247,283.3,246.8,283.7,247z"/>
<path class="st0" d="M296.9,262.4c-0.3,2.5,4.7,2.2,2.2,5.3c-0.8,1-2,1.1-2.6,2.2c-0.7,1.1-2.6-1.8-3.3-2.4
	c-0.6-0.6,1.7-5.2,2.1-5.9c0.2-0.4,0.3-1.6,0.9-1.6c0.2,0.2,0.7,0.9,0.7,1.2C296.9,261.3,296.6,262.2,296.9,262.4
	C296.9,262.6,296.6,262.3,296.9,262.4z"/>
<path class="st0" d="M138.5,38.6c0.4,0.1,0.6-0.1,1-0.1c0,0.1,0.8,0.3,0.9,0.3c1.1,0.3,1,1.8,1.9,2.2s1.6,1.1,2.4,1.7
	c0,0.1,0.6,1.4,0.8,1.3c0,0.9,1.2,1.3,1.3,2.4c0.1,1-0.4,1.2-0.6,2.2c-0.1,1,0.9,1.9,1.5,2.6c0.6,0.7-0.6,2.2-1.3,2.2
	c-1.7-0.8-2.8-4-4.8-4c-0.1-0.3-1.1-0.1-1.2-0.1c-0.8,0-1.3,0-2-0.5c-0.6-0.4-1.3-1.5-1-2.3c0.3-0.9,1.2-0.7,1.8-1.4
	c1,0,0.1-1.3,0.1-1.7c-0.2-1-1.1-1.5-1.6-2.3C136.9,39.9,137.7,39.4,138.5,38.6C138.9,38.7,138.1,39,138.5,38.6z"/>
<path class="st0" d="M125.8,42.9c0.8-0.2,2.5-0.6,2.5,0.5c-0.6,0.1-0.3,3.3-1.2,3.1c0-0.9-3.1-1.9-3.8-2
	C123.1,43.5,125.3,43,125.8,42.9C126,42.8,125.1,43.1,125.8,42.9z"/>
<path class="st0" d="M142.8,64.1c1.8-0.1,3.3-0.1,5,0.5c1,0,0.3,6.4,0.3,7.3c0,1.4-0.9,3.1-0.3,4.4c0,1.7-1.5,1.5-2.8,1.2
	c-2.2,0-3.6-3-1.3-4.4c-1.3-0.6-2.9,0.3-4.3-0.1c-1.5-0.3-0.8-2.2-1.4-3.1c-0.6-1-2.2-1.1-2.6-2.3c0-1.2,1.8-1.1,2.5-0.8
	c1.2-0.1,1.7,1.7,2.3,2.4c0.7,0.8,2.5,1.7,3,0.4c0.3-1-0.5-2.4-1.3-2.7C139.8,65.8,141.8,65,142.8,64.1
	C143,64.1,142.1,64.7,142.8,64.1z"/>
<path class="st0" d="M170.9,88.6c1.4,0,4.2-0.6,4.7,1.1c0.3,0.9-0.3,1.5-0.9,2.2c0,0.3-0.4,0.6-0.6,0.9c-0.2,0.6-0.2,1.1-0.6,1.7
	c-0.4,0.8-1.7,4-0.9,4.9c0,1.1-0.3,4,1.1,4c0.9,0,1.4-1.9,1.7-2.6c-0.7-0.8-1.2-2.2-1.2-3.2c0-1.3,0.1-1,0.9-1.9
	c0.8-1,1.1-2,1.7-3.1c0-0.6,0.8-1.3,1.2-1.7c0.3-0.3,2.2-1.1,2.2-1.5c0.8,0,1.7-0.4,2.6-0.1c0.5,0.1,1.4,1,1.4,1.5
	c0,0.4,0.7,0.8,0.7,1.2c0.3,0.7,1.5,2.2,1.5,3c0.1,0.6,0.3,1.6,0.5,2.3c0.2,1,0.8,2.2,2.1,2c0.7-0.1,1-0.5,1.7-0.5
	c0.8,0,0.4-0.8,0.6-1.3c0.2-0.8,2.2-1.9,3.1-1.9c1,0,1.5-0.1,2.1,0.3c0.8,0.5,1.7,0.3,2.6,0.9c0.8,0.6,1,1.4,1.4,2.1
	c0.5,0.8,1.8,0.3,1.6,1.4c0,1.5,1.7,2.4,2.6,3.2c0.8,0.6,1.2,1.2,1.6-0.1c0.3-1,0.4-1.3,1.6-1.3c0.6,0.5,1.3,0.3,1.9,0.7
	c0.6,0.5,0.8,1.2,1.2,1.8c0.6,0.8,1.6,2.2,2.5,2.8c0.6,0.4,0.8,0.6,1.6,0.2c0.3-0.2,1.5-0.9,1.9-0.1c0.9,0,2.4,1.8,1.7,2.8
	c-0.3,0.1-0.2,1.1,0,1.3c0.7,0,1-0.6,1.3-1c1-1.4,3.2,1.6,3.6,2.5c0.3,0.7,0.1,1.6,0.4,2.2c0.3,0.6,1.5,1.1,1.9,1.7
	c1.3,1.6-1.9,1.9-3,1.7c-0.1,0.9,0.5,1.6,0.5,2.5c-0.6,0.1-0.2,2,0.1,2.2s1.5,0.4,1.7,0.8c0.6,0.6,1.7,1,2.4,1.3
	c1,0.6,3.1,0.8,4.2,0.8c1.2,0,2.1-0.3,3,0.6c0.6,0.7,1.5,2,2.5,2c0.6,0.5,1.5-0.1,2,0.3c0.3,0.3,0.1,1.8,0.8,1.7
	c0.6,0,1.5-0.6,2.2-0.6c1.5-0.5,1.2-0.4,2.5,0.1c1.4,0,0.6,3.8,0,4.5c-0.6,0.6-0.1,1,0.1,1.6c0.3,0.6-0.3,1.6-0.3,2.3
	c0.1,1.2-0.3,1.1-0.8,2.1c-0.4,0-1-0.1-1,0.5c-0.5,0,0.1,1.5,0.5,1.5c0.2,0.3,0.1,0.7,0.3,1c0.3,0.6,1.1,0.7,0.4,1.4
	c-0.3,0.3-0.8,0.6-1.3,0.6c-0.8,0.2-0.6-0.3-1.4-0.2c-0.4-0.9-1.7-0.7-2.4-1.1c-1-0.6-1.2-1.2-2-2.1c-0.4-0.5-1.3-1.9-2.1-1.9
	c-0.2-0.5-0.6-0.7-1.2-0.7c-0.3,0-0.6-0.4-0.8-0.6c-0.6-0.6-1.8-1.2-2.6-0.6c-0.7,0.6-1.9,0.8-0.8,1.7c0.4,0.3,1,2.2,0.3,2.2
	c-1.9,1,1.1,1.9,1.9,2.2c0.6,0.3,1,1.5,1.5,2c0.6,0.8,1.7,1.3,2.5,1.4c0.5,0.6,1.7,0.3,2.3,0.8c0.4,0.1,1.1,1.6,1.6,2
	c0.8,0.6,1.1,1.5,1.7,2.2c0.6,0.6,2.9,2.4,2.9,3.1c0,2.3-0.1,4.5-0.1,6.8c-1.8,0-3.9-0.8-5.4-1.6c-0.3-0.1-1.3-0.6-1.7-0.6
	c-0.7,0-1.4-1-2.2-1c-0.8-0.8-3-2-4.2-1c-0.2,0.2,1.8,2.2,2.2,2.6c0.6,0.6,4.9,1.9,4.9,2.6c0.8,0.3,1.5,0.8,2.1,1.2s1.7,0.7,2.1,1.4
	c0.3,0.8,0.3,1.8,0.1,2.6c-0.1,0.7-2.7,0.3-3.4,0.1c-1.7-0.3-3.7-0.1-5.3-0.3c-0.3-0.1-0.8,0.1-1.2,0c-0.4-0.2-0.6-0.6-1-0.8
	c-0.4,0-1.2-0.9-1.8-1c0.1-0.2-3.9-0.5-4.4-0.9c-0.5-0.3-1-0.4-1.7-0.7c-0.9-0.4-1.2-1-1.9-1.7c0-0.1-0.1-0.2-0.1-0.5
	c0-0.6,0.4-0.5,0.7-1c0-0.7-0.7-0.8-1.2-1.1c-1.2-0.6-2.9-1.2-3.9-2.4c-0.9-1.1-1.7-1.7-3.3-1.9c-0.4-0.1-1.7-0.2-1.7,0.5
	c-0.3,0-0.6,0.3-0.8,0.5c-0.4,0-1-0.1-1.4,0c-0.6,0.1-1.5,0.8-1.9,1.2c-0.6,0.7-1.3,0.8-2.3,0.8s-1.9-0.1-2.8-0.1
	c-0.1-0.3-0.7-0.3-1-0.3c-0.3-0.3-0.7-1.2-1-1.5c-0.1-0.1-0.3-1.9-0.3-2.2c-0.1-0.9,0.8-1.3,1.2-1.9c0.4-0.6,0.3-1.3,0.3-1.9
	c0.7-0.6,2.1-0.1,2.5-0.7c1.9,0,3.9,0.3,5.5-0.8c1-0.7,1.4-0.9,2.5-1c0.9-0.1,0.4-1.6,0.2-2.2c-0.6-1.4-2.6-1.5-2-3.3
	c0-1,1-2.6,1.6-3.5c1.1-1.7,2.2-3.5,1.3-5.6c-0.8-1.9-2-3.8-3.5-5.4c-0.6-0.7-1-1.5-1.9-2.1c-0.1,0-1.3-0.8-1.5-0.9
	c-0.5-0.6-0.8-2.1-1.7-2.1c-0.8,0-1.7,0.6-2.4,1c-0.3,0.2-1.5,1-1.6,0.3c-0.2-0.9,0.3-1.2,0.8-1.7c0.9-0.8,0.6-1.6-0.7-1.6
	c-0.7-0.5-1.5,0.6-2.3,0.3c-0.1-0.5-0.1-1.2,0.3-1.5c0.1,0,0.3,0,0.2-0.1c-0.1-0.5-0.6-1-0.8-1.3c-0.8-1-1.9-2.4-3.2-2.8
	c-0.4-0.1-0.8-0.1-0.9,0.3c-0.1,0.4-0.1,0.8-0.1,1.2c-0.9,0.1-1.7,0-2.6,0c-1.7-0.1-3.5-0.1-5.1,0.1c-0.6,0.1-1.1,0.6-1.9,0.7
	c-2.4,0.1-4.9-0.1-7.1-0.3c-1.5-0.2-3.2,1-4.1-0.5c-0.3-0.5-0.4-1.3-1-1.5c-0.8-0.3-2.8,0.1-3.7,0.1c-1.5,0-3.8-3.5-3.7-5
	c1.4,0,2.8-0.5,4.2-0.5c-0.4-2.5-5-0.1-5-3.1c-0.1-2.3-0.5-4.7,0-7.1c0-0.7,0.3-1.9,0.6-2.6c0.3-1,0.9-2.2,0.9-3.3
	c0.5-0.1,0.5-1,0.5-1.3c0.3,0,0.4-0.5,0.6-0.8c0.3-0.6,0.3-1,0.7-1.6c0.5-0.7,0.7-1.2,1.2-1.8C169.5,89.3,170.2,89.2,170.9,88.6
	C171.1,88.6,170.6,88.9,170.9,88.6z"/>
<path class="st0" d="M197.9,240c1,0,2.1-0.2,2.9,0.2c0.6,0.3,1.5,1.9,0.5,2.1C200.5,242.4,196.4,241.5,197.9,240
	C198.2,240,197.7,240.2,197.9,240z"/>
<path class="st0" d="M275,260.4c0.6-0.1,1.1-0.3,1.5,0.3c-0.4,0.3-0.9,1.3-0.8,1.8c0.1,1-0.1,1.9,0.3,2.8c0.2,0.4,0.5,0.8,0.8,1.1
	c0,0.6,0.1,1,0.5,1.4c0.9,1,1.8,2.4,3.3,2.2c0.1,0,1.7,0.1,1.7,0.3c-0.3,0.8-1.2,1.2-1.7,2c0,0.2-0.9,1.5-1,1.7
	c-0.5,0.6-0.9,1.5-1.5,2c-0.4,0.4-1,1.7-1.6,1.7c-0.4,0.3-0.9,0.8-1.3,1.2c-0.3,0-0.7,0-1,0.2c-1.3,0.7-1.5,1.9-3.2,1.9
	c-0.6,0-1.4-0.2-1.8-0.6c-0.7-0.6-0.6-1.5-1.2-2c-0.8-0.7-2.2-1.7-2.2-2.9c-0.3-0.8-0.4-1.6-0.6-2.4c-0.1-0.3-0.1-1.7-0.3-1.8
	c0-2.1-1.5-2.8-3.3-3.5c-0.9,0-1.1-0.4-1.2-1.2c-0.1-0.5-0.1-1-0.1-1.5c0-0.9,0.4,0,0.5-0.6c1.3,0,2.6,0,3.8-0.5
	c0.6-0.2,0.9-0.7,1.4-1c0.6-0.3,1.5-0.6,2.1-1c0.8,0,1.2-0.3,2.1-0.3c0.8,0,1.5,0.5,2.2,0.3c0.6-0.2,0.7-1,1.3-1
	C273.6,261.1,275,260.6,275,260.4C275.2,260.4,274.9,260.7,275,260.4z"/>
<path class="st0" d="M290.5,269.7c1.3,0.1,5.3-0.1,5.3,2.2c-0.5,0.7-2,1.6-2.2,2.5c-0.6,0.5-2.1,2.5-2.8,2.5
	c-0.6,0.6-1.7,1.7-2.5,1.7c-0.8,0.3-1.1,2.3-1.8,2.3s-1.3-0.3-1.7,0.3c-0.2,0.3-0.3,1.3-0.4,1.5c-0.4,0.3-1.5,2.9-1.5,3.5
	c-1.7,1.6-3.3,4.9-5.8,2.4c-0.3-0.3-0.6-0.8-0.9-1.2c-0.3-0.5-0.1-1.2-0.6-1.6c0-1.4,0.1-1.7,0.7-2.6c1-1.7,2.4-3.7,4-5.1
	c0.7-0.6,1.4-0.8,2.1-1.2c0.3-0.2,0.2-0.6,0.8-0.6c0.4-0.3,0.9-0.6,1-1.2c-1.4,0-2.6,1.5-4,1.3c0-2.6,2.6-5,5-5.3
	c1.1-0.1,2.1-0.1,3.1-0.2c0.3-0.1,0.2-0.3,0.7-0.3C289.3,270.5,290.4,270.1,290.5,269.7C291.1,269.7,290.4,270,290.5,269.7z"/>
<path class="st0" d="M3,199.7c0.3-0.4,0,0.6-0.1,0.1c0.1,0.5-0.7,0.8-0.9,1.2c-0.2,0.6-0.2,1.3-0.1,1.9c0.4,1.7,1.1,3.4,1.1,5.1
	c-0.9-0.1-0.6-1.5-1.2-1.8c-0.1-0.3-0.5-2.6-0.7-2.6c0-2.4-0.6-5.3,0-7.6c0.2-0.9-0.1-1.7,0.5-2.6c0-1,0.6-0.7,1.3-0.3
	c0.7,0.3,1.3,0.6,1.9,1C7.6,196.2,4.5,197.9,3,199.7z M18.9,232.8L18.9,232.8C19.1,233,19,232.9,18.9,232.8z M22.8,243.5
	c-0.4-0.3-0.4-2-0.6-2.6c-0.1-0.3-0.3-1.1-0.3-1.2c-0.4-0.3-1.2-1.2-1.2-1.7c-0.6-0.1-1.4-1.9-1.3-2.3c0-0.6-0.1-2.4-0.5-2.8
	c-0.2-0.3-0.1-0.2-0.1-0.1c-0.3-0.5-0.6-1.4-0.6-1.9c-0.4-0.2-1.2-1-1.2-1.5c-0.5-0.2-1.2-1.2-1.5-1.7c0-0.6-1.2-0.8-1.2-1.5
	c-1.1-1-2.9-4-4.4-4.1c-0.8-0.1-1.5,0.6-1.7,1.3c0,0.4,0.4,1,0.5,1.5c0,1.8,1.2,3.9,2,5.5c0.3,0.6,0.8,0.9,1,1.6
	c0,0.6,0.8,1.7,1.1,2.2c0.4,1,1,1.8,1,2.9c0.4,0.6,0.8,1.4,1.5,1.8c0.7,0,0.7,0.6,0.7,1.2c0.7,1.4,1.4,2.8,2.5,3.7
	c1.3,1.1,2.1,1.9,3.8,1.9c1.4,0,0.8-0.1,0.7-1.2C23.1,244.3,23,243.6,22.8,243.5z M12,151.7c-3-2.1-5.3-3.7-6.8-5
	c-0.1,0.1-0.1,0.2-0.1,0.4c0,0.4,0.1,0.9,0.1,1.2c0.1,0.7,0.4,1.1,0.6,1.8c0.1,0.6,0,1.3,0.2,1.9c0.3,0.8-0.3,1.8-0.3,2.6
	c0.6,0.1,1.2-0.5,1.7-0.8c0.7-0.3,1.5-0.4,2.2-0.7C10.8,153.1,11.2,151.9,12,151.7z M47,219.8l1.2-3.8c0.1-0.8,0.2-1.5,0.4-2.2
	s0.5-1.7,0.9-2.4c0-0.6,0.3-1.5,0.7-1.8c0.3-1.4,0.8-3.1,1.4-4.3c0.3-0.6,0.4-1.8,0.9-2.2V203c0-0.5,0.2-1.2,0.6-1.7l0.1-0.3
	c0.1-0.4,0.2-1,0.5-1.3l0.4-1.2c0-0.1,0.1-0.2,0.1-0.3l7.1-21.2c-7.5-2.8-14.1-5.7-19.8-8.4c-11.4-5.4-20.3-10.8-26.7-15
	c0.2,0.6,0.3,1.2,0.4,2c0.2,1.5,1,3,1,4.4c0,1,0.5,2,0.5,3.1c0.4,0.1,0.3,3.5,0.3,4c0.2,0.1,0.6,3.1,0.6,3.5s-0.7,4.2-0.9,4.2
	c0,2-0.4,3.6,0.8,5.4c0.3,0.5,0.7,1.5,1.1,1.8s1,1,1.3,1.5c0.3,0.6,0.3,1.5,0.3,2.1s-0.6,1.4-0.6,1.9c-0.6,0.7-1.2,1.4-1.5,2.2
	c-0.2,0.6-0.2,1.4-0.5,1.9c-0.5,1.1-1.9,1.9-2.8,2.4c-1.7,0.9-2.8,1.1-2.8,3.3c0.1,1.6-0.2,3.2,0,4.9c-0.1,1,2.2,3.1,0.7,3.8
	c0,0.4-0.5,0.6-0.5,1c-0.1,0.5,0,1,0.1,1.5c0.3,0.8,0.8,1.2,1.2,1.9c0.3,0.6,0.2,1.2,0.5,1.7c0,0.9,0.8,2.2,0.1,3
	c-1.7,1.8-1,4.4-1,6.8c0.3,0,0.1,0.7,0.1,0.8c0,0.6,0.3,0.3,0.5,0.8c0.5,0.3,1,0.3,1.5,0.8c0.6,0.8,1.5,0.1,1.4,1.4
	c0,0.8-0.1,1.6,0.3,2.4c0.8,1.4,2.6,2.1,3.1,3.7c0.3,0.9,0.1,2.1,0.5,2.9c0.1,0.4,0.9,1.6,1.3,1.6c0.6-0.1,0.6,1,0.7,1.3
	c0.6,0.4,1.8,1.3,2.2,1.9c0.4,0.7,0,2.1,0.7,2.5c0.5,0.3,1.4,0.8,1.9,0.8c1.7,0.5,3.6,1.2,5.2,1.9c0.7,0.3,1.5,0.5,2.2,0.8
	c0.4,0.2,1.2,0.8,1.7,0.8c0.7,0.2,1.5,0.4,2.2,0.8c0.8,0.3,1.7,0.6,2.4,1.1c1.2,0,2.2,1.2,3.3,1.2c0.7,0.2,1.5,0.4,2.2,0.8
	c1.2,0.6,2.9,1.4,4.2,1.7c0.4,0.1,2.5,0.2,2.6,0.8c0.3,0,2.2,0.2,2.2,0.7c1.6,0,2.9,1.1,4.4,1.3l-1.2-1.9l1.2-7.7L47,219.8z"/>
<path class="st0" d="M3.9,139.8c0.8,0.3,3.1-0.1,3.5,1c0,1.5-2.1,2.2-2,3.5c1.4,1.1,3.9,3.1,7.6,5.6c0,0,0,0,0.1,0
	c0.3,0.2,0.6,0.4,0.8,0.6c0.9,0.4,3.3,1.9,3.3,2.2c0,0,0,0,0.1,0c0.5,0.1,3.1,1.7,3.1,2l0,0c0.6,0,1.1,0.8,1.5,0.8
	c0.6,0.3,1.3,0.7,1.9,1.1c0.9,0.7,2.1,1.1,3,1.8c0.1,0.1,0.1,0.1,0.2,0.1c4.6,2.6,9.8,5.4,15.7,8.3c1.9,1,4.1,1.9,6.2,2.8l0.4-4.1
	c-0.3-0.2-0.7-0.1-1.2-0.4c-1.2-0.8-2.6-1.2-4-1.9c-0.2-0.1-0.4-0.3-0.6-0.4l-1.5-0.6l1.4-5.1c-0.2-0.7-0.8-1.5-1-1.9
	c-0.3-0.6-0.4-1.3-0.6-2c-0.5-1.3-0.6-2-1.5-3.1c-0.8-0.9-0.1-1.5-0.1-2.4c0.4-1.2,0-2.6,0.3-3.8c0.2-0.6,0.2-1.5,0.4-2.4l0.3-3.5
	l-2.3-10.3l0.5-1v-0.1c0,0,0,0,0.1,0l0.8-1.6c0.1-0.6,0.3-1,0.7-1.5l0.5-1.1l-0.4-3.7c-0.3-0.6-0.2-1.5,0.1-2.4l0.4-4.8l-2.4-2.8
	c-0.1-0.1-0.3-0.3-0.3-0.4l-1-1.1l2.3-4.7c0.1-0.2,0.1-0.4,0.1-0.6c0.1-0.5,0.7-2,1.2-2.2c0-0.6,0.4-1,0.8-1.6l2.2-4.4
	c-0.4-0.5-1.3-1-1.3-1.6c-0.6-0.3,0-1.2-0.5-1.5c-0.1-0.1-0.5-1-0.6-1.2c-0.4-0.9-0.7-2-0.9-3.1c-0.2-1.5-1.5-2.7-3.1-2.7
	c0.1,0,0,0.1,0,0c0,1.5-2.5,3.9-3.4,5.1c-1.2,1.7-2.2,3.7-3.5,5.3c-1.5,1.7-2.5,3.8-3.7,5.7c-1.2,1.7-2.4,3.4-3.5,5.1
	c-4.5,6.7-9.4,13.5-13.7,20.4c-1.3,2.1-2.8,4-4.2,6.1c-1.1,1.7-2.8,3.3-3.5,5.3c-0.3,0-1,1.5-0.7,1.8C2.6,138.8,3.7,138.8,3.9,139.8
	z"/>
<g>
	<path class="st0" d="M151.5,104.6c0.1-0.1,0.3-0.3,0.4-0.3C151.6,104.4,151.4,104.6,151.5,104.6z"/>
	<path class="st0" d="M187.1,135.3c-0.7-0.3-0.3-1.3-0.7-1.8c-0.2-0.3-0.8-0.7-0.8-1c-0.8-0.3-0.1-0.8,0.2-0.8
		c0.6-0.1,0.8-1.1,1.5-1.1c0.4-1.2,1,0.2,1-1.3c0-0.5-0.6-1.4-0.8-1.8c0-0.3-0.7-0.4-0.1-1c0.6-0.6,0.6-0.7,0-1.2
		c-0.6-0.6-0.8-0.6-1.5-1c-0.4-0.2-1.2-1.1-1.5-1.1c-0.8-0.5-1-1.2-2-1.4c-0.4-0.1-1.2-0.6-1.6-0.6c-0.6,0.1-0.9-0.6-1.3-0.6
		c-0.6-0.1-1.5,0-2.2,0c0,0.4-1.1,0.1-1,0.7c-0.1,0.1-0.6,1-0.5,1.2c0.5,0.1,0.6,2.6,0.8,3.1c0.6,1.4,1.3,1.5,0.3,3.2
		c-0.1,0.3-1,2.7-1.3,2.6c-0.1,0.7-0.3,1.8-0.6,2.5c-0.3,0.6-0.8,1.5-0.8,2.2c-0.4,1.2-0.2,2.3-0.8,3.5c-0.6,0-0.7,1-1.7,0.8
		c-0.5-0.8-1-1.5-1.4-2.2c-0.4-0.8-1.4-2.2-1.3-3.3c0.1-0.8,0.6-1.2,0.9-1.9c0.3-0.9,0-1.8-0.2-2.7c0-0.7-2.9-4.3-3.7-4.3
		c-1.2,0.7-1.7,1.2-1.9,2.6c-0.1,0.6-0.2,1.1-0.3,1.7c-0.1,1.5-0.1-0.1-0.3,1c-0.4,1.7-0.7,0.5-0.7-0.7c-0.1,0-0.3-1.5-0.3-1.5
		c-0.6-0.5-0.7-1.5-1.2-2c-0.4-0.4-0.8-1.6,0.1-1.8c0.6,0,0.8-0.3,1.5-0.3c0.7-0.8,1.8-0.5,0.1-1c-1.2-0.4-1.9-0.6-3.1-0.6
		c0.1,0.3-1.2-0.1-1.3-0.1c-1.7-0.7-0.5-1.7-0.5-3.1c0-0.9-0.3-1.1,0.9-1.1c1,0-0.4-2.4-0.8-3c0-0.3-0.7-0.8-0.7-1.2
		c0-0.5-0.8-1.3-0.8-1.9c-0.3-2.2,0.1-4.1-1.6-5.6c-1.1-1-1.7-2.9-3.3-2.9c0.1,0-0.3,0.3-0.4,0.3c-0.8,0.8-1.5,1.7-2.1,2.6
		c-0.6,0,0.2,0.8,0.1,1.1c-0.1,0.3-2.1,2-2.3,2c0,0.7-0.4,0.9-0.6,1.5c-0.2,0.8,0.3,1.7,0.6,2.4c0.7,1.5,0.1,3.5,0.1,5.2
		c0,1.2,1.4,2.1,2,3c0.7,0,1.9,0.8,2.5,1.2c1,1,0.8,1.2,0.6,2.4c-0.1,0.8-0.1,1.2,0.5,1.8c0.5,0.6,0.8,2.3,0.3,2.9
		c-0.4,0.6-0.5,1.4-1,2.1c-0.6,0.7-1.3,1.2-2.2,1.4c-1,0.3-2-0.2-2,1.2c0,0.8,0,1.7,0.2,2.5c0.1,0.5,1,3.2-0.2,3.1
		c-0.2-0.9-0.8-1.7-1.7-2.2c-0.1-1,0.8-1.9,0.7-2.8c0-0.1,0.1-1.2,0.5-1.2c0-0.5,0-1,0-1.5c-0.3,0-1.2-0.6-1.5-0.8
		c-1.6-0.3-2.7-1.3-4.5-1.3c-1.2,0-1.6,2.8-1.6,3.8c0.1,1.8-1.6,0.8-2.9,0.5c-1.6-0.4-3.5-0.5-5.2-0.5c-0.6-0.1-1.4-0.1-2.1-0.1
		c-0.4,0-1-1.1-1.2-1.5c-0.6-0.9-1.1-1.8-2.2-2c-0.8,0-1.6-0.5-2.2-1c-1-1-2.2-2.2-2.2-3.7c-0.2-0.8-0.8-2.4-1.8-2.3
		c0,0.2-1.4,0.5-1.6,0.6c-1.2,0.3-2.5,0.2-3.6,0.8c-0.8,0.4-1.4,0.6-1.5,1.5c-0.1,0.8,0.1,1.6,0.8,1.9c1.5,0.8,3.5-1.5,5.2-1
		c-0.1,0.8-1.3,1.2-1.9,1.7c-1.1,0.8-2.4,1.2-3.5,1.8c0,0.6,0.6,5.9-0.5,5.8c-0.1-1.1-0.3-2.4-1-3.3c0-0.6-0.7-1-1-1.5
		c-0.7-1-1.5-1.9-2.1-2.8c-1-1.5-1.7-0.3-3.1-0.2c-1.1,0.1-2.2,0-3.3,0c-0.6-0.1-1.3-0.2-2-0.4c-0.4-0.1-1.9-0.4-2.2-0.8
		c-0.2,0.1-2.1-0.7-2.4-0.8c-0.8-0.5-1.9-2.6-0.3-2.8c0.3,0,1-0.5,1.3-0.5c0.6-0.1,1-0.1,1.7-0.3c1.7-0.5-0.3-2.9-0.7-3.7
		c-0.4-1-2.3-3.1-3.5-2.4c-1,0.6-3.2-1.5-3.9-2.2c-1.3-1.4-2.3-3.2-4-4.2c-1-0.6-1.5,2.6-2,3.4c-0.1,0.2-0.6,1.5-0.6,1.9
		c-0.1,0.1-0.1,0.3-0.3,0.6l-0.9,2.8c-0.1,1,0.7,1.7,1.3,2.4c0,0.1,0,0.1,0,0.1l1.2,1.5c0.1,0.1,0.1,0.1,0.1,0.1v0.1L99.2,142
		l5.3,0.6l3.6,5.7l19.4,10.5l-3.1,32c3.1,0.4,6.2,0.8,9.4,1.2h0.1c4.5,0.5,9.1,0.9,13.9,1.2c0-0.8-0.1-1.7,0.3-2.4
		c0.3-0.6,1.6-4.5,2.1-4.5c0.1-1.2,0.8-2.5,1.6-3.5c1.1-1.3,1.7-2.8,2.8-4.3c0.8-1,1.7-1.9,2.6-2.8c-0.1-0.6-1-1.3,0.1-1.3
		c0.6-0.6,2.4,0.3,2.8-0.3c0.1-0.1,1.4-1.2,1.5-1.2c0-0.8,0.3-1.8-0.1-2.5c-0.3-0.6-0.9-0.9-1.3-1.4c-1-1.2,1.1-0.8,1.7-0.6
		c1.5,0.3,1.6,0.1,1.9-1.2c0.3-1.5,2.2-1.3,3.5-1.3c0-0.3,1-0.1,1.2-0.1c0.5-0.2,0.8-0.6,1.1-1c0.6-0.8,1-1.5,1.4-2.3
		c0.6,0,2-3.2,2.3-3.7c0-0.8,0.3-1,0.3-1.8c-0.1,0-1.1-0.8-1.2-1c-0.3-0.6,1.5-2.8,1.9-3.3c0.6-0.8,1.3-1.5,1.6-2.4
		c0.4-1.3-0.6-1.7-1.3-2.6c0-0.8-0.1-1,1-1.1c0.4-0.1,1.2-0.3,1.6-0.1c0.6,0.3,1.2,1.5,2.1,1.5c0.8,0.1,1.5-0.3,2.2-0.3
		c0.6,0,1.3,0.7,1.3-0.5c0-0.5-0.5-1-0.5-1.5c0.9,0,2.1,1.6,3.3,0.8c0.8-0.6,1.3-1.4,1.7-2.4c0.3-0.7,0.9-1.4,1.3-2
		c0.4-0.8,0.8-2.3,0.8-3.1c0-0.7-0.5-1.2-0.5-1.9C188.3,136.4,187.1,136,187.1,135.3z"/>
</g>
<g>
	<path class="st0" d="M83,162.1C82.4,161.7,83,162.2,83,162.1L83,162.1z"/>
	<path class="st0" d="M45.8,95.4L40.2,107l2.4,2.8c0.7,0.5,1.2,1,1.2,2.2c0.4-0.1-0.3,1.5-0.5,1.8l-0.4,4.2l0.1,1.1
		c1,1,0.6,2.2,0.3,3.3l0.1,0.4l-0.1,0.3c-0.1,0.3-0.1,0.5-0.3,0.7l-2,4.2l1.9,8.5c0.1,0.3,0.1,0.6,0.2,0.9l0.1,0.5l-0.8,10.7
		l3.1,8.4l-1,3.9l7,2.5l-0.7,7.1c1.1,0.5,2.2,1,3.4,1.5c0.4,0.1,0.8,0.3,1.2,0.5c0.8,0.3,1.5,0.6,2.3,0.9c0.9,0.3,1.8,0.7,2.7,1
		c0.3,0.1,0.6,0.3,1,0.3c1,0.4,2.2,0.8,3.3,1.2c0.2,0.1,0.3,0.1,0.6,0.2c1.2,0.4,2.5,0.9,3.7,1.3c0.1,0,0.1,0.1,0.2,0.1
		c1.2,0.4,2.6,0.9,3.9,1.3c0.1,0,0.1,0.1,0.2,0.1c5.5,1.8,11.5,3.6,17.8,5.2h0.1c1.5,0.4,3.1,0.8,4.7,1.2H96
		c1.6,0.3,3.2,0.8,4.8,1.1c0.1,0,0.1,0,0.2,0.1c1.6,0.3,3.1,0.7,4.7,1c0.1,0,0.3,0.1,0.3,0.1c1.5,0.3,3.1,0.6,4.6,0.9
		c0.2,0.1,0.4,0.1,0.6,0.1c1.5,0.3,3.1,0.6,4.6,0.8c0.3,0.1,0.6,0.1,0.8,0.1c1.5,0.3,3,0.5,4.5,0.7c0.3,0.1,0.7,0.1,1,0.1
		c0.1-0.1,0.1-0.2,0.1-0.4c0-0.3,0.1-1.4,0.2-1.8c0.1-0.3,0.1-0.6,0.2-1l0.3-3.3c0-0.1,0-0.3,0-0.4c-0.1-0.7,0.2-1.2,0.1-1.9
		c0-0.5,0.1-1.6,0.2-2.2c0.1-0.4,0.2-0.9,0.3-1.4l0.3-2.6c0-0.1,0-0.2,0-0.3c-0.1-1.4,0.3-2.8,0.3-4.2c-0.1-1.4,0.5-2.8,0.5-4.2
		c0-0.1,0.1-0.3,0.1-0.5l0.2-2.4c0-0.6,0-1.1,0-1.6c-0.1-0.8,0.3-1.7,0.2-2.6l-18.5-10l-3.3-5.3c-0.1,0-0.1,0-0.2,0
		s-0.3-0.1-0.7-0.1l-4.2-0.5L81,120.7l4-12.5c-0.4-0.1-0.6-0.9-1-1c0-1.2-1.7-1.9-2.6-2.2c-1.6-0.3-2.2,0.7-3.3,1.3
		c-0.8,0.4-1.2-0.1-1.9-0.3c0-0.8,0.5-1,0.9-1.6c0.3-0.5,0.3-3.7-0.3-3.7c-1,0.8-4,4.8-5,2.8c0-0.5-0.3-1-0.3-1.6
		c-0.1-1.2,0-2.4,0-3.7c0-0.6-0.1-1-0.2-1.5l-0.1-0.5c-1.1,0-1.7-0.2-2.6,0.5c-0.7,0-1.3,0.3-2.1,0.1c-0.7-0.2-0.3-1.4-0.3-1.9
		c0-1.3-3.9-1.1-4.6-1c-1.3,0.2-2.6,0.1-4,0.3c-0.7,0-4.8,1.5-4.8,0.5c0-0.5-0.1-1.5-0.2-1.9c-0.2-0.7-0.8-0.3-1.2-0.3
		c0.2,0-0.1,0.3,0,0c-0.2,0.7-3.5,0-4,0.6s0.3,1.7-0.3,2.4C46.7,96.3,46.1,95.8,45.8,95.4z M87.3,167.3c0.9,1.6,3.4,1.7,5.1,1.5
		c1.9-0.3,2.6-1.9,4.2-2.5c0.9-0.3,3.3-0.8,3.1,0.8c-0.1,1-1.2,2.2-2.2,2.3c-0.3,0.3-0.8,0.4-1.2,0.7c-0.6,0-0.3,0.3-0.8,0.5
		c-0.4,0.7-1.2,1-1.9,1.5c-1.7,1.3-4,1.7-6,2.4c-1.6,0.6-2.6,1.9-4.4,1.9c-2.3,0-4.5-0.6-6.5-1.9c-0.8-0.6-2.4-1.6-2.3-2.7
		c0.1-1.1,2-0.8,2.6-0.7c1.1,0.2,1.5,0.5,2.6-0.3c0.7-0.6,1.2-0.9,2-1c0.6-0.1,1.4,0,1.8-0.5c0.5-0.7-0.3-1.6-0.3-2.3
		c0.1-0.6-0.6-1.5-0.7-2c-0.4-0.4-1-1.9-1.2-2.5c0-0.5-0.7-1-0.1-1.7c1,0.1,1,1,1.7,1.5c0,0.7,1.7,1.8,2.2,2.3
		C86,165.3,86.7,166.2,87.3,167.3z M66.5,128.2C69.9,127.9,66.7,128.2,66.5,128.2c3.1-0.3,6.2-0.3,9.4-0.1c1,0.1,2.4-0.1,3.4,0.1
		c0.8,0.2,1.4,1.3,0.5,1.8c0,0.6-2.2,1.5-1.5,2.1c0.5,0.3,1.7,1,2.3,1c0.4,0.1,5.5,1.5,4,2.6c-0.3,0.2,0,0.9-0.6,1.2
		c-0.4,0.3-0.7,0.3-1,0.6c-0.3,0.2-1.5,1-1.9,0.9c0-0.3-2.4-1.2-2.8-1.5c-1,0-1.2,0.1-1.6,1.2c-0.6,1.9-2.4,3.3-4.6,3.1
		c-1.5-0.1,1-2.6,1-3.1c-1,0-2.4,1.2-3.3,1.6c-0.4,0.2-2-0.1-2-0.6c-1.4,0-1.4-1.7-0.8-2.5c0.7-0.8,2.4-3,3.5-3
		c0.1-0.8,1.9-0.6,1.7-1.7c0.1-0.8-1.4-1-1.8-1c-1.2-0.3-2.4-0.2-3.5-0.9c-0.8-0.4-0.9-0.6-0.9-1.5
		C66.4,128.7,66.2,128.2,66.5,128.2z"/>
</g>
<g>
	<path class="st0" d="M116.3,93.8c-0.1,0-0.1,0-0.2,0C116.2,93.8,116.3,93.8,116.3,93.8L116.3,93.8z"/>
	<path class="st0" d="M94.7,103c0,0,0.9,1.2,1,1.3c0.6,0,1,0.1,1.5,0.3c1,0.3,2,0.6,3.1,0.8c0.9,0.3,1.7,0.3,2.7,0.6
		c2.1,0.4,4.6,2.1,5.4,4.1c-0.6,0-5.6-1.1-5.5-1.8c-1.6,0-4-0.6-5.7-0.2l14.4,3.9l4.7-18.1c-0.1,0-0.2-0.1-0.2-0.1
		c-0.3,0-0.7,0.3-1.1,0.3c-0.9,0-0.4-0.2-0.5-0.7c0.1,0,0.7-1.1,0.7-1.3c0.1-1.2-1.5-1.7-2.4-2.2c-0.8-0.4-1.2-1.2-2.1-0.6
		c-0.4,0.3-1,0.9-1.5,1.1c-0.9,0.5-0.7-0.6-0.4-1c0.4-0.6,0.7-1.4,0.8-2.2c0.2-1.7,0.3-2.3-1.5-2.3c-0.6,0-1.2,0.3-1.8,0.3
		c-2,0-3.9,1-5.8,1.7c-0.6-0.1-3.1,1.7-3.1,2.3c-0.1,1.2-0.7,1.9-1.5,2.8c-1,1-1,1.4-0.8,2.7c0,0.4,0.7,0.8,0.9,1.1
		c0.3,0.3,0.1,0.8,0.1,1.2c0.1,0.7,1.2,1.2,1.9,1.2c0.3-0.1,1.8,0.3,1.9,0.6c-0.9,0-1.9,0.7-2.7,0.9c-0.3,0.1-1,0.2-1.2,0.3
		c-0.1,0.3-0.7,0.3-1,0.3c-0.1,0.6-0.7,0.3-0.4,1.2C94.6,101.9,94.8,102.6,94.7,103z"/>
</g>
<path class="st0" d="M113.1,114.5l-18.9-5.1c0.1,1.1,0.8,4.1,1,4.5c0,0.7,1.7,1.4,2.2,1.7c0.9,0.5,1.9,0.6,2.7,1.1
	c1.2,0.7,1,1.6,1.3,2.8c0,0.7,0.1,1.4,0.1,2.2c0.7,0.3-0.2,1.4,0.6,1.7c1.2,0.6,2.8,0.6,4.2,0.6c2.3,0,5.3,0.8,7.4-0.1
	c0.9-0.3,1.4-0.8,2.5-1c0.6-0.1,1-0.1,1.6-0.1c0-0.1,0.3-0.3,0.3-0.3c0.3-0.1,0.7-0.1,0.9-0.2c0.3-0.1,0.3-0.7,0.6-1
	c0.6-0.6,1-0.1,1.4,0.4c0.1,0.2,0.8,1.5,1.2,1.5c0.7,0,1.2,0.5,1.7,0.9c1.7,1.3,3.1,2.2,5.1,2.6c1.5,0.2,3.3-0.1,3.9-1.8
	c0.6-1.8-2.3-3.3-1.2-4.9c0.6,0,3.8,1,4,0.3c0.1-0.6,0.1-1.4,0.1-2.1c-0.3-0.1-0.3-0.6-0.5-0.8c0-0.6-0.3-0.3-0.5-0.8
	c0.1,0.2-0.6-0.5,0,0c-1.9-1.5-3.5-3.4-5.2-5.1c-1.3-1.5-1.2-3.3-0.6-5c0.6-1.5-0.2-2.5-0.2-4.2c-0.5-0.1-0.3-4.5-0.3-5
	c0-2.2-0.3-3.5,1.2-5C130,92,131,90,131.2,90c0-0.7-0.3-1.4-0.3-2c-0.8-1.2-4.3-2.5-4.9-0.7c-0.1,0.4-0.8,0.9-0.4,1.4s0.9,1,0.9,1.8
	c-0.6-0.1-1-0.8-1.5-1.1c-0.6-0.3-1.2-0.3-1.7,0c-1.2,0.5-1.2,1.6-1.2,2.8c0.1,1.5,0.1,3.1,0.1,4.6c0,1,0.4,2.2,0.1,3.3
	c-0.2,0.6-1.1,2.4-1.7,1.1c-0.3-0.8-0.3-2.6-0.1-3.4c0.3-1.1-0.1-2.2-0.3-3.3c-0.1-0.3-0.7-2-1.2-2.6L113.1,114.5z"/>
<path class="st0" d="M115.6,260.2c0-0.3,0-0.6,0.1-0.8l0.1-1.2c-0.1-0.6-0.1-1.2,0.1-1.5l0.4-4.2c0-0.3,0-0.7,0-1
	c-0.1-1.7,0.4-3.3,0.3-5c-0.1-1,0.1-2.2,0.1-3.2c0-0.6,0.1-1.7,0.2-2.3c0.3-1.6,0-3.3,0.3-4.9c0.3-1.5,0.5-3.4,0.5-5
	c0.2-1.4,0.3-3.3,0.3-4.6c0.3-1.7,0.4-3.8,0.3-5.5c-0.1-1.6,0.2-3.3,0.3-5c0.1-1.5-0.3-1.5-1.5-0.8c-0.5,0.3-1.7,0.4-1-0.6
	c0.3-0.5,0.9-1,1.2-1.7c0.3-1-0.1-1.7-0.3-2.7c-0.5-2.2,2-3.5,3.2-4.9c0-0.3,0.3-3.3,0.5-3.3c0-2.4,1-4.7,0.8-7.1
	c0-0.2,0.2-1.9,0.3-1.9l0,0c0-0.1,0-0.2,0-0.3c-9.2-1.4-17.8-3.1-25.9-5l-0.4,1.8c0.1,0.6,1-0.1,1.4,0.1c0.8,0.3,1.5,1,2.4,1
	c1.2,0.1,2.3,0.8,3.5,1.2c1.5,0.6,3.5,1.1,4.4,2.6c-0.8,0-1.2,0.5-2.2-0.1c-0.9-0.6-1.9-0.6-3-0.6c-1,0-2,0.3-3,0.2
	c-0.8-0.1-1.5-0.2-2.2-0.1c-0.6,0.1-1.7-0.6-2.4,0l-0.1,0.6c-0.1,1-0.2,2.2-0.7,2.8l0,0c0,0.5-0.1,0.9-0.3,1.4L93,200v0.1
	c-0.1,0.5-0.1,1.6-0.5,1.9v0.1c0,0.2-0.1,0.7-0.3,1.2l-0.9,3.7c-0.1,1-0.5,2.2-0.8,3.2l-2.2,9.2c-0.1,0.7-0.3,1.8-0.5,2.4
	c-0.2,0.6-0.4,1.2-0.6,1.8l-2.4,9.9c-0.1,0.3-0.1,0.6-0.2,0.8l-0.4,1.7c-0.1,0.7-0.1,1.4-0.5,2c-0.1,0.3-0.5,2.8-0.7,2.8
	c0,0.6-0.8,4.2-1.2,4.9l-0.2,0.8c-0.1,0.9-0.4,1.8-0.7,2.8l-0.8,3.2c-0.1,0.7-0.3,1.5-0.6,2.2l-1,4.4c-0.1,0.8,0.1,1.2,1.2,1.5
	c0.8,0.1,1.6,0.3,2.4,0.3c0.6,0.1,0.1,0.3,1.1,0.3c0.4,0.1,0.6,0.2,1,0.3c0.8,0.2,1.7,0.3,2.5,0.3c0.6,0.1,1.9,0.3,2.3,0.6
	c0.3,0.2,1.9,0.6,2.3,0.5c1.5,0.1,2.9,1,4.4,1c0.4,0.1,3.7,0.5,3.8,0.8c1.2,0,2.2,0.6,3.3,0.5c0.7-0.1,1.2,0.2,1.9,0.1
	c0.4,0,1.5,0.1,1.9,0.2c1,0.3,2.6,0.6,3.7,0.5c1.3-0.1,2.6,0.4,3.9,0.5L115.6,260.2z"/>
<path class="st0" d="M76.9,259.4l15.3-63.8c-1,0.5-2.8-0.5-2.2-1.5c0.7-1.1,2.1-2.6,3.3-3.1l0.9-3.8c-0.3-0.1-0.7-0.2-1.1-0.3
	c-1-0.3-2.1-0.5-3.1-0.8c-0.3-0.1-0.7-0.2-1.1-0.3c-1-0.3-2.1-0.6-3.1-0.8c-0.3-0.1-0.6-0.2-1-0.3c-1-0.3-2.1-0.6-3.1-0.9
	c-0.3-0.1-0.7-0.2-1-0.3c-1-0.3-1.9-0.6-2.9-0.9c-0.3-0.1-0.8-0.2-1.1-0.3c-0.9-0.3-1.8-0.6-2.7-0.8c-0.4-0.1-0.9-0.3-1.3-0.4
	c-0.8-0.3-1.6-0.6-2.4-0.8c-0.6-0.2-1.2-0.4-1.7-0.6c-0.6-0.2-1.2-0.4-1.9-0.6c-1.2-0.4-2.4-0.8-3.5-1.2L49,219.6l0.5,1
	c0.2,0.1,0.4,0.3,0.6,0.5c0.9,1,1.6,2.6,2.1,3.9c0.1,0.4,0.2,0.8,0.3,1.3l9.4,18.7l-1.2,7.6l1.9,3.1c1.3,0.6,3.1,0.9,4.2,1.3
	c2.1,0.7,4.2,1,6.3,1.7C74.4,258.8,75.7,259.2,76.9,259.4L76.9,259.4z"/>
<path class="st0" d="M140.9,268.7l1.2-25L167,216c-0.4-0.1-0.9-0.1-1-0.3c0-0.1-2.6-0.6-2.8-0.6c-0.3-0.1-0.5-0.7-0.8-0.7
	c-0.7,0-1.3,0-2,0c-1.3,0-2.7,0.7-4,0.8c-1.6,0.2-1.2-1.3-1.3-2.4c-0.1-1.1-0.5-2.2-0.5-3.3c-0.3-0.1-0.8-4-0.9-4.4
	c-0.2-1.1-0.7-1.3-1.7-1.8c-0.8-0.3-1.9-0.2-2.6-0.8c-0.7-0.6-1.4-0.1-1.8-1.3c-0.3-0.8-0.3-1.9,0-2.7c0-0.7,0.1-1.4,0.1-2
	c0.1-0.3-0.1-0.8,0-1.1c0-0.1,0.1-0.1,0.1-0.1c-8.2-0.6-16-1.4-23.5-2.4l-7,73.7c0.3,0.2,0.6,0.3,1.2,0.3c0.4,0,3.9,0.1,4,0.5
	c1.2,0,2.4,0.5,3.5,0.3c1.1-0.1,2.5,0.5,3.6,0.5c1.3,0.3,3.2,0.4,4.6,0.3C136.3,268.3,138.7,268.8,140.9,268.7L140.9,268.7z
	 M138.3,257.2c-0.1,1.2-0.8,0.8-1.5,1.5c-0.4,0.5-1.3,1.3-2,0.8c-1.5-1.3,0.6-3.5,0.6-4.9c0-0.3,1.4-2.8,0.1-2.3
	c-0.3,0.1-1.2,1.3-1.6,0.4c-0.4-0.8,1.7-3.5-0.6-4.1c-0.8-0.2-1.7,0.5-2.3-0.3c-0.3-0.3-0.9-1.5-1-1.9c0-1-1.3-1.9-1.3-3
	c-0.4,0.1-0.4-1-0.1-0.8c0-0.6,0.2-0.7-0.3-0.7c-0.3-0.1-0.7-0.2-0.7-0.5c-0.4-0.3-1.6-0.6-1.9-0.2c-0.3,0.3-0.3,1.9-0.3,2.4
	c-0.1,0.8,0.3,1.9-0.1,2.6c0,1.2,0.1,1.8,1,2.6c0.6,0.5,1.5,1.1,1.9,1.7c0,0.5,0.5,1,0.5,1.7c0.1,0,0.3,0.5,0.3,0.5
	c0.2,0.5,0.3,1.6,0.3,2.1c-0.1,1.5,1,2.4,1.1,3.8c0,0.9,0,1.8-1.1,1.9c-0.6,0.1-1.2-0.3-1.4-1c-0.2-1.6-0.8-3.1-0.9-4.8
	c-0.1-0.7-0.5-1.7-0.4-2.2c-0.3-0.2-0.2-0.8-0.7-0.8c-0.5-0.3-1-0.6-1.5-0.9c-1.2-1-3-2-1.6-3.9c0.4-0.6,0.6-4.1-0.6-4.1
	c-1.1-0.6-2.6-3.1-0.3-3.1c0.1-0.3,0.6-0.6,0.3-1.1c-0.2-0.3-0.6-0.4-0.6-0.8c-0.3-1.1,1-1.3,1.7-1.3c1.8-0.4,2.3,1.9,3.1,3
	c0.8-1.3,1.4-3.8,3.3-3.8c-0.1,0,0.3-0.3,0,0c1.3-1.2,3.5,1.4,3.5,2.5c1.6,0.6,1.5,3.4,1.8,4.6c0,0.6,0.5,1.2,0.8,1.7
	c0.4,0.9,0.1,1.8,0.3,2.7c0,1.3,0.6,3.1,1.2,4.4C138.2,253.1,138.5,255.5,138.3,257.2z"/>
<g>
	<path class="st1" d="M173.8,221.5c0.2,0.1,0.5,0.3,0.8,0.3C174.9,221.7,174.2,221.5,173.8,221.5z"/>
	<path class="st2" d="M234,288.9l0.1-0.3c0.3-1,0.3-1.5,0.3-1.6c-0.1,0-0.3,0-0.6,0.1l0,0c-0.1,0.2-0.4,0.2-0.6,0.2
		c-0.3,0.1-0.5,0.2-0.8,0.3c-0.1,0.1-0.2,0.1-0.3,0.2c-2.6,2.1-6.3,1.7-6.5,1.7l-0.6-0.1l-0.3-0.6c-0.6-1.2-4.4-2.9-6.8-3.7
		c-7.9-1.2-8.5-7.8-8.5-7.8l-2.6-25.5c-0.3,0-0.8,0.1-1,0.2c-1,0.1-1.3,0.1-1.6-0.7c-0.5-1.2-1.3-3.3-2.6-4c0-0.3-1.1-0.8-1.3-1.2
		c0-0.3-1.1-1.3-1.4-1.7c-1-1-1.5-2.2-2.4-3.2c-0.6-0.6-0.4-1.7-0.4-2.5c0-0.7-0.4-1.4-0.5-1.9c-0.1-1-0.2-2-0.5-3s-0.7-1.6-0.5-2.7
		c0.2-1,0.3-1.7,0.3-2.7c0.1-1.2-0.3-1.4-1.5-1.7c-1-0.3-1.9-0.4-2.8-0.4c-1,0-2.1,0.3-3-0.1c-1,0-2.1,0.1-3.1,0
		c-0.4,0-0.7-0.2-1.1-0.2c-0.3-0.2-0.6-0.8-1-0.8c-0.5-0.3-1.4-1.6-2-1.5c-0.5-0.1-1.2-0.1-1.6-0.3c-1-0.7-3-2.2-4.4-1.9
		c-1.1-0.3-1-0.4-0.8-0.3c-1.3-0.8-2-2.4-3.2-3.4c-0.6-0.5-1.1-0.7-1.6-1c-0.1-0.1-0.1,0-0.2,0l-7.8,8.6c-1,1.2-2,2.5-3.2,3.5
		l-0.4,0.5c-0.1,0.5-1,1.2-1.2,1.6c-0.7,0.8-1.4,1.5-2.2,2.4c-1.6,1.8-3.1,3.6-4.9,5.2l-1,1.2c-0.2,0.4-0.8,1-1.3,1.5l-1.4,1.5
		c-0.5,0.7-1,1.5-1.2,1.5c0,0.1-0.1,0.3-0.1,0.6l-1,22.1c0.3,0.3,1,0.4,1.2,0.7c0.3,0.3,0.3,1.2,0.4,1.5c0.1,0.7-0.3,1.5,0.5,1.9
		c0.6,0.3,1.2,0.5,1.7,0.6c0.6,0.1,1.2,0.3,1.8,0.5c0.9,0.2,2,0.1,3,0.2c0.9,0.1,2,0.3,2.4,1.3c0.4,0,1.3,0.3,1.7,0.5
		c0.7,0.2,0.3,1,1.3,1c0.6,0.1,1.3,0.3,1.9,0.3c0.4,0,4.4,0.1,4.4,0.5c1.2,0,2.4,0.6,3.5,0c0.9-0.6,1.5-1.5,2.4-2
		c0.1,0,1.5-0.9,1.6-1c0.1-0.2,0.5-0.6,0.7-0.6c-0.1-0.3-0.4-0.8-0.2-1.1c0.1-0.1,1.2-0.8,1.4-0.9c1.2-0.5,3.3,1,4.8,1
		c0.7,0.1,2.4-0.5,2.8-0.1c0.4,0.3,0.5,1.3,0.5,1.7c0,0,0.5,2.2,0.8,2.5c1,0,2.5,1,3.3,1.5c1.7-0.3,2.1,1.6,2.8,2.6
		c0,0.8,1.5,1.4,0.6,2.3c-0.7,0.6,0.8,1,0.8,1.8c0.2,0.6,1,2,1.8,2c1.1,0.5,1.5,1.5,2.8,1.5c1.5,0,2.9-0.1,4.4,0.1
		c0.4,0.1,2.4-0.1,2.5,0.3c0.2,0,2.3,0.4,2.3,0.5c0.6,0,1.2,0.1,1.9,0.1c1.6,0.2,3,1.3,4.2,2.6c1.1,1.2,2.6,2.5,2.6,4.4
		c0,5-6-1-7.3-2c-0.6,0.7,3.2,3,1.3,4c-0.3,0.1-1.2,2.6-1.3,3c0,0.6,0.3,1.9-0.1,2.3c0,0.6,1,4.3-0.5,4.3c0,0.6-1.2,1.6-1.5,2.3
		c-0.2,0.6-0.6,1.2-0.3,1.9c0.2,0.8,0.3,1.6-0.1,2.4c-0.5,0.8-1.8,0.3-2.4,0.9c-0.8,0.8,0.1,0.8,0.8,0.8c0.5,0,1,0,1.5,0
		c0-0.1,0.8-0.6,0.8-0.7c0.7-0.8,1.7-2.1,2.6-2.6c0.6-0.7,1.4-1.7,2.3-1.7c0.4-0.6,4.3,0.7,4.2,0c-0.1-0.6-0.8-0.5-0.4-1.2
		c0.5-0.7,1.6-0.9,2.3-1.2c0.8-0.4,1.9-0.6,2.8-0.6c0.6,0,1,0.1,0.8-0.7c-0.1-0.1-0.1-0.7-0.4-0.8c-0.6-0.1-1.5,0.1-2.1-0.4
		c-0.9-0.8-0.6-1.9,0.3-2.6c1-1.9,3.6-2.2,5.3-2.8c1.5-0.6,3.3-0.8,5.1-0.8c0-0.2,1.5-1.2,1.7-1.5c1.2-1.2,2.2-2.4,3.3-3.6
		c1-1,1.7-2.2,2.8-3.1c0.3-0.3,0.8-0.6,1.2-1L234,288.9z"/>
</g>
<g>
	<path class="st0" d="M217.5,171.4L217.5,171.4L217.5,171.4z"/>
	<path class="st0" d="M297.2,224.7c-0.2-0.2-0.4-0.4-0.6-0.6l-22.6,8.3l-1.8-0.3c-0.4,0-0.8,0-1.2-0.1c-0.1,0-0.1-0.1-0.2-0.1
		l-1-0.1l-0.3,4.6l-2.3-0.5c-0.3,0-0.6,0-0.8,0c-1-0.1-1.8-0.4-2.6-0.7l-1.8-0.3c-0.1,0-0.1,0-0.1,0c-0.7,0-1.5-0.1-2-0.4l-1.4-0.3
		l0.1-1c0-0.2,0.1-0.4,0.1-0.6c0-0.1,0-0.1,0-0.2c-0.3-0.2-0.2-0.6-0.3-0.9c-2,0.8-3.9-0.3-4-0.3l-0.6-0.3l0.3-3.5
		c-0.3-0.2-0.9-0.3-1-0.7c-0.7,0-1.4-0.9-1.9-1.6l-0.9-0.6l-0.1-0.1c-1.3-1.8-0.4-4.6-0.3-4.9l0.1-0.1l3.3-4.5l4.2,0.9l1.9-1.5
		l3.3,0.7l1.1-1.5l-5-8.6l-0.8-9c-0.3-0.1-0.6-0.1-0.8-0.4c-0.6,0-1.9-0.8-1.8-1.5c-0.2,0-0.3-0.3-0.3-0.5l-0.3-0.2l0.1-4.2
		l-2.4-0.1l-3.2-7.8c-0.3,0.3-0.6,1-0.6,1.2c-0.1,0.6-0.3,1.1-0.3,1.7c-0.1,0.7,0.6,1.4,0.5,2c-0.1,0.3,0.3,3-0.1,3.1
		c0,0.8-0.4,0.9-0.6,1.4c-0.3,0.7-1,1-1.2,1.9c-0.1,0.6-0.8,1-0.8,1.5c0,0.6-1.4,1.5-1.8,1.5c-0.6-0.1,0.1-0.3-0.8-0.3
		c-0.5-0.1-0.8-0.3-1.2-0.5c0-0.3-1.7-1.4-2.2-1.7c-0.6-0.4-1.7-0.3-2.5-0.2c-1.2,0.1-1.9-3.5-2.6-4c-0.4-0.3-0.1-1.2-0.2-1.7
		c-0.2-0.8-0.6-1.5-0.8-2.3c-0.1-0.8-1-2.3-0.6-3.1c0.1-0.3,0.3-1.2,0.3-1.6c-0.9-0.3-1.6-0.6-2.6-0.7c-1.2-0.1-2.6-0.6-3.9-0.6
		c-1.7,0.1-1.7-1.9-2.4-2.8c-0.8-1-1.9-1.4-2.9-2.1c-0.6-0.5-1.6-0.9-2.3-1.2c-0.5-0.2-1.5-0.9-2.1-1c-0.1,0-0.3,0-0.1,0
		c-0.8,0.1-0.6-0.5-1.1,0.2c-0.2,0.3-0.6,0.6-0.9,0.6c-0.6,0.8-1.2,1.4-2.3,1.3c-0.4,0-2.2,0.3-2.3-0.3c-0.2,0-2.4-0.2-2.5-0.5
		c-1.9,0-4.1-0.3-5.2,1.5c-0.4,0.8-0.5,1.4-0.1,2.2c0.3,0.6,1,1.9,0.8,2.5c1.5,0.7,1,4,1,5.3c0,0.6-0.1,1,0.2,1.5
		c0.1,0.2,0.3,0.5,0.3,0.8c0.5,0.1,1.1,1.5,1.2,1.8c0,1.4,1.2,2.7,1.2,4.2c-1.2,0.2-0.7,2.6-1.2,3.5c-0.4,0.8-1.5,1.9-1.5,2.7
		c-0.1,0.9,0.3,1.6,0.3,2.4c1,0.7,1.5,1.4,2.6,2c0.8,0.5,1.5,0.8,2.2,1.5c2.8,2.4,3.8,6.2,4.2,9.8c0.2,1.8-0.8,3.1-0.6,4.7
		c-0.3,0-1.5,2.9-1.8,3.3c-1.2,1.6-2.8,3.6-4.6,4.7c-0.9,0.6-3.1,1.6-2.2,2.7c0.6,0.8,0.3,1.7,1,2.3s1.5,1.3,1.5,2.3
		c0.4,0.3,0.1,1.7,0.1,2.2c0,0.8,0.6,1,0.8,1.7c0,0.8,0.6,1.6,0.9,2.2c0.3,0.8,0.8,1.7,1,2.5c0.5,1.5,0.8,2.7-0.2,4.1
		c-0.5,0.7-0.1,1.7-0.5,2.2c-0.2,0.3-0.6,0.2-0.9,0.3l2.2,21.4c0.3,0.6,0.6,4.4,0.6,4.9c-0.1,1.4,0.5,2.8,1.2,4
		c0.9,1.3,2.6,2.7,5.8,3.2l0.2,0.1c0.3,0.1,1.2,0.4,2.3,0.9l0,0c0.5,0.1,1,0.3,1.5,0.6c0.6,0.3,1.2,0.6,1.8,1
		c0.1,0.1,0.3,0.1,0.4,0.1c0.8-0.1,1.5,1.2,2.1,1.6c0.1,0.1,0.1,0.1,0.2,0.1c1.1-0.1,3-0.3,4.2-1.5l0.1-0.1c0.7-0.4,3.1-1.7,4.4-0.6
		c0.7,0.6,0.8,1.5,0.8,2.3c0.1,0.1,0.1,0.3,0.1,0.3c0.4,0.8,0.2,0.8,1.2,0.8c0.6,0,1.2,0,1.9,0c0.4,0,1.1-0.2,1.6-0.3
		c1.4-0.4,3.1-0.8,4.5-0.9c0.8-0.1,1.9-0.5,2.6-0.3c0.1-0.5,1.5-1.7,1.8-2c1.2,0,2.5-3.3,2.5-4.2c0.1-0.3,0.1-2.2,0.3-2.2
		c0-0.9,0.3-1.8,0.3-2.6c0-1.7,0.6-3.7,1.1-5.3c0.1-0.3,0.4-1.5,0.7-1.5c0-0.3,0.4-0.2,0.3-0.7c0.5-0.7,1.9-0.3,2.6-0.3
		c1.5,0,0.5-2.4,0.6-3.5c0.2-1.9,2.3-1.6,3.7-1.7c1.7-0.1,2.4-1.5,4.1-1.9c1.5,0,2.5-0.8,4-0.8c0-0.1,1.6-0.3,1.8-0.3
		c0.9,0,1.4-1.1,2.2-1.7c0-0.6,0.9-1.5,1.1-2c0.2-0.6,0.4-1.7,0-2.3c-0.7-1.9-3.1-2.7-5-2.3c-0.8,0.2-1.6,0.7-2.4,1
		c-0.6,0.2-1.1,1-1.8,1c-0.6,0.8-1.8,0.9-2.3,1.5c-0.6,0.7-1.6,1-2.2,1.6c-1.2,1-2.7,2.3-3.9,3.3c-0.2,0.1-1.4,1.6-1.4,1.8
		c-0.6,0.8-1.2,1.3-1.7,2c-0.7,1.1-0.8,2.4-1.3,3.6c-0.6,0-0.7,1.2-0.9,1.7c-0.8,1.7-2,3.2-3.3,4.6c-1.5,1.7-3.2,2.7-4.8,4.3
		c-0.5,0.5-2.4,1.8-2.4,2.4c-0.5,0.4-1,1.7-1.8,1.3c0-1.6,3.3-4.1,4.4-5.1c1.7-1.5,3.1-2.8,4.5-4.5c0.9-1.1,1.6-2.5,2.2-3.7
		c0.2-0.4,1-2.5,1.4-2.4c0.1-0.7,0.5-1.6,0.5-2.2c0-0.5,0.6-1.2,0.9-1.6c0.4-0.6,0.6-1.2,0.9-1.9c0.6-1.4,1.5-2.7,2.5-4
		c0.8-0.9,3.1-1.4,3.2-2.4c0.1-0.5,0.1-1,0.3-1.5c0.1-0.3,0.5-0.6,0.4-0.9c0-0.8,0.2-1.9,0.6-2.6c0.6-1.2,2.9-2.6,4.2-2.8
		c0.8,0,1.7-0.8,2.5-1c1-0.3,1.8-0.6,2.7-0.9c0.4-0.1,2-0.1,2.2-0.6c0.3-0.4,2.2-0.8,2.6-0.8c1.7,0,3.4-1.4,5.1-1.5
		c1.7,0,3.7-1.4,5.1-2.1c0.6-0.3,1.5-1,2.2-1c0.8-0.7,1.2-1.8,1.7-2.7c0.8-1.5,1.4-3.2,1.9-4.6c0.4-1.2,1.2-2.1,2.2-2.8
		c0.5-0.4,1.6-1.6,2.2-1.6c0.2-0.3,0.6-0.6,0.8-1V226L297.2,224.7z"/>
</g>
<g>
	<path class="st0" d="M250.8,178.6L250.8,178.6L250.8,178.6L250.8,178.6z"/>
	<path class="st0" d="M301.8,219.3c-1-1.1-3.1-3.3-2.8-4.9c0.2-1.2,0.4-1.1-0.6-1.8c-0.3-0.3-1-0.6-1.4-0.7c-0.6-0.2-0.9-0.7-1.5-1
		c-0.9-0.4-1.9-0.2-2.7-0.1c-1,0.1-1.3-1.3-2.5-1.4c-0.8-0.1-1.7,0.5-2.3,1c-0.7,0.6-1.3,1.2-1.9,1.9c-0.8,0.9-1,1.8-1.5,2.8
		c-0.4,0.9-3.7,4.2-3.4,1.7c0.3-2.1,2.4-3.7,3.8-5.1c1-1.1,2.1-2.2,3.3-3.1c0.6-0.4,1.6-0.6,1.3-1.7c-0.2-0.7-3.6-0.9-3.5-1.3
		c-0.8,0-1.3,1.1-2.2,1c-0.8-0.1-1.5-0.2-2.2-0.3c-0.3-0.1-1.8-0.1-1.9-0.3c-0.9,0-1.7,0.2-2.5-0.3c-0.6-0.4-1-1.1-1.7-1.6
		c-0.6-0.5-1.5-0.5-2.3-0.7c-1.2-0.3-4.4-1.1-4.4-2.7c-0.8-0.4-0.7-3.1,0-3.5c0-1.8-3.3-1-3.3-3c0-0.9-0.3-1.5-0.8-2.2
		c-0.8-1.2-1.3-0.7-2.4-1.4c-0.5-0.3-1.2-1.2-1.4-1.7c-0.8,0.1-1.5-1.7-1.9-2.3c-1.2-1.6-3.2-2.4-4.4-4c-0.6-0.8-1.4-1.5-2.1-2.2
		c-0.3-0.3-0.7-1-1-1.2s-0.8-0.1-0.8-0.6c0,0,0,0,0,0.1l2,5c0.2,0.2,0.4,0.4,0.5,0.8c0,0.1,0,0.3,0,0.4l0.3,0.9
		c0.1,0.1,0.1,0.2,0.1,0.3l0.3,0.7l3.1,0.2l-0.2,5.1l3.1,2.4l0.8,8.4c0.1,0.3,0.1,0.6,0.1,0.7c0,0.1,0,0.1,0,0.2v0.3l0.8,1.5
		c0.8,0.8,1.7,1.6,1.6,2.6c0.3,0.1,0.4,0.6,0.5,1l0.4,0.7c0.1,0.1,0.3,0.2,0.4,0.3c0,0.1,0.6,1.2,0.6,1.2c0.1,0.1,0.3,0.3,0.3,0.6
		l0.8,1.3l-1.1,1.5c-0.2,0.6-0.5,1-0.8,1.5c0,3.1,3.1-0.6,3.8,0.7c0.7,1.2-0.3,3.8-1.7,4.1c-1,0.2-2.1-0.2-3.1,0.2
		c-0.8,0.3-1,1.2-2,1.2c-0.1,0.6-3.3,0.1-1.9-1.5c0.8-1,1.9-1.9,2.8-2.9c0.1-0.1,0.5-0.7,0.7-1.2l-3-0.6l-0.5,0.3c0,0,0,0-0.1,0.1
		c-0.2,0.3-0.5,0.4-0.7,0.6l-0.7,0.6l-3.8-0.8l-1.9,2.7c0,0.3-0.2,0.5-0.4,0.7c-0.2,0.8-0.3,1.9,0.1,2.5l4.4,3.1l-0.3,3.5
		c0.6,0.1,1.3,0.2,2-0.2c0.9-0.6,1.6-0.3,1.9-0.1c0.8,0.6,1,1.9,0.8,3.3l6.7,1.3l0.3-4.4l5.9,0.8l23.9-8.7l1.9,3.2
		c0.1-0.1,0.2-0.2,0.2-0.3c0.3-0.5,0.7-0.8,1-1.3s0.6-1,1-1.4c0-0.3,0.3-0.6,0.3-1C302.2,220.1,301.9,219.9,301.8,219.3z"/>
</g>
</svg>
