<?xml version="1.0" encoding="utf-8"?>
<!-- Generator: Adobe Illustrator 23.0.1, SVG Export Plug-In . SVG Version: 6.00 Build 0)  -->
<svg version="1.1" id="Layer_2" xmlns="http://www.w3.org/2000/svg" xmlns:xlink="http://www.w3.org/1999/xlink" x="0px" y="0px"
	 viewBox="0 0 213.16 46.93" style="enable-background:new 0 0 213.16 46.93;" xml:space="preserve">
<style type="text/css">
	.st0{fill:#A6750B;}
</style>
<g>
	<path class="st0" d="M54.04,12.63c-0.36-1.58-1.22-2.94-2.29-4.11c-1.08-1.16-2.45-2.07-4-2.53c-1.55-0.47-3.44-0.61-4.97-0.18
		c-4.87,1.05-10.74,6.8-14.04,12.28c-1.72,2.59-3.12,5.35-4.54,7.98c-0.25,0.48-0.49,0.92-0.74,1.36l-0.12-0.26l-0.22-0.5
		c-0.6-1.35-1.18-2.71-1.73-4.08c-0.04-0.1-0.08-0.21-0.12-0.32c1.1-1.44,2.1-2.96,2.98-4.54c1.46-2.67,2.68-5.54,3.04-8.62
		c0.08-0.76,0.08-1.57-0.01-2.32c-0.07-0.77-0.2-1.54-0.42-2.3C26.45,3,25.59,1.47,24.07,0.67c-1.51-0.83-3.49-0.6-4.9,0.4
		c-0.72,0.48-1.33,1.15-1.76,1.93c-0.39,0.72-0.71,1.45-0.98,2.22c-1.09,3.08-1.19,6.39-0.89,9.55c0.34,3.17,1.07,6.25,2.08,9.21
		c0.1,0.3,0.22,0.6,0.32,0.9c-2.1,1.89-4.5,3.5-7.26,3.81c-1.43,0.21-2.9,0.17-4.28-0.17c-1.36-0.34-2.69-0.97-3.54-1.98
		c-0.45-0.51-0.7-1.05-0.87-1.73c-0.18-0.67-0.26-1.35-0.24-2.02c0.03-1.35,0.64-2.72,1.74-3.67c1.09-0.92,2.58-1.64,4.04-1.3
		c0.29,0.07,0.57,0.19,0.84,0.34c-0.11-0.02-0.22-0.03-0.34-0.03c-0.91,0-1.65,0.74-1.65,1.65s0.74,1.65,1.65,1.65
		c0.91,0,1.65-0.74,1.65-1.65c0-0.3-0.09-0.59-0.23-0.83l0,0c0,0-0.01-0.01-0.01-0.01c-0.13-0.22-0.3-0.4-0.51-0.54
		c-0.39-0.34-0.85-0.6-1.35-0.77c-0.75-0.24-1.57-0.2-2.33,0.02c-0.74,0.22-1.47,0.55-2.13,0.99c-0.66,0.44-1.26,1.01-1.72,1.7
		c-0.47,0.69-0.76,1.5-0.89,2.33c-0.13,0.83-0.07,1.69,0.13,2.49c0.17,0.8,0.6,1.67,1.17,2.29c1.15,1.3,2.72,2.02,4.29,2.37
		c1.58,0.34,3.21,0.34,4.77,0.06c0.77-0.15,1.56-0.36,2.29-0.65c0.75-0.3,1.44-0.68,2.1-1.11c1.08-0.7,2.06-1.52,2.97-2.4
		c0.33,0.88,0.67,1.76,1.05,2.63l0.24,0.55l0.24,0.54c0.17,0.38,0.36,0.73,0.55,1.1c0.16,0.3,0.34,0.59,0.51,0.89
		c-0.05,0.07-0.1,0.14-0.15,0.21c-1.13,0.12-2.26,0.27-3.37,0.49c-3,0.58-5.93,1.51-8.71,2.8c-0.69,0.33-1.38,0.67-2.05,1.05
		c-0.32,0.19-0.68,0.38-1,0.6c-0.32,0.21-0.63,0.44-0.94,0.68c-1.22,0.95-2.4,1.98-3.26,3.36c-0.42,0.7-0.72,1.52-0.67,2.41
		c0.02,0.88,0.49,1.78,1.19,2.31c0.69,0.55,1.5,0.85,2.29,1.01c0.88,0.16,1.71,0.08,2.52-0.08c1.61-0.34,3.05-1.06,4.41-1.84
		c1.37-0.78,2.66-1.67,3.9-2.62c2.47-1.9,4.76-4.01,6.92-6.25c0.31-0.32,0.61-0.66,0.91-0.99c1.44,1.97,3.12,3.76,4.97,5.33
		c2.43,2.06,5.2,3.77,8.13,4.95c1.47,0.59,2.97,1.06,4.5,1.41c1.53,0.35,3.1,0.55,4.68,0.54c0.79-0.01,1.58-0.08,2.36-0.26
		c0.77-0.19,1.54-0.49,2.18-1c0.32-0.25,0.6-0.56,0.83-0.9c0.21-0.34,0.39-0.69,0.52-1.08c0.27-0.76,0.26-1.62,0.01-2.39
		c-0.51-1.55-1.7-2.68-2.9-3.62c-1.23-0.94-2.56-1.7-3.93-2.38c-2.74-1.32-5.66-2.4-8.68-2.88c-3-0.56-6.04-0.88-9.09-0.92
		c-0.27,0-0.55,0.01-0.82,0.01c-0.01-0.02-0.02-0.03-0.03-0.05c0.3-0.39,0.59-0.79,0.88-1.2c0.47-0.68,0.9-1.37,1.3-2.02
		c1.56-2.66,3.03-5.26,4.49-7.84c1.45-2.58,2.82-5.2,4.52-7.6c0.85-1.2,1.79-2.32,2.86-3.3c1.08-0.97,2.31-1.78,3.67-2.23
		c1.36-0.47,2.82-0.55,4.2-0.19c1.38,0.35,2.65,1.13,3.68,2.16c1.02,1.03,1.84,2.32,2.19,3.7c0.29,1.4,0.14,2.93-0.3,4.32
		c-0.47,1.39-1.28,2.68-2.41,3.61c-1.12,0.94-2.58,1.38-4.05,1.49c-1.45,0.1-3.14-0.65-4.25-1.56c-0.55-0.45-0.93-1.07-1.1-1.75
		c-0.17-0.68-0.13-1.4,0.02-2.1c0.29-0.78,0.79-1.58,1.47-2.03c0.31-0.21,0.65-0.33,1.01-0.36c-0.29,0.3-0.48,0.71-0.48,1.16
		c0,0.91,0.74,1.65,1.65,1.65c0.91,0,1.65-0.74,1.65-1.65c0-0.78-0.54-1.42-1.26-1.6l0.01-0.03c-0.47-0.18-0.98-0.29-1.51-0.25
		c-0.52,0.04-1.04,0.23-1.45,0.53c-0.42,0.3-0.75,0.68-1.03,1.08c-0.27,0.41-0.49,0.83-0.65,1.31l-0.01,0.02l0,0.02
		c-0.15,0.77-0.18,1.6,0.03,2.39c0.2,0.79,0.68,1.52,1.32,2.02c1.3,1,3.07,1.78,4.62,1.68c0.78-0.05,1.55-0.2,2.29-0.45
		c0.75-0.26,1.46-0.64,2.07-1.14c1.24-0.99,2.1-2.38,2.61-3.85C54.13,15.8,54.33,14.22,54.04,12.63z M18.27,5.74
		c0.14-0.69,0.35-1.39,0.61-2.04c0.23-0.59,0.61-1.13,1.1-1.56c0.99-0.85,2.45-1.17,3.7-0.64c1.26,0.51,2.15,1.81,2.61,3.18
		c0.46,1.39,0.66,2.91,0.54,4.38c-0.27,2.98-1.49,5.83-2.96,8.44c-0.84,1.44-1.79,2.81-2.83,4.09c-0.4-1.04-0.79-2.09-1.14-3.14
		c-0.47-1.38-0.89-2.79-1.2-4.2C18.03,11.44,17.71,8.53,18.27,5.74z M19.39,33.35c-1.8,2.36-3.74,4.64-5.86,6.71
		c-2.11,2.03-4.45,4.04-7.14,4.91c-0.66,0.21-1.37,0.3-1.99,0.22c-0.69-0.1-1.36-0.32-1.88-0.69c-0.52-0.37-0.86-0.92-0.91-1.56
		c-0.05-0.64,0.16-1.32,0.5-1.92c0.71-1.23,1.82-2.28,2.97-3.21c0.29-0.23,0.59-0.46,0.89-0.68c0.3-0.22,0.61-0.39,0.94-0.6
		c0.64-0.38,1.31-0.74,1.98-1.08c2.68-1.36,5.58-2.3,8.54-2.88c0.96-0.19,1.93-0.33,2.91-0.45C20.01,32.52,19.71,32.94,19.39,33.35z
		 M26.43,31.78c3.02,0.06,6.04,0.38,9,0.96c2.99,0.5,5.82,1.55,8.55,2.86c1.35,0.66,2.66,1.41,3.85,2.32c1.17,0.91,2.28,2,2.73,3.37
		c0.22,0.68,0.22,1.41,0.01,2.09c-0.11,0.34-0.26,0.67-0.46,0.97c-0.19,0.3-0.45,0.54-0.74,0.74c-1.21,0.76-2.76,0.8-4.19,0.67
		c-2.92-0.34-5.71-1.5-8.24-2.96c-2.53-1.47-4.75-3.36-6.73-5.46c-1.62-1.72-3.06-3.59-4.32-5.56
		C26.06,31.78,26.25,31.78,26.43,31.78z"/>
	<g>
		<g>
			<path d="M66.79,25.44c-1.45-1.27-1.83-2.92-1.83-4.35c0-1,0.31-2.74,1.73-4.04c1.06-0.97,2.46-1.56,4.66-1.56
				c0.91,0,1.46,0.06,2.14,0.15c0.56,0.07,1.03,0.21,1.48,0.25c0.16,0.01,0.22,0.09,0.22,0.18c0,0.12-0.04,0.29-0.07,0.81
				c-0.03,0.49-0.02,1.3-0.04,1.59c-0.01,0.22-0.04,0.34-0.18,0.34c-0.12,0-0.15-0.12-0.15-0.32c-0.01-0.46-0.21-0.97-0.58-1.36
				c-0.49-0.52-1.64-0.91-3-0.91c-1.28,0-2.12,0.32-2.77,0.91c-1.08,0.99-1.36,2.39-1.36,3.82c0,3.51,2.67,5.25,4.65,5.25
				c1.31,0,2.11-0.15,2.7-0.83c0.25-0.28,0.44-0.71,0.5-0.97c0.04-0.24,0.07-0.29,0.19-0.29c0.1,0,0.13,0.1,0.13,0.22
				c0,0.18-0.18,1.46-0.32,1.96c-0.07,0.25-0.13,0.33-0.38,0.43c-0.59,0.24-1.71,0.34-2.66,0.34
				C69.83,27.05,68.13,26.61,66.79,25.44z"/>
			<path d="M82.75,22.57c0.02,0,0.06-0.01,0.06-0.07v-0.21c0-1.5-0.01-1.87-0.02-2.18c-0.02-0.34-0.12-0.44-0.44-0.54
				c-0.08-0.02-0.26-0.04-0.4-0.04c-0.12,0-0.17-0.04-0.17-0.1s0.07-0.09,0.22-0.09c0.55,0,1.27,0.02,1.54,0.02
				c0.24,0,0.92-0.02,1.32-0.02c0.15,0,0.22,0.02,0.22,0.09s-0.07,0.1-0.19,0.1c-0.08,0-0.17,0.01-0.3,0.04
				c-0.27,0.05-0.35,0.19-0.37,0.54c-0.02,0.31-0.02,0.59-0.02,2.1v1.75c0,0.91,0,1.69,0.05,2.12c0.04,0.28,0.09,0.47,0.41,0.51
				c0.14,0.02,0.36,0.04,0.52,0.04c0.1,0,0.16,0.06,0.16,0.1c0,0.07-0.08,0.11-0.21,0.11c-0.66,0-1.34-0.04-1.62-0.04
				c-0.23,0-0.96,0.04-1.35,0.04c-0.14,0-0.22-0.04-0.22-0.11c0-0.05,0.05-0.1,0.16-0.1c0.16,0,0.28-0.01,0.37-0.04
				c0.21-0.05,0.27-0.23,0.3-0.52c0.05-0.42,0.05-1.18,0.05-2.09v-0.76c0-0.03-0.03-0.06-0.06-0.06h-3.87
				c-0.03,0-0.07,0.01-0.07,0.06v0.76c0,0.91,0.01,1.67,0.06,2.1c0.03,0.28,0.09,0.47,0.4,0.51c0.14,0.02,0.37,0.04,0.52,0.04
				c0.12,0,0.16,0.06,0.16,0.1c0,0.07-0.08,0.11-0.21,0.11c-0.66,0-1.38-0.04-1.67-0.04c-0.23,0-0.91,0.04-1.32,0.04
				c-0.13,0-0.2-0.04-0.2-0.11c0-0.05,0.04-0.1,0.16-0.1c0.15,0,0.27-0.01,0.36-0.04c0.21-0.05,0.27-0.23,0.3-0.52
				c0.05-0.42,0.05-1.2,0.05-2.11v-1.75c0-1.5,0-1.78-0.01-2.1c-0.02-0.34-0.12-0.44-0.44-0.54c-0.08-0.02-0.26-0.04-0.41-0.04
				c-0.1,0-0.17-0.04-0.17-0.1s0.08-0.09,0.22-0.09c0.55,0,1.22,0.02,1.5,0.02c0.24,0,0.96-0.02,1.36-0.02
				c0.14,0,0.21,0.02,0.21,0.09s-0.06,0.1-0.19,0.1c-0.08,0-0.17,0.01-0.29,0.04c-0.28,0.05-0.36,0.19-0.38,0.54
				c-0.02,0.31-0.02,0.68-0.02,2.18v0.21c0,0.06,0.04,0.07,0.07,0.07H82.75z"/>
			<path d="M87.46,22.21c0-1.5,0-1.78-0.01-2.1c-0.02-0.34-0.12-0.44-0.44-0.54c-0.08-0.02-0.26-0.04-0.41-0.04
				c-0.1,0-0.17-0.04-0.17-0.1s0.08-0.09,0.23-0.09c0.54,0,1.19,0.02,1.4,0.02c0.35,0,1.28-0.02,1.6-0.02c0.65,0,1.4,0.06,1.95,0.42
				c0.29,0.2,0.72,0.7,0.72,1.36c0,0.73-0.42,1.39-1.42,2.19c0.91,1.12,1.63,2.02,2.25,2.64c0.57,0.57,0.93,0.62,1.1,0.65
				c0.1,0.02,0.16,0.02,0.25,0.02c0.08,0,0.13,0.06,0.13,0.1c0,0.08-0.07,0.11-0.2,0.11h-0.98c-0.57,0-0.85-0.06-1.12-0.2
				c-0.44-0.22-0.83-0.69-1.4-1.46c-0.41-0.54-0.84-1.2-0.97-1.35c-0.06-0.06-0.12-0.07-0.19-0.07l-0.92-0.02
				c-0.05,0-0.08,0.02-0.08,0.08v0.14c0,0.92,0.01,1.69,0.06,2.11c0.04,0.29,0.08,0.48,0.4,0.52c0.15,0.02,0.37,0.04,0.5,0.04
				c0.08,0,0.13,0.06,0.13,0.1c0,0.07-0.08,0.11-0.21,0.11c-0.59,0-1.45-0.04-1.6-0.04c-0.2,0-0.85,0.04-1.26,0.04
				c-0.13,0-0.2-0.04-0.2-0.11c0-0.05,0.04-0.1,0.16-0.1c0.15,0,0.27-0.01,0.36-0.04c0.21-0.05,0.27-0.23,0.3-0.52
				c0.05-0.42,0.05-1.2,0.05-2.11V22.21z M88.76,22.97c0,0.1,0.02,0.14,0.09,0.17c0.22,0.07,0.52,0.09,0.78,0.09
				c0.41,0,0.55-0.04,0.72-0.16c0.31-0.22,0.66-0.65,0.66-1.47c0-1.4-0.96-1.76-1.56-1.76c-0.26,0-0.5,0.01-0.61,0.04
				c-0.07,0.02-0.09,0.06-0.09,0.14V22.97z"/>
			<path d="M96.06,22.21c0-1.5,0-1.78-0.01-2.1c-0.02-0.34-0.13-0.45-0.35-0.52c-0.12-0.03-0.25-0.05-0.37-0.05
				c-0.1,0-0.16-0.02-0.16-0.12c0-0.06,0.08-0.08,0.24-0.08c0.38,0,1.08,0.02,1.38,0.02c0.26,0,0.92-0.02,1.32-0.02
				c0.13,0,0.21,0.02,0.21,0.08c0,0.09-0.06,0.12-0.16,0.12c-0.1,0-0.19,0.01-0.3,0.04c-0.28,0.05-0.36,0.19-0.38,0.54
				c-0.02,0.31-0.02,0.59-0.02,2.1v1.75c0,0.96,0,1.75,0.05,2.17c0.03,0.27,0.1,0.42,0.41,0.47c0.14,0.02,0.37,0.04,0.52,0.04
				c0.12,0,0.16,0.06,0.16,0.1c0,0.07-0.08,0.11-0.2,0.11c-0.68,0-1.38-0.04-1.66-0.04c-0.23,0-0.93,0.04-1.34,0.04
				c-0.13,0-0.2-0.04-0.2-0.11c0-0.05,0.04-0.1,0.16-0.1c0.15,0,0.27-0.01,0.36-0.04c0.21-0.05,0.27-0.19,0.3-0.48
				c0.05-0.41,0.05-1.2,0.05-2.16V22.21z"/>
			<path d="M99.56,26.7c-0.16-0.07-0.2-0.12-0.2-0.34c0-0.54,0.05-1.15,0.06-1.32c0-0.15,0.05-0.26,0.13-0.26
				c0.09,0,0.1,0.09,0.1,0.16c0,0.13,0.04,0.34,0.09,0.51c0.22,0.73,0.99,0.98,1.63,0.98c0.89,0,1.42-0.56,1.42-1.26
				c0-0.43-0.1-0.86-1.01-1.4l-0.59-0.35c-1.21-0.71-1.61-1.38-1.61-2.25c0-1.21,1.17-1.99,2.59-1.99c0.66,0,1.19,0.09,1.46,0.16
				c0.09,0.02,0.14,0.06,0.14,0.13c0,0.13-0.04,0.41-0.04,1.19c0,0.21-0.05,0.31-0.13,0.31c-0.07,0-0.1-0.06-0.1-0.17
				c0-0.09-0.05-0.4-0.27-0.65c-0.15-0.19-0.48-0.47-1.14-0.47c-0.73,0-1.4,0.38-1.4,1.06c0,0.44,0.16,0.79,1.08,1.31l0.42,0.23
				c1.35,0.75,1.77,1.5,1.77,2.4c0,0.73-0.28,1.33-1.03,1.85c-0.49,0.35-1.17,0.41-1.71,0.41C100.63,26.96,100,26.9,99.56,26.7z"/>
			<path d="M107.78,19.94l-1.53,0.03c-0.59,0.01-0.84,0.08-0.99,0.3c-0.1,0.14-0.15,0.27-0.17,0.34c-0.02,0.08-0.05,0.13-0.12,0.13
				c-0.07,0-0.09-0.06-0.09-0.16c0-0.16,0.2-1.12,0.22-1.2c0.02-0.13,0.06-0.19,0.12-0.19c0.08,0,0.19,0.08,0.44,0.12
				c0.3,0.04,0.69,0.05,1.03,0.05h4.16c0.33,0,0.55-0.02,0.7-0.05c0.16-0.02,0.24-0.05,0.28-0.05c0.07,0,0.08,0.06,0.08,0.21
				c0,0.21-0.02,0.94-0.02,1.2c-0.01,0.1-0.04,0.16-0.09,0.16c-0.08,0-0.1-0.05-0.12-0.2l-0.01-0.1c-0.02-0.26-0.29-0.56-1.21-0.57
				l-1.29-0.02v4.01c0,0.91,0.01,1.69,0.06,2.12c0.04,0.28,0.09,0.47,0.4,0.51c0.14,0.02,0.37,0.04,0.52,0.04
				c0.12,0,0.16,0.06,0.16,0.1c0,0.07-0.08,0.11-0.2,0.11c-0.68,0-1.36-0.04-1.66-0.04c-0.23,0-0.93,0.04-1.34,0.04
				c-0.13,0-0.2-0.04-0.2-0.11c0-0.05,0.03-0.1,0.16-0.1c0.15,0,0.28-0.01,0.36-0.04c0.21-0.05,0.27-0.23,0.3-0.52
				c0.05-0.42,0.05-1.2,0.05-2.11V19.94z"/>
			<path d="M112.55,23.08c0-1.69,1.19-3.88,4.3-3.88c2.59,0,4.2,1.43,4.2,3.71s-1.66,4.06-4.3,4.06
				C113.77,26.96,112.55,24.84,112.55,23.08z M119.53,23.27c0-2.19-1.32-3.54-2.97-3.54c-1.14,0-2.48,0.61-2.48,3.05
				c0,2.04,1.17,3.65,3.1,3.65C117.89,26.43,119.53,26.09,119.53,23.27z"/>
			<path d="M123,22.21c0-1.5,0-1.78-0.01-2.1c-0.02-0.34-0.12-0.44-0.44-0.54c-0.08-0.02-0.26-0.04-0.41-0.04
				c-0.11,0-0.17-0.04-0.17-0.1s0.08-0.09,0.23-0.09c0.54,0,1.19,0.02,1.48,0.02c0.42,0,1.24-0.02,1.7-0.02
				c1.28,0,1.75,0.42,1.91,0.56c0.22,0.21,0.51,0.65,0.51,1.19c0,1.4-1.12,2.4-2.58,2.4c-0.05,0-0.26,0-0.3-0.01
				c-0.06,0-0.13-0.04-0.13-0.1c0-0.08,0.12-0.13,0.34-0.13c0.57,0,1.38-0.59,1.38-1.61c0-0.33-0.04-0.98-0.61-1.47
				c-0.37-0.33-0.79-0.37-1.03-0.37c-0.15,0-0.35,0.01-0.44,0.05c-0.06,0.02-0.08,0.08-0.08,0.19v3.93c0,0.91,0,1.69,0.05,2.12
				c0.04,0.28,0.09,0.47,0.4,0.51c0.15,0.02,0.37,0.04,0.53,0.04c0.12,0,0.16,0.06,0.16,0.1c0,0.07-0.08,0.11-0.19,0.11
				c-0.69,0-1.41-0.04-1.68-0.04c-0.23,0-0.89,0.04-1.29,0.04c-0.13,0-0.2-0.04-0.2-0.11c0-0.05,0.03-0.1,0.16-0.1
				c0.15,0,0.27-0.01,0.36-0.04c0.21-0.05,0.27-0.23,0.3-0.52c0.05-0.42,0.05-1.2,0.05-2.11V22.21z"/>
			<path d="M134.94,22.57c0.02,0,0.06-0.01,0.06-0.07v-0.21c0-1.5-0.01-1.87-0.02-2.18c-0.02-0.34-0.12-0.44-0.44-0.54
				c-0.08-0.02-0.26-0.04-0.4-0.04c-0.12,0-0.17-0.04-0.17-0.1s0.07-0.09,0.22-0.09c0.55,0,1.27,0.02,1.54,0.02
				c0.25,0,0.92-0.02,1.32-0.02c0.15,0,0.22,0.02,0.22,0.09s-0.07,0.1-0.19,0.1c-0.08,0-0.17,0.01-0.3,0.04
				c-0.27,0.05-0.35,0.19-0.37,0.54c-0.02,0.31-0.02,0.59-0.02,2.1v1.75c0,0.91,0,1.69,0.05,2.12c0.03,0.28,0.09,0.47,0.41,0.51
				c0.14,0.02,0.36,0.04,0.53,0.04c0.1,0,0.16,0.06,0.16,0.1c0,0.07-0.08,0.11-0.21,0.11c-0.67,0-1.34-0.04-1.62-0.04
				c-0.23,0-0.96,0.04-1.35,0.04c-0.14,0-0.22-0.04-0.22-0.11c0-0.05,0.05-0.1,0.16-0.1c0.16,0,0.28-0.01,0.37-0.04
				c0.21-0.05,0.27-0.23,0.3-0.52c0.05-0.42,0.05-1.18,0.05-2.09v-0.76c0-0.03-0.04-0.06-0.06-0.06h-3.87
				c-0.04,0-0.07,0.01-0.07,0.06v0.76c0,0.91,0.01,1.67,0.06,2.1c0.04,0.28,0.09,0.47,0.4,0.51c0.14,0.02,0.37,0.04,0.52,0.04
				c0.12,0,0.16,0.06,0.16,0.1c0,0.07-0.08,0.11-0.21,0.11c-0.67,0-1.38-0.04-1.67-0.04c-0.23,0-0.91,0.04-1.32,0.04
				c-0.13,0-0.2-0.04-0.2-0.11c0-0.05,0.03-0.1,0.16-0.1c0.15,0,0.27-0.01,0.36-0.04c0.21-0.05,0.27-0.23,0.3-0.52
				c0.05-0.42,0.05-1.2,0.05-2.11v-1.75c0-1.5,0-1.78-0.01-2.1c-0.02-0.34-0.12-0.44-0.44-0.54c-0.08-0.02-0.26-0.04-0.41-0.04
				c-0.11,0-0.17-0.04-0.17-0.1s0.08-0.09,0.22-0.09c0.55,0,1.22,0.02,1.5,0.02c0.25,0,0.96-0.02,1.36-0.02
				c0.14,0,0.21,0.02,0.21,0.09s-0.06,0.1-0.19,0.1c-0.08,0-0.17,0.01-0.29,0.04c-0.28,0.05-0.36,0.19-0.38,0.54
				C131,20.42,131,20.78,131,22.29v0.21c0,0.06,0.03,0.07,0.07,0.07H134.94z"/>
			<path d="M139.65,22.21c0-1.5,0-1.78-0.01-2.1c-0.02-0.34-0.12-0.44-0.44-0.54c-0.08-0.02-0.26-0.04-0.41-0.04
				c-0.11,0-0.17-0.04-0.17-0.1s0.08-0.09,0.23-0.09c0.54,0,1.19,0.02,1.48,0.02c0.33,0,2.6,0.01,2.8,0
				c0.19-0.01,0.35-0.05,0.43-0.06c0.06-0.01,0.12-0.05,0.16-0.05c0.06,0,0.07,0.05,0.07,0.09c0,0.07-0.06,0.19-0.08,0.64
				c-0.01,0.1-0.04,0.54-0.06,0.65c-0.01,0.05-0.04,0.16-0.12,0.16c-0.07,0-0.08-0.05-0.08-0.13c0-0.07-0.01-0.25-0.07-0.36
				c-0.08-0.18-0.16-0.31-0.68-0.36c-0.17-0.02-1.4-0.05-1.61-0.05c-0.05,0-0.07,0.04-0.07,0.09v2.45c0,0.06,0.01,0.1,0.07,0.1
				c0.23,0,1.56,0,1.8-0.02c0.24-0.02,0.4-0.05,0.49-0.15c0.08-0.07,0.12-0.13,0.16-0.13s0.08,0.05,0.08,0.1
				c0,0.06-0.02,0.22-0.08,0.72c-0.02,0.2-0.05,0.59-0.05,0.66c0,0.08-0.01,0.22-0.1,0.22c-0.07,0-0.09-0.03-0.09-0.08
				c-0.01-0.1-0.01-0.23-0.03-0.36c-0.06-0.2-0.19-0.35-0.57-0.38c-0.19-0.02-1.35-0.05-1.61-0.05c-0.05,0-0.06,0.05-0.06,0.1v0.79
				c0,0.34-0.01,1.18,0,1.47c0.02,0.68,0.34,0.83,1.39,0.83c0.27,0,0.7-0.01,0.97-0.13c0.26-0.12,0.37-0.33,0.44-0.73
				c0.02-0.1,0.05-0.15,0.12-0.15c0.08,0,0.09,0.13,0.09,0.23c0,0.22-0.08,0.9-0.14,1.1c-0.07,0.26-0.16,0.26-0.55,0.26
				c-0.77,0-1.39-0.01-1.89-0.04c-0.5-0.01-0.89-0.02-1.19-0.02c-0.12,0-0.34,0.01-0.58,0.01c-0.25,0.01-0.5,0.02-0.71,0.02
				c-0.13,0-0.2-0.04-0.2-0.11c0-0.05,0.03-0.1,0.16-0.1c0.15,0,0.27-0.01,0.36-0.04c0.21-0.05,0.27-0.23,0.3-0.52
				c0.05-0.42,0.05-1.2,0.05-2.11V22.21z"/>
			<path d="M146.18,22.21c0-1.5,0-1.78-0.01-2.1c-0.02-0.34-0.12-0.44-0.44-0.54c-0.08-0.02-0.26-0.04-0.41-0.04
				c-0.11,0-0.17-0.04-0.17-0.1s0.08-0.09,0.23-0.09c0.54,0,1.19,0.02,1.4,0.02c0.35,0,1.28-0.02,1.6-0.02
				c0.65,0,1.4,0.06,1.95,0.42c0.29,0.2,0.72,0.7,0.72,1.36c0,0.73-0.42,1.39-1.42,2.19c0.91,1.12,1.63,2.02,2.25,2.64
				c0.57,0.57,0.93,0.62,1.1,0.65c0.1,0.02,0.16,0.02,0.24,0.02c0.08,0,0.13,0.06,0.13,0.1c0,0.08-0.07,0.11-0.2,0.11h-0.98
				c-0.57,0-0.85-0.06-1.12-0.2c-0.44-0.22-0.83-0.69-1.4-1.46c-0.41-0.54-0.84-1.2-0.97-1.35c-0.06-0.06-0.12-0.07-0.19-0.07
				l-0.92-0.02c-0.05,0-0.08,0.02-0.08,0.08v0.14c0,0.92,0.01,1.69,0.06,2.11c0.04,0.29,0.08,0.48,0.4,0.52
				c0.15,0.02,0.37,0.04,0.5,0.04c0.08,0,0.13,0.06,0.13,0.1c0,0.07-0.08,0.11-0.21,0.11c-0.59,0-1.45-0.04-1.6-0.04
				c-0.2,0-0.85,0.04-1.26,0.04c-0.13,0-0.2-0.04-0.2-0.11c0-0.05,0.04-0.1,0.16-0.1c0.15,0,0.27-0.01,0.36-0.04
				c0.21-0.05,0.27-0.23,0.3-0.52c0.05-0.42,0.05-1.2,0.05-2.11V22.21z M147.48,22.97c0,0.1,0.02,0.14,0.09,0.17
				c0.22,0.07,0.52,0.09,0.78,0.09c0.41,0,0.55-0.04,0.72-0.16c0.32-0.22,0.67-0.65,0.67-1.47c0-1.4-0.96-1.76-1.56-1.76
				c-0.26,0-0.5,0.01-0.61,0.04c-0.07,0.02-0.09,0.06-0.09,0.14V22.97z"/>
			<path d="M157.6,26.67c-0.24-0.1-0.28-0.18-0.28-0.5c0-0.81,0.06-1.7,0.07-1.93c0.01-0.22,0.06-0.38,0.18-0.38
				c0.13,0,0.15,0.13,0.15,0.25c0,0.19,0.06,0.5,0.13,0.75c0.32,1.09,1.2,1.49,2.11,1.49c1.33,0,1.98-0.9,1.98-1.68
				c0-0.72-0.22-1.4-1.45-2.36l-0.68-0.53c-1.62-1.27-2.18-2.3-2.18-3.5c0-1.62,1.36-2.79,3.41-2.79c0.96,0,1.58,0.15,1.96,0.25
				c0.13,0.03,0.21,0.07,0.21,0.18c0,0.19-0.06,0.62-0.06,1.77c0,0.32-0.04,0.44-0.16,0.44c-0.1,0-0.15-0.09-0.15-0.27
				c0-0.13-0.07-0.59-0.38-0.97c-0.22-0.28-0.65-0.72-1.61-0.72c-1.09,0-1.76,0.63-1.76,1.52c0,0.68,0.34,1.2,1.56,2.12l0.41,0.31
				c1.79,1.34,2.42,2.36,2.42,3.76c0,0.86-0.33,1.87-1.39,2.57c-0.74,0.47-1.56,0.61-2.35,0.61
				C158.9,27.05,158.24,26.95,157.6,26.67z"/>
			<path d="M167.7,19.94l-1.53,0.03c-0.59,0.01-0.84,0.08-0.99,0.3c-0.1,0.14-0.15,0.27-0.17,0.34c-0.02,0.08-0.05,0.13-0.12,0.13
				c-0.07,0-0.09-0.06-0.09-0.16c0-0.16,0.2-1.12,0.22-1.2c0.02-0.13,0.06-0.19,0.12-0.19c0.08,0,0.19,0.08,0.44,0.12
				c0.3,0.04,0.69,0.05,1.03,0.05h4.16c0.33,0,0.55-0.02,0.7-0.05c0.16-0.02,0.24-0.05,0.28-0.05c0.07,0,0.08,0.06,0.08,0.21
				c0,0.21-0.02,0.94-0.02,1.2c-0.01,0.1-0.04,0.16-0.09,0.16c-0.08,0-0.1-0.05-0.12-0.2l-0.01-0.1c-0.02-0.26-0.29-0.56-1.21-0.57
				l-1.29-0.02v4.01c0,0.91,0.01,1.69,0.06,2.12c0.04,0.28,0.09,0.47,0.4,0.51c0.14,0.02,0.37,0.04,0.52,0.04
				c0.12,0,0.16,0.06,0.16,0.1c0,0.07-0.08,0.11-0.2,0.11c-0.68,0-1.36-0.04-1.66-0.04c-0.23,0-0.93,0.04-1.34,0.04
				c-0.13,0-0.2-0.04-0.2-0.11c0-0.05,0.04-0.1,0.16-0.1c0.15,0,0.28-0.01,0.36-0.04c0.21-0.05,0.27-0.23,0.3-0.52
				c0.05-0.42,0.05-1.2,0.05-2.11V19.94z"/>
			<path d="M173.87,22.21c0-1.5,0-1.78-0.01-2.1c-0.02-0.34-0.12-0.44-0.44-0.54c-0.08-0.02-0.26-0.04-0.41-0.04
				c-0.11,0-0.17-0.04-0.17-0.1s0.08-0.09,0.23-0.09c0.54,0,1.19,0.02,1.48,0.02c0.33,0,2.6,0.01,2.8,0
				c0.19-0.01,0.35-0.05,0.43-0.06c0.06-0.01,0.12-0.05,0.16-0.05c0.06,0,0.07,0.05,0.07,0.09c0,0.07-0.06,0.19-0.08,0.64
				c-0.01,0.1-0.04,0.54-0.06,0.65c-0.01,0.05-0.04,0.16-0.12,0.16c-0.07,0-0.08-0.05-0.08-0.13c0-0.07-0.01-0.25-0.07-0.36
				c-0.08-0.18-0.16-0.31-0.68-0.36c-0.17-0.02-1.4-0.05-1.61-0.05c-0.05,0-0.07,0.04-0.07,0.09v2.45c0,0.06,0.01,0.1,0.07,0.1
				c0.23,0,1.56,0,1.8-0.02c0.24-0.02,0.4-0.05,0.49-0.15c0.08-0.07,0.12-0.13,0.16-0.13s0.08,0.05,0.08,0.1
				c0,0.06-0.02,0.22-0.08,0.72c-0.02,0.2-0.05,0.59-0.05,0.66c0,0.08-0.01,0.22-0.1,0.22c-0.07,0-0.09-0.03-0.09-0.08
				c-0.01-0.1-0.01-0.23-0.03-0.36c-0.06-0.2-0.19-0.35-0.57-0.38c-0.19-0.02-1.35-0.05-1.61-0.05c-0.05,0-0.06,0.05-0.06,0.1v0.79
				c0,0.34-0.01,1.18,0,1.47c0.02,0.68,0.34,0.83,1.39,0.83c0.27,0,0.7-0.01,0.97-0.13c0.26-0.12,0.37-0.33,0.44-0.73
				c0.02-0.1,0.05-0.15,0.12-0.15c0.08,0,0.09,0.13,0.09,0.23c0,0.22-0.08,0.9-0.14,1.1c-0.07,0.26-0.16,0.26-0.55,0.26
				c-0.77,0-1.39-0.01-1.89-0.04c-0.5-0.01-0.89-0.02-1.19-0.02c-0.12,0-0.34,0.01-0.58,0.01c-0.25,0.01-0.5,0.02-0.71,0.02
				c-0.13,0-0.2-0.04-0.2-0.11c0-0.05,0.04-0.1,0.16-0.1c0.15,0,0.27-0.01,0.36-0.04c0.21-0.05,0.27-0.23,0.3-0.52
				c0.05-0.42,0.05-1.2,0.05-2.11V22.21z"/>
			<path d="M179.87,20.31c-0.13-0.36-0.21-0.59-0.36-0.69c-0.1-0.07-0.3-0.08-0.4-0.08c-0.1,0-0.16-0.04-0.16-0.1
				s0.08-0.09,0.23-0.09c0.52,0,1.1,0.02,1.19,0.02c0.09,0,0.59-0.02,1.19-0.02c0.15,0,0.22,0.02,0.22,0.09s-0.08,0.1-0.19,0.1
				c-0.08,0-0.17,0.01-0.26,0.05c-0.09,0.04-0.1,0.09-0.1,0.2c0,0.13,0.09,0.45,0.22,0.91c0.17,0.65,1.11,3.65,1.26,4.1h0.04
				l1.96-5.06c0.11-0.28,0.21-0.36,0.3-0.36c0.12,0,0.21,0.15,0.34,0.47l2.05,4.88h0.04c0.2-0.57,0.98-3.18,1.34-4.34
				c0.07-0.23,0.11-0.43,0.11-0.57c0-0.16-0.09-0.28-0.5-0.28c-0.09,0-0.17-0.05-0.17-0.1c0-0.07,0.08-0.09,0.25-0.09
				c0.54,0,1,0.02,1.1,0.02c0.07,0,0.51-0.02,0.85-0.02c0.12,0,0.19,0.02,0.19,0.08c0,0.07-0.05,0.12-0.14,0.12
				c-0.1,0-0.24,0.01-0.36,0.05c-0.24,0.09-0.36,0.47-0.57,1.04c-0.48,1.25-1.53,4.4-2.03,5.88c-0.12,0.35-0.17,0.47-0.33,0.47
				c-0.14,0-0.21-0.12-0.36-0.48l-2.09-4.88h-0.02c-0.17,0.42-1.55,3.93-1.97,4.84c-0.19,0.41-0.25,0.52-0.4,0.52
				c-0.13,0-0.19-0.1-0.28-0.36L179.87,20.31z"/>
			<path d="M191.92,24.34c-0.06,0-0.07,0.01-0.09,0.07l-0.55,1.33c-0.1,0.24-0.15,0.49-0.15,0.61c0,0.18,0.09,0.28,0.41,0.28h0.15
				c0.13,0,0.15,0.05,0.15,0.1c0,0.08-0.06,0.11-0.16,0.11c-0.34,0-0.82-0.04-1.14-0.04c-0.1,0-0.65,0.04-1.19,0.04
				c-0.13,0-0.19-0.02-0.19-0.11c0-0.06,0.04-0.1,0.12-0.1c0.09,0,0.21-0.01,0.3-0.01c0.47-0.07,0.64-0.37,0.85-0.87l2.68-6.24
				c0.12-0.28,0.2-0.4,0.3-0.4c0.15,0,0.2,0.09,0.3,0.31c0.25,0.55,1.96,4.6,2.61,6.11c0.4,0.9,0.69,1.03,0.87,1.06
				c0.15,0.02,0.27,0.04,0.38,0.04c0.09,0,0.14,0.04,0.14,0.1c0,0.08-0.06,0.11-0.44,0.11c-0.36,0-1.11,0-1.97-0.02
				c-0.19-0.01-0.3-0.01-0.3-0.08c0-0.06,0.02-0.09,0.13-0.1c0.07-0.01,0.14-0.1,0.09-0.22l-0.79-1.99
				c-0.02-0.06-0.06-0.07-0.1-0.07H191.92z M194.11,23.79c0.05,0,0.06-0.02,0.05-0.06l-0.97-2.52c-0.01-0.04-0.02-0.09-0.05-0.09
				c-0.04,0-0.05,0.06-0.06,0.09l-0.99,2.51c-0.02,0.05,0,0.07,0.03,0.07H194.11z"/>
			<path d="M199.3,22.21c0-1.5,0-1.78-0.01-2.1c-0.02-0.34-0.12-0.44-0.44-0.54c-0.08-0.02-0.26-0.04-0.41-0.04
				c-0.11,0-0.17-0.04-0.17-0.1s0.08-0.09,0.23-0.09c0.54,0,1.19,0.02,1.4,0.02c0.35,0,1.28-0.02,1.6-0.02
				c0.65,0,1.4,0.06,1.95,0.42c0.29,0.2,0.72,0.7,0.72,1.36c0,0.73-0.42,1.39-1.42,2.19c0.91,1.12,1.63,2.02,2.25,2.64
				c0.57,0.57,0.93,0.62,1.1,0.65c0.1,0.02,0.16,0.02,0.24,0.02c0.08,0,0.13,0.06,0.13,0.1c0,0.08-0.07,0.11-0.2,0.11h-0.98
				c-0.57,0-0.85-0.06-1.12-0.2c-0.44-0.22-0.83-0.69-1.4-1.46c-0.41-0.54-0.84-1.2-0.97-1.35c-0.06-0.06-0.12-0.07-0.19-0.07
				l-0.92-0.02c-0.05,0-0.08,0.02-0.08,0.08v0.14c0,0.92,0.01,1.69,0.06,2.11c0.04,0.29,0.08,0.48,0.4,0.52
				c0.15,0.02,0.37,0.04,0.5,0.04c0.08,0,0.13,0.06,0.13,0.1c0,0.07-0.08,0.11-0.21,0.11c-0.59,0-1.45-0.04-1.6-0.04
				c-0.2,0-0.85,0.04-1.26,0.04c-0.13,0-0.2-0.04-0.2-0.11c0-0.05,0.04-0.1,0.16-0.1c0.15,0,0.27-0.01,0.36-0.04
				c0.21-0.05,0.27-0.23,0.3-0.52c0.05-0.42,0.05-1.2,0.05-2.11V22.21z M200.61,22.97c0,0.1,0.02,0.14,0.09,0.17
				c0.22,0.07,0.52,0.09,0.78,0.09c0.41,0,0.55-0.04,0.72-0.16c0.32-0.22,0.67-0.65,0.67-1.47c0-1.4-0.96-1.76-1.56-1.76
				c-0.26,0-0.5,0.01-0.61,0.04c-0.07,0.02-0.09,0.06-0.09,0.14V22.97z"/>
			<path d="M208.59,19.94l-1.53,0.03c-0.59,0.01-0.84,0.08-0.99,0.3c-0.1,0.14-0.15,0.27-0.17,0.34c-0.02,0.08-0.05,0.13-0.12,0.13
				c-0.07,0-0.09-0.06-0.09-0.16c0-0.16,0.2-1.12,0.22-1.2c0.02-0.13,0.06-0.19,0.12-0.19c0.08,0,0.19,0.08,0.44,0.12
				c0.3,0.04,0.69,0.05,1.03,0.05h4.16c0.33,0,0.55-0.02,0.7-0.05c0.16-0.02,0.24-0.05,0.28-0.05c0.07,0,0.08,0.06,0.08,0.21
				c0,0.21-0.02,0.94-0.02,1.2c-0.01,0.1-0.04,0.16-0.09,0.16c-0.08,0-0.1-0.05-0.12-0.2l-0.01-0.1c-0.02-0.26-0.29-0.56-1.21-0.57
				l-1.29-0.02v4.01c0,0.91,0.01,1.69,0.06,2.12c0.04,0.28,0.09,0.47,0.4,0.51c0.14,0.02,0.37,0.04,0.52,0.04
				c0.12,0,0.16,0.06,0.16,0.1c0,0.07-0.08,0.11-0.2,0.11c-0.68,0-1.36-0.04-1.66-0.04c-0.23,0-0.93,0.04-1.34,0.04
				c-0.13,0-0.2-0.04-0.2-0.11c0-0.05,0.04-0.1,0.16-0.1c0.15,0,0.28-0.01,0.36-0.04c0.21-0.05,0.27-0.23,0.3-0.52
				c0.05-0.42,0.05-1.2,0.05-2.11V19.94z"/>
		</g>
	</g>
	<g>
		<path d="M70.68,35.73c0.03,0,0.05-0.02,0.05-0.06v-0.18c0-1.29,0-1.53-0.02-1.8c-0.02-0.29-0.08-0.43-0.37-0.49
			c-0.07-0.02-0.21-0.03-0.33-0.03c-0.09,0-0.14-0.02-0.14-0.08s0.06-0.08,0.18-0.08c0.46,0,1,0.03,1.23,0.03
			c0.2,0,0.74-0.03,1.07-0.03c0.12,0,0.18,0.02,0.18,0.08s-0.05,0.08-0.15,0.08c-0.07,0-0.14,0.01-0.25,0.03
			c-0.23,0.04-0.3,0.19-0.32,0.49c-0.02,0.27-0.02,0.51-0.02,1.8v1.5c0,0.78,0,1.46,0.04,1.82c0.03,0.24,0.08,0.42,0.33,0.46
			c0.12,0.02,0.31,0.03,0.43,0.03c0.09,0,0.14,0.03,0.14,0.07c0,0.06-0.07,0.08-0.17,0.08c-0.55,0-1.09-0.03-1.33-0.03
			c-0.2,0-0.73,0.03-1.06,0.03c-0.12,0-0.18-0.03-0.18-0.08c0-0.04,0.03-0.07,0.14-0.07c0.13,0,0.23-0.02,0.31-0.03
			c0.17-0.03,0.21-0.22,0.25-0.47c0.04-0.36,0.04-1.03,0.04-1.81v-0.75c0-0.03-0.03-0.05-0.05-0.05h-3.25
			c-0.03,0-0.05,0.01-0.05,0.05v0.75c0,0.78,0,1.46,0.04,1.82c0.03,0.24,0.08,0.42,0.33,0.46c0.12,0.02,0.31,0.03,0.43,0.03
			c0.09,0,0.14,0.03,0.14,0.07c0,0.06-0.07,0.08-0.17,0.08c-0.55,0-1.09-0.03-1.33-0.03c-0.2,0-0.73,0.03-1.07,0.03
			c-0.11,0-0.17-0.03-0.17-0.08c0-0.04,0.03-0.07,0.14-0.07c0.13,0,0.23-0.02,0.31-0.03c0.17-0.03,0.21-0.22,0.25-0.47
			c0.04-0.36,0.04-1.03,0.04-1.81v-1.5c0-1.29,0-1.53-0.02-1.8c-0.02-0.29-0.08-0.43-0.37-0.49c-0.07-0.02-0.21-0.03-0.33-0.03
			c-0.09,0-0.14-0.02-0.14-0.08s0.06-0.08,0.18-0.08c0.46,0,1,0.03,1.23,0.03c0.2,0,0.74-0.03,1.07-0.03c0.12,0,0.18,0.02,0.18,0.08
			s-0.05,0.08-0.15,0.08c-0.07,0-0.14,0.01-0.25,0.03c-0.23,0.04-0.3,0.19-0.31,0.49c-0.02,0.27-0.02,0.51-0.02,1.8v0.18
			c0,0.04,0.03,0.06,0.05,0.06H70.68z"/>
		<path d="M73.94,36.71c0-1.24,0.87-2.84,3.14-2.84c1.89,0,3.07,1.05,3.07,2.71s-1.21,2.96-3.14,2.96
			C74.82,39.55,73.94,38,73.94,36.71z M79.03,36.85c0-1.6-0.96-2.59-2.17-2.59c-0.83,0-1.81,0.44-1.81,2.23
			c0,1.49,0.85,2.67,2.26,2.67C77.83,39.16,79.03,38.91,79.03,36.85z"/>
		<path d="M81.81,39.36c-0.12-0.05-0.14-0.08-0.14-0.25c0-0.39,0.03-0.84,0.04-0.96c0-0.11,0.03-0.19,0.09-0.19
			c0.07,0,0.08,0.07,0.08,0.12c0,0.09,0.03,0.25,0.07,0.38c0.16,0.54,0.72,0.71,1.19,0.71c0.65,0,1.04-0.41,1.04-0.92
			c0-0.32-0.08-0.63-0.74-1.02L83,36.98c-0.89-0.52-1.17-1-1.17-1.64c0-0.88,0.85-1.46,1.89-1.46c0.49,0,0.87,0.07,1.06,0.12
			c0.07,0.02,0.1,0.04,0.1,0.09c0,0.09-0.03,0.3-0.03,0.87c0,0.15-0.03,0.23-0.09,0.23c-0.05,0-0.08-0.04-0.08-0.13
			c0-0.07-0.03-0.29-0.2-0.48c-0.11-0.14-0.35-0.34-0.83-0.34c-0.54,0-1.02,0.28-1.02,0.78c0,0.32,0.12,0.58,0.79,0.95l0.31,0.17
			c0.99,0.54,1.29,1.1,1.29,1.75c0,0.54-0.2,0.97-0.75,1.35c-0.36,0.25-0.85,0.3-1.25,0.3C82.59,39.55,82.13,39.51,81.81,39.36z"/>
		<path d="M87.07,36.08c0-1.1,0-1.3-0.01-1.53c-0.02-0.25-0.09-0.32-0.32-0.39c-0.06-0.02-0.19-0.03-0.3-0.03
			c-0.08,0-0.13-0.03-0.13-0.08c0-0.05,0.06-0.07,0.17-0.07c0.39,0,0.87,0.02,1.08,0.02c0.31,0,0.9-0.02,1.24-0.02
			c0.94,0,1.28,0.31,1.4,0.41c0.16,0.15,0.37,0.48,0.37,0.87c0,1.02-0.82,1.75-1.88,1.75c-0.03,0-0.19,0-0.22-0.01
			c-0.04,0-0.09-0.03-0.09-0.08c0-0.06,0.09-0.09,0.25-0.09c0.42,0,1-0.43,1-1.17c0-0.24-0.03-0.72-0.44-1.07
			c-0.27-0.24-0.58-0.27-0.75-0.27c-0.11,0-0.26,0.01-0.32,0.03c-0.04,0.02-0.06,0.06-0.06,0.14v2.87c0,0.66,0,1.23,0.03,1.55
			c0.03,0.21,0.07,0.34,0.29,0.38c0.11,0.02,0.27,0.03,0.38,0.03c0.08,0,0.12,0.04,0.12,0.08c0,0.05-0.06,0.08-0.14,0.08
			c-0.5,0-1.03-0.03-1.23-0.03c-0.17,0-0.65,0.03-0.94,0.03c-0.09,0-0.15-0.03-0.15-0.08c0-0.03,0.03-0.08,0.12-0.08
			c0.11,0,0.2-0.01,0.26-0.03c0.15-0.03,0.2-0.17,0.22-0.38c0.03-0.31,0.03-0.88,0.03-1.54V36.08z"/>
		<path d="M92.57,36.08c0-1.1,0-1.3-0.01-1.53c-0.02-0.25-0.09-0.33-0.26-0.38c-0.08-0.03-0.18-0.03-0.27-0.03
			c-0.08,0-0.12-0.02-0.12-0.08c0-0.04,0.06-0.06,0.18-0.06c0.28,0,0.79,0.02,1,0.02c0.19,0,0.67-0.02,0.96-0.02
			c0.09,0,0.15,0.02,0.15,0.06c0,0.07-0.04,0.08-0.12,0.08s-0.14,0.01-0.22,0.03c-0.2,0.03-0.26,0.14-0.28,0.39
			c-0.02,0.23-0.02,0.43-0.02,1.53v1.28c0,0.7,0,1.28,0.03,1.58c0.03,0.2,0.08,0.31,0.3,0.34c0.1,0.02,0.27,0.03,0.38,0.03
			c0.09,0,0.12,0.04,0.12,0.08c0,0.05-0.06,0.08-0.14,0.08c-0.49,0-1-0.03-1.21-0.03c-0.17,0-0.68,0.03-0.98,0.03
			c-0.09,0-0.15-0.03-0.15-0.08c0-0.03,0.03-0.08,0.12-0.08c0.11,0,0.2-0.01,0.26-0.03c0.15-0.03,0.2-0.14,0.22-0.35
			c0.03-0.3,0.03-0.88,0.03-1.58V36.08z"/>
		<path d="M97.45,34.42l-1.12,0.03c-0.43,0.01-0.61,0.06-0.72,0.22c-0.08,0.1-0.11,0.2-0.13,0.25c-0.02,0.06-0.03,0.09-0.08,0.09
			c-0.05,0-0.07-0.04-0.07-0.12c0-0.12,0.15-0.82,0.16-0.88c0.02-0.09,0.04-0.14,0.08-0.14c0.06,0,0.14,0.06,0.32,0.09
			c0.22,0.03,0.5,0.03,0.75,0.03h3.04c0.24,0,0.4-0.02,0.51-0.03c0.12-0.02,0.18-0.03,0.2-0.03c0.05,0,0.06,0.04,0.06,0.15
			c0,0.15-0.02,0.69-0.02,0.88c-0.01,0.08-0.03,0.12-0.07,0.12c-0.06,0-0.08-0.03-0.09-0.15l-0.01-0.08
			c-0.02-0.19-0.21-0.41-0.89-0.42l-0.94-0.02v2.93c0,0.66,0.01,1.23,0.04,1.55c0.03,0.21,0.07,0.34,0.29,0.38
			c0.1,0.02,0.27,0.03,0.38,0.03c0.08,0,0.12,0.04,0.12,0.08c0,0.05-0.06,0.08-0.15,0.08c-0.49,0-1-0.03-1.21-0.03
			c-0.17,0-0.68,0.03-0.98,0.03c-0.09,0-0.15-0.03-0.15-0.08c0-0.03,0.03-0.08,0.12-0.08c0.11,0,0.2-0.01,0.26-0.03
			c0.15-0.03,0.2-0.17,0.22-0.38c0.03-0.31,0.03-0.88,0.03-1.54V34.42z"/>
		<path d="M102.08,37.63c-0.04,0-0.05,0.01-0.07,0.05l-0.4,0.97c-0.08,0.18-0.11,0.36-0.11,0.44c0,0.13,0.07,0.2,0.3,0.2h0.11
			c0.09,0,0.11,0.03,0.11,0.08c0,0.06-0.04,0.08-0.12,0.08c-0.25,0-0.6-0.03-0.83-0.03c-0.08,0-0.48,0.03-0.87,0.03
			c-0.09,0-0.14-0.02-0.14-0.08c0-0.04,0.03-0.08,0.08-0.08c0.07,0,0.15-0.01,0.22-0.01c0.34-0.05,0.47-0.27,0.62-0.64l1.96-4.56
			c0.09-0.2,0.15-0.29,0.22-0.29c0.11,0,0.14,0.07,0.22,0.23c0.18,0.4,1.43,3.36,1.91,4.46c0.29,0.66,0.5,0.75,0.64,0.77
			c0.11,0.02,0.2,0.03,0.28,0.03c0.07,0,0.1,0.03,0.1,0.08c0,0.06-0.04,0.08-0.32,0.08c-0.26,0-0.81,0-1.44-0.02
			c-0.14-0.01-0.22-0.01-0.22-0.06c0-0.04,0.02-0.07,0.09-0.08c0.05-0.01,0.1-0.08,0.07-0.16l-0.58-1.46
			c-0.02-0.04-0.04-0.05-0.08-0.05H102.08z M103.69,37.23c0.03,0,0.04-0.02,0.03-0.04l-0.71-1.84c-0.01-0.03-0.02-0.07-0.03-0.07
			c-0.03,0-0.03,0.04-0.04,0.07l-0.72,1.83c-0.02,0.03,0,0.05,0.03,0.05H103.69z"/>
		<path d="M108.57,37.35c0,0.93,0,1.39,0.16,1.52c0.13,0.11,0.42,0.15,1,0.15c0.4,0,0.69-0.01,0.88-0.2
			c0.09-0.09,0.17-0.3,0.19-0.43c0.01-0.07,0.03-0.11,0.09-0.11c0.05,0,0.07,0.08,0.07,0.16c0,0.08-0.05,0.62-0.11,0.83
			c-0.05,0.16-0.08,0.2-0.48,0.2c-0.54,0-0.97-0.01-1.35-0.03c-0.37-0.01-0.69-0.02-1-0.02c-0.08,0-0.25,0.01-0.43,0.01
			c-0.18,0.01-0.37,0.02-0.52,0.02c-0.09,0-0.15-0.03-0.15-0.08c0-0.03,0.03-0.08,0.12-0.08c0.11,0,0.2-0.01,0.26-0.03
			c0.15-0.03,0.2-0.17,0.22-0.38c0.03-0.31,0.03-0.88,0.03-1.54v-1.28c0-1.1,0-1.3-0.01-1.53c-0.02-0.25-0.09-0.32-0.32-0.39
			c-0.06-0.02-0.15-0.03-0.25-0.03c-0.08,0-0.13-0.03-0.13-0.08c0-0.05,0.05-0.07,0.16-0.07c0.35,0,0.83,0.02,1.03,0.02
			c0.18,0,0.79-0.02,1.08-0.02c0.11,0,0.16,0.02,0.16,0.07c0,0.05-0.04,0.08-0.14,0.08c-0.08,0-0.2,0.01-0.29,0.03
			c-0.2,0.03-0.26,0.14-0.28,0.39c-0.02,0.23-0.02,0.43-0.02,1.53V37.35z"/>
		<path d="M112.69,36.08c0-1.1,0-1.3-0.01-1.53c-0.02-0.25-0.09-0.33-0.26-0.38c-0.08-0.03-0.18-0.03-0.27-0.03
			c-0.08,0-0.12-0.02-0.12-0.08c0-0.04,0.06-0.06,0.18-0.06c0.28,0,0.79,0.02,1,0.02c0.19,0,0.67-0.02,0.96-0.02
			c0.09,0,0.15,0.02,0.15,0.06c0,0.07-0.04,0.08-0.12,0.08c-0.08,0-0.14,0.01-0.22,0.03c-0.2,0.03-0.26,0.14-0.28,0.39
			c-0.02,0.23-0.02,0.43-0.02,1.53v1.28c0,0.7,0,1.28,0.03,1.58c0.03,0.2,0.08,0.31,0.3,0.34c0.1,0.02,0.27,0.03,0.38,0.03
			c0.08,0,0.12,0.04,0.12,0.08c0,0.05-0.06,0.08-0.14,0.08c-0.49,0-1-0.03-1.21-0.03c-0.17,0-0.68,0.03-0.98,0.03
			c-0.09,0-0.14-0.03-0.14-0.08c0-0.03,0.03-0.08,0.12-0.08c0.11,0,0.2-0.01,0.26-0.03c0.15-0.03,0.2-0.14,0.22-0.35
			c0.03-0.3,0.03-0.88,0.03-1.58V36.08z"/>
		<path d="M117.58,34.42l-1.12,0.03c-0.43,0.01-0.61,0.06-0.72,0.22c-0.08,0.1-0.11,0.2-0.13,0.25c-0.02,0.06-0.03,0.09-0.09,0.09
			c-0.05,0-0.07-0.04-0.07-0.12c0-0.12,0.14-0.82,0.16-0.88c0.02-0.09,0.04-0.14,0.08-0.14c0.06,0,0.14,0.06,0.32,0.09
			c0.22,0.03,0.5,0.03,0.75,0.03h3.04c0.24,0,0.4-0.02,0.51-0.03c0.12-0.02,0.18-0.03,0.2-0.03c0.05,0,0.06,0.04,0.06,0.15
			c0,0.15-0.02,0.69-0.02,0.88c-0.01,0.08-0.03,0.12-0.07,0.12c-0.06,0-0.08-0.03-0.08-0.15l-0.01-0.08
			c-0.02-0.19-0.21-0.41-0.89-0.42l-0.95-0.02v2.93c0,0.66,0.01,1.23,0.04,1.55c0.03,0.21,0.07,0.34,0.29,0.38
			c0.1,0.02,0.27,0.03,0.38,0.03c0.08,0,0.12,0.04,0.12,0.08c0,0.05-0.06,0.08-0.14,0.08c-0.49,0-1-0.03-1.21-0.03
			c-0.17,0-0.68,0.03-0.98,0.03c-0.09,0-0.14-0.03-0.14-0.08c0-0.03,0.03-0.08,0.12-0.08c0.11,0,0.2-0.01,0.26-0.03
			c0.15-0.03,0.2-0.17,0.22-0.38c0.03-0.31,0.03-0.88,0.03-1.54V34.42z"/>
		<path d="M123.25,37.57c0-0.39-0.07-0.54-0.17-0.76c-0.05-0.11-1.07-1.7-1.34-2.09c-0.19-0.26-0.34-0.43-0.49-0.51
			c-0.09-0.05-0.22-0.09-0.32-0.09c-0.06,0-0.11-0.03-0.11-0.08c0-0.05,0.05-0.07,0.14-0.07c0.13,0,0.69,0.02,0.94,0.02
			c0.16,0,0.51-0.02,0.85-0.02c0.07,0,0.11,0.02,0.11,0.07c0,0.06-0.05,0.06-0.17,0.09c-0.06,0.02-0.1,0.05-0.1,0.11
			s0.03,0.14,0.09,0.25c0.14,0.22,1.12,1.92,1.24,2.12c0.09-0.17,1-1.72,1.12-1.94c0.08-0.16,0.11-0.29,0.11-0.38
			c0-0.07-0.03-0.14-0.16-0.16c-0.07-0.02-0.14-0.03-0.14-0.08c0-0.05,0.04-0.07,0.13-0.07c0.25,0,0.51,0.02,0.73,0.02
			c0.16,0,0.66-0.02,0.8-0.02c0.09,0,0.14,0.02,0.14,0.06c0,0.05-0.06,0.08-0.14,0.08c-0.08,0-0.21,0.03-0.32,0.08
			c-0.16,0.08-0.23,0.15-0.39,0.34c-0.25,0.29-1.32,2.01-1.46,2.32c-0.11,0.26-0.09,0.49-0.09,0.72v0.58c0,0.12,0,0.42,0.02,0.72
			c0.02,0.21,0.08,0.35,0.31,0.38c0.11,0.02,0.27,0.03,0.38,0.03c0.08,0,0.13,0.04,0.13,0.08c0,0.05-0.06,0.08-0.16,0.08
			c-0.47,0-0.97-0.03-1.18-0.03c-0.19,0-0.69,0.03-0.97,0.03c-0.1,0-0.16-0.02-0.16-0.08c0-0.03,0.03-0.08,0.12-0.08
			c0.1,0,0.2-0.01,0.26-0.03c0.15-0.03,0.21-0.17,0.23-0.38c0.03-0.31,0.03-0.6,0.03-0.72V37.57z"/>
		<path d="M130.57,39.35c-0.14-0.06-0.16-0.1-0.16-0.29c0-0.47,0.03-0.98,0.04-1.12c0.01-0.13,0.03-0.22,0.1-0.22
			c0.08,0,0.08,0.08,0.08,0.14c0,0.11,0.03,0.29,0.08,0.43c0.19,0.63,0.69,0.86,1.22,0.86c0.77,0,1.14-0.52,1.14-0.97
			c0-0.42-0.13-0.81-0.83-1.36l-0.39-0.31c-0.94-0.73-1.26-1.33-1.26-2.02c0-0.94,0.78-1.61,1.97-1.61c0.55,0,0.91,0.08,1.13,0.14
			c0.08,0.02,0.12,0.04,0.12,0.1c0,0.11-0.03,0.36-0.03,1.02c0,0.19-0.03,0.25-0.09,0.25c-0.06,0-0.09-0.05-0.09-0.15
			c0-0.08-0.04-0.34-0.22-0.56c-0.13-0.16-0.38-0.42-0.93-0.42c-0.63,0-1.01,0.37-1.01,0.88c0,0.39,0.2,0.69,0.9,1.23l0.24,0.18
			c1.03,0.78,1.4,1.36,1.4,2.17c0,0.49-0.19,1.08-0.8,1.48c-0.43,0.27-0.9,0.35-1.35,0.35C131.32,39.57,130.93,39.51,130.57,39.35z"
			/>
		<path d="M135.56,36.08c0-1.1,0-1.3-0.01-1.53c-0.02-0.25-0.08-0.32-0.32-0.39c-0.06-0.02-0.19-0.03-0.3-0.03
			c-0.08,0-0.13-0.03-0.13-0.08c0-0.05,0.06-0.07,0.17-0.07c0.39,0,0.87,0.02,1.08,0.02c0.24,0,1.9,0.01,2.04,0
			c0.14-0.01,0.25-0.03,0.31-0.04c0.04-0.01,0.08-0.03,0.12-0.03c0.04,0,0.05,0.03,0.05,0.07c0,0.05-0.04,0.14-0.06,0.47
			c-0.01,0.08-0.03,0.39-0.04,0.48c-0.01,0.03-0.03,0.12-0.08,0.12c-0.05,0-0.06-0.03-0.06-0.09c0-0.05-0.01-0.18-0.05-0.26
			c-0.06-0.13-0.12-0.23-0.49-0.26c-0.13-0.02-1.02-0.03-1.17-0.03c-0.03,0-0.05,0.03-0.05,0.07v1.79c0,0.04,0.01,0.08,0.05,0.08
			c0.17,0,1.14,0,1.31-0.02c0.18-0.02,0.29-0.03,0.36-0.11c0.06-0.05,0.08-0.09,0.12-0.09c0.03,0,0.06,0.03,0.06,0.08
			c0,0.04-0.02,0.16-0.06,0.53c-0.02,0.14-0.03,0.43-0.03,0.49c0,0.06-0.01,0.16-0.08,0.16c-0.05,0-0.07-0.03-0.07-0.06
			c-0.01-0.08-0.01-0.17-0.03-0.26c-0.04-0.14-0.14-0.26-0.42-0.28c-0.14-0.02-0.99-0.03-1.17-0.03c-0.03,0-0.04,0.03-0.04,0.08
			v0.58c0,0.25-0.01,0.86,0,1.07c0.02,0.49,0.25,0.6,1.01,0.6c0.2,0,0.51-0.01,0.71-0.09c0.19-0.08,0.27-0.24,0.32-0.54
			c0.02-0.08,0.03-0.11,0.08-0.11c0.06,0,0.07,0.09,0.07,0.17c0,0.16-0.06,0.66-0.1,0.8c-0.05,0.19-0.12,0.19-0.4,0.19
			c-0.56,0-1.01-0.01-1.38-0.03c-0.37-0.01-0.65-0.02-0.87-0.02c-0.09,0-0.25,0.01-0.43,0.01c-0.18,0.01-0.37,0.02-0.52,0.02
			c-0.09,0-0.14-0.03-0.14-0.08c0-0.03,0.03-0.08,0.12-0.08c0.11,0,0.2-0.01,0.26-0.03c0.15-0.03,0.2-0.17,0.22-0.38
			c0.03-0.31,0.03-0.88,0.03-1.54V36.08z"/>
		<path d="M140.72,36.08c0-1.1,0-1.3-0.01-1.53c-0.02-0.25-0.08-0.32-0.32-0.39c-0.06-0.02-0.19-0.03-0.3-0.03
			c-0.08,0-0.13-0.03-0.13-0.08c0-0.05,0.06-0.07,0.17-0.07c0.39,0,0.87,0.02,1.02,0.02c0.26,0,0.94-0.02,1.17-0.02
			c0.48,0,1.02,0.04,1.42,0.31c0.21,0.14,0.53,0.51,0.53,1c0,0.54-0.31,1.01-1.04,1.6c0.66,0.82,1.19,1.47,1.64,1.92
			c0.42,0.42,0.68,0.45,0.8,0.48c0.08,0.02,0.12,0.02,0.18,0.02s0.09,0.04,0.09,0.08c0,0.06-0.05,0.08-0.14,0.08h-0.72
			c-0.42,0-0.62-0.04-0.82-0.14c-0.32-0.16-0.6-0.5-1.02-1.06c-0.3-0.39-0.61-0.88-0.71-0.99c-0.04-0.04-0.08-0.05-0.14-0.05
			l-0.67-0.02c-0.03,0-0.06,0.02-0.06,0.06v0.1c0,0.67,0.01,1.23,0.04,1.54c0.03,0.21,0.06,0.35,0.29,0.38
			c0.11,0.02,0.27,0.03,0.37,0.03c0.06,0,0.09,0.04,0.09,0.08c0,0.05-0.06,0.08-0.15,0.08c-0.43,0-1.06-0.03-1.17-0.03
			c-0.14,0-0.62,0.03-0.92,0.03c-0.09,0-0.14-0.03-0.14-0.08c0-0.03,0.03-0.08,0.12-0.08c0.11,0,0.2-0.01,0.26-0.03
			c0.15-0.03,0.2-0.17,0.22-0.38c0.03-0.31,0.03-0.88,0.03-1.54V36.08z M141.67,36.64c0,0.08,0.02,0.1,0.07,0.13
			c0.16,0.05,0.38,0.07,0.57,0.07c0.3,0,0.4-0.03,0.53-0.12c0.23-0.16,0.49-0.48,0.49-1.07c0-1.02-0.7-1.29-1.14-1.29
			c-0.19,0-0.37,0.01-0.44,0.03c-0.05,0.02-0.07,0.04-0.07,0.1V36.64z"/>
		<path d="M146.07,34.69c-0.17-0.4-0.28-0.47-0.55-0.54c-0.11-0.03-0.23-0.03-0.29-0.03c-0.07,0-0.08-0.03-0.08-0.08
			c0-0.06,0.08-0.07,0.19-0.07c0.4,0,0.83,0.02,1.09,0.02c0.19,0,0.58-0.02,0.95-0.02c0.09,0,0.18,0.02,0.18,0.07
			c0,0.05-0.05,0.08-0.12,0.08c-0.12,0-0.23,0.01-0.29,0.05c-0.05,0.03-0.08,0.08-0.08,0.14c0,0.09,0.07,0.29,0.17,0.54l1.26,3.24
			h0.03c0.32-0.75,1.29-3.08,1.46-3.56c0.03-0.09,0.07-0.2,0.07-0.26c0-0.08-0.03-0.1-0.1-0.13c-0.09-0.03-0.21-0.03-0.3-0.03
			c-0.07,0-0.13-0.03-0.13-0.08c0-0.05,0.07-0.07,0.21-0.07c0.37,0,0.71,0.02,0.8,0.02c0.13,0,0.48-0.02,0.71-0.02
			c0.09,0,0.15,0.02,0.15,0.07c0,0.05-0.04,0.08-0.12,0.08c-0.08,0-0.24-0.01-0.37,0.08c-0.09,0.07-0.2,0.18-0.39,0.64
			c-0.3,0.68-0.49,1.07-0.9,1.96c-0.48,1.06-0.83,1.85-1,2.21c-0.19,0.42-0.25,0.53-0.36,0.53c-0.1,0-0.16-0.09-0.31-0.43
			L146.07,34.69z"/>
		<path d="M152.62,36.08c0-1.1,0-1.3-0.01-1.53c-0.02-0.25-0.09-0.33-0.26-0.38c-0.08-0.03-0.18-0.03-0.27-0.03
			c-0.08,0-0.12-0.02-0.12-0.08c0-0.04,0.06-0.06,0.18-0.06c0.28,0,0.79,0.02,1,0.02c0.19,0,0.67-0.02,0.96-0.02
			c0.09,0,0.15,0.02,0.15,0.06c0,0.07-0.04,0.08-0.12,0.08c-0.08,0-0.14,0.01-0.22,0.03c-0.2,0.03-0.26,0.14-0.28,0.39
			c-0.02,0.23-0.02,0.43-0.02,1.53v1.28c0,0.7,0,1.28,0.03,1.58c0.03,0.2,0.08,0.31,0.3,0.34c0.1,0.02,0.27,0.03,0.38,0.03
			c0.08,0,0.12,0.04,0.12,0.08c0,0.05-0.06,0.08-0.14,0.08c-0.49,0-1-0.03-1.21-0.03c-0.17,0-0.68,0.03-0.98,0.03
			c-0.09,0-0.14-0.03-0.14-0.08c0-0.03,0.03-0.08,0.12-0.08c0.11,0,0.2-0.01,0.26-0.03c0.15-0.03,0.2-0.14,0.22-0.35
			c0.03-0.3,0.03-0.88,0.03-1.58V36.08z"/>
		<path d="M156.54,38.77c-0.74-0.62-0.94-1.44-0.94-2.14c0-0.49,0.16-1.35,0.88-1.98c0.54-0.48,1.26-0.77,2.38-0.77
			c0.47,0,0.75,0.03,1.09,0.08c0.28,0.04,0.53,0.09,0.75,0.12c0.09,0.01,0.11,0.04,0.11,0.08c0,0.06-0.02,0.14-0.03,0.4
			c-0.02,0.24-0.02,0.64-0.03,0.78c-0.01,0.1-0.03,0.18-0.1,0.18c-0.06,0-0.08-0.06-0.08-0.15c-0.01-0.23-0.1-0.49-0.29-0.67
			c-0.25-0.25-0.76-0.43-1.45-0.43c-0.66,0-1.07,0.12-1.41,0.41c-0.55,0.48-0.69,1.17-0.69,1.88c0,1.72,1.33,2.54,2.33,2.54
			c0.66,0,1.03-0.05,1.33-0.38c0.13-0.15,0.23-0.35,0.26-0.49c0.02-0.11,0.03-0.15,0.09-0.15c0.05,0,0.08,0.07,0.08,0.13
			c0,0.08-0.08,0.72-0.16,0.96c-0.03,0.13-0.07,0.16-0.2,0.21c-0.3,0.12-0.87,0.16-1.35,0.16
			C158.09,39.55,157.23,39.34,156.54,38.77z"/>
		<path d="M162.85,36.08c0-1.1,0-1.3-0.01-1.53c-0.02-0.25-0.08-0.32-0.32-0.39c-0.06-0.02-0.19-0.03-0.3-0.03
			c-0.08,0-0.13-0.03-0.13-0.08c0-0.05,0.06-0.07,0.17-0.07c0.39,0,0.87,0.02,1.08,0.02c0.24,0,1.9,0.01,2.04,0
			c0.14-0.01,0.25-0.03,0.31-0.04c0.04-0.01,0.08-0.03,0.12-0.03c0.04,0,0.05,0.03,0.05,0.07c0,0.05-0.04,0.14-0.06,0.47
			c-0.01,0.08-0.03,0.39-0.04,0.48c-0.01,0.03-0.03,0.12-0.08,0.12c-0.05,0-0.06-0.03-0.06-0.09c0-0.05-0.01-0.18-0.05-0.26
			c-0.06-0.13-0.12-0.23-0.49-0.26c-0.13-0.02-1.02-0.03-1.17-0.03c-0.03,0-0.05,0.03-0.05,0.07v1.79c0,0.04,0.01,0.08,0.05,0.08
			c0.17,0,1.14,0,1.31-0.02c0.18-0.02,0.29-0.03,0.36-0.11c0.06-0.05,0.09-0.09,0.12-0.09c0.03,0,0.06,0.03,0.06,0.08
			c0,0.04-0.02,0.16-0.06,0.53c-0.02,0.14-0.03,0.43-0.03,0.49c0,0.06-0.01,0.16-0.08,0.16c-0.05,0-0.07-0.03-0.07-0.06
			c-0.01-0.08-0.01-0.17-0.03-0.26c-0.04-0.14-0.14-0.26-0.42-0.28c-0.14-0.02-0.99-0.03-1.17-0.03c-0.03,0-0.04,0.03-0.04,0.08
			v0.58c0,0.25-0.01,0.86,0,1.07c0.02,0.49,0.25,0.6,1.01,0.6c0.2,0,0.51-0.01,0.71-0.09c0.19-0.08,0.27-0.24,0.32-0.54
			c0.02-0.08,0.03-0.11,0.08-0.11c0.06,0,0.07,0.09,0.07,0.17c0,0.16-0.06,0.66-0.1,0.8c-0.05,0.19-0.12,0.19-0.4,0.19
			c-0.56,0-1.01-0.01-1.38-0.03c-0.37-0.01-0.65-0.02-0.87-0.02c-0.09,0-0.25,0.01-0.43,0.01c-0.18,0.01-0.37,0.02-0.52,0.02
			c-0.09,0-0.14-0.03-0.14-0.08c0-0.03,0.03-0.08,0.12-0.08c0.11,0,0.2-0.01,0.26-0.03c0.15-0.03,0.2-0.17,0.22-0.38
			c0.03-0.31,0.03-0.88,0.03-1.54V36.08z"/>
		<path d="M167.77,39.36c-0.12-0.05-0.14-0.08-0.14-0.25c0-0.39,0.03-0.84,0.04-0.96c0-0.11,0.03-0.19,0.09-0.19
			c0.07,0,0.08,0.07,0.08,0.12c0,0.09,0.03,0.25,0.07,0.38c0.16,0.54,0.72,0.71,1.19,0.71c0.65,0,1.04-0.41,1.04-0.92
			c0-0.32-0.08-0.63-0.74-1.02l-0.43-0.26c-0.89-0.52-1.18-1-1.18-1.64c0-0.88,0.85-1.46,1.89-1.46c0.49,0,0.87,0.07,1.06,0.12
			c0.07,0.02,0.1,0.04,0.1,0.09c0,0.09-0.03,0.3-0.03,0.87c0,0.15-0.03,0.23-0.09,0.23c-0.05,0-0.08-0.04-0.08-0.13
			c0-0.07-0.03-0.29-0.2-0.48c-0.11-0.14-0.35-0.34-0.83-0.34c-0.54,0-1.02,0.28-1.02,0.78c0,0.32,0.12,0.58,0.79,0.95l0.31,0.17
			c0.99,0.54,1.29,1.1,1.29,1.75c0,0.54-0.21,0.97-0.75,1.35c-0.36,0.25-0.85,0.3-1.25,0.3C168.55,39.55,168.09,39.51,167.77,39.36z
			"/>
	</g>
</g>
</svg>
