<?xml version="1.0" encoding="utf-8"?>
<!-- Generator: Adobe Illustrator 22.0.1, SVG Export Plug-In . SVG Version: 6.00 Build 0)  -->
<svg version="1.1" id="Layer_1" xmlns="http://www.w3.org/2000/svg" xmlns:xlink="http://www.w3.org/1999/xlink" x="0px" y="0px"
	 width="31px" height="31px" viewBox="0 0 31 31" style="enable-background:new 0 0 31 31;" xml:space="preserve">
<style type="text/css">
	.st0{fill:#C7C8C9;}
	.st1{fill:#FFFFFF;}
</style>
<circle class="st0" cx="15.5" cy="15.5" r="15.5"/>
<path id="insta" class="st1" d="M15.5,8.1c2.4,0,2.7,0,3.7,0.1c0.9,0,1.4,0.2,1.7,0.3c0.4,0.2,0.7,0.4,1,0.7s0.5,0.6,0.7,1
	c0.1,0.3,0.3,0.8,0.3,1.7c0,1,0.1,1.2,0.1,3.7s0,2.7-0.1,3.7c0,0.9-0.2,1.4-0.3,1.7c-0.2,0.4-0.4,0.7-0.7,1c-0.3,0.3-0.6,0.5-1,0.7
	c-0.3,0.1-0.8,0.3-1.7,0.3c-1,0-1.2,0.1-3.7,0.1s-2.7,0-3.7-0.1c-0.9,0-1.4-0.2-1.7-0.3c-0.4-0.2-0.7-0.4-1-0.7
	c-0.3-0.3-0.5-0.6-0.7-1c-0.1-0.3-0.3-0.8-0.3-1.7c0-1-0.1-1.2-0.1-3.7s0-2.7,0.1-3.7c0-0.9,0.2-1.4,0.3-1.7c0.2-0.4,0.4-0.7,0.7-1
	s0.6-0.5,1-0.7c0.3-0.1,0.8-0.3,1.7-0.3C12.8,8.1,13.1,8.1,15.5,8.1 M15.5,6.5c-2.5,0-2.8,0-3.7,0.1c-1,0-1.6,0.2-2.2,0.4
	C9,7.2,8.5,7.5,8,8S7.2,9,7,9.6s-0.4,1.2-0.4,2.2s-0.1,1.3-0.1,3.7c0,2.5,0,2.8,0.1,3.7c0,1,0.2,1.6,0.4,2.2C7.2,22,7.5,22.5,8,23
	s1,0.8,1.6,1s1.2,0.4,2.2,0.4s1.3,0.1,3.7,0.1s2.8,0,3.7-0.1c1,0,1.6-0.2,2.2-0.4c0.6-0.2,1.1-0.5,1.6-1s0.8-1,1-1.6
	s0.4-1.2,0.4-2.2s0.1-1.3,0.1-3.7s0-2.8-0.1-3.7c0-1-0.2-1.6-0.4-2.2C23.8,9,23.5,8.5,23,8s-1-0.8-1.6-1s-1.2-0.4-2.2-0.4
	C18.3,6.5,18,6.5,15.5,6.5L15.5,6.5z M15.5,10.9c-2.6,0-4.6,2.1-4.6,4.6s2.1,4.6,4.6,4.6s4.6-2.1,4.6-4.6S18.1,10.9,15.5,10.9z
	 M15.5,18.5c-1.7,0-3-1.4-3-3s1.4-3,3-3s3,1.4,3,3S17.2,18.5,15.5,18.5z M20.3,9.6c0.6,0,1.1,0.5,1.1,1.1s-0.5,1.1-1.1,1.1
	s-1.1-0.5-1.1-1.1S19.7,9.6,20.3,9.6z"/>
</svg>
