<?xml version="1.0" encoding="utf-8"?>
<!-- Generator: Adobe Illustrator 22.0.0, SVG Export Plug-In . SVG Version: 6.00 Build 0)  -->
<svg version="1.1" id="Layer_2_1_" xmlns="http://www.w3.org/2000/svg" xmlns:xlink="http://www.w3.org/1999/xlink" x="0px" y="0px"
	 width="213px" height="50px" viewBox="0 0 213 50" style="enable-background:new 0 0 213 50;" xml:space="preserve">
<style type="text/css">
	.st0{fill:#8A2E29;}
	.st1{fill:#FFFFFF;}
</style>
<path class="st0" d="M49.2,25.1c0,13.6-11,24.6-24.6,24.6S0,38.7,0,25.1S11,0.5,24.6,0.5C38.2,0.4,49.2,11.5,49.2,25.1z"/>
<path class="st1" d="M34.1,25.6c0.5,0.6,0.7,1.2,0.7,2c0,0.9-0.4,1.8-1.1,2.5c-0.7,0.7-1.7,1-2.8,1c-0.4,0-0.7,0-1-0.1
	s-0.7-0.2-1.2-0.4c-0.3-0.1-0.5-0.2-0.7-0.2c-0.1,0-0.3,0.1-0.5,0.2s-0.3,0.3-0.4,0.5h-0.3v-4.3h0.3c0.2,1.2,0.7,2.1,1.4,2.8
	c0.7,0.6,1.5,1,2.3,1c0.6,0,1.1-0.2,1.5-0.5c0.4-0.3,0.6-0.7,0.6-1.2c0-0.3-0.1-0.5-0.2-0.8c-0.1-0.3-0.4-0.5-0.6-0.7
	c-0.3-0.2-0.8-0.5-1.5-0.9c-1-0.5-1.8-0.9-2.2-1.3c-0.5-0.4-0.8-0.8-1-1.2c-0.2-0.4-0.4-0.9-0.4-1.5c0-0.9,0.3-1.7,1-2.3
	c0.7-0.6,1.5-1,2.5-1c0.4,0,0.7,0,1.1,0.1c0.3,0.1,0.6,0.2,1,0.4c0.4,0.2,0.6,0.3,0.8,0.3c0.1,0,0.3,0,0.3-0.1
	c0.1-0.1,0.2-0.3,0.2-0.6h0.3l0.1,3.8H34c-0.2-0.9-0.6-1.7-1.2-2.3c-0.6-0.6-1.3-0.9-2.1-0.9c-0.6,0-1,0.2-1.4,0.5
	c-0.3,0.3-0.5,0.7-0.5,1.1c0,0.3,0.1,0.5,0.2,0.7c0.2,0.3,0.4,0.5,0.8,0.8c0.3,0.2,0.9,0.5,1.8,1C32.7,24.4,33.6,25,34.1,25.6z
	 M24.5,19.8C24.3,19.9,24.2,20,24,20c-0.1,0-0.5-0.1-1-0.3c-0.9-0.3-1.7-0.5-2.5-0.5c-1.1,0-2.1,0.3-3.1,0.8s-1.7,1.3-2.3,2.3
	s-0.9,2-0.9,3.1c0,1,0.3,2,0.8,2.9s1.2,1.6,2.2,2.1c0.9,0.5,2,0.7,3.2,0.7c0.9,0,1.7-0.1,2.4-0.4c0.7-0.3,1.4-0.8,2-1.4v-1
	c-0.7,0.8-1.3,1.3-1.9,1.6c-0.6,0.3-1.3,0.5-2,0.5c-0.9,0-1.6-0.2-2.1-0.6s-1-1.1-1.2-1.9c-0.3-0.8-0.4-1.8-0.4-2.8s0.2-2,0.5-2.8
	c0.3-0.7,0.7-1.2,1.3-1.6c0.6-0.4,1.2-0.6,2-0.6c0.9,0,1.6,0.3,2.3,0.8c0.7,0.5,1.1,1.3,1.4,2.4H25v-3.9h-0.3
	C24.7,19.4,24.6,19.6,24.5,19.8z M43.5,27.2c0,0,2.2,0.6,4.1-1c0,0-0.1,2.5-4.8,2.5c0,0-2.9-0.2-3.9,1.8l-0.1,0.3
	c0.5-0.4,1-0.8,1.6-1c1.6-0.5,2.4,0.6,2.4,0.6s1.7-1.1,3.3,0.3c1.1,1,0.5,2.2,0.5,2.2c0.3,0.5,0.5,1,0.6,1.4
	c-0.5,1.3-1.1,2.5-1.9,3.7l0,0c1.2-5.3-5.8-6.1-8.3-4.3l0,0c1.4-0.6,3.6-0.6,4.7,0.6c1.8,2,0.1,3.7,0.1,3.7
	c-0.2-3.9-4.2-2.7-4.2-2.7c3.2,0.6,3.6,3.8,2.4,5.2c-1.2,1.4-3.2,0.8-3.2,0.8c2.1-2.3-0.8-4.7-3.2-4.1c-1.4,1.1-3,1.9-4.8,2.5
	c0.4,0,0.8,0.1,1.2,0.2c0.6,0.1,2.4,0.9,2.8,1.1c0.4,0.2,0.8,0.3,1.1,0.2c0.4-0.1,0.7-0.4,0.7-0.6c0.1-0.4-0.2-0.9-0.7-0.9
	c0.2-0.1,0.6-0.1,0.8,0.1c0.3,0.2,0.5,0.4,0.6,0.7s0.1,0.7-0.1,1c0,0.1-0.1,0.2-0.2,0.2l-0.1,0.1l0.3,0.2c-0.1,0.1-0.3,0.2-0.4,0.3
	c-0.6,0.3-1.3,0.3-1.9,0.3c-0.6-0.1-1.1-0.2-1.6-0.3c-0.3-0.1-0.5-0.2-0.7-0.3c-0.3-0.1-0.9-0.6-1.2-0.7c-0.6-0.3-1.2-0.5-1.8-0.6
	c1.1,0.5,2,1.4,2.5,2.8c-1.7,0.3-3.2-0.2-4.2-1.3c0.5,1.5,0.1,3-1,4.3c-1.1-1.3-1.5-2.9-1-4.3c-1,1.1-2.5,1.6-4.2,1.3
	c0.5-1.5,1.5-2.5,2.8-2.9c-0.7,0.1-1.6,0.3-2.5,0.8c-0.2,0.1-0.9,0.5-1.2,0.7c-0.2,0.1-0.5,0.2-0.7,0.3c-0.5,0.2-1.1,0.3-1.6,0.3
	c-0.6,0-1.2,0-1.9-0.3c-0.2-0.1-0.3-0.2-0.4-0.3L14.1,42L14,41.9c-0.1-0.1-0.1-0.2-0.2-0.2c-0.2-0.3-0.2-0.7-0.1-1
	c0.1-0.3,0.3-0.6,0.6-0.7c0.2-0.2,0.6-0.2,0.8-0.1c-0.5,0-0.8,0.5-0.7,0.9c0,0.2,0.2,0.6,0.7,0.6c0.3,0,0.7-0.1,1.1-0.2
	c0.4-0.2,2.2-1,2.8-1.1c0.5-0.1,0.9-0.2,1.3-0.2c-1.8-0.5-3.4-1.4-4.8-2.5c-2.4-0.6-5.3,1.8-3.2,4.1c0,0-2,0.7-3.2-0.8
	c-1.2-1.4-0.8-4.6,2.4-5.2c0,0-4-1.2-4.2,2.7c0,0-1.8-1.7,0.1-3.7c1.2-1.3,3.3-1.2,4.7-0.6l0,0c-2.5-1.8-9.4-1-8.3,4.3l0,0
	c-0.7-1.2-1.3-2.4-1.9-3.7c0.1-0.4,0.3-0.9,0.6-1.4c0,0-0.6-1.1,0.5-2.2c1.6-1.5,3.3-0.3,3.3-0.3s0.8-1,2.4-0.6
	c0.6,0.2,1.1,0.5,1.6,1l-0.1-0.3c-1-2-3.9-1.8-3.9-1.8c-4.7,0-4.8-2.5-4.8-2.5c1.9,1.7,4.1,1,4.1,1c-2.9-0.5-5.1-2.7-5.5-4.5
	c0.1-0.6,0.1-1.1,0.2-1.7C1,19.9,2.5,20,2.5,20s-1.6,0.5-1.3,2.5c0.3,1.7,2.8,3,4.5,3.4c1.6,0.4,2.8,0.6,3.6,1.3
	c-0.1-0.6-0.1-1.2-0.1-1.9c0-0.4,0-0.8,0-1.2c-0.3-1.4-1.3-3.9-4-5.1c0,0-3-1.2-4.7,0.6c0.1-0.5,0.3-1,0.4-1.5
	c0.3-0.5,0.9-1.1,1.9-1.3c0,0-0.4-1,1-1.3c1-0.2,1.5,0.2,2,1.1c0,0,0.4-0.9,1.4-0.6c1.7,0.5,2.4,3.4,2.4,5.7c0.2-0.7,0.4-1.3,0.6-2
	l0,0c0,0,0.9-3-1.5-5.3c0,0-1.8-1.6-3.5-0.6c0,0,0.4-1.8,2.2-1.6c0,0,0-0.9,1.1-0.7c0.8,0.1,1.1,0.5,1.2,1.3c0,0,0.5-0.6,1.2-0.1
	c1.1,0.8,0.9,3.2,0.3,4.9c0.3-0.6,0.7-1.2,1.1-1.7c0.2-0.5,1-2.6,0-4.1s-2.2-1.1-2.2-1.1s0.7-1.2,2.2-0.5c0,0,0.6,0.3,0.8,0.7
	c-0.1-0.2-0.4-0.8-0.2-1.3c0,0,0.1-0.4,0.7-0.8c0,0-0.1,0.6,0.2,1c0.7,0.8,1.4,2,0.3,4.3c1.6-1.5,3.5-2.6,5.6-3.4
	c-1-0.9-2.3-0.7-2.3-0.7c0.5-0.9,1.7-0.7,1.7-0.7C18.7,8.5,19,7.5,19,7.5s0.9,0.5,1.3,1.2c0,0,0.7-1,1.7-0.9c0,0-1.1,0.9-0.9,2.4
	c0.9-0.2,1.8-0.4,2.8-0.4c-0.6-2.8-3.2-3.4-3.2-3.4c1.4-0.9,3.1,0.1,3.1,0.1c0-1.4,1-2.7,1-2.7s1,1.4,1,2.7c0,0,1.7-1,3.1-0.1
	c0,0-2.6,0.6-3.2,3.4c0.9,0.1,1.8,0.2,2.6,0.4c0.2-1.5-0.9-2.4-0.9-2.4c1-0.1,1.7,0.9,1.7,0.9c0.4-0.8,1.3-1.2,1.3-1.2
	s0.2,1-0.1,1.8c0,0,1.2-0.1,1.7,0.7c0,0-1.2-0.3-2.2,0.6c2.1,0.7,4.1,1.9,5.7,3.4c-1.2-2.3-0.4-3.5,0.3-4.3c0.3-0.4,0.2-1,0.2-1
	c0.6,0.4,0.7,0.8,0.7,0.8c0.1,0.5-0.1,1.1-0.2,1.3c0.2-0.4,0.8-0.7,0.8-0.7c1.5-0.8,2.2,0.5,2.2,0.5s-1.2-0.4-2.2,1.1
	s-0.3,3.5,0,4.1c0.4,0.5,0.8,1.1,1.1,1.7c-0.6-1.6-0.8-4.1,0.3-4.9c0.7-0.5,1.2,0.1,1.2,0.1c0.1-0.8,0.4-1.2,1.2-1.3
	c1.1-0.2,1.1,0.7,1.1,0.7c1.9-0.2,2.2,1.6,2.2,1.6c-1.7-0.9-3.5,0.6-3.5,0.6c-2.4,2.3-1.5,5.3-1.5,5.3l0,0c0.2,0.6,0.5,1.3,0.6,2
	c0-2.2,0.7-5.2,2.4-5.7c1-0.3,1.4,0.6,1.4,0.6c0.5-0.9,1-1.3,2-1.1c1.4,0.3,1,1.3,1,1.3c1,0.2,1.6,0.8,1.9,1.3
	c0.1,0.5,0.3,1,0.4,1.5c-1.7-1.8-4.7-0.6-4.7-0.6c-2.7,1.3-3.6,3.7-4,5.1c0,0.4,0.1,0.8,0.1,1.2c0,0.6,0,1.3-0.1,1.9
	c0.8-0.7,2-0.9,3.6-1.3c1.7-0.4,4.3-1.7,4.5-3.4c0.3-2-1.3-2.5-1.3-2.5s1.5-0.1,2.2,1.2c0.1,0.6,0.2,1.1,0.2,1.7
	C48.7,24.5,46.5,26.7,43.5,27.2z M38.5,25.1c0-7.7-6.2-13.9-13.9-13.9s-13.9,6.2-13.9,13.9S16.9,39,24.6,39
	C32.2,39,38.5,32.7,38.5,25.1z"/>
<path d="M61.3,20.7c0-1,0.3-2.8,1.8-4.2c1.1-1,2.5-1.6,4.8-1.6c0.9,0,1.5,0.1,2.2,0.2c0.6,0.1,1.1,0.2,1.5,0.3
	c0.2,0,0.2,0.1,0.2,0.2c0,0.1,0,0.3-0.1,0.8c0,0.5,0,1.3,0,1.6c0,0.2,0,0.4-0.2,0.4c-0.1,0-0.2-0.1-0.2-0.3c0-0.5-0.2-1-0.6-1.4
	c-0.5-0.5-1.7-0.9-3.1-0.9c-1.3,0-2.2,0.3-2.9,0.9c-1.1,1-1.4,2.5-1.4,3.9c0,3.6,2.8,5.4,4.8,5.4c1.4,0,2.2-0.2,2.8-0.9
	c0.3-0.3,0.5-0.7,0.5-1c0-0.2,0.1-0.3,0.2-0.3s0.1,0.1,0.1,0.2c0,0.2-0.2,1.5-0.3,2c-0.1,0.3-0.1,0.3-0.4,0.4
	c-0.6,0.2-1.8,0.4-2.7,0.4c-2.1,0-3.8-0.5-5.2-1.7C61.7,23.9,61.3,22.2,61.3,20.7z M76.6,26.5c-0.2,0-0.4,0-0.5,0
	c-0.3,0-0.4-0.2-0.4-0.5c0-0.4-0.1-1.2-0.1-2.2V23c0,0,0-0.1,0.1-0.1h4c0,0,0.1,0,0.1,0.1v0.8c0,0.9,0,1.7,0,2.2
	c0,0.3-0.1,0.5-0.3,0.5c-0.1,0-0.2,0-0.4,0c-0.1,0-0.2,0.1-0.2,0.1c0,0.1,0.1,0.1,0.2,0.1c0.4,0,1.2,0,1.4,0c0.3,0,1,0,1.7,0
	c0.1,0,0.2,0,0.2-0.1c0,0-0.1-0.1-0.2-0.1c-0.2,0-0.4,0-0.5,0c-0.3,0-0.4-0.2-0.4-0.5c0-0.4,0-1.3,0-2.2V22c0-1.6,0-1.8,0-2.2
	c0-0.4,0.1-0.5,0.4-0.6c0.1,0,0.2,0,0.3,0c0.1,0,0.2,0,0.2-0.1S82.1,19,82,19c-0.4,0-1.1,0-1.4,0s-1,0-1.6,0c-0.2,0-0.2,0-0.2,0.1
	s0.1,0.1,0.2,0.1s0.3,0,0.4,0c0.3,0.1,0.4,0.2,0.5,0.6c0,0.3,0,0.7,0,2.3v0.2c0,0.1,0,0.1-0.1,0.1h-4c0,0-0.1,0-0.1-0.1V22
	c0-1.6,0-1.9,0-2.3s0.1-0.5,0.4-0.6c0.1,0,0.2,0,0.3,0c0.1,0,0.2,0,0.2-0.1s-0.1-0.1-0.2-0.1c-0.4,0-1.2,0-1.4,0c-0.3,0-1,0-1.6,0
	c-0.1,0-0.2,0-0.2,0.1s0.1,0.1,0.2,0.1c0.2,0,0.3,0,0.4,0c0.3,0.1,0.4,0.2,0.5,0.6c0,0.3,0,0.6,0,2.2v1.8c0,0.9,0,1.7,0,2.2
	c0,0.3-0.1,0.5-0.3,0.5c-0.1,0-0.2,0-0.4,0c-0.1,0-0.2,0.1-0.2,0.1c0,0.1,0.1,0.1,0.2,0.1c0.4,0,1.1,0,1.4,0s1,0,1.7,0
	c0.1,0,0.2,0,0.2-0.1C76.8,26.5,76.7,26.5,76.6,26.5z M91.9,26.6c0,0.1-0.1,0.1-0.2,0.1h-1c-0.6,0-0.9-0.1-1.2-0.2
	C89,26.2,88.6,25.8,88,25c-0.4-0.6-0.9-1.2-1-1.4c-0.1-0.1-0.1-0.1-0.2-0.1h-1c0,0-0.1,0-0.1,0.1v0.1c0,1,0,1.7,0.1,2.2
	c0,0.3,0.1,0.5,0.4,0.5c0.2,0,0.4,0,0.5,0s0.1,0.1,0.1,0.1c0,0.1-0.1,0.1-0.2,0.1c-0.6,0-1.5,0-1.7,0s-0.9,0-1.3,0
	c-0.1,0-0.2,0-0.2-0.1c0,0,0-0.1,0.2-0.1s0.3,0,0.4,0c0.2,0,0.3-0.2,0.3-0.5c0-0.4,0-1.2,0-2.2v-1.8c0-1.6,0-1.8,0-2.2
	c0-0.3-0.1-0.5-0.5-0.6c-0.1,0-0.3,0-0.4,0s-0.2,0-0.2-0.1s0.1-0.1,0.2-0.1c0.6,0,1.2,0,1.4,0c0.4,0,1.3,0,1.7,0
	c0.7,0,1.4,0.1,2,0.4c0.3,0.2,0.7,0.7,0.7,1.4c0,0.8-0.4,1.4-1.5,2.3c0.9,1.2,1.7,2.1,2.3,2.7c0.6,0.6,1,0.6,1.1,0.7
	c0.1,0,0.2,0,0.3,0S91.9,26.5,91.9,26.6z M88.2,21.3c0-1.4-1-1.8-1.6-1.8c-0.3,0-0.5,0-0.6,0s-0.1,0.1-0.1,0.1v3
	c0,0.1,0,0.1,0.1,0.2c0.2,0.1,0.5,0.1,0.8,0.1c0.4,0,0.6,0,0.7-0.2C87.8,22.6,88.2,22.1,88.2,21.3z M95.9,26.6c0,0,0-0.1-0.2-0.1
	s-0.4,0-0.5,0c-0.3,0-0.4-0.2-0.4-0.5c0-0.4,0-1.3,0-2.2V22c0-1.6,0-1.8,0-2.2c0-0.4,0.1-0.5,0.4-0.6c0.1,0,0.2,0,0.3,0
	c0.1,0,0.2,0,0.2-0.1S95.6,19,95.5,19c-0.4,0-1.1,0-1.4,0s-1,0-1.4,0c-0.2,0-0.3,0-0.3,0.1s0.1,0.1,0.2,0.1s0.3,0,0.4,0
	c0.2,0.1,0.3,0.2,0.4,0.5c0,0.3,0,0.6,0,2.2v1.8c0,1,0,1.8,0,2.2c0,0.3-0.1,0.4-0.3,0.5c-0.1,0-0.2,0-0.4,0c-0.1,0-0.2,0.1-0.2,0.1
	c0,0.1,0.1,0.1,0.2,0.1c0.4,0,1.1,0,1.4,0s1,0,1.7,0C95.8,26.7,95.9,26.6,95.9,26.6z M96.9,26.5c0.5,0.2,1.1,0.3,1.7,0.3
	s1.3-0.1,1.8-0.4c0.8-0.5,1.1-1.2,1.1-1.9c0-0.9-0.4-1.7-1.8-2.5l-0.4-0.2c-1-0.5-1.1-0.9-1.1-1.4c0-0.7,0.7-1.1,1.4-1.1
	c0.7,0,1,0.3,1.2,0.5c0.2,0.3,0.3,0.6,0.3,0.7s0,0.2,0.1,0.2s0.1-0.1,0.1-0.3c0-0.8,0-1.1,0-1.2s0-0.1-0.1-0.1
	c-0.3-0.1-0.8-0.2-1.5-0.2c-1.5,0-2.7,0.8-2.7,2.1c0,0.9,0.4,1.6,1.7,2.3l0.6,0.4c0.9,0.6,1,1,1,1.4c0,0.7-0.6,1.3-1.5,1.3
	c-0.7,0-1.5-0.3-1.7-1C97,25.2,97,25,97,24.9s0-0.2-0.1-0.2s-0.1,0.1-0.1,0.3c0,0.2-0.1,0.8-0.1,1.4C96.7,26.4,96.8,26.5,96.9,26.5z
	 M108,26.6c0,0,0-0.1-0.2-0.1s-0.4,0-0.5,0c-0.3,0-0.4-0.2-0.4-0.5c0-0.4-0.1-1.3-0.1-2.2v-4.1h1.3c1,0,1.2,0.3,1.3,0.6v0.1
	c0,0.2,0,0.2,0.1,0.2s0.1-0.1,0.1-0.2c0-0.3,0-1,0-1.2s0-0.2-0.1-0.2c0,0-0.1,0-0.3,0c-0.2,0-0.4,0-0.7,0h-4.3c-0.3,0-0.7,0-1.1,0
	c-0.3,0-0.4-0.1-0.5-0.1s-0.1,0.1-0.1,0.2s-0.2,1.1-0.2,1.2s0,0.2,0.1,0.2s0.1,0,0.1-0.1s0.1-0.2,0.2-0.3c0.2-0.2,0.4-0.3,1-0.3h1.6
	v4.1c0,0.9,0,1.7,0,2.2c0,0.3-0.1,0.5-0.3,0.5c-0.1,0-0.2,0-0.4,0c-0.1,0-0.2,0.1-0.2,0.1c0,0.1,0.1,0.1,0.2,0.1c0.4,0,1.1,0,1.4,0
	s1,0,1.7,0C107.9,26.7,108,26.6,108,26.6z M114.6,26.8c-3.1,0-4.3-2.2-4.3-4c0-1.7,1.2-4,4.4-4c2.7,0,4.3,1.5,4.3,3.8
	C119,25,117.3,26.8,114.6,26.8z M115,26.3c0.7,0,2.4-0.3,2.4-3.3c0-2.3-1.4-3.7-3.1-3.7c-1.2,0-2.6,0.6-2.6,3.2
	C111.8,24.6,113,26.3,115,26.3z M123.4,26.7c0.1,0,0.2,0,0.2-0.1c0,0,0-0.1-0.2-0.1s-0.4,0-0.5,0c-0.3,0-0.4-0.2-0.4-0.5
	c0-0.4,0-1.3,0-2.2v-4.1c0-0.1,0-0.2,0.1-0.2s0.3,0,0.5,0s0.7,0,1.1,0.4c0.6,0.5,0.6,1.2,0.6,1.5c0,1-0.8,1.7-1.4,1.7
	c-0.2,0-0.3,0-0.3,0.1s0.1,0.1,0.1,0.1h0.3c1.5,0,2.7-1,2.7-2.5c0-0.6-0.3-1-0.5-1.2c-0.2-0.1-0.7-0.6-2-0.6c-0.5,0-1.3,0-1.8,0
	c-0.3,0-1,0-1.5,0c-0.2,0-0.2,0-0.2,0.1s0.1,0.1,0.2,0.1c0.2,0,0.3,0,0.4,0c0.3,0.1,0.4,0.2,0.5,0.6c0,0.3,0,0.6,0,2.2v1.8
	c0,0.9,0,1.7,0,2.2c0,0.3-0.1,0.5-0.3,0.5c-0.1,0-0.2,0-0.4,0c-0.1,0-0.2,0.1-0.2,0.1c0,0.1,0.1,0.1,0.2,0.1c0.4,0,1.1,0,1.3,0
	C121.9,26.6,122.7,26.7,123.4,26.7z M130.4,26.6c0,0,0-0.1-0.2-0.1s-0.4,0-0.5,0c-0.3,0-0.4-0.2-0.4-0.5c0-0.4-0.1-1.2-0.1-2.2V23
	c0,0,0-0.1,0.1-0.1h4c0,0,0.1,0,0.1,0.1v0.8c0,0.9,0,1.7,0,2.2c0,0.3-0.1,0.5-0.3,0.5c-0.1,0-0.2,0-0.4,0c-0.1,0-0.2,0.1-0.2,0.1
	c0,0.1,0.1,0.1,0.2,0.1c0.4,0,1.2,0,1.4,0c0.3,0,1,0,1.7,0c0.1,0,0.2,0,0.2-0.1c0,0-0.1-0.1-0.2-0.1c-0.2,0-0.4,0-0.5,0
	c-0.3,0-0.4-0.2-0.4-0.5c0-0.4,0-1.3,0-2.2V22c0-1.6,0-1.8,0-2.2c0-0.4,0.1-0.5,0.4-0.6c0.1,0,0.2,0,0.3,0s0.2,0,0.2-0.1
	s-0.1-0.1-0.2-0.1c-0.4,0-1.1,0-1.4,0c-0.3,0-1,0-1.6,0c-0.2,0-0.2,0-0.2,0.1s0.1,0.1,0.2,0.1c0.1,0,0.3,0,0.4,0
	c0.3,0.1,0.4,0.2,0.5,0.6c0,0.3,0,0.7,0,2.3v0.2c0,0.1,0,0.1-0.1,0.1h-4c0,0-0.1,0-0.1-0.1V22c0-1.6,0-1.9,0-2.3s0.1-0.5,0.4-0.6
	c0.1,0,0.2,0,0.3,0s0.2,0,0.2-0.1s-0.1-0.1-0.2-0.1c-0.4,0-1.2,0-1.4,0c-0.3,0-1,0-1.6,0c-0.1,0-0.2,0-0.2,0.1s0.1,0.1,0.2,0.1
	c0.2,0,0.3,0,0.4,0c0.3,0.1,0.4,0.2,0.5,0.6c0,0.3,0,0.6,0,2.2v1.8c0,0.9,0,1.7,0,2.2c0,0.3-0.1,0.5-0.3,0.5c-0.1,0-0.2,0-0.4,0
	c-0.1,0-0.2,0.1-0.2,0.1c0,0.1,0.1,0.1,0.2,0.1c0.4,0,1.1,0,1.4,0s1,0,1.7,0C130.3,26.7,130.4,26.6,130.4,26.6z M141.9,26.7
	c0.4,0,0.5,0,0.6-0.3c0.1-0.2,0.1-0.9,0.1-1.1c0-0.1,0-0.2-0.1-0.2s-0.1,0-0.1,0.2c-0.1,0.4-0.2,0.6-0.5,0.8c-0.3,0.1-0.7,0.1-1,0.1
	c-1.1,0-1.4-0.2-1.4-0.9c0-0.3,0-1.2,0-1.5V23c0-0.1,0-0.1,0.1-0.1c0.3,0,1.5,0,1.7,0c0.4,0,0.5,0.2,0.6,0.4c0,0.1,0,0.3,0,0.4
	c0,0,0,0.1,0.1,0.1s0.1-0.1,0.1-0.2s0-0.5,0-0.7c0.1-0.5,0.1-0.7,0.1-0.7c0-0.1,0-0.1-0.1-0.1c0,0-0.1,0.1-0.2,0.1
	c-0.1,0.1-0.3,0.1-0.5,0.2c-0.2,0-1.6,0-1.9,0c-0.1,0-0.1,0-0.1-0.1v-2.5c0-0.1,0-0.1,0.1-0.1c0.2,0,1.5,0,1.7,0
	c0.5,0,0.6,0.2,0.7,0.4c0.1,0.1,0.1,0.3,0.1,0.4s0,0.1,0.1,0.1s0.1-0.1,0.1-0.2s0-0.6,0.1-0.7c0-0.5,0.1-0.6,0.1-0.7
	c0,0,0-0.1-0.1-0.1c0,0-0.1,0-0.2,0c-0.1,0-0.3,0-0.4,0.1c-0.2,0-2.6,0-2.9,0c-0.3,0-1,0-1.5,0c-0.2,0-0.2,0-0.2,0.1
	s0.1,0.1,0.2,0.1c0.2,0,0.3,0,0.4,0c0.3,0.1,0.4,0.2,0.5,0.6c0,0.3,0,0.6,0,2.2v1.8c0,0.9,0,1.7,0,2.2c0,0.3-0.1,0.5-0.3,0.5
	c-0.1,0-0.2,0-0.4,0c-0.1,0-0.2,0.1-0.2,0.1c0,0.1,0.1,0.1,0.2,0.1c0.2,0,0.5,0,0.7,0c0.3,0,0.5,0,0.6,0c0.3,0,0.7,0,1.2,0
	C140.5,26.7,141.1,26.7,141.9,26.7z M152.2,26.6c0,0.1-0.1,0.1-0.2,0.1h-1c-0.6,0-0.9-0.1-1.2-0.2c-0.5-0.2-0.9-0.7-1.4-1.5
	c-0.4-0.6-0.9-1.2-1-1.4c-0.1-0.1-0.1-0.1-0.2-0.1h-1c0,0-0.1,0-0.1,0.1v0.1c0,1,0,1.7,0.1,2.2c0,0.3,0.1,0.5,0.4,0.5
	c0.2,0,0.4,0,0.5,0s0.1,0.1,0.1,0.1c0,0.1-0.1,0.1-0.2,0.1c-0.6,0-1.5,0-1.7,0s-0.9,0-1.3,0c-0.1,0-0.2,0-0.2-0.1c0,0,0-0.1,0.2-0.1
	s0.3,0,0.4,0c0.2,0,0.3-0.2,0.3-0.5c0-0.4,0-1.2,0-2.2v-1.8c0-1.6,0-1.8,0-2.2c0-0.3-0.1-0.5-0.5-0.6c-0.1,0-0.3,0-0.4,0
	c-0.1,0-0.2,0-0.2-0.1s0.1-0.1,0.2-0.1c0.6,0,1.2,0,1.4,0c0.4,0,1.3,0,1.7,0c0.7,0,1.4,0.1,2,0.4c0.3,0.2,0.7,0.7,0.7,1.4
	c0,0.8-0.4,1.4-1.5,2.3c0.9,1.2,1.7,2.1,2.3,2.7s1,0.6,1.1,0.7c0.1,0,0.2,0,0.3,0C152.1,26.5,152.2,26.5,152.2,26.6z M148.5,21.3
	c0-1.4-1-1.8-1.6-1.8c-0.3,0-0.5,0-0.6,0s-0.1,0.1-0.1,0.1v3c0,0.1,0,0.1,0.1,0.2c0.2,0.1,0.5,0.1,0.8,0.1c0.4,0,0.6,0,0.7-0.2
	C148.1,22.6,148.5,22.1,148.5,21.3z M160.2,19.7l-0.4-0.3c-1.3-1-1.6-1.5-1.6-2.2c0-0.9,0.7-1.6,1.8-1.6c1,0,1.4,0.5,1.7,0.7
	c0.3,0.4,0.4,0.9,0.4,1c0,0.2,0,0.3,0.2,0.3c0.1,0,0.2-0.1,0.2-0.5c0-1.2,0.1-1.6,0.1-1.8c0-0.1-0.1-0.2-0.2-0.2
	c-0.4-0.1-1-0.3-2-0.3c-2.1,0-3.5,1.2-3.5,2.9c0,1.2,0.6,2.3,2.3,3.6l0.7,0.5c1.3,1,1.5,1.7,1.5,2.4c0,0.8-0.7,1.7-2,1.7
	c-0.9,0-1.8-0.4-2.2-1.5c-0.1-0.3-0.1-0.6-0.1-0.8c0-0.1,0-0.3-0.2-0.3c-0.1,0-0.2,0.2-0.2,0.4c0,0.2-0.1,1.2-0.1,2
	c0,0.3,0,0.4,0.3,0.5c0.7,0.3,1.3,0.4,2.2,0.4c0.8,0,1.7-0.1,2.4-0.6c1.1-0.7,1.4-1.8,1.4-2.7C162.7,22.2,162,21.1,160.2,19.7z
	 M170.5,18.9c0,0-0.1,0-0.3,0s-0.4,0-0.7,0h-4.3c-0.3,0-0.7,0-1.1,0c-0.3,0-0.4-0.1-0.5-0.1s-0.1,0.1-0.1,0.2s-0.2,1.1-0.2,1.2
	s0,0.2,0.1,0.2s0.1,0,0.1-0.1s0.1-0.2,0.2-0.3c0.2-0.2,0.4-0.3,1-0.3h1.6v4.1c0,0.9,0,1.7,0,2.2c0,0.3-0.1,0.5-0.3,0.5
	c-0.1,0-0.2,0-0.4,0c-0.1,0-0.2,0.1-0.2,0.1c0,0.1,0.1,0.1,0.2,0.1c0.4,0,1.1,0,1.4,0c0.3,0,1,0,1.7,0c0.1,0,0.2,0,0.2-0.1
	c0,0,0-0.1-0.2-0.1s-0.4,0-0.5,0c-0.3,0-0.4-0.2-0.4-0.5c0-0.4-0.1-1.3-0.1-2.2v-4.1h1.3c1,0,1.2,0.3,1.3,0.6v0.1
	c0,0.2,0,0.2,0.1,0.2s0.1-0.1,0.1-0.2c0-0.3,0-1,0-1.2C170.5,18.9,170.5,18.9,170.5,18.9z M177,25.1c-0.1,0-0.1,0-0.1,0.2
	c-0.1,0.4-0.2,0.6-0.5,0.8c-0.3,0.1-0.7,0.1-1,0.1c-1.1,0-1.4-0.2-1.4-0.9c0-0.3,0-1.2,0-1.5V23c0-0.1,0-0.1,0.1-0.1
	c0.3,0,1.5,0,1.7,0c0.4,0,0.5,0.2,0.6,0.4c0,0.1,0,0.3,0,0.4c0,0,0,0.1,0.1,0.1s0.1-0.1,0.1-0.2s0-0.5,0-0.7
	c0.1-0.5,0.1-0.7,0.1-0.7c0-0.1,0-0.1-0.1-0.1c0,0-0.1,0.1-0.2,0.1c-0.1,0.1-0.3,0.1-0.5,0.2c-0.2,0-1.6,0-1.9,0
	c-0.1,0-0.1,0-0.1-0.1v-2.5c0-0.1,0-0.1,0.1-0.1c0.2,0,1.5,0,1.7,0c0.5,0,0.6,0.2,0.7,0.4c0.1,0.1,0.1,0.3,0.1,0.4s0,0.1,0.1,0.1
	s0.1-0.1,0.1-0.2s0.2-1.3,0.2-1.4c0,0,0-0.1-0.1-0.1c0,0-0.1,0-0.2,0c-0.1,0-0.3,0-0.4,0.1c-0.2,0-2.6,0-2.9,0c-0.3,0-1,0-1.5,0
	c-0.2,0-0.2,0-0.2,0.1s0.1,0.1,0.2,0.1c0.2,0,0.3,0,0.4,0c0.3,0.1,0.4,0.2,0.5,0.6c0,0.3,0,0.6,0,2.2v1.8c0,0.9,0,1.7,0,2.2
	c0,0.3-0.1,0.5-0.3,0.5c-0.1,0-0.2,0-0.4,0c-0.1,0-0.2,0.1-0.2,0.1c0,0.1,0.1,0.1,0.2,0.1c0.2,0,0.5,0,0.7,0c0.3,0,0.5,0,0.6,0
	c0.3,0,0.7,0,1.2,0s1.2,0,2,0c0.4,0,0.5,0,0.6-0.3c0.1-0.2,0.1-0.9,0.1-1.1C177.1,25.2,177.1,25.1,177,25.1z M189.3,19.2
	c0.1,0,0.3,0,0.4,0c0.1,0,0.1,0,0.1-0.1s-0.1-0.1-0.2-0.1c-0.4,0-0.8,0-0.9,0c-0.1,0-0.6,0-1.1,0c-0.2,0-0.3,0-0.3,0.1
	s0.1,0.1,0.2,0.1c0.4,0,0.5,0.1,0.5,0.3c0,0.1,0,0.3-0.1,0.6c-0.4,1.2-1.2,3.9-1.4,4.5l0,0l-2.1-5.1c-0.1-0.3-0.2-0.5-0.3-0.5
	s-0.2,0.1-0.3,0.4l-2,5.2l0,0c-0.2-0.5-1.1-3.6-1.3-4.2c-0.1-0.5-0.2-0.8-0.2-0.9s0-0.2,0.1-0.2s0.2,0,0.3,0s0.2,0,0.2-0.1
	s-0.1-0.1-0.2-0.1c-0.6,0-1.1,0-1.2,0s-0.7,0-1.2,0c-0.2,0-0.2,0-0.2,0.1s0.1,0.1,0.2,0.1c0.1,0,0.3,0,0.4,0.1
	c0.2,0.1,0.2,0.3,0.4,0.7l2.2,6.5c0.1,0.3,0.2,0.4,0.3,0.4c0.2,0,0.2-0.1,0.4-0.5c0.4-0.9,1.9-4.6,2-5l0,0l2.2,5.1
	c0.2,0.4,0.2,0.5,0.4,0.5s0.2-0.1,0.3-0.5c0.5-1.5,1.6-4.8,2.1-6.1C189.2,19.7,189.3,19.2,189.3,19.2z M197.2,26.6
	c0,0.1-0.1,0.1-0.5,0.1s-1.1,0-2,0c-0.2,0-0.3,0-0.3-0.1s0-0.1,0.1-0.1s0.1-0.1,0.1-0.2l-0.8-2.1c0-0.1-0.1-0.1-0.1-0.1h-2.5
	c-0.1,0-0.1,0-0.1,0.1l-0.6,1.4c-0.1,0.3-0.2,0.5-0.2,0.6c0,0.2,0.1,0.3,0.4,0.3h0.2c0.1,0,0.2,0,0.2,0.1s-0.1,0.1-0.2,0.1
	c-0.3,0-0.8,0-1.2,0c-0.1,0-0.7,0-1.2,0c-0.1,0-0.2,0-0.2-0.1s0-0.1,0.1-0.1s0.2,0,0.3,0c0.5-0.1,0.7-0.4,0.9-0.9l2.8-6.4
	c0.1-0.3,0.2-0.4,0.3-0.4c0.2,0,0.2,0.1,0.3,0.3c0.3,0.6,2,4.7,2.7,6.3c0.4,0.9,0.7,1.1,0.9,1.1s0.3,0,0.4,0
	C197.1,26.5,197.2,26.5,197.2,26.6z M193.5,23.5l-1-2.6v-0.1c0,0,0,0.1-0.1,0.1l-1,2.6v0.1L193.5,23.5L193.5,23.5z M206.1,26.6
	c0,0.1-0.1,0.1-0.2,0.1h-1c-0.6,0-0.9-0.1-1.2-0.2c-0.5-0.2-0.9-0.7-1.4-1.5c-0.4-0.6-0.9-1.2-1-1.4c-0.1-0.1-0.1-0.1-0.2-0.1h-1
	c0,0-0.1,0-0.1,0.1v0.1c0,1,0,1.7,0.1,2.2c0,0.3,0.1,0.5,0.4,0.5c0.2,0,0.4,0,0.5,0s0.1,0.1,0.1,0.1c0,0.1-0.1,0.1-0.2,0.1
	c-0.6,0-1.5,0-1.7,0s-0.9,0-1.3,0c-0.1,0-0.2,0-0.2-0.1c0,0,0-0.1,0.2-0.1s0.3,0,0.4,0c0.2,0,0.3-0.2,0.3-0.5c0-0.4,0-1.2,0-2.2
	v-1.8c0-1.6,0-1.8,0-2.2c0-0.3-0.1-0.5-0.5-0.6c-0.1,0-0.3,0-0.4,0c-0.1,0-0.2,0-0.2-0.1s0.1-0.1,0.2-0.1c0.6,0,1.2,0,1.4,0
	c0.4,0,1.3,0,1.7,0c0.7,0,1.4,0.1,2,0.4c0.3,0.2,0.7,0.7,0.7,1.4c0,0.8-0.4,1.4-1.5,2.3c0.9,1.2,1.7,2.1,2.3,2.7s1,0.6,1.1,0.7
	c0.1,0,0.2,0,0.3,0C206.1,26.5,206.1,26.5,206.1,26.6z M202.4,21.3c0-1.4-1-1.8-1.6-1.8c-0.3,0-0.5,0-0.6,0s-0.1,0.1-0.1,0.1v3
	c0,0.1,0,0.1,0.1,0.2c0.2,0.1,0.5,0.1,0.8,0.1c0.4,0,0.6,0,0.7-0.2C202.1,22.6,202.4,22.1,202.4,21.3z M212.5,18.9c0,0-0.1,0-0.3,0
	s-0.4,0-0.7,0h-4.3c-0.3,0-0.7,0-1.1,0c-0.3,0-0.4-0.1-0.5-0.1s-0.1,0.1-0.1,0.2s-0.2,1.1-0.2,1.2s0,0.2,0.1,0.2s0.1,0,0.1-0.1
	s0.1-0.2,0.2-0.3c0.2-0.2,0.4-0.3,1-0.3h1.6v4.1c0,0.9,0,1.7,0,2.2c0,0.3-0.1,0.5-0.3,0.5c-0.1,0-0.2,0-0.4,0
	c-0.1,0-0.2,0.1-0.2,0.1c0,0.1,0.1,0.1,0.2,0.1c0.4,0,1.1,0,1.4,0c0.3,0,1,0,1.7,0c0.1,0,0.2,0,0.2-0.1c0,0,0-0.1-0.2-0.1
	s-0.4,0-0.5,0c-0.3,0-0.4-0.2-0.4-0.5c0-0.4-0.1-1.3-0.1-2.2v-4.1h1.3c1,0,1.2,0.3,1.3,0.6v0.1c0,0.2,0,0.2,0.1,0.2s0.1-0.1,0.1-0.2
	c0-0.3,0-1,0-1.2C212.5,18.9,212.5,18.9,212.5,18.9z M72.3,33.1c-0.3,0-0.7,0-0.8,0c-0.1,0-0.5,0-1,0c-0.1,0-0.2,0-0.2,0.1
	s0.1,0.1,0.2,0.1c0.4,0,0.5,0.1,0.5,0.3c0,0.1,0,0.3-0.1,0.5c-0.3,1.1-1.1,3.6-1.3,4.2l0,0l-2-4.8c-0.1-0.3-0.2-0.4-0.3-0.4
	c-0.1,0-0.1,0.1-0.2,0.3l-1.8,4.9l0,0c-0.2-0.5-1-3.4-1.2-4c-0.1-0.4-0.2-0.7-0.2-0.9c0-0.1,0-0.2,0.1-0.2c0.1,0,0.2,0,0.2,0
	c0.1,0,0.2,0,0.2-0.1S64.3,33,64.2,33c-0.5,0-1,0-1,0c-0.1,0-0.6,0-1.1,0c-0.1,0-0.2,0-0.2,0.1s0.1,0.1,0.2,0.1c0.1,0,0.3,0,0.4,0.1
	c0.1,0.1,0.2,0.3,0.3,0.7l2,6c0.1,0.2,0.1,0.4,0.2,0.4s0.2-0.1,0.3-0.5c0.4-0.9,1.7-4.2,1.8-4.7l0,0l2,4.7c0.1,0.4,0.2,0.5,0.3,0.5
	c0.1,0,0.2-0.1,0.3-0.4c0.5-1.4,1.5-4.4,1.9-5.6c0.2-0.5,0.3-0.9,0.5-1c0.1,0,0.2,0,0.3,0c0.1,0,0.1,0,0.1-0.1
	C72.4,33.2,72.4,33.1,72.3,33.1z M75.5,40.1c-0.1,0-0.3,0-0.4,0c-0.2,0-0.3-0.2-0.3-0.4c0-0.3,0-1,0-1.8v-1.4c0-1.2,0-1.4,0-1.7
	s0.1-0.4,0.3-0.4c0.1,0,0.2,0,0.2,0c0.1,0,0.1,0,0.1-0.1c0,0-0.1-0.1-0.2-0.1c-0.3,0-0.9,0-1.1,0s-0.8,0-1.1,0c-0.1,0-0.2,0-0.2,0.1
	s0,0.1,0.1,0.1s0.2,0,0.3,0c0.2,0.1,0.3,0.2,0.3,0.4c0,0.3,0,0.5,0,1.7V38c0,0.8,0,1.4,0,1.7c0,0.2-0.1,0.3-0.2,0.4
	c-0.1,0-0.2,0-0.3,0c-0.1,0-0.1,0-0.1,0.1s0.1,0.1,0.2,0.1c0.3,0,0.9,0,1.1,0s0.8,0,1.3,0c0.1,0,0.2,0,0.2-0.1
	C75.6,40.2,75.6,40.1,75.5,40.1z M83.8,34.2c-0.4,0-0.7,0-0.8,0c-0.2,0-0.6,0-1.1,0c-0.1,0-0.2,0-0.2,0.1c0,0,0,0.1,0.1,0.1
	s0.3,0,0.4,0c0.2,0.1,0.3,0.2,0.3,0.7l0.1,3.6l0,0c-0.1-0.1-1.2-1.2-1.8-1.8c-1.2-1.2-2.5-2.5-2.6-2.6S77.9,34,77.8,34
	s-0.1,0.1-0.1,0.3l-0.1,4.8c0,0.7,0,0.9-0.3,1c-0.1,0-0.3,0-0.4,0s-0.1,0-0.1,0.1s0.1,0.1,0.2,0.1c0.4,0,0.8,0,0.9,0
	c0.2,0,0.5,0,1.1,0c0.1,0,0.2,0,0.2-0.1c0,0,0-0.1-0.1-0.1s-0.3,0-0.4-0.1c-0.2-0.1-0.3-0.2-0.3-0.9l-0.1-3.3l0,0
	c0.2,0.1,1,1.1,1.9,2c0.9,0.8,1.9,1.8,2.4,2.3c0.1,0.1,0.2,0.2,0.3,0.2c0.1,0,0.1-0.1,0.1-0.3l0.1-5.1c0-0.5,0.1-0.5,0.3-0.6
	c0.1,0,0.2,0,0.3,0c0.1,0,0.1,0.1,0.1,0C84,34.3,83.9,34.2,83.8,34.2z M89.8,39C89.7,39,89.7,39,89.8,39c-0.2,0.4-0.3,0.6-0.5,0.7
	c-0.2,0.1-0.6,0.1-0.8,0.1c-0.9,0-1.1-0.1-1.1-0.7c0-0.2,0-0.9,0-1.2v-0.6v-0.1c0.2,0,1.2,0,1.3,0c0.3,0,0.4,0.2,0.5,0.3
	c0,0.1,0,0.2,0,0.3c0,0,0,0.1,0.1,0.1s0.1-0.1,0.1-0.2c0-0.1,0-0.4,0-0.5c0-0.4,0.1-0.5,0.1-0.6c0,0,0-0.1-0.1-0.1
	c0,0-0.1,0-0.1,0.1c-0.1,0.1-0.2,0.1-0.4,0.1c-0.2,0-1.3,0-1.5,0c0,0-0.1,0-0.1-0.1v-2c0,0,0-0.1,0.1-0.1c0.2,0,1.2,0,1.3,0
	c0.4,0,0.5,0.2,0.5,0.3s0.1,0.2,0.1,0.3s0,0.1,0.1,0.1s0.1-0.1,0.1-0.1c0-0.1,0-0.4,0-0.5c0-0.4,0.1-0.5,0.1-0.5s0-0.1-0.1-0.1h-0.1
	c-0.1,0-0.2,0-0.3,0c-0.2,0-2,0-2.3,0c-0.2,0-0.8,0-1.2,0c-0.1,0-0.2,0-0.2,0.1s0.1,0.1,0.1,0.1c0.1,0,0.3,0,0.3,0
	c0.3,0.1,0.3,0.2,0.4,0.4c0,0.3,0,0.5,0,1.7V38c0,0.7,0,1.4,0,1.7c0,0.2-0.1,0.4-0.2,0.4s-0.2,0-0.3,0c-0.1,0-0.1,0-0.1,0.1
	s0.1,0.1,0.2,0.1c0.2,0,0.4,0,0.6,0s0.4,0,0.5,0c0.2,0,0.6,0,1,0s0.9,0,1.5,0c0.3,0,0.4,0,0.4-0.2s0.1-0.7,0.1-0.9
	C89.9,39.1,89.9,39,89.8,39z M102.8,40.2c0,0.1-0.1,0.1-0.3,0.1h-0.7c-1.1,0-1.4-0.1-2.2-0.7c-0.3,0.3-0.9,0.9-2.2,0.9
	c-2,0-2.6-1.3-2.6-2.1c0-1.1,1-2,1.5-2.2c-0.4-0.5-0.5-0.9-0.5-1.3c0-0.7,0.7-1.7,2.3-1.7c0.5,0,0.9,0.1,1.1,0.2
	c0.2,0.1,0.2,0.1,0.2,0.2c0,0.3-0.1,1.1-0.1,1.2c0,0.1-0.1,0.2-0.1,0.2s-0.1,0-0.1-0.2S99,34.3,98.8,34c-0.2-0.2-0.5-0.4-1-0.4
	c-0.4,0-1,0.3-1,1.1c0,0.9,0.8,1.6,1.6,2.5c0.3,0.4,1.5,1.4,1.7,1.6c0.2-0.3,0.5-0.9,0.5-1.5c0-0.1,0-0.3-0.2-0.4
	c-0.1-0.1-0.3-0.1-0.5-0.1c-0.1,0-0.1,0-0.1-0.1s0.1-0.1,0.2-0.1c0.2,0,0.6,0,1.1,0.1c0.2,0,0.3,0.1,0.3,0.2c0,0.7-0.4,1.6-0.9,2.2
	c0.6,0.5,1.1,0.8,1.3,0.9c0.3,0.2,0.8,0.3,1,0.3C102.8,40.1,102.8,40.1,102.8,40.2z M99.2,39.3c-0.5-0.5-1.5-1.4-1.7-1.6
	c-0.2-0.3-0.8-0.9-1-1.2c-0.3,0.2-0.7,0.7-0.7,1.4c0,1.2,0.8,1.9,1.8,1.9C98.4,39.8,99,39.4,99.2,39.3z M109,36l-0.3-0.2
	c-0.8-0.6-1-0.9-1-1.4c0-0.6,0.4-1,1.1-1c0.6,0,0.9,0.3,1,0.5c0.2,0.2,0.2,0.5,0.2,0.6s0,0.2,0.1,0.2s0.1-0.1,0.1-0.3
	c0-0.7,0-1,0-1.1s0-0.1-0.1-0.1c-0.2-0.1-0.6-0.2-1.3-0.2c-1.3,0-2.2,0.7-2.2,1.8c0,0.8,0.4,1.4,1.4,2.2l0.4,0.3
	c0.8,0.6,0.9,1,0.9,1.5s-0.4,1.1-1.3,1.1c-0.6,0-1.1-0.3-1.4-1c0-0.2-0.1-0.4-0.1-0.5s0-0.2-0.1-0.2s-0.1,0.1-0.1,0.2
	c0,0.2,0,0.7,0,1.2c0,0.2,0,0.3,0.2,0.3c0.4,0.2,0.8,0.2,1.4,0.2c0.5,0,1-0.1,1.5-0.4c0.7-0.4,0.9-1.1,0.9-1.6
	C110.6,37.5,110.2,36.8,109,36z M114.3,34.2c-0.4,0-1,0-1.4,0c-0.2,0-0.8,0-1.2,0c-0.1,0-0.2,0-0.2,0.1s0.1,0.1,0.1,0.1
	c0.1,0,0.3,0,0.3,0c0.3,0.1,0.3,0.2,0.4,0.4c0,0.3,0,0.5,0,1.7V38c0,0.7,0,1.4,0,1.7c0,0.2-0.1,0.4-0.2,0.4s-0.2,0-0.3,0
	c-0.1,0-0.1,0-0.1,0.1s0.1,0.1,0.2,0.1c0.3,0,0.9,0,1,0c0.2,0,0.8,0,1.4,0c0.1,0,0.2,0,0.2-0.1c0,0,0-0.1-0.1-0.1s-0.3,0-0.4,0
	c-0.2,0-0.3-0.2-0.3-0.4c0-0.3,0-1,0-1.7v-3.2c0-0.1,0-0.1,0.1-0.2c0.1,0,0.2,0,0.4,0c0.2,0,0.5,0,0.8,0.3c0.5,0.4,0.5,0.9,0.5,1.2
	c0,0.8-0.7,1.3-1.1,1.3c-0.2,0-0.3,0-0.3,0.1s0.1,0.1,0.1,0.1h0.2c1.2,0,2.1-0.8,2.1-1.9c0-0.4-0.2-0.8-0.4-1
	C115.7,34.6,115.3,34.2,114.3,34.2z M120,40.1c-0.1,0-0.3,0-0.4,0c-0.2,0-0.3-0.2-0.3-0.4c0-0.3,0-1,0-1.8v-1.4c0-1.2,0-1.4,0-1.7
	s0.1-0.4,0.3-0.4c0.1,0,0.2,0,0.2,0c0.1,0,0.1,0,0.1-0.1c0,0-0.1-0.1-0.2-0.1c-0.3,0-0.9,0-1.1,0s-0.8,0-1.1,0c-0.1,0-0.2,0-0.2,0.1
	s0,0.1,0.1,0.1s0.2,0,0.3,0c0.2,0.1,0.3,0.2,0.3,0.4c0,0.3,0,0.5,0,1.7V38c0,0.8,0,1.4,0,1.7c0,0.2-0.1,0.3-0.2,0.4
	c-0.1,0-0.2,0-0.3,0c-0.1,0-0.1,0-0.1,0.1s0.1,0.1,0.2,0.1c0.3,0,0.9,0,1.1,0s0.8,0,1.3,0c0.1,0,0.2,0,0.2-0.1
	C120.1,40.2,120.1,40.1,120,40.1z M128.2,40.2c0,0.1-0.1,0.1-0.2,0.1h-0.8c-0.5,0-0.7,0-0.9-0.2c-0.4-0.2-0.7-0.6-1.1-1.2
	c-0.3-0.4-0.7-1-0.8-1.1c0,0-0.1-0.1-0.2-0.1h-0.7c0,0-0.1,0-0.1,0.1V38c0,0.7,0,1.4,0,1.7c0,0.2,0.1,0.4,0.3,0.4c0.1,0,0.3,0,0.4,0
	s0.1,0,0.1,0.1s-0.1,0.1-0.2,0.1c-0.5,0-1.2,0-1.3,0c-0.2,0-0.7,0-1,0c-0.1,0-0.2,0-0.2-0.1c0,0,0-0.1,0.1-0.1s0.2,0,0.3,0
	c0.2,0,0.2-0.2,0.2-0.4c0-0.3,0-1,0-1.7v-1.4c0-1.2,0-1.4,0-1.7s-0.1-0.4-0.4-0.4c-0.1,0-0.2,0-0.3,0c-0.1,0-0.1,0-0.1-0.1
	s0.1-0.1,0.2-0.1c0.4,0,1,0,1.1,0c0.3,0,1,0,1.3,0c0.5,0,1.1,0,1.6,0.3c0.2,0.2,0.6,0.6,0.6,1.1c0,0.6-0.3,1.1-1.2,1.8
	c0.7,0.9,1.3,1.6,1.8,2.1s0.8,0.5,0.9,0.5s0.1,0,0.2,0S128.2,40.2,128.2,40.2z M125.3,36.1c0-1.1-0.8-1.4-1.3-1.4
	c-0.2,0-0.4,0-0.5,0s-0.1,0-0.1,0.1v2.4c0,0.1,0,0.1,0.1,0.1c0.2,0.1,0.4,0.1,0.6,0.1c0.3,0,0.4,0,0.6-0.1
	C125,37.1,125.3,36.7,125.3,36.1z M131.2,40.1c-0.1,0-0.3,0-0.4,0c-0.2,0-0.3-0.2-0.3-0.4c0-0.3,0-1,0-1.8v-1.4c0-1.2,0-1.4,0-1.7
	s0.1-0.4,0.3-0.4c0.1,0,0.2,0,0.2,0c0.1,0,0.1,0,0.1-0.1c0,0-0.1-0.1-0.2-0.1c-0.3,0-0.9,0-1.1,0c-0.2,0-0.8,0-1.1,0
	c-0.1,0-0.2,0-0.2,0.1s0,0.1,0.1,0.1s0.2,0,0.3,0c0.2,0.1,0.3,0.2,0.3,0.4c0,0.3,0,0.5,0,1.7V38c0,0.8,0,1.4,0,1.7
	c0,0.2-0.1,0.3-0.2,0.4c-0.1,0-0.2,0-0.3,0s-0.1,0-0.1,0.1s0.1,0.1,0.2,0.1c0.3,0,0.9,0,1.1,0c0.2,0,0.8,0,1.3,0
	c0.1,0,0.2,0,0.2-0.1C131.4,40.2,131.3,40.1,131.2,40.1z M138,34.2c0,0-0.1,0-0.2,0c-0.1,0-0.3,0-0.6,0h-3.4c-0.3,0-0.6,0-0.8,0
	s-0.3-0.1-0.4-0.1c0,0-0.1,0-0.1,0.2c0,0.1-0.2,0.8-0.2,1c0,0.1,0,0.1,0.1,0.1s0.1,0,0.1-0.1s0.1-0.2,0.1-0.3
	c0.1-0.2,0.3-0.2,0.8-0.2h1.2V38c0,0.7,0,1.4,0,1.7c0,0.2-0.1,0.4-0.2,0.4c-0.1,0-0.2,0-0.3,0s-0.1,0-0.1,0.1s0.1,0.1,0.2,0.1
	c0.3,0,0.9,0,1.1,0c0.2,0,0.8,0,1.3,0c0.1,0,0.2,0,0.2-0.1c0,0,0-0.1-0.1-0.1s-0.3,0-0.4,0c-0.2,0-0.3-0.2-0.3-0.4c0-0.3,0-1,0-1.7
	v-3.2h1c0.7,0,1,0.3,1,0.5v0.1c0,0.1,0,0.2,0.1,0.2c0,0,0.1,0,0.1-0.1c0-0.2,0-0.8,0-1C138.1,34.2,138.1,34.2,138,34.2z M141.2,36.6
	l-0.3-0.2c-0.7-0.4-0.9-0.7-0.9-1.1c0-0.5,0.5-0.9,1.1-0.9c0.5,0,0.8,0.2,0.9,0.4c0.2,0.2,0.2,0.5,0.2,0.5c0,0.1,0,0.1,0.1,0.1
	s0.1-0.1,0.1-0.3c0-0.6,0-0.9,0-1s0-0.1-0.1-0.1c-0.2-0.1-0.6-0.1-1.2-0.1c-1.2,0-2.1,0.6-2.1,1.6c0,0.7,0.3,1.2,1.3,1.8l0.5,0.3
	c0.7,0.4,0.8,0.8,0.8,1.1c0,0.6-0.4,1-1.2,1c-0.5,0-1.1-0.2-1.3-0.8c0-0.1-0.1-0.3-0.1-0.4c0-0.1,0-0.1-0.1-0.1s-0.1,0.1-0.1,0.2
	c0,0.1,0,0.6,0,1.1c0,0.2,0,0.2,0.2,0.3c0.4,0.2,0.9,0.2,1.4,0.2c0.4,0,1,0,1.4-0.3c0.6-0.4,0.8-0.9,0.8-1.5
	C142.7,37.8,142.3,37.2,141.2,36.6z"/>
</svg>
