<?xml version="1.0" encoding="utf-8"?>
<!-- Generator: Adobe Illustrator 22.0.0, SVG Export Plug-In . SVG Version: 6.00 Build 0)  -->
<svg version="1.1" id="logo_x5F_zh" xmlns="http://www.w3.org/2000/svg" xmlns:xlink="http://www.w3.org/1999/xlink" x="0px"
	 y="0px" width="200px" height="46.3px" viewBox="0 0 200 46.3" style="enable-background:new 0 0 200 46.3;" xml:space="preserve">
<style type="text/css">
	.st0{fill:#8D302B;}
	.st1{fill:#FFFFFF;}
	.st2{fill:#231F20;}
</style>
<path class="st0" d="M46.284,23.199c0,12.772-10.352,23.126-23.125,23.126c-12.773,0-23.127-10.354-23.127-23.126
	c0-12.772,10.354-23.126,23.127-23.126C35.931,0.073,46.284,10.427,46.284,23.199z"/>
<path class="st1" d="M23.591,17.627v3.696h-0.306c-0.231-0.965-0.662-1.704-1.29-2.217c-0.629-0.514-1.341-0.771-2.14-0.771
	c-0.665,0-1.276,0.192-1.832,0.574c-0.556,0.383-0.962,0.884-1.219,1.502c-0.33,0.792-0.495,1.673-0.495,2.642
	c0,0.954,0.121,1.823,0.361,2.607c0.242,0.783,0.619,1.376,1.134,1.777c0.513,0.401,1.178,0.602,1.996,0.602
	c0.67,0,1.287-0.147,1.845-0.44c0.558-0.294,1.147-0.799,1.766-1.518v0.92c-0.598,0.624-1.221,1.076-1.869,1.357
	c-0.646,0.281-1.403,0.421-2.268,0.421c-1.139,0-2.15-0.228-3.033-0.684c-0.882-0.457-1.564-1.111-2.043-1.966
	c-0.48-0.855-0.721-1.764-0.721-2.729c0-1.017,0.267-1.982,0.799-2.894s1.251-1.62,2.156-2.123c0.904-0.503,1.864-0.755,2.882-0.755
	c0.749,0,1.541,0.163,2.375,0.488c0.483,0.189,0.788,0.283,0.919,0.283c0.168,0,0.315-0.062,0.437-0.185
	c0.123-0.123,0.204-0.318,0.241-0.586H23.591z M31.957,17.627l0.085,3.555H31.72c-0.152-0.891-0.526-1.609-1.119-2.152
	c-0.596-0.543-1.24-0.814-1.932-0.814c-0.534,0-0.958,0.143-1.269,0.429c-0.313,0.285-0.47,0.614-0.47,0.986
	c0,0.236,0.056,0.445,0.166,0.629c0.152,0.247,0.395,0.49,0.73,0.731c0.247,0.173,0.816,0.48,1.708,0.921
	c1.246,0.613,2.089,1.192,2.524,1.738c0.431,0.545,0.645,1.169,0.645,1.872c0,0.891-0.347,1.658-1.042,2.301
	c-0.696,0.642-1.577,0.963-2.647,0.963c-0.335,0-0.653-0.035-0.951-0.102c-0.3-0.069-0.675-0.197-1.126-0.386
	c-0.252-0.104-0.458-0.157-0.621-0.157c-0.137,0-0.28,0.052-0.432,0.157c-0.152,0.105-0.276,0.265-0.369,0.48h-0.291v-4.026h0.291
	c0.231,1.132,0.674,1.996,1.332,2.591c0.658,0.595,1.367,0.893,2.127,0.893c0.589,0,1.056-0.16,1.404-0.48
	c0.348-0.319,0.522-0.691,0.522-1.116c0-0.252-0.066-0.495-0.2-0.732c-0.134-0.236-0.337-0.461-0.609-0.672
	c-0.273-0.212-0.755-0.489-1.447-0.83c-0.97-0.477-1.667-0.883-2.093-1.219c-0.424-0.335-0.749-0.71-0.978-1.125
	c-0.228-0.414-0.342-0.87-0.342-1.369c0-0.849,0.311-1.572,0.935-2.17c0.624-0.598,1.411-0.897,2.359-0.897
	c0.347,0,0.682,0.042,1.008,0.126c0.245,0.063,0.547,0.18,0.9,0.351c0.355,0.17,0.602,0.255,0.743,0.255
	c0.135,0,0.243-0.042,0.322-0.126c0.079-0.084,0.152-0.286,0.22-0.606H31.957z M44.009,30.507c0,0,0.563-1.067-0.475-2.026
	c-1.491-1.377-3.127-0.326-3.127-0.326s-0.764-0.978-2.277-0.551c-0.546,0.153-1.06,0.503-1.505,0.91l0.071-0.244
	c0.944-1.889,3.622-1.732,3.622-1.732c4.368,0.02,4.485-2.362,4.485-2.362c-1.81,1.554-3.837,0.984-3.837,0.984
	c2.738-0.475,4.832-2.533,5.205-4.255c-0.052-0.528-0.123-1.051-0.21-1.569c-0.641-1.201-2.056-1.134-2.056-1.134
	s1.493,0.457,1.216,2.308c-0.238,1.573-2.642,2.819-4.254,3.213c-1.467,0.357-2.656,0.585-3.388,1.233
	c0.07-0.577,0.107-1.163,0.107-1.759c0-0.389-0.016-0.774-0.047-1.155c0.306-1.307,1.191-3.624,3.712-4.815
	c0,0,2.83-1.154,4.391,0.551c-0.111-0.463-0.235-0.92-0.374-1.372c-0.297-0.512-0.827-1.021-1.773-1.229c0,0,0.36-0.961-0.958-1.205
	c-0.928-0.171-1.405,0.203-1.841,1.05c0,0-0.339-0.815-1.284-0.539c-1.564,0.455-2.269,3.226-2.228,5.328
	c-0.153-0.636-0.348-1.255-0.583-1.855l0.005,0c0,0-0.879-2.804,1.389-4.961c0,0,1.684-1.467,3.257-0.58
	c0,0-0.343-1.664-2.096-1.485c0,0,0.031-0.799-1.004-0.657c-0.729,0.1-0.99,0.493-1.106,1.227c0,0-0.45-0.52-1.082-0.086
	c-1.061,0.73-0.885,3.009-0.322,4.556c-0.324-0.558-0.685-1.092-1.079-1.6c-0.219-0.509-0.932-2.406,0.018-3.816
	c0.956-1.416,2.101-1.069,2.101-1.069s-0.614-1.171-2.027-0.45c0,0-0.528,0.278-0.73,0.653c0.079-0.154,0.351-0.735,0.217-1.222
	c0,0-0.059-0.416-0.648-0.767c0,0,0.117,0.58-0.204,0.936c-0.67,0.746-1.342,1.887-0.253,4.057c-1.51-1.42-3.324-2.52-5.334-3.189
	c0.941-0.836,2.109-0.586,2.109-0.586c-0.484-0.798-1.616-0.682-1.616-0.682c0.331-0.709,0.132-1.654,0.132-1.654
	s-0.859,0.452-1.189,1.16c0,0-0.632-0.94-1.555-0.8c0,0,1.049,0.82,0.883,2.211c-0.802-0.189-1.629-0.31-2.476-0.359
	c0.535-2.622,2.996-3.19,2.996-3.19c-1.274-0.852-2.879,0.11-2.879,0.11c0-1.285-0.956-2.553-0.956-2.553s-0.964,1.269-0.964,2.553
	c0,0-1.595-0.961-2.872-0.11c0,0,2.46,0.566,2.99,3.191c-0.889,0.052-1.756,0.185-2.595,0.391c-0.186-1.411,0.88-2.244,0.88-2.244
	c-0.925-0.14-1.556,0.8-1.556,0.8c-0.33-0.708-1.189-1.16-1.189-1.16s-0.2,0.945,0.13,1.654c0,0-1.13-0.116-1.614,0.682
	c0,0,1.198-0.256,2.145,0.62c-1.971,0.672-3.75,1.76-5.235,3.159c1.091-2.172,0.418-3.314-0.252-4.061
	c-0.32-0.355-0.204-0.936-0.204-0.936c-0.589,0.351-0.648,0.767-0.648,0.767c-0.134,0.487,0.138,1.068,0.217,1.222
	c-0.202-0.376-0.73-0.654-0.73-0.654c-1.413-0.721-2.027,0.45-2.027,0.45s1.145-0.347,2.1,1.069
	c0.953,1.415,0.233,3.321,0.016,3.822c-0.394,0.509-0.755,1.044-1.079,1.603c0.565-1.548,0.744-3.834-0.319-4.565
	c-0.632-0.434-1.082,0.086-1.082,0.086c-0.116-0.734-0.377-1.127-1.106-1.227c-1.035-0.142-1.004,0.657-1.004,0.657
	c-1.754-0.178-2.097,1.485-2.097,1.485c1.574-0.887,3.258,0.58,3.258,0.58c2.268,2.157,1.389,4.961,1.389,4.961l0.007,0
	c-0.235,0.602-0.432,1.224-0.585,1.863c0.042-2.103-0.663-4.88-2.228-5.336c-0.945-0.276-1.284,0.539-1.284,0.539
	c-0.437-0.847-0.914-1.222-1.842-1.05c-1.319,0.244-0.958,1.205-0.958,1.205c-0.946,0.209-1.475,0.716-1.773,1.229
	c-0.139,0.452-0.263,0.91-0.374,1.372c1.561-1.705,4.391-0.551,4.391-0.551c2.525,1.193,3.408,3.515,3.713,4.821
	c-0.03,0.379-0.046,0.762-0.046,1.149c0,0.596,0.037,1.183,0.107,1.761c-0.732-0.65-1.922-0.878-3.39-1.235
	c-1.613-0.394-4.016-1.64-4.254-3.213c-0.277-1.851,1.217-2.308,1.217-2.308s-1.415-0.067-2.056,1.134
	c-0.087,0.518-0.158,1.04-0.21,1.569c0.373,1.722,2.467,3.78,5.205,4.255c0,0-2.027,0.571-3.837-0.984c0,0,0.118,2.382,4.486,2.362
	c0,0,2.677-0.158,3.622,1.732l0.071,0.244c-0.446-0.407-0.96-0.757-1.505-0.91c-1.513-0.426-2.277,0.551-2.277,0.551
	s-1.636-1.051-3.127,0.326c-1.038,0.958-0.475,2.026-0.475,2.026c-0.306,0.488-0.496,0.937-0.599,1.348
	c0.488,1.209,1.075,2.367,1.753,3.465c0.003,0.001,0.006,0.003,0.006,0.003c-1.089-4.959,5.466-5.716,7.776-3.999
	c0.004,0.005,0.007,0.01,0.011,0.016c-1.328-0.524-3.351-0.577-4.433,0.602c-1.735,1.891-0.071,3.447-0.071,3.447
	c0.191-3.644,3.95-2.497,3.95-2.497c-3.011,0.552-3.371,3.556-2.267,4.896c1.104,1.34,2.971,0.711,2.971,0.711
	c-1.943-2.165,0.749-4.413,2.986-3.852c1.335,1.026,2.854,1.824,4.499,2.335c-0.362,0.011-0.719,0.049-1.175,0.176
	c-0.541,0.108-2.222,0.857-2.611,1.001c-0.387,0.141-0.766,0.236-1.059,0.193c-0.405-0.054-0.615-0.399-0.634-0.571
	c-0.096-0.36,0.194-0.846,0.702-0.86c-0.223-0.121-0.534-0.073-0.768,0.078c-0.237,0.149-0.442,0.386-0.53,0.694
	c-0.094,0.302-0.055,0.676,0.109,0.971c0.035,0.07,0.091,0.153,0.144,0.223l0.053,0.074l0.098,0.104
	c0.119,0.12,0.257,0.225,0.405,0.305c0.609,0.319,1.235,0.323,1.779,0.283c0.552-0.048,1.074-0.141,1.549-0.323
	c0.237-0.094,0.464-0.195,0.687-0.306c0.242-0.117,0.88-0.539,1.08-0.617c0.854-0.443,1.631-0.591,2.323-0.717
	c-1.202,0.393-2.145,1.337-2.621,2.715c1.597,0.31,3.016-0.151,3.972-1.22c-0.448,1.363-0.14,2.824,0.927,4.052
	c1.067-1.227,1.376-2.686,0.929-4.049c0.956,1.07,2.376,1.534,3.973,1.226c-0.433-1.258-1.254-2.153-2.305-2.599
	c0.522,0.115,1.084,0.281,1.684,0.592c0.2,0.078,0.838,0.5,1.08,0.617c0.224,0.112,0.451,0.212,0.687,0.306
	c0.475,0.182,0.996,0.275,1.549,0.323c0.545,0.04,1.17,0.036,1.779-0.283c0.148-0.081,0.286-0.186,0.405-0.305l0.098-0.104
	l0.053-0.074c0.053-0.069,0.108-0.152,0.144-0.223c0.164-0.295,0.203-0.669,0.109-0.971c-0.088-0.308-0.293-0.545-0.53-0.694
	c-0.234-0.152-0.545-0.2-0.768-0.078c0.508,0.014,0.797,0.499,0.702,0.86c-0.018,0.172-0.229,0.518-0.634,0.571
	c-0.294,0.042-0.672-0.053-1.059-0.193c-0.389-0.144-2.071-0.892-2.612-1.001c-0.456-0.126-0.811-0.165-1.173-0.176
	c1.645-0.511,3.164-1.309,4.5-2.335c2.236-0.559,4.925,1.688,2.982,3.852c0,0,1.867,0.629,2.971-0.711
	c1.104-1.34,0.744-4.344-2.266-4.896c0,0,3.758-1.147,3.95,2.497c0,0,1.664-1.555-0.072-3.447c-1.081-1.179-3.103-1.126-4.43-0.603
	c0.004-0.006,0.008-0.012,0.012-0.018c2.314-1.712,8.859-0.954,7.772,4.003c0,0,0.002-0.001,0.006-0.003
	c0.677-1.097,1.264-2.256,1.752-3.464C44.505,31.444,44.315,30.995,44.009,30.507z M23.158,36.251
	c-7.197,0-13.052-5.855-13.052-13.052s5.855-13.051,13.052-13.051c7.196,0,13.051,5.855,13.051,13.051S30.354,36.251,23.158,36.251z
	"/>
<path class="st2" d="M59.439,13.808c-1.402-1.231-1.775-2.834-1.775-4.222c0-0.973,0.301-2.662,1.675-3.921
	c1.031-0.944,2.391-1.517,4.522-1.517c0.888,0,1.417,0.057,2.076,0.143c0.544,0.072,1.002,0.2,1.431,0.243
	c0.157,0.014,0.215,0.086,0.215,0.172c0,0.114-0.043,0.286-0.072,0.787c-0.029,0.472-0.014,1.259-0.043,1.546
	c-0.014,0.215-0.042,0.329-0.171,0.329c-0.115,0-0.143-0.114-0.143-0.315c-0.015-0.444-0.201-0.945-0.559-1.317
	c-0.473-0.501-1.589-0.887-2.905-0.887c-1.245,0-2.061,0.315-2.691,0.887c-1.045,0.959-1.316,2.318-1.316,3.707
	c0,3.406,2.59,5.095,4.508,5.095c1.274,0,2.047-0.143,2.619-0.801c0.243-0.272,0.429-0.687,0.487-0.945
	c0.042-0.229,0.071-0.286,0.186-0.286c0.1,0,0.129,0.1,0.129,0.214c0,0.172-0.172,1.417-0.314,1.904
	c-0.072,0.244-0.129,0.315-0.372,0.415c-0.573,0.229-1.66,0.329-2.576,0.329C62.388,15.368,60.742,14.939,59.439,13.808z
	 M74.868,11.018c0.023,0,0.056-0.011,0.056-0.068v-0.204c0-1.46-0.011-1.81-0.022-2.116c-0.022-0.328-0.113-0.43-0.43-0.521
	c-0.079-0.023-0.249-0.034-0.385-0.034c-0.114,0-0.169-0.034-0.169-0.102c0-0.068,0.068-0.091,0.215-0.091
	c0.532,0,1.234,0.023,1.494,0.023c0.238,0,0.894-0.023,1.279-0.023c0.146,0,0.215,0.023,0.215,0.091
	c0,0.068-0.068,0.102-0.181,0.102c-0.079,0-0.17,0.011-0.294,0.034c-0.261,0.045-0.339,0.181-0.362,0.521
	c-0.022,0.306-0.022,0.577-0.022,2.037v1.697c0,0.882,0,1.641,0.045,2.059c0.034,0.272,0.091,0.453,0.396,0.498
	c0.136,0.022,0.351,0.034,0.509,0.034c0.102,0,0.158,0.057,0.158,0.102c0,0.068-0.079,0.102-0.204,0.102
	c-0.644,0-1.301-0.034-1.572-0.034c-0.226,0-0.928,0.034-1.312,0.034c-0.136,0-0.215-0.034-0.215-0.102
	c0-0.045,0.046-0.102,0.159-0.102c0.158,0,0.272-0.011,0.362-0.034c0.204-0.045,0.259-0.226,0.294-0.509
	c0.045-0.407,0.045-1.143,0.045-2.025v-0.736c0-0.034-0.034-0.056-0.056-0.056h-3.756c-0.035,0-0.068,0.011-0.068,0.056v0.736
	c0,0.882,0.011,1.618,0.056,2.037c0.034,0.272,0.091,0.453,0.385,0.498c0.136,0.022,0.362,0.034,0.509,0.034
	c0.113,0,0.158,0.057,0.158,0.102c0,0.068-0.079,0.102-0.204,0.102c-0.644,0-1.335-0.034-1.618-0.034
	c-0.226,0-0.882,0.034-1.279,0.034c-0.124,0-0.192-0.034-0.192-0.102c0-0.045,0.035-0.102,0.159-0.102
	c0.147,0,0.261-0.011,0.351-0.034c0.204-0.045,0.26-0.226,0.295-0.509c0.045-0.407,0.045-1.165,0.045-2.048v-1.697
	c0-1.459,0-1.731-0.011-2.037c-0.022-0.328-0.113-0.43-0.43-0.521c-0.079-0.023-0.249-0.034-0.396-0.034
	c-0.102,0-0.169-0.034-0.169-0.102c0-0.068,0.079-0.091,0.215-0.091c0.532,0,1.188,0.023,1.46,0.023
	c0.238,0,0.928-0.023,1.324-0.023c0.135,0,0.204,0.023,0.204,0.091c0,0.068-0.057,0.102-0.181,0.102
	c-0.079,0-0.17,0.011-0.283,0.034c-0.272,0.045-0.351,0.181-0.374,0.521c-0.022,0.306-0.022,0.656-0.022,2.116v0.204
	c0,0.057,0.034,0.068,0.068,0.068H74.868z M79.388,10.667c0-1.459,0-1.731-0.011-2.037c-0.023-0.328-0.114-0.43-0.431-0.521
	c-0.079-0.023-0.248-0.034-0.396-0.034c-0.102,0-0.169-0.034-0.169-0.102c0-0.068,0.079-0.091,0.226-0.091
	c0.52,0,1.154,0.023,1.358,0.023c0.339,0,1.245-0.023,1.55-0.023c0.634,0,1.358,0.056,1.89,0.407
	c0.283,0.192,0.702,0.679,0.702,1.324c0,0.713-0.408,1.347-1.381,2.127c0.882,1.086,1.584,1.958,2.184,2.557
	c0.555,0.554,0.905,0.6,1.064,0.634c0.102,0.023,0.159,0.023,0.238,0.023s0.125,0.057,0.125,0.102c0,0.079-0.068,0.102-0.192,0.102
	h-0.951c-0.555,0-0.826-0.056-1.086-0.192c-0.431-0.215-0.804-0.667-1.358-1.414c-0.396-0.521-0.815-1.165-0.94-1.313
	c-0.057-0.057-0.113-0.068-0.181-0.068l-0.894-0.023c-0.046,0-0.079,0.023-0.079,0.079v0.136c0,0.894,0.011,1.641,0.056,2.048
	c0.034,0.283,0.079,0.464,0.385,0.509c0.147,0.022,0.362,0.034,0.486,0.034c0.079,0,0.125,0.057,0.125,0.102
	c0,0.068-0.079,0.102-0.204,0.102c-0.577,0-1.404-0.034-1.55-0.034c-0.192,0-0.827,0.034-1.222,0.034
	c-0.124,0-0.192-0.034-0.192-0.102c0-0.045,0.034-0.102,0.159-0.102c0.147,0,0.26-0.011,0.35-0.034
	c0.204-0.045,0.261-0.226,0.295-0.509c0.045-0.407,0.045-1.165,0.045-2.048V10.667z M80.656,11.413c0,0.102,0.022,0.136,0.091,0.17
	c0.215,0.068,0.509,0.091,0.758,0.091c0.396,0,0.531-0.034,0.701-0.159c0.305-0.215,0.645-0.634,0.645-1.426
	c0-1.358-0.928-1.708-1.517-1.708c-0.249,0-0.487,0.011-0.588,0.034c-0.068,0.023-0.091,0.056-0.091,0.136V11.413z M87.697,10.667
	c0-1.459,0-1.731-0.012-2.037c-0.023-0.328-0.125-0.441-0.339-0.509c-0.113-0.034-0.238-0.045-0.362-0.045
	c-0.102,0-0.158-0.023-0.158-0.113c0-0.056,0.079-0.079,0.238-0.079c0.374,0,1.052,0.023,1.335,0.023
	c0.249,0,0.894-0.023,1.278-0.023c0.125,0,0.204,0.023,0.204,0.079c0,0.091-0.056,0.113-0.158,0.113
	c-0.102,0-0.181,0.011-0.294,0.034c-0.271,0.045-0.351,0.181-0.373,0.521c-0.023,0.306-0.023,0.577-0.023,2.037v1.697
	c0,0.928,0,1.697,0.045,2.105c0.034,0.26,0.102,0.407,0.396,0.453c0.136,0.022,0.362,0.034,0.509,0.034
	c0.114,0,0.159,0.057,0.159,0.102c0,0.068-0.079,0.102-0.192,0.102c-0.657,0-1.335-0.034-1.607-0.034
	c-0.226,0-0.905,0.034-1.301,0.034c-0.125,0-0.192-0.034-0.192-0.102c0-0.045,0.034-0.102,0.158-0.102
	c0.147,0,0.26-0.011,0.351-0.034c0.204-0.045,0.261-0.181,0.294-0.464c0.046-0.396,0.046-1.165,0.046-2.093V10.667z M91.09,15.034
	c-0.158-0.068-0.192-0.113-0.192-0.328c0-0.521,0.045-1.12,0.056-1.279c0-0.147,0.045-0.249,0.125-0.249
	c0.09,0,0.102,0.091,0.102,0.159c0,0.124,0.034,0.328,0.09,0.498c0.215,0.713,0.962,0.95,1.585,0.95c0.86,0,1.38-0.543,1.38-1.222
	c0-0.419-0.102-0.837-0.984-1.358l-0.577-0.339c-1.177-0.69-1.561-1.335-1.561-2.184c0-1.177,1.131-1.935,2.512-1.935
	c0.645,0,1.154,0.091,1.414,0.159c0.09,0.023,0.136,0.056,0.136,0.124c0,0.124-0.034,0.396-0.034,1.154
	c0,0.204-0.045,0.306-0.125,0.306c-0.068,0-0.102-0.057-0.102-0.17c0-0.091-0.045-0.385-0.26-0.634
	c-0.147-0.181-0.464-0.452-1.109-0.452c-0.713,0-1.358,0.373-1.358,1.03c0,0.43,0.158,0.769,1.052,1.267l0.407,0.226
	c1.312,0.724,1.72,1.46,1.72,2.331c0,0.713-0.272,1.29-0.996,1.799c-0.475,0.339-1.131,0.396-1.664,0.396
	C92.13,15.283,91.52,15.227,91.09,15.034z M99.024,8.472l-1.482,0.034C96.965,8.517,96.727,8.585,96.58,8.8
	c-0.102,0.136-0.148,0.26-0.17,0.328c-0.022,0.079-0.045,0.124-0.113,0.124c-0.068,0-0.091-0.057-0.091-0.159
	c0-0.158,0.192-1.086,0.215-1.165c0.022-0.124,0.057-0.181,0.113-0.181c0.079,0,0.181,0.079,0.431,0.113
	c0.294,0.034,0.668,0.045,0.995,0.045H102c0.316,0,0.532-0.023,0.679-0.045c0.158-0.023,0.238-0.045,0.272-0.045
	c0.068,0,0.079,0.057,0.079,0.204c0,0.204-0.023,0.916-0.023,1.165c-0.011,0.102-0.034,0.158-0.09,0.158
	c-0.079,0-0.102-0.045-0.114-0.192l-0.011-0.102c-0.022-0.249-0.283-0.543-1.177-0.554l-1.256-0.023v3.893
	c0,0.882,0.011,1.641,0.056,2.059c0.034,0.272,0.091,0.453,0.385,0.498c0.136,0.022,0.362,0.034,0.509,0.034
	c0.113,0,0.158,0.057,0.158,0.102c0,0.068-0.079,0.102-0.192,0.102c-0.657,0-1.324-0.034-1.607-0.034
	c-0.226,0-0.905,0.034-1.302,0.034c-0.124,0-0.192-0.034-0.192-0.102c0-0.045,0.035-0.102,0.159-0.102
	c0.147,0,0.272-0.011,0.351-0.034c0.204-0.045,0.26-0.226,0.294-0.509c0.045-0.407,0.045-1.165,0.045-2.048V8.472z M103.602,11.515
	c0-1.641,1.154-3.768,4.175-3.768c2.512,0,4.073,1.392,4.073,3.598c0,2.207-1.607,3.938-4.175,3.938
	C104.778,15.283,103.602,13.224,103.602,11.515z M110.368,11.696c0-2.127-1.279-3.44-2.886-3.44c-1.109,0-2.41,0.589-2.41,2.965
	c0,1.98,1.131,3.542,3.01,3.542C108.783,14.763,110.368,14.435,110.368,11.696z M113.679,10.667c0-1.459,0-1.731-0.012-2.037
	c-0.023-0.328-0.113-0.43-0.43-0.521c-0.079-0.023-0.249-0.034-0.396-0.034c-0.102,0-0.17-0.034-0.17-0.102
	c0-0.068,0.079-0.091,0.226-0.091c0.521,0,1.154,0.023,1.437,0.023c0.408,0,1.2-0.023,1.652-0.023c1.245,0,1.697,0.407,1.856,0.543
	c0.215,0.204,0.498,0.634,0.498,1.154c0,1.358-1.086,2.331-2.501,2.331c-0.045,0-0.249,0-0.294-0.011
	c-0.057,0-0.124-0.034-0.124-0.102c0-0.079,0.113-0.124,0.328-0.124c0.555,0,1.335-0.577,1.335-1.562
	c0-0.317-0.034-0.95-0.588-1.426c-0.362-0.317-0.769-0.362-0.996-0.362c-0.147,0-0.339,0.011-0.43,0.045
	c-0.056,0.023-0.079,0.079-0.079,0.181v3.813c0,0.882,0,1.641,0.046,2.059c0.034,0.272,0.091,0.453,0.385,0.498
	c0.147,0.022,0.362,0.034,0.509,0.034c0.113,0,0.158,0.057,0.158,0.102c0,0.068-0.079,0.102-0.181,0.102
	c-0.668,0-1.369-0.034-1.63-0.034c-0.226,0-0.86,0.034-1.256,0.034c-0.125,0-0.192-0.034-0.192-0.102
	c0-0.045,0.034-0.102,0.158-0.102c0.147,0,0.26-0.011,0.351-0.034c0.204-0.045,0.261-0.226,0.294-0.509
	c0.046-0.407,0.046-1.165,0.046-2.048V10.667z M125.212,11.018c0.023,0,0.057-0.011,0.057-0.068v-0.204
	c0-1.46-0.011-1.81-0.022-2.116c-0.023-0.328-0.113-0.43-0.431-0.521c-0.079-0.023-0.248-0.034-0.385-0.034
	c-0.113,0-0.169-0.034-0.169-0.102c0-0.068,0.068-0.091,0.215-0.091c0.531,0,1.233,0.023,1.493,0.023
	c0.238,0,0.894-0.023,1.279-0.023c0.147,0,0.215,0.023,0.215,0.091c0,0.068-0.068,0.102-0.181,0.102
	c-0.079,0-0.17,0.011-0.294,0.034c-0.261,0.045-0.34,0.181-0.362,0.521c-0.022,0.306-0.022,0.577-0.022,2.037v1.697
	c0,0.882,0,1.641,0.045,2.059c0.034,0.272,0.091,0.453,0.396,0.498c0.136,0.022,0.351,0.034,0.509,0.034
	c0.102,0,0.158,0.057,0.158,0.102c0,0.068-0.079,0.102-0.204,0.102c-0.645,0-1.301-0.034-1.572-0.034
	c-0.226,0-0.928,0.034-1.313,0.034c-0.135,0-0.215-0.034-0.215-0.102c0-0.045,0.045-0.102,0.159-0.102
	c0.158,0,0.271-0.011,0.362-0.034c0.204-0.045,0.26-0.226,0.294-0.509c0.045-0.407,0.045-1.143,0.045-2.025v-0.736
	c0-0.034-0.034-0.056-0.057-0.056h-3.756c-0.034,0-0.068,0.011-0.068,0.056v0.736c0,0.882,0.011,1.618,0.056,2.037
	c0.035,0.272,0.091,0.453,0.385,0.498c0.136,0.022,0.362,0.034,0.509,0.034c0.113,0,0.158,0.057,0.158,0.102
	c0,0.068-0.079,0.102-0.204,0.102c-0.645,0-1.335-0.034-1.618-0.034c-0.226,0-0.882,0.034-1.278,0.034
	c-0.124,0-0.192-0.034-0.192-0.102c0-0.045,0.034-0.102,0.159-0.102c0.147,0,0.26-0.011,0.35-0.034
	c0.204-0.045,0.261-0.226,0.295-0.509c0.045-0.407,0.045-1.165,0.045-2.048v-1.697c0-1.459,0-1.731-0.011-2.037
	c-0.023-0.328-0.114-0.43-0.431-0.521c-0.079-0.023-0.248-0.034-0.396-0.034c-0.102,0-0.169-0.034-0.169-0.102
	c0-0.068,0.079-0.091,0.215-0.091c0.531,0,1.188,0.023,1.459,0.023c0.237,0,0.928-0.023,1.324-0.023
	c0.136,0,0.204,0.023,0.204,0.091c0,0.068-0.056,0.102-0.181,0.102c-0.079,0-0.17,0.011-0.283,0.034
	c-0.272,0.045-0.351,0.181-0.374,0.521c-0.022,0.306-0.022,0.656-0.022,2.116v0.204c0,0.057,0.034,0.068,0.068,0.068H125.212z
	 M129.731,10.667c0-1.459,0-1.731-0.011-2.037c-0.022-0.328-0.113-0.43-0.429-0.521c-0.079-0.023-0.249-0.034-0.396-0.034
	c-0.102,0-0.17-0.034-0.17-0.102c0-0.068,0.079-0.091,0.226-0.091c0.521,0,1.154,0.023,1.437,0.023c0.317,0,2.523,0.011,2.715,0
	c0.181-0.011,0.34-0.045,0.419-0.056c0.056-0.011,0.113-0.045,0.158-0.045c0.057,0,0.068,0.045,0.068,0.09
	c0,0.068-0.057,0.181-0.079,0.622c-0.011,0.102-0.034,0.521-0.056,0.634c-0.011,0.045-0.034,0.159-0.113,0.159
	c-0.068,0-0.079-0.045-0.079-0.124c0-0.068-0.011-0.238-0.068-0.351c-0.079-0.17-0.159-0.305-0.657-0.351
	c-0.17-0.023-1.358-0.045-1.561-0.045c-0.045,0-0.068,0.034-0.068,0.091v2.376c0,0.057,0.011,0.102,0.068,0.102
	c0.226,0,1.516,0,1.742-0.023c0.238-0.022,0.374-0.056,0.475-0.147c0.079-0.068,0.113-0.124,0.158-0.124s0.079,0.045,0.079,0.102
	c0,0.057-0.022,0.215-0.079,0.702c-0.023,0.192-0.045,0.577-0.045,0.645c0,0.079-0.011,0.215-0.102,0.215
	c-0.068,0-0.091-0.034-0.091-0.079c-0.011-0.102-0.011-0.226-0.034-0.351c-0.057-0.192-0.181-0.339-0.555-0.373
	c-0.181-0.023-1.313-0.045-1.561-0.045c-0.046,0-0.057,0.045-0.057,0.102v0.769c0,0.328-0.011,1.143,0,1.426
	c0.023,0.656,0.328,0.803,1.347,0.803c0.261,0,0.679-0.011,0.939-0.124c0.249-0.113,0.362-0.317,0.429-0.713
	c0.023-0.102,0.046-0.147,0.113-0.147c0.079,0,0.091,0.124,0.091,0.226c0,0.215-0.079,0.871-0.136,1.064
	c-0.068,0.249-0.158,0.249-0.532,0.249c-0.747,0-1.347-0.011-1.833-0.034c-0.486-0.011-0.86-0.023-1.154-0.023
	c-0.113,0-0.328,0.011-0.565,0.011c-0.238,0.011-0.486,0.023-0.691,0.023c-0.125,0-0.192-0.034-0.192-0.102
	c0-0.045,0.034-0.102,0.158-0.102c0.148,0,0.261-0.011,0.351-0.034c0.204-0.045,0.26-0.226,0.294-0.509
	c0.045-0.407,0.045-1.165,0.045-2.048V10.667z M136.012,10.667c0-1.459,0-1.731-0.012-2.037c-0.023-0.328-0.114-0.43-0.43-0.521
	c-0.079-0.023-0.249-0.034-0.396-0.034c-0.102,0-0.17-0.034-0.17-0.102c0-0.068,0.079-0.091,0.226-0.091
	c0.521,0,1.154,0.023,1.358,0.023c0.339,0,1.245-0.023,1.551-0.023c0.633,0,1.358,0.056,1.889,0.407
	c0.283,0.192,0.702,0.679,0.702,1.324c0,0.713-0.408,1.347-1.381,2.127c0.882,1.086,1.584,1.958,2.184,2.557
	c0.554,0.554,0.905,0.6,1.064,0.634c0.102,0.023,0.158,0.023,0.237,0.023c0.079,0,0.125,0.057,0.125,0.102
	c0,0.079-0.068,0.102-0.192,0.102h-0.95c-0.555,0-0.827-0.056-1.087-0.192c-0.43-0.215-0.804-0.667-1.358-1.414
	c-0.396-0.521-0.815-1.165-0.939-1.313c-0.057-0.057-0.113-0.068-0.181-0.068l-0.894-0.023c-0.045,0-0.079,0.023-0.079,0.079v0.136
	c0,0.894,0.011,1.641,0.056,2.048c0.035,0.283,0.079,0.464,0.385,0.509c0.148,0.022,0.362,0.034,0.486,0.034
	c0.079,0,0.125,0.057,0.125,0.102c0,0.068-0.079,0.102-0.204,0.102c-0.577,0-1.403-0.034-1.55-0.034
	c-0.192,0-0.826,0.034-1.222,0.034c-0.125,0-0.192-0.034-0.192-0.102c0-0.045,0.034-0.102,0.158-0.102
	c0.147,0,0.26-0.011,0.351-0.034c0.204-0.045,0.261-0.226,0.294-0.509c0.046-0.407,0.046-1.165,0.046-2.048V10.667z M137.279,11.413
	c0,0.102,0.022,0.136,0.091,0.17c0.215,0.068,0.509,0.091,0.758,0.091c0.396,0,0.532-0.034,0.702-0.159
	c0.305-0.215,0.645-0.634,0.645-1.426c0-1.358-0.928-1.708-1.516-1.708c-0.249,0-0.486,0.011-0.588,0.034
	c-0.068,0.023-0.091,0.056-0.091,0.136V11.413z M147.095,14.996c-0.229-0.1-0.272-0.172-0.272-0.486
	c0-0.787,0.057-1.646,0.072-1.875c0.014-0.214,0.057-0.372,0.171-0.372c0.129,0,0.143,0.129,0.143,0.244
	c0,0.186,0.058,0.487,0.129,0.73c0.315,1.059,1.159,1.446,2.046,1.446c1.288,0,1.918-0.873,1.918-1.631
	c0-0.701-0.215-1.36-1.402-2.29l-0.658-0.515c-1.574-1.231-2.118-2.233-2.118-3.392c0-1.574,1.317-2.705,3.306-2.705
	c0.93,0,1.532,0.143,1.904,0.243c0.129,0.029,0.201,0.072,0.201,0.172c0,0.186-0.058,0.601-0.058,1.717
	c0,0.315-0.043,0.429-0.157,0.429c-0.101,0-0.143-0.086-0.143-0.258c0-0.129-0.072-0.572-0.372-0.945
	c-0.215-0.272-0.63-0.701-1.56-0.701c-1.059,0-1.703,0.615-1.703,1.474c0,0.658,0.33,1.159,1.518,2.061l0.4,0.301
	c1.732,1.302,2.348,2.29,2.348,3.65c0,0.83-0.315,1.818-1.345,2.49c-0.716,0.458-1.517,0.587-2.276,0.587
	C148.355,15.368,147.71,15.268,147.095,14.996z M156.197,8.472l-1.482,0.034c-0.577,0.011-0.815,0.079-0.962,0.294
	c-0.102,0.136-0.147,0.26-0.17,0.328c-0.022,0.079-0.045,0.124-0.113,0.124c-0.068,0-0.091-0.057-0.091-0.159
	c0-0.158,0.192-1.086,0.215-1.165c0.022-0.124,0.057-0.181,0.113-0.181c0.079,0,0.181,0.079,0.43,0.113
	c0.294,0.034,0.668,0.045,0.995,0.045h4.04c0.317,0,0.532-0.023,0.679-0.045c0.159-0.023,0.238-0.045,0.272-0.045
	c0.068,0,0.079,0.057,0.079,0.204c0,0.204-0.023,0.916-0.023,1.165c-0.011,0.102-0.034,0.158-0.09,0.158
	c-0.079,0-0.102-0.045-0.114-0.192l-0.012-0.102c-0.022-0.249-0.282-0.543-1.177-0.554l-1.256-0.023v3.893
	c0,0.882,0.011,1.641,0.057,2.059c0.034,0.272,0.091,0.453,0.385,0.498c0.135,0.022,0.362,0.034,0.509,0.034
	c0.113,0,0.159,0.057,0.159,0.102c0,0.068-0.079,0.102-0.192,0.102c-0.657,0-1.324-0.034-1.607-0.034
	c-0.226,0-0.905,0.034-1.301,0.034c-0.125,0-0.192-0.034-0.192-0.102c0-0.045,0.034-0.102,0.158-0.102
	c0.148,0,0.272-0.011,0.351-0.034c0.204-0.045,0.26-0.226,0.294-0.509c0.045-0.407,0.045-1.165,0.045-2.048V8.472z M162.141,10.667
	c0-1.459,0-1.731-0.011-2.037c-0.023-0.328-0.113-0.43-0.431-0.521c-0.079-0.023-0.248-0.034-0.396-0.034
	c-0.102,0-0.169-0.034-0.169-0.102c0-0.068,0.079-0.091,0.226-0.091c0.52,0,1.154,0.023,1.437,0.023c0.317,0,2.523,0.011,2.715,0
	c0.181-0.011,0.339-0.045,0.418-0.056c0.057-0.011,0.113-0.045,0.159-0.045c0.056,0,0.068,0.045,0.068,0.09
	c0,0.068-0.056,0.181-0.079,0.622c-0.012,0.102-0.035,0.521-0.057,0.634c-0.011,0.045-0.034,0.159-0.113,0.159
	c-0.068,0-0.079-0.045-0.079-0.124c0-0.068-0.011-0.238-0.068-0.351c-0.079-0.17-0.158-0.305-0.656-0.351
	c-0.169-0.023-1.358-0.045-1.561-0.045c-0.045,0-0.068,0.034-0.068,0.091v2.376c0,0.057,0.011,0.102,0.068,0.102
	c0.227,0,1.516,0,1.742-0.023c0.238-0.022,0.373-0.056,0.475-0.147c0.079-0.068,0.114-0.124,0.159-0.124S166,10.757,166,10.814
	c0,0.057-0.023,0.215-0.079,0.702c-0.022,0.192-0.045,0.577-0.045,0.645c0,0.079-0.011,0.215-0.102,0.215
	c-0.068,0-0.091-0.034-0.091-0.079c-0.011-0.102-0.011-0.226-0.034-0.351c-0.056-0.192-0.181-0.339-0.554-0.373
	c-0.181-0.023-1.312-0.045-1.562-0.045c-0.045,0-0.056,0.045-0.056,0.102v0.769c0,0.328-0.012,1.143,0,1.426
	c0.022,0.656,0.328,0.803,1.347,0.803c0.26,0,0.679-0.011,0.938-0.124c0.249-0.113,0.362-0.317,0.431-0.713
	c0.022-0.102,0.045-0.147,0.113-0.147c0.079,0,0.091,0.124,0.091,0.226c0,0.215-0.079,0.871-0.136,1.064
	c-0.068,0.249-0.158,0.249-0.532,0.249c-0.747,0-1.347-0.011-1.833-0.034c-0.486-0.011-0.86-0.023-1.154-0.023
	c-0.113,0-0.328,0.011-0.566,0.011c-0.237,0.011-0.486,0.023-0.69,0.023c-0.124,0-0.192-0.034-0.192-0.102
	c0-0.045,0.034-0.102,0.159-0.102c0.146,0,0.26-0.011,0.35-0.034c0.204-0.045,0.261-0.226,0.295-0.509
	c0.045-0.407,0.045-1.165,0.045-2.048V10.667z M167.917,8.822c-0.125-0.351-0.204-0.577-0.351-0.668
	c-0.102-0.068-0.294-0.079-0.385-0.079c-0.102,0-0.158-0.034-0.158-0.102c0-0.068,0.079-0.091,0.226-0.091
	c0.509,0,1.064,0.023,1.154,0.023s0.577-0.023,1.154-0.023c0.147,0,0.215,0.023,0.215,0.091c0,0.068-0.079,0.102-0.181,0.102
	c-0.079,0-0.169,0.011-0.248,0.045c-0.091,0.034-0.102,0.091-0.102,0.192c0,0.124,0.091,0.441,0.215,0.882
	c0.169,0.634,1.075,3.542,1.222,3.983h0.034l1.901-4.922c0.102-0.271,0.204-0.351,0.294-0.351c0.113,0,0.204,0.147,0.328,0.453
	l1.991,4.752h0.034c0.192-0.554,0.951-3.089,1.301-4.209c0.068-0.226,0.102-0.419,0.102-0.554c0-0.158-0.091-0.271-0.486-0.271
	c-0.091,0-0.169-0.045-0.169-0.102c0-0.068,0.079-0.091,0.237-0.091c0.521,0,0.973,0.023,1.064,0.023
	c0.068,0,0.498-0.023,0.826-0.023c0.113,0,0.181,0.023,0.181,0.079c0,0.068-0.045,0.113-0.136,0.113
	c-0.102,0-0.237,0.011-0.351,0.045c-0.238,0.091-0.351,0.453-0.554,1.007c-0.464,1.211-1.482,4.266-1.969,5.703
	c-0.113,0.339-0.169,0.453-0.317,0.453c-0.135,0-0.204-0.113-0.351-0.464l-2.025-4.752h-0.023c-0.169,0.407-1.504,3.825-1.912,4.707
	c-0.181,0.396-0.238,0.509-0.385,0.509c-0.125,0-0.181-0.102-0.271-0.351L167.917,8.822z M179.548,12.726
	c-0.056,0-0.067,0.011-0.09,0.068l-0.532,1.301c-0.102,0.238-0.148,0.475-0.148,0.589c0,0.17,0.091,0.271,0.396,0.271h0.147
	c0.124,0,0.147,0.045,0.147,0.102c0,0.079-0.056,0.102-0.158,0.102c-0.328,0-0.792-0.034-1.109-0.034
	c-0.102,0-0.634,0.034-1.154,0.034c-0.125,0-0.181-0.023-0.181-0.102c0-0.056,0.034-0.102,0.113-0.102
	c0.091,0,0.204-0.011,0.294-0.011c0.452-0.068,0.622-0.362,0.825-0.849l2.603-6.008c0.114-0.271,0.192-0.385,0.294-0.385
	c0.148,0,0.192,0.091,0.294,0.306c0.238,0.532,1.901,4.424,2.535,5.884c0.384,0.871,0.667,0.996,0.848,1.03
	c0.147,0.022,0.26,0.034,0.373,0.034c0.091,0,0.136,0.034,0.136,0.102c0,0.079-0.057,0.102-0.431,0.102
	c-0.351,0-1.075,0-1.912-0.023c-0.181-0.011-0.294-0.011-0.294-0.079c0-0.056,0.022-0.091,0.125-0.102
	c0.067-0.011,0.135-0.102,0.09-0.215l-0.769-1.946c-0.023-0.056-0.057-0.068-0.102-0.068H179.548z M181.675,12.194
	c0.046,0,0.057-0.023,0.046-0.057l-0.939-2.41c-0.011-0.034-0.022-0.09-0.045-0.09c-0.035,0-0.046,0.057-0.057,0.09l-0.962,2.399
	c-0.022,0.045,0,0.068,0.034,0.068H181.675z M186.672,10.667c0-1.459,0-1.731-0.011-2.037c-0.022-0.328-0.113-0.43-0.43-0.521
	c-0.079-0.023-0.249-0.034-0.396-0.034c-0.102,0-0.169-0.034-0.169-0.102c0-0.068,0.079-0.091,0.226-0.091
	c0.521,0,1.154,0.023,1.358,0.023c0.339,0,1.245-0.023,1.55-0.023c0.634,0,1.358,0.056,1.89,0.407
	c0.283,0.192,0.701,0.679,0.701,1.324c0,0.713-0.407,1.347-1.38,2.127c0.882,1.086,1.584,1.958,2.183,2.557
	c0.555,0.554,0.906,0.6,1.064,0.634c0.102,0.023,0.159,0.023,0.238,0.023c0.079,0,0.124,0.057,0.124,0.102
	c0,0.079-0.068,0.102-0.192,0.102h-0.951c-0.554,0-0.825-0.056-1.086-0.192c-0.43-0.215-0.803-0.667-1.358-1.414
	c-0.396-0.521-0.815-1.165-0.939-1.313c-0.056-0.057-0.113-0.068-0.181-0.068l-0.894-0.023c-0.045,0-0.079,0.023-0.079,0.079v0.136
	c0,0.894,0.011,1.641,0.057,2.048c0.034,0.283,0.079,0.464,0.385,0.509c0.146,0.022,0.362,0.034,0.487,0.034
	c0.079,0,0.124,0.057,0.124,0.102c0,0.068-0.079,0.102-0.204,0.102c-0.577,0-1.403-0.034-1.55-0.034
	c-0.192,0-0.826,0.034-1.222,0.034c-0.124,0-0.192-0.034-0.192-0.102c0-0.045,0.035-0.102,0.159-0.102
	c0.147,0,0.261-0.011,0.351-0.034c0.204-0.045,0.26-0.226,0.295-0.509c0.045-0.407,0.045-1.165,0.045-2.048V10.667z M187.939,11.413
	c0,0.102,0.023,0.136,0.091,0.17c0.215,0.068,0.509,0.091,0.758,0.091c0.396,0,0.532-0.034,0.701-0.159
	c0.306-0.215,0.645-0.634,0.645-1.426c0-1.358-0.928-1.708-1.517-1.708c-0.248,0-0.487,0.011-0.588,0.034
	c-0.068,0.023-0.091,0.056-0.091,0.136V11.413z M195.629,8.472l-1.482,0.034c-0.577,0.011-0.814,0.079-0.962,0.294
	c-0.102,0.136-0.146,0.26-0.169,0.328c-0.023,0.079-0.045,0.124-0.114,0.124c-0.067,0-0.09-0.057-0.09-0.159
	c0-0.158,0.192-1.086,0.215-1.165c0.022-0.124,0.056-0.181,0.113-0.181c0.079,0,0.181,0.079,0.429,0.113
	c0.294,0.034,0.668,0.045,0.996,0.045h4.04c0.317,0,0.532-0.023,0.679-0.045c0.158-0.023,0.238-0.045,0.271-0.045
	c0.068,0,0.079,0.057,0.079,0.204c0,0.204-0.022,0.916-0.022,1.165c-0.011,0.102-0.034,0.158-0.091,0.158
	c-0.079,0-0.102-0.045-0.113-0.192l-0.012-0.102c-0.023-0.249-0.282-0.543-1.177-0.554l-1.256-0.023v3.893
	c0,0.882,0.011,1.641,0.057,2.059c0.034,0.272,0.091,0.453,0.385,0.498c0.136,0.022,0.362,0.034,0.509,0.034
	c0.113,0,0.159,0.057,0.159,0.102c0,0.068-0.079,0.102-0.192,0.102c-0.657,0-1.324-0.034-1.607-0.034
	c-0.226,0-0.905,0.034-1.301,0.034c-0.125,0-0.192-0.034-0.192-0.102c0-0.045,0.034-0.102,0.158-0.102
	c0.147,0,0.271-0.011,0.351-0.034c0.204-0.045,0.261-0.226,0.294-0.509c0.045-0.407,0.045-1.165,0.045-2.048V8.472z M57.766,22.1
	c-0.106-0.328-0.204-0.541-0.328-0.63c-0.098-0.062-0.275-0.08-0.355-0.08c-0.088,0-0.141-0.009-0.141-0.08
	c0-0.062,0.07-0.08,0.195-0.08c0.461,0,0.949,0.027,1.029,0.027c0.08,0,0.47-0.027,0.985-0.027c0.124,0,0.186,0.027,0.186,0.08
	c0,0.071-0.071,0.08-0.16,0.08c-0.071,0-0.159,0-0.221,0.036c-0.08,0.035-0.098,0.097-0.098,0.195c0,0.115,0.089,0.417,0.195,0.816
	c0.151,0.585,0.976,3.272,1.135,3.769h0.027l1.72-4.629c0.089-0.248,0.151-0.319,0.222-0.319c0.097,0,0.142,0.133,0.257,0.417
	l1.845,4.47h0.026c0.16-0.594,0.869-2.936,1.179-3.973c0.062-0.204,0.089-0.39,0.089-0.514c0-0.142-0.08-0.266-0.426-0.266
	c-0.089,0-0.151-0.027-0.151-0.08c0-0.062,0.071-0.08,0.204-0.08c0.47,0,0.843,0.027,0.922,0.027c0.062,0,0.443-0.027,0.737-0.027
	c0.097,0,0.159,0.018,0.159,0.071c0,0.062-0.044,0.089-0.124,0.089c-0.089,0-0.213,0.009-0.31,0.044
	c-0.213,0.08-0.31,0.435-0.497,0.94c-0.408,1.117-1.339,3.938-1.774,5.268c-0.097,0.311-0.142,0.417-0.257,0.417
	c-0.089,0-0.142-0.106-0.275-0.435l-1.844-4.452h-0.018c-0.168,0.452-1.348,3.601-1.73,4.416c-0.168,0.365-0.212,0.471-0.319,0.471
	c-0.088,0-0.124-0.098-0.204-0.329L57.766,22.1z M68.086,24.414c0-1.144,0-1.357-0.009-1.597c-0.018-0.257-0.098-0.346-0.266-0.399
	c-0.088-0.027-0.186-0.036-0.284-0.036c-0.08,0-0.124-0.018-0.124-0.089c0-0.044,0.062-0.062,0.186-0.062
	c0.292,0,0.825,0.018,1.046,0.018c0.195,0,0.701-0.018,1.002-0.018c0.098,0,0.16,0.018,0.16,0.062c0,0.071-0.045,0.089-0.124,0.089
	c-0.08,0-0.142,0.009-0.231,0.027c-0.213,0.036-0.275,0.142-0.293,0.408c-0.018,0.24-0.018,0.452-0.018,1.597v1.33
	c0,0.727,0,1.33,0.036,1.65c0.026,0.204,0.079,0.319,0.31,0.355c0.106,0.018,0.284,0.027,0.399,0.027
	c0.089,0,0.124,0.045,0.124,0.079c0,0.054-0.062,0.081-0.15,0.081c-0.514,0-1.047-0.027-1.259-0.027c-0.177,0-0.71,0.027-1.02,0.027
	c-0.098,0-0.151-0.027-0.151-0.081c0-0.035,0.027-0.079,0.124-0.079c0.115,0,0.204-0.009,0.275-0.027
	c0.159-0.036,0.204-0.142,0.23-0.363c0.036-0.311,0.036-0.914,0.036-1.641V24.414z M72.625,26.907
	c0.018,0.585,0.115,0.763,0.266,0.815c0.133,0.045,0.284,0.054,0.408,0.054c0.089,0,0.133,0.036,0.133,0.079
	c0,0.063-0.071,0.081-0.177,0.081c-0.506,0-0.869-0.027-1.011-0.027c-0.071,0-0.443,0.027-0.843,0.027
	c-0.106,0-0.177-0.009-0.177-0.081c0-0.044,0.053-0.079,0.124-0.079c0.107,0,0.248-0.009,0.355-0.036
	c0.204-0.053,0.23-0.257,0.239-0.914l0.071-4.469c0-0.151,0.053-0.257,0.133-0.257c0.097,0,0.204,0.115,0.337,0.248
	c0.098,0.098,1.268,1.295,2.403,2.403c0.532,0.523,1.57,1.587,1.685,1.694h0.036l-0.08-3.352c-0.009-0.461-0.08-0.594-0.266-0.665
	c-0.115-0.044-0.301-0.044-0.408-0.044c-0.098,0-0.124-0.036-0.124-0.08c0-0.062,0.08-0.071,0.195-0.071
	c0.408,0,0.825,0.018,0.993,0.018c0.089,0,0.381-0.018,0.763-0.018c0.106,0,0.177,0.009,0.177,0.071c0,0.044-0.044,0.08-0.133,0.08
	c-0.08,0-0.142,0-0.239,0.027c-0.213,0.062-0.275,0.195-0.284,0.621l-0.088,4.754c0,0.169-0.062,0.239-0.124,0.239
	c-0.133,0-0.239-0.079-0.319-0.16c-0.488-0.452-1.463-1.383-2.279-2.173c-0.851-0.816-1.676-1.729-1.827-1.862h-0.027L72.625,26.907
	z M80.036,24.414c0-1.144,0-1.357-0.009-1.597c-0.018-0.257-0.089-0.337-0.337-0.408c-0.062-0.018-0.195-0.027-0.31-0.027
	c-0.08,0-0.133-0.027-0.133-0.08c0-0.053,0.062-0.071,0.177-0.071c0.408,0,0.905,0.018,1.127,0.018c0.248,0,1.977,0.009,2.128,0
	c0.142-0.009,0.266-0.035,0.328-0.044c0.044-0.009,0.088-0.036,0.124-0.036c0.044,0,0.053,0.036,0.053,0.071
	c0,0.053-0.044,0.142-0.062,0.488c-0.009,0.08-0.027,0.408-0.044,0.497c-0.009,0.036-0.027,0.124-0.089,0.124
	c-0.053,0-0.062-0.036-0.062-0.098c0-0.053-0.009-0.186-0.053-0.275c-0.062-0.133-0.124-0.239-0.514-0.275
	c-0.133-0.018-1.064-0.036-1.224-0.036c-0.035,0-0.053,0.027-0.053,0.071v1.862c0,0.044,0.009,0.08,0.053,0.08
	c0.178,0,1.188,0,1.366-0.018c0.186-0.018,0.292-0.044,0.372-0.115c0.062-0.053,0.088-0.098,0.124-0.098
	c0.035,0,0.062,0.036,0.062,0.08c0,0.044-0.018,0.169-0.062,0.55c-0.018,0.151-0.036,0.452-0.036,0.506
	c0,0.062-0.009,0.168-0.079,0.168c-0.054,0-0.071-0.027-0.071-0.062c-0.009-0.08-0.009-0.177-0.027-0.275
	c-0.044-0.151-0.142-0.266-0.435-0.293c-0.142-0.018-1.029-0.036-1.224-0.036c-0.035,0-0.044,0.036-0.044,0.08v0.603
	c0,0.257-0.009,0.896,0,1.118c0.018,0.514,0.257,0.63,1.055,0.63c0.204,0,0.532-0.009,0.736-0.098
	c0.195-0.089,0.284-0.248,0.337-0.559c0.018-0.079,0.036-0.115,0.089-0.115c0.062,0,0.071,0.097,0.071,0.177
	c0,0.168-0.062,0.683-0.106,0.834c-0.054,0.196-0.124,0.196-0.417,0.196c-0.585,0-1.055-0.009-1.437-0.027
	c-0.381-0.009-0.674-0.018-0.905-0.018c-0.088,0-0.257,0.009-0.443,0.009c-0.186,0.009-0.381,0.018-0.541,0.018
	c-0.098,0-0.151-0.027-0.151-0.081c0-0.035,0.027-0.079,0.124-0.079c0.115,0,0.204-0.009,0.275-0.027
	c0.159-0.036,0.204-0.177,0.23-0.399c0.036-0.319,0.036-0.913,0.036-1.605V24.414z M89.372,23.997
	c-0.372-0.497-0.443-0.86-0.452-1.259c-0.009-0.701,0.612-1.632,2.155-1.632c0.435,0,0.834,0.089,1.073,0.186
	c0.151,0.053,0.151,0.124,0.151,0.23c0,0.293-0.071,1.002-0.098,1.135c-0.018,0.133-0.053,0.151-0.106,0.151
	c-0.053,0-0.062-0.036-0.062-0.169c0-0.231-0.062-0.514-0.257-0.745c-0.177-0.213-0.488-0.399-0.985-0.399
	c-0.372,0-0.949,0.257-0.949,1.011c0,0.834,0.763,1.543,1.472,2.332c0.301,0.346,1.392,1.33,1.561,1.481
	c0.178-0.248,0.426-0.825,0.426-1.365c0-0.133-0.036-0.293-0.169-0.408c-0.115-0.107-0.301-0.133-0.435-0.133
	c-0.053,0-0.106-0.018-0.106-0.071c0-0.071,0.071-0.089,0.142-0.089c0.213,0,0.568,0.009,1.064,0.062
	c0.168,0.018,0.301,0.071,0.301,0.177c0,0.683-0.364,1.508-0.869,2.102c0.594,0.488,0.993,0.728,1.232,0.869
	c0.284,0.169,0.772,0.311,0.949,0.311c0.08,0,0.124,0.009,0.124,0.079c0,0.054-0.071,0.081-0.266,0.081h-0.683
	c-1.011,0-1.33-0.098-2.093-0.683c-0.292,0.266-0.887,0.808-2.102,0.808c-1.898,0-2.465-1.189-2.465-1.961
	C87.926,25.062,88.839,24.255,89.372,23.997z M92.147,26.968c-0.514-0.443-1.366-1.277-1.596-1.525
	c-0.23-0.248-0.798-0.887-0.949-1.109c-0.301,0.222-0.612,0.639-0.612,1.348c0,1.108,0.781,1.818,1.703,1.818
	C91.376,27.501,91.961,27.146,92.147,26.968z M99.283,27.829c-0.142-0.063-0.169-0.107-0.169-0.302c0-0.488,0.036-1.02,0.045-1.162
	c0.009-0.133,0.035-0.231,0.106-0.231c0.08,0,0.089,0.08,0.089,0.151c0,0.116,0.035,0.301,0.079,0.452
	c0.195,0.657,0.719,0.896,1.268,0.896c0.799,0,1.188-0.541,1.188-1.011c0-0.435-0.133-0.842-0.869-1.419l-0.408-0.319
	c-0.976-0.763-1.313-1.383-1.313-2.102c0-0.976,0.816-1.676,2.049-1.676c0.577,0,0.949,0.089,1.179,0.151
	c0.08,0.018,0.124,0.044,0.124,0.107c0,0.115-0.035,0.372-0.035,1.064c0,0.195-0.027,0.266-0.098,0.266
	c-0.062,0-0.088-0.053-0.088-0.16c0-0.08-0.045-0.355-0.231-0.585c-0.133-0.169-0.39-0.435-0.966-0.435
	c-0.657,0-1.056,0.381-1.056,0.914c0,0.408,0.204,0.718,0.941,1.277l0.248,0.186c1.073,0.807,1.455,1.419,1.455,2.262
	c0,0.514-0.195,1.127-0.834,1.544c-0.443,0.283-0.94,0.364-1.41,0.364C100.063,28.06,99.664,27.997,99.283,27.829z M104.487,24.414
	c0-1.144,0-1.357-0.009-1.597c-0.018-0.257-0.089-0.337-0.337-0.408c-0.062-0.018-0.195-0.027-0.31-0.027
	c-0.08,0-0.133-0.027-0.133-0.08c0-0.053,0.062-0.071,0.177-0.071c0.408,0,0.905,0.018,1.127,0.018c0.319,0,0.94-0.018,1.295-0.018
	c0.976,0,1.33,0.319,1.454,0.426c0.168,0.16,0.39,0.497,0.39,0.905c0,1.064-0.852,1.827-1.96,1.827c-0.036,0-0.195,0-0.23-0.009
	c-0.045,0-0.098-0.027-0.098-0.08c0-0.062,0.089-0.098,0.257-0.098c0.434,0,1.046-0.452,1.046-1.224
	c0-0.249-0.026-0.745-0.461-1.118c-0.284-0.248-0.603-0.284-0.781-0.284c-0.115,0-0.266,0.009-0.337,0.036
	c-0.044,0.018-0.062,0.062-0.062,0.142v2.989c0,0.692,0,1.286,0.036,1.614c0.026,0.214,0.071,0.355,0.301,0.39
	c0.115,0.018,0.284,0.027,0.399,0.027c0.088,0,0.124,0.045,0.124,0.079c0,0.054-0.062,0.081-0.142,0.081
	c-0.523,0-1.073-0.027-1.277-0.027c-0.177,0-0.674,0.027-0.984,0.027c-0.098,0-0.151-0.027-0.151-0.081
	c0-0.035,0.027-0.079,0.124-0.079c0.115,0,0.204-0.009,0.275-0.027c0.159-0.036,0.204-0.177,0.23-0.399
	c0.036-0.319,0.036-0.913,0.036-1.605V24.414z M109.859,24.414c0-1.144,0-1.357-0.009-1.597c-0.018-0.257-0.098-0.346-0.266-0.399
	c-0.088-0.027-0.186-0.036-0.284-0.036c-0.08,0-0.124-0.018-0.124-0.089c0-0.044,0.062-0.062,0.186-0.062
	c0.292,0,0.825,0.018,1.046,0.018c0.195,0,0.701-0.018,1.002-0.018c0.098,0,0.16,0.018,0.16,0.062c0,0.071-0.045,0.089-0.124,0.089
	c-0.08,0-0.142,0.009-0.231,0.027c-0.212,0.036-0.275,0.142-0.292,0.408c-0.018,0.24-0.018,0.452-0.018,1.597v1.33
	c0,0.727,0,1.33,0.036,1.65c0.026,0.204,0.079,0.319,0.31,0.355c0.106,0.018,0.284,0.027,0.399,0.027
	c0.089,0,0.124,0.045,0.124,0.079c0,0.054-0.062,0.081-0.15,0.081c-0.514,0-1.047-0.027-1.259-0.027c-0.177,0-0.71,0.027-1.02,0.027
	c-0.098,0-0.151-0.027-0.151-0.081c0-0.035,0.027-0.079,0.124-0.079c0.116,0,0.204-0.009,0.275-0.027
	c0.159-0.036,0.204-0.142,0.23-0.363c0.036-0.311,0.036-0.914,0.036-1.641V24.414z M113.91,24.414c0-1.144,0-1.357-0.009-1.597
	c-0.018-0.257-0.089-0.337-0.337-0.408c-0.062-0.018-0.195-0.027-0.31-0.027c-0.08,0-0.133-0.027-0.133-0.08
	c0-0.053,0.062-0.071,0.177-0.071c0.408,0,0.905,0.018,1.065,0.018c0.266,0,0.975-0.018,1.215-0.018
	c0.497,0,1.064,0.044,1.481,0.319c0.221,0.151,0.55,0.532,0.55,1.038c0,0.559-0.319,1.055-1.082,1.667
	c0.692,0.851,1.242,1.534,1.712,2.004c0.435,0.435,0.71,0.47,0.834,0.497c0.08,0.018,0.124,0.018,0.186,0.018
	s0.097,0.045,0.097,0.079c0,0.063-0.053,0.081-0.15,0.081h-0.745c-0.435,0-0.648-0.045-0.852-0.151
	c-0.337-0.169-0.63-0.523-1.064-1.109c-0.31-0.408-0.639-0.913-0.736-1.029c-0.045-0.044-0.089-0.053-0.142-0.053l-0.701-0.018
	c-0.035,0-0.062,0.018-0.062,0.062v0.107c0,0.7,0.009,1.286,0.044,1.605c0.027,0.223,0.062,0.363,0.302,0.399
	c0.115,0.018,0.284,0.027,0.381,0.027c0.062,0,0.098,0.045,0.098,0.079c0,0.054-0.062,0.081-0.16,0.081
	c-0.452,0-1.099-0.027-1.215-0.027c-0.151,0-0.648,0.027-0.958,0.027c-0.098,0-0.151-0.027-0.151-0.081
	c0-0.035,0.027-0.079,0.124-0.079c0.115,0,0.204-0.009,0.275-0.027c0.159-0.036,0.204-0.177,0.23-0.399
	c0.036-0.319,0.036-0.913,0.036-1.605V24.414z M114.904,25c0,0.08,0.018,0.107,0.071,0.133c0.168,0.053,0.399,0.071,0.594,0.071
	c0.311,0,0.417-0.027,0.55-0.124c0.239-0.169,0.506-0.497,0.506-1.118c0-1.064-0.728-1.339-1.188-1.339
	c-0.195,0-0.381,0.009-0.461,0.027c-0.053,0.018-0.071,0.044-0.071,0.106V25z M120.436,24.414c0-1.144,0-1.357-0.009-1.597
	c-0.018-0.257-0.098-0.346-0.266-0.399c-0.088-0.027-0.186-0.036-0.284-0.036c-0.08,0-0.124-0.018-0.124-0.089
	c0-0.044,0.062-0.062,0.186-0.062c0.292,0,0.825,0.018,1.046,0.018c0.195,0,0.701-0.018,1.002-0.018c0.098,0,0.16,0.018,0.16,0.062
	c0,0.071-0.045,0.089-0.124,0.089c-0.08,0-0.142,0.009-0.231,0.027c-0.213,0.036-0.275,0.142-0.292,0.408
	c-0.018,0.24-0.018,0.452-0.018,1.597v1.33c0,0.727,0,1.33,0.036,1.65c0.026,0.204,0.079,0.319,0.31,0.355
	c0.106,0.018,0.284,0.027,0.399,0.027c0.089,0,0.124,0.045,0.124,0.079c0,0.054-0.062,0.081-0.15,0.081
	c-0.514,0-1.047-0.027-1.259-0.027c-0.177,0-0.71,0.027-1.02,0.027c-0.098,0-0.151-0.027-0.151-0.081
	c0-0.035,0.027-0.079,0.124-0.079c0.116,0,0.204-0.009,0.275-0.027c0.159-0.036,0.204-0.142,0.23-0.363
	c0.036-0.311,0.036-0.914,0.036-1.641V24.414z M125.524,22.694l-1.161,0.027c-0.452,0.009-0.639,0.062-0.754,0.23
	c-0.08,0.107-0.115,0.204-0.133,0.257c-0.018,0.062-0.036,0.098-0.089,0.098s-0.071-0.044-0.071-0.124
	c0-0.124,0.151-0.851,0.169-0.914c0.017-0.098,0.044-0.142,0.088-0.142c0.062,0,0.142,0.062,0.337,0.089
	c0.23,0.027,0.523,0.035,0.781,0.035h3.166c0.248,0,0.417-0.018,0.532-0.035c0.124-0.018,0.186-0.036,0.212-0.036
	c0.054,0,0.063,0.044,0.063,0.16c0,0.16-0.018,0.718-0.018,0.913c-0.009,0.08-0.027,0.124-0.071,0.124
	c-0.062,0-0.08-0.036-0.089-0.151l-0.009-0.08c-0.017-0.195-0.221-0.426-0.922-0.434l-0.984-0.018v3.051
	c0,0.692,0.009,1.286,0.044,1.614c0.027,0.214,0.071,0.355,0.301,0.39c0.107,0.018,0.284,0.027,0.399,0.027
	c0.088,0,0.124,0.045,0.124,0.079c0,0.054-0.062,0.081-0.151,0.081c-0.514,0-1.037-0.027-1.259-0.027
	c-0.177,0-0.709,0.027-1.02,0.027c-0.097,0-0.15-0.027-0.15-0.081c0-0.035,0.026-0.079,0.124-0.079c0.115,0,0.213-0.009,0.275-0.027
	c0.159-0.036,0.204-0.177,0.23-0.399c0.035-0.319,0.035-0.913,0.035-1.605V22.694z M129.585,27.837
	c-0.125-0.053-0.151-0.088-0.151-0.257c0-0.408,0.035-0.878,0.044-1.002c0-0.115,0.036-0.195,0.098-0.195
	c0.071,0,0.079,0.07,0.079,0.124c0,0.097,0.027,0.257,0.071,0.39c0.169,0.558,0.754,0.745,1.242,0.745
	c0.674,0,1.081-0.426,1.081-0.958c0-0.328-0.079-0.656-0.771-1.064l-0.452-0.266c-0.923-0.541-1.224-1.047-1.224-1.712
	c0-0.922,0.887-1.517,1.969-1.517c0.505,0,0.905,0.071,1.108,0.124c0.071,0.018,0.107,0.044,0.107,0.098
	c0,0.098-0.027,0.31-0.027,0.905c0,0.16-0.035,0.239-0.097,0.239c-0.053,0-0.08-0.044-0.08-0.133c0-0.071-0.035-0.301-0.204-0.497
	c-0.115-0.142-0.364-0.355-0.869-0.355c-0.559,0-1.064,0.293-1.064,0.807c0,0.337,0.124,0.603,0.825,0.993l0.319,0.178
	c1.028,0.568,1.348,1.144,1.348,1.827c0,0.559-0.212,1.011-0.78,1.41c-0.372,0.266-0.887,0.311-1.304,0.311
	C130.401,28.033,129.921,27.988,129.585,27.837z M59.853,35.541c-0.155-0.386-0.328-0.754-0.532-1.102l0.658-0.184
	c0.212,0.416,0.386,0.802,0.512,1.151l-0.367,0.135h1.499v0.638h-3.239v-0.638H59.853z M59.341,43.119h-0.648v-3.392h2.726v3.267
	h-0.647v-0.522h-1.431V43.119z M61.361,36.952v0.599h-2.629v-0.599H61.361z M61.361,38.306v0.599h-2.629v-0.599H61.361z
	 M60.771,40.335h-1.431v1.518h1.431V40.335z M64.744,34.274v1.044h1.924v0.629h-1.924v1.14h2.31v0.638h-5.268v-0.638h2.263v-1.14
	h-1.866v-0.629h1.866v-1.044H64.744z M65.17,38.925V38.18h0.686v0.744h1.093v0.647h-1.093v2.678c0,0.551-0.261,0.832-0.774,0.832
	H63.73l-0.155-0.667c0.444,0.03,0.87,0.049,1.267,0.049c0.212,0,0.328-0.135,0.328-0.386v-2.504h-3.354v-0.647H65.17z
	 M63.874,41.516l-0.532,0.377c-0.289-0.474-0.686-0.996-1.189-1.557l0.532-0.328C63.198,40.588,63.594,41.09,63.874,41.516z
	 M70.802,34.555c-0.523,1.044-1.383,1.963-2.562,2.765l-0.203-0.677c1.005-0.696,1.73-1.479,2.175-2.359L70.802,34.555z
	 M68.258,39.978l-0.203-0.667c1.063-0.716,1.837-1.547,2.321-2.475l0.589,0.28c-0.251,0.484-0.57,0.939-0.947,1.363v4.612H69.36
	v-3.964C69.023,39.427,68.655,39.707,68.258,39.978z M71.855,39.997c-0.251,1.005-0.6,1.866-1.054,2.591L70.23,42.24
	c0.465-0.715,0.802-1.508,1.016-2.368L71.855,39.997z M73.082,36.497c0.058-0.289,0.107-0.589,0.155-0.879h-2.272v-0.647h2.359
	c0.02-0.232,0.049-0.474,0.068-0.706l0.697,0.097c-0.02,0.212-0.049,0.416-0.068,0.609h2.387v0.647h-2.484l-0.174,0.879h2.456v2.669
	h-4.94v-2.669H73.082z M72.725,37.078h-0.802v1.508h0.802V37.078z M73.131,42.956c-0.512,0-0.763-0.271-0.763-0.812V39.9h0.667
	v2.098c0,0.223,0.096,0.339,0.3,0.339h1.092c0.155,0,0.261-0.058,0.319-0.155c0.078-0.126,0.135-0.484,0.165-1.082l0.638,0.203
	c-0.058,0.783-0.174,1.256-0.328,1.431c-0.145,0.146-0.367,0.223-0.667,0.223H73.131z M74.146,37.078h-0.832v1.508h0.832V37.078z
	 M74.929,40.761l-0.512,0.358c-0.232-0.405-0.551-0.86-0.938-1.354l0.484-0.309C74.378,39.958,74.698,40.393,74.929,40.761z
	 M75.557,37.078h-0.812v1.508h0.812V37.078z M76.911,42.066l-0.57,0.251c-0.29-0.908-0.619-1.72-0.986-2.417l0.6-0.193
	C76.321,40.442,76.64,41.235,76.911,42.066z M82.501,34.168c-0.386,0.638-0.697,1.305-0.919,2.001
	c-0.29,0.851-0.425,1.682-0.425,2.514c0,0.821,0.135,1.663,0.425,2.513c0.222,0.686,0.532,1.354,0.919,2.002h-0.677
	c-0.425-0.628-0.754-1.295-0.996-1.991c-0.29-0.832-0.425-1.672-0.425-2.514c0-0.86,0.135-1.702,0.425-2.533
	c0.242-0.705,0.57-1.373,0.996-1.991H82.501z M92.241,34.652v0.677h-2.63v1.682h2.127v3.296h-2.127v1.808h2.784v0.677h-8.546v-0.677
	h2.765v-1.808h-2.117v-3.306h2.126v-1.672h-2.64v-0.677H92.241z M88.915,39.64h2.137v-1.962h-2.137v-2.349H87.32v2.339h-2.136v1.972
	h2.126v2.475h1.605V39.64z M95.386,38.286l-0.483,0.484c-0.367-0.493-0.871-1.015-1.518-1.556l0.474-0.454
	C94.458,37.262,94.971,37.774,95.386,38.286z M95.367,39.92c-0.348,1.121-0.735,2.165-1.16,3.152l-0.647-0.29
	c0.454-1.005,0.851-2.04,1.189-3.103L95.367,39.92z M95.677,35.918l-0.484,0.484c-0.386-0.465-0.919-0.967-1.595-1.489l0.474-0.465
	C94.709,34.941,95.242,35.434,95.677,35.918z M97.697,34.371v2.91c-0.03,2.668-0.619,4.631-1.76,5.868l-0.531-0.474
	c0.754-0.802,1.247-1.943,1.479-3.431l-0.416,0.212c-0.281-0.889-0.59-1.672-0.938-2.359l0.503-0.222
	c0.328,0.676,0.619,1.411,0.87,2.222c0.077-0.57,0.116-1.179,0.126-1.817v-2.91H97.697z M98.847,39.244l-0.425,0.193
	c-0.154-0.928-0.309-1.749-0.483-2.465l0.405-0.126C98.538,37.6,98.703,38.393,98.847,39.244z M99.708,34.594v8.227h-0.619v-8.227
	H99.708z M100.945,39.234l-0.425,0.193c-0.184-0.928-0.386-1.74-0.599-2.456l0.396-0.135
	C100.559,37.59,100.771,38.383,100.945,39.234z M101.845,34.294v8.855h-0.667v-8.855H101.845z M104.072,34.168
	c0.416,0.619,0.744,1.286,0.997,1.991c0.28,0.831,0.424,1.672,0.424,2.533c0,0.841-0.145,1.682-0.424,2.514
	c-0.252,0.696-0.581,1.363-0.997,1.991h-0.677c0.387-0.648,0.687-1.316,0.919-2.002c0.281-0.85,0.425-1.691,0.425-2.513
	c0-0.832-0.145-1.663-0.425-2.514c-0.231-0.696-0.531-1.363-0.919-2.001H104.072z M112.197,41.042v2.068h-0.658v-5.055
	c-0.542,0.677-1.17,1.305-1.866,1.866l-0.454-0.59c1.217-0.966,2.155-2.068,2.822-3.315h-2.561v-0.677h2.88
	c0.165-0.377,0.309-0.754,0.425-1.132l0.706,0.088c-0.116,0.358-0.232,0.705-0.367,1.044h4.804v0.677h-5.094
	c-0.193,0.386-0.396,0.763-0.628,1.121h4.485v5.22c0,0.474-0.27,0.716-0.812,0.735h-1.082l-0.174-0.638
	c0.367,0.019,0.715,0.038,1.035,0.038c0.251,0,0.377-0.116,0.377-0.347v-1.102H112.197z M112.197,38.799h3.838v-1.054h-3.838V38.799
	z M112.197,39.407v1.025h3.838v-1.025H112.197z M122.264,34.652v0.551c-0.29,0.87-0.638,1.778-1.044,2.726
	c0.619,0.85,0.958,1.624,0.996,2.32c0,0.416-0.106,0.716-0.3,0.9c-0.27,0.231-0.754,0.347-1.45,0.347l-0.232-0.705
	c0.155,0.019,0.281,0.038,0.377,0.038c0.358-0.019,0.6-0.068,0.725-0.145c0.116-0.087,0.184-0.232,0.184-0.435
	c0-0.658-0.338-1.402-1.015-2.214c0.454-1.005,0.812-1.914,1.063-2.726h-1.595v7.831h-0.677v-8.488H122.264z M123.405,42.105
	c0.58-0.174,1.159-0.386,1.729-0.658l0.165,0.648c-0.696,0.3-1.566,0.589-2.619,0.87l-0.174-0.609
	c0.135-0.039,0.212-0.116,0.212-0.222v-7.473h4.216v4.138h-3.529V42.105z M126.257,35.318h-2.852v1.112h2.852V35.318z
	 M123.405,38.16h2.852v-1.101h-2.852V38.16z M127.542,39.669c-0.444,0.522-0.938,0.928-1.478,1.208
	c0.483,0.658,1.063,1.179,1.749,1.567l-0.406,0.589c-1.256-0.735-2.165-1.885-2.736-3.451l0.532-0.3
	c0.154,0.397,0.328,0.764,0.531,1.102c0.474-0.261,0.928-0.647,1.354-1.17L127.542,39.669z M131.975,34.613
	c-0.716,2.03-1.653,3.577-2.833,4.64l-0.542-0.474c1.209-1.101,2.117-2.571,2.736-4.418L131.975,34.613z M136.567,42.84l-0.648,0.29
	c-0.145-0.329-0.289-0.639-0.435-0.928c-1.701,0.27-3.606,0.464-5.713,0.599l-0.126-0.677c0.774-0.405,1.74-1.933,2.91-4.582
	l0.677,0.232c-0.831,1.837-1.663,3.277-2.494,4.321c1.575-0.097,3.054-0.261,4.437-0.484c-0.377-0.696-0.763-1.333-1.169-1.914
	l0.628-0.212C135.388,40.53,136.025,41.651,136.567,42.84z M137.398,38.702l-0.493,0.57c-1.44-1.198-2.445-2.755-3.006-4.65
	l0.589-0.328C135.049,36.092,136.016,37.562,137.398,38.702z M144.479,36.576v0.628h-5.945v-0.628H144.479z M143.871,43.062
	l-0.174-0.667l1.354,0.019c0.289,0,0.445-0.193,0.445-0.58v-6.487h-6.573v-0.677h7.269v7.357c0,0.686-0.328,1.035-0.986,1.035
	H143.871z M143.523,38.393v2.977h-4.263v-2.977H143.523z M142.856,39.021h-2.919v1.73h2.919V39.021z"/>
</svg>
