<?xml version="1.0" encoding="utf-8"?>
<!-- Generator: Adobe Illustrator 22.0.0, SVG Export Plug-In . SVG Version: 6.00 Build 0)  -->
<svg version="1.1" id="Layer_2_1_" xmlns="http://www.w3.org/2000/svg" xmlns:xlink="http://www.w3.org/1999/xlink" x="0px" y="0px"
	 width="200px" height="46.3px" viewBox="0 0 200 46.3" style="enable-background:new 0 0 200 46.3;" xml:space="preserve">
<style type="text/css">
	.st0{fill:#8D302B;}
	.st1{fill:#FFFFFF;}
	.st2{fill:#231F20;}
</style>
<path class="st0" d="M46.308,23.201c0,12.781-10.36,23.142-23.141,23.142c-12.782,0-23.143-10.361-23.143-23.142
	c0-12.781,10.361-23.142,23.143-23.142C35.948,0.059,46.308,10.42,46.308,23.201z"/>
<path class="st1" d="M23.6,17.625v3.699h-0.307c-0.231-0.966-0.662-1.705-1.291-2.219c-0.63-0.515-1.342-0.772-2.142-0.772
	c-0.666,0-1.276,0.192-1.833,0.575c-0.557,0.383-0.963,0.884-1.22,1.503c-0.33,0.792-0.495,1.674-0.495,2.644
	c0,0.955,0.121,1.824,0.362,2.609c0.242,0.784,0.619,1.377,1.135,1.778c0.513,0.401,1.179,0.602,1.997,0.602
	c0.671,0,1.288-0.147,1.846-0.441c0.558-0.294,1.148-0.8,1.767-1.519v0.921c-0.599,0.625-1.222,1.077-1.87,1.358
	c-0.647,0.281-1.404,0.421-2.269,0.421c-1.139,0-2.151-0.229-3.035-0.685c-0.883-0.457-1.565-1.112-2.045-1.967
	c-0.481-0.856-0.721-1.765-0.721-2.731c0-1.018,0.267-1.983,0.799-2.896s1.252-1.621,2.157-2.125
	c0.904-0.503,1.865-0.755,2.884-0.755c0.75,0,1.542,0.163,2.377,0.488c0.483,0.189,0.789,0.283,0.919,0.283
	c0.168,0,0.315-0.062,0.438-0.185c0.123-0.123,0.204-0.318,0.241-0.586H23.6z M31.971,17.625l0.085,3.558h-0.322
	c-0.152-0.892-0.526-1.61-1.12-2.153c-0.597-0.543-1.241-0.814-1.933-0.814c-0.534,0-0.959,0.143-1.27,0.429
	c-0.313,0.285-0.47,0.615-0.47,0.987c0,0.236,0.057,0.446,0.166,0.63c0.152,0.247,0.396,0.491,0.731,0.732
	c0.247,0.173,0.817,0.48,1.709,0.921c1.247,0.613,2.09,1.193,2.525,1.739c0.431,0.546,0.646,1.17,0.646,1.873
	c0,0.892-0.347,1.659-1.042,2.302c-0.696,0.642-1.578,0.964-2.649,0.964c-0.335,0-0.653-0.035-0.951-0.102
	c-0.3-0.069-0.675-0.197-1.127-0.386c-0.252-0.104-0.458-0.157-0.621-0.157c-0.137,0-0.28,0.052-0.433,0.157
	c-0.152,0.105-0.276,0.265-0.369,0.48h-0.291v-4.029h0.291c0.231,1.133,0.675,1.997,1.333,2.593
	c0.658,0.595,1.368,0.893,2.129,0.893c0.589,0,1.057-0.16,1.405-0.48c0.349-0.32,0.523-0.692,0.523-1.117
	c0-0.253-0.066-0.496-0.2-0.732c-0.134-0.236-0.337-0.461-0.609-0.673c-0.273-0.212-0.756-0.489-1.448-0.831
	c-0.971-0.477-1.668-0.884-2.095-1.22c-0.424-0.335-0.75-0.711-0.979-1.125c-0.228-0.414-0.342-0.871-0.342-1.37
	c0-0.85,0.311-1.574,0.936-2.171c0.625-0.598,1.412-0.897,2.361-0.897c0.347,0,0.683,0.042,1.008,0.126
	c0.246,0.063,0.547,0.18,0.901,0.351c0.355,0.17,0.602,0.255,0.744,0.255c0.135,0,0.243-0.042,0.322-0.126
	c0.079-0.084,0.152-0.286,0.22-0.606H31.971z M44.032,30.514c0,0,0.564-1.068-0.476-2.027c-1.492-1.378-3.129-0.326-3.129-0.326
	s-0.764-0.978-2.278-0.551c-0.546,0.153-1.06,0.504-1.506,0.91l0.071-0.244c0.945-1.891,3.624-1.733,3.624-1.733
	c4.371,0.02,4.488-2.364,4.488-2.364c-1.811,1.555-3.839,0.984-3.839,0.984c2.74-0.475,4.835-2.535,5.208-4.258
	c-0.052-0.529-0.123-1.052-0.21-1.57c-0.641-1.202-2.057-1.135-2.057-1.135s1.494,0.458,1.217,2.31
	c-0.238,1.574-2.644,2.821-4.257,3.216c-1.468,0.357-2.658,0.585-3.39,1.234c0.07-0.577,0.107-1.164,0.107-1.76
	c0-0.389-0.016-0.775-0.047-1.156c0.307-1.308,1.192-3.627,3.715-4.819c0,0,2.832-1.155,4.395,0.552
	c-0.111-0.463-0.236-0.921-0.374-1.373c-0.298-0.513-0.828-1.021-1.774-1.23c0,0,0.36-0.962-0.959-1.206
	c-0.928-0.172-1.406,0.203-1.843,1.051c0,0-0.339-0.816-1.285-0.539c-1.565,0.456-2.27,3.229-2.23,5.332
	c-0.153-0.636-0.349-1.256-0.583-1.856l0.005,0c0,0-0.88-2.806,1.39-4.965c0,0,1.685-1.468,3.26-0.58c0,0-0.343-1.665-2.098-1.486
	c0,0,0.031-0.8-1.004-0.657c-0.729,0.1-0.991,0.493-1.107,1.227c0,0-0.451-0.52-1.083-0.086c-1.062,0.731-0.886,3.011-0.322,4.56
	c-0.325-0.558-0.686-1.093-1.079-1.601c-0.219-0.509-0.933-2.408,0.018-3.819C35.555,9.133,36.7,9.48,36.7,9.48
	s-0.614-1.172-2.028-0.451c0,0-0.528,0.278-0.73,0.654c0.079-0.154,0.351-0.735,0.217-1.222c0,0-0.059-0.416-0.649-0.768
	c0,0,0.117,0.581-0.204,0.936c-0.67,0.747-1.343,1.889-0.253,4.06c-1.511-1.421-3.326-2.522-5.337-3.191
	c0.942-0.836,2.111-0.586,2.111-0.586C29.343,8.114,28.21,8.23,28.21,8.23c0.331-0.709,0.132-1.655,0.132-1.655
	s-0.86,0.452-1.19,1.161c0,0-0.633-0.941-1.556-0.801c0,0,1.05,0.82,0.884,2.212c-0.802-0.189-1.63-0.311-2.477-0.359
	C24.538,6.164,27,5.596,27,5.596c-1.275-0.852-2.881,0.11-2.881,0.11c0-1.285-0.956-2.555-0.956-2.555s-0.965,1.27-0.965,2.555
	c0,0-1.596-0.962-2.874-0.11c0,0,2.462,0.567,2.992,3.193C21.427,8.841,20.56,8.974,19.72,9.18
	c-0.186-1.412,0.881-2.245,0.881-2.245c-0.926-0.14-1.557,0.801-1.557,0.801c-0.331-0.709-1.19-1.161-1.19-1.161
	s-0.2,0.946,0.13,1.655c0,0-1.131-0.116-1.616,0.682c0,0,1.199-0.256,2.146,0.62c-1.972,0.673-3.753,1.762-5.238,3.161
	c1.092-2.174,0.419-3.316-0.252-4.063c-0.321-0.356-0.204-0.936-0.204-0.936c-0.589,0.351-0.649,0.768-0.649,0.768
	c-0.134,0.487,0.138,1.069,0.217,1.223c-0.202-0.376-0.73-0.654-0.73-0.654C10.246,8.308,9.632,9.48,9.632,9.48
	s1.146-0.347,2.102,1.07c0.954,1.416,0.233,3.323,0.016,3.824c-0.394,0.509-0.755,1.044-1.08,1.604
	c0.566-1.549,0.745-3.836-0.319-4.569c-0.633-0.435-1.083,0.086-1.083,0.086c-0.116-0.734-0.378-1.128-1.107-1.227
	c-1.036-0.142-1.005,0.657-1.005,0.657c-1.755-0.178-2.098,1.486-2.098,1.486c1.575-0.888,3.26,0.58,3.26,0.58
	c2.27,2.159,1.39,4.965,1.39,4.965l0.007,0C9.48,18.56,9.283,19.182,9.13,19.821c0.042-2.104-0.664-4.884-2.23-5.34
	c-0.946-0.276-1.285,0.539-1.285,0.539c-0.437-0.848-0.914-1.223-1.843-1.051c-1.32,0.244-0.959,1.206-0.959,1.206
	c-0.946,0.209-1.476,0.717-1.774,1.23c-0.139,0.452-0.263,0.91-0.374,1.373c1.562-1.706,4.394-0.551,4.394-0.551
	c2.527,1.194,3.411,3.518,3.716,4.825c-0.03,0.38-0.046,0.763-0.046,1.15c0,0.596,0.037,1.184,0.107,1.762
	c-0.732-0.65-1.923-0.879-3.392-1.236c-1.614-0.395-4.019-1.642-4.257-3.216c-0.277-1.853,1.218-2.31,1.218-2.31
	s-1.416-0.067-2.058,1.135c-0.087,0.518-0.158,1.041-0.21,1.57c0.373,1.723,2.468,3.783,5.208,4.258c0,0-2.028,0.571-3.84-0.984
	c0,0,0.118,2.383,4.489,2.364c0,0,2.679-0.158,3.624,1.733L9.69,28.52c-0.446-0.407-0.96-0.757-1.506-0.911
	c-1.514-0.427-2.278,0.551-2.278,0.551s-1.637-1.052-3.129,0.326c-1.039,0.959-0.476,2.027-0.476,2.027
	c-0.306,0.489-0.496,0.938-0.599,1.349c0.489,1.21,1.076,2.369,1.754,3.467c0.003,0.001,0.006,0.003,0.006,0.003
	c-1.09-4.963,5.469-5.72,7.781-4.002c0.004,0.005,0.007,0.01,0.011,0.016c-1.328-0.524-3.353-0.578-4.436,0.603
	c-1.736,1.893-0.071,3.449-0.071,3.449c0.191-3.647,3.952-2.499,3.952-2.499c-3.013,0.553-3.373,3.559-2.269,4.9
	c1.105,1.341,2.973,0.712,2.973,0.712c-1.945-2.167,0.749-4.416,2.988-3.854c1.336,1.027,2.856,1.825,4.502,2.337
	c-0.363,0.011-0.719,0.049-1.176,0.176c-0.541,0.109-2.224,0.857-2.613,1.002c-0.387,0.141-0.766,0.236-1.059,0.194
	c-0.405-0.054-0.615-0.4-0.634-0.572c-0.096-0.36,0.194-0.846,0.702-0.86c-0.223-0.121-0.534-0.073-0.768,0.078
	c-0.237,0.149-0.442,0.387-0.53,0.694c-0.094,0.302-0.055,0.676,0.109,0.971c0.035,0.071,0.091,0.153,0.144,0.223l0.053,0.074
	l0.098,0.104c0.119,0.12,0.257,0.225,0.405,0.306c0.609,0.319,1.236,0.323,1.781,0.283c0.553-0.048,1.075-0.141,1.55-0.323
	c0.237-0.094,0.464-0.195,0.688-0.307c0.242-0.118,0.881-0.539,1.081-0.618c0.855-0.443,1.632-0.591,2.325-0.717
	c-1.203,0.393-2.146,1.337-2.623,2.717c1.598,0.31,3.018-0.151,3.975-1.221c-0.449,1.364-0.14,2.826,0.927,4.055
	c1.068-1.228,1.377-2.688,0.929-4.051c0.957,1.071,2.378,1.536,3.976,1.227c-0.433-1.259-1.255-2.154-2.307-2.601
	c0.522,0.115,1.085,0.281,1.685,0.592c0.2,0.078,0.838,0.5,1.081,0.618c0.224,0.112,0.451,0.213,0.688,0.307
	c0.475,0.182,0.997,0.275,1.55,0.323c0.545,0.04,1.171,0.036,1.781-0.283c0.148-0.081,0.287-0.186,0.405-0.306l0.098-0.104
	l0.053-0.074c0.053-0.069,0.109-0.152,0.144-0.223c0.165-0.295,0.203-0.669,0.109-0.971c-0.088-0.308-0.293-0.545-0.53-0.694
	c-0.234-0.152-0.546-0.2-0.768-0.078c0.508,0.014,0.798,0.5,0.702,0.86c-0.018,0.172-0.229,0.518-0.634,0.572
	c-0.294,0.043-0.672-0.053-1.059-0.194c-0.389-0.144-2.072-0.893-2.613-1.002c-0.456-0.126-0.812-0.165-1.174-0.176
	c1.646-0.511,3.166-1.31,4.503-2.337c2.238-0.559,4.929,1.689,2.984,3.855c0,0,1.868,0.629,2.973-0.712
	c1.105-1.341,0.745-4.347-2.268-4.9c0,0,3.761-1.148,3.952,2.499c0,0,1.665-1.556-0.072-3.449c-1.082-1.18-3.105-1.127-4.433-0.604
	c0.004-0.006,0.008-0.012,0.012-0.018c2.316-1.713,8.866-0.955,7.777,4.005c0,0,0.002-0.001,0.006-0.003
	c0.677-1.098,1.265-2.257,1.753-3.467C44.528,31.452,44.338,31.003,44.032,30.514z M23.167,36.262
	c-7.202,0-13.061-5.859-13.061-13.061s5.859-13.061,13.061-13.061c7.201,0,13.06,5.859,13.06,13.061S30.368,36.262,23.167,36.262z"
	/>
<path class="st2" d="M59.473,23.36c-1.403-1.232-1.776-2.836-1.776-4.225c0-0.974,0.301-2.664,1.676-3.924
	c1.031-0.945,2.392-1.518,4.525-1.518c0.889,0,1.418,0.057,2.077,0.143c0.544,0.072,1.003,0.201,1.432,0.243
	c0.157,0.014,0.215,0.086,0.215,0.172c0,0.114-0.043,0.286-0.072,0.788c-0.029,0.473-0.014,1.26-0.043,1.547
	c-0.014,0.215-0.043,0.329-0.171,0.329c-0.115,0-0.143-0.114-0.143-0.315c-0.015-0.444-0.201-0.945-0.559-1.318
	c-0.473-0.501-1.59-0.888-2.907-0.888c-1.246,0-2.063,0.315-2.693,0.888c-1.045,0.96-1.317,2.32-1.317,3.71
	c0,3.408,2.592,5.098,4.511,5.098c1.275,0,2.048-0.143,2.621-0.802c0.243-0.272,0.43-0.687,0.487-0.945
	c0.043-0.229,0.071-0.286,0.186-0.286c0.1,0,0.129,0.1,0.129,0.215c0,0.172-0.172,1.418-0.314,1.905
	c-0.072,0.244-0.129,0.315-0.373,0.415c-0.573,0.229-1.661,0.329-2.578,0.329C62.423,24.921,60.777,24.492,59.473,23.36z
	 M74.913,20.568c0.023,0,0.057-0.011,0.057-0.068v-0.204c0-1.461-0.011-1.812-0.022-2.117c-0.022-0.329-0.113-0.43-0.43-0.521
	c-0.079-0.023-0.249-0.034-0.385-0.034c-0.114,0-0.17-0.034-0.17-0.102c0-0.068,0.068-0.091,0.215-0.091
	c0.532,0,1.234,0.023,1.495,0.023c0.238,0,0.895-0.023,1.28-0.023c0.147,0,0.215,0.023,0.215,0.091c0,0.068-0.068,0.102-0.181,0.102
	c-0.079,0-0.17,0.011-0.294,0.034c-0.261,0.045-0.34,0.181-0.363,0.521c-0.022,0.306-0.022,0.577-0.022,2.038v1.699
	c0,0.883,0,1.642,0.045,2.061c0.034,0.272,0.091,0.453,0.396,0.498c0.136,0.022,0.351,0.034,0.51,0.034
	c0.102,0,0.158,0.057,0.158,0.102c0,0.068-0.079,0.102-0.204,0.102c-0.645,0-1.302-0.034-1.574-0.034
	c-0.226,0-0.928,0.034-1.313,0.034c-0.136,0-0.215-0.034-0.215-0.102c0-0.045,0.046-0.102,0.159-0.102
	c0.158,0,0.272-0.011,0.363-0.034c0.204-0.045,0.26-0.227,0.294-0.51c0.045-0.407,0.045-1.144,0.045-2.027v-0.736
	c0-0.034-0.034-0.056-0.057-0.056h-3.759c-0.035,0-0.068,0.011-0.068,0.056v0.736c0,0.883,0.011,1.619,0.057,2.038
	c0.034,0.272,0.091,0.453,0.385,0.498c0.136,0.022,0.362,0.034,0.51,0.034c0.113,0,0.158,0.057,0.158,0.102
	c0,0.068-0.079,0.102-0.204,0.102c-0.645,0-1.336-0.034-1.619-0.034c-0.227,0-0.883,0.034-1.28,0.034
	c-0.124,0-0.192-0.034-0.192-0.102c0-0.045,0.035-0.102,0.159-0.102c0.147,0,0.261-0.011,0.351-0.034
	c0.204-0.045,0.26-0.227,0.295-0.51c0.045-0.407,0.045-1.166,0.045-2.049v-1.699c0-1.461,0-1.732-0.011-2.038
	c-0.022-0.329-0.113-0.43-0.43-0.521c-0.079-0.023-0.249-0.034-0.396-0.034c-0.102,0-0.17-0.034-0.17-0.102
	c0-0.068,0.079-0.091,0.215-0.091c0.532,0,1.189,0.023,1.461,0.023c0.238,0,0.929-0.023,1.325-0.023
	c0.135,0,0.204,0.023,0.204,0.091c0,0.068-0.057,0.102-0.181,0.102c-0.079,0-0.17,0.011-0.283,0.034
	c-0.272,0.045-0.351,0.181-0.374,0.521c-0.022,0.306-0.022,0.657-0.022,2.117V20.5c0,0.057,0.034,0.068,0.068,0.068H74.913z
	 M79.436,20.217c0-1.461,0-1.732-0.011-2.038c-0.023-0.329-0.114-0.43-0.431-0.521c-0.079-0.023-0.248-0.034-0.396-0.034
	c-0.102,0-0.17-0.034-0.17-0.102c0-0.068,0.079-0.091,0.227-0.091c0.52,0,1.155,0.023,1.359,0.023c0.339,0,1.246-0.023,1.551-0.023
	c0.634,0,1.359,0.056,1.891,0.408c0.283,0.192,0.702,0.679,0.702,1.325c0,0.713-0.408,1.348-1.382,2.129
	c0.883,1.087,1.585,1.959,2.185,2.559c0.555,0.555,0.906,0.6,1.064,0.634c0.102,0.023,0.159,0.023,0.238,0.023
	s0.125,0.057,0.125,0.102c0,0.079-0.068,0.102-0.192,0.102h-0.951c-0.555,0-0.826-0.056-1.087-0.192
	c-0.431-0.215-0.804-0.668-1.359-1.415c-0.397-0.521-0.816-1.166-0.94-1.314c-0.057-0.057-0.113-0.068-0.181-0.068L80.783,21.7
	c-0.046,0-0.079,0.023-0.079,0.079v0.136c0,0.895,0.011,1.642,0.057,2.049c0.034,0.283,0.079,0.464,0.385,0.51
	c0.147,0.022,0.362,0.034,0.487,0.034c0.079,0,0.125,0.057,0.125,0.102c0,0.068-0.079,0.102-0.204,0.102
	c-0.577,0-1.405-0.034-1.551-0.034c-0.192,0-0.827,0.034-1.223,0.034c-0.124,0-0.192-0.034-0.192-0.102
	c0-0.045,0.034-0.102,0.159-0.102c0.147,0,0.26-0.011,0.35-0.034c0.204-0.045,0.261-0.227,0.295-0.51
	c0.045-0.407,0.045-1.166,0.045-2.049V20.217z M80.704,20.964c0,0.102,0.022,0.136,0.091,0.17c0.215,0.068,0.509,0.091,0.759,0.091
	c0.396,0,0.532-0.034,0.702-0.159c0.306-0.215,0.646-0.634,0.646-1.427c0-1.359-0.929-1.71-1.518-1.71
	c-0.249,0-0.487,0.011-0.589,0.034c-0.068,0.023-0.091,0.056-0.091,0.136V20.964z M87.75,20.217c0-1.461,0-1.732-0.012-2.038
	c-0.023-0.329-0.125-0.442-0.34-0.51c-0.113-0.034-0.238-0.045-0.363-0.045c-0.102,0-0.158-0.023-0.158-0.113
	c0-0.056,0.079-0.079,0.238-0.079c0.374,0,1.053,0.023,1.336,0.023c0.249,0,0.894-0.023,1.279-0.023
	c0.125,0,0.204,0.023,0.204,0.079c0,0.091-0.056,0.113-0.158,0.113c-0.102,0-0.181,0.011-0.294,0.034
	c-0.271,0.045-0.351,0.181-0.373,0.521c-0.023,0.306-0.023,0.577-0.023,2.038v1.699c0,0.928,0,1.698,0.045,2.106
	c0.034,0.26,0.102,0.408,0.396,0.453c0.136,0.022,0.363,0.034,0.509,0.034c0.114,0,0.159,0.057,0.159,0.102
	c0,0.068-0.079,0.102-0.193,0.102c-0.657,0-1.336-0.034-1.608-0.034c-0.226,0-0.905,0.034-1.302,0.034
	c-0.125,0-0.192-0.034-0.192-0.102c0-0.045,0.034-0.102,0.158-0.102c0.147,0,0.26-0.011,0.351-0.034
	c0.204-0.045,0.261-0.181,0.294-0.464c0.046-0.396,0.046-1.166,0.046-2.095V20.217z M91.145,24.587
	c-0.158-0.068-0.192-0.113-0.192-0.328c0-0.521,0.045-1.121,0.056-1.28c0-0.147,0.045-0.249,0.125-0.249
	c0.09,0,0.102,0.091,0.102,0.159c0,0.125,0.034,0.328,0.09,0.498c0.215,0.713,0.963,0.951,1.586,0.951
	c0.861,0,1.381-0.544,1.381-1.223c0-0.419-0.102-0.838-0.985-1.359l-0.577-0.34c-1.177-0.691-1.562-1.336-1.562-2.185
	c0-1.178,1.132-1.936,2.514-1.936c0.645,0,1.155,0.091,1.415,0.159c0.09,0.023,0.136,0.056,0.136,0.125
	c0,0.125-0.034,0.396-0.034,1.155c0,0.204-0.045,0.306-0.125,0.306c-0.068,0-0.102-0.057-0.102-0.17c0-0.091-0.045-0.385-0.26-0.634
	c-0.147-0.181-0.464-0.453-1.11-0.453c-0.713,0-1.359,0.374-1.359,1.03c0,0.43,0.158,0.77,1.053,1.268l0.407,0.226
	c1.313,0.725,1.721,1.461,1.721,2.333c0,0.713-0.272,1.291-0.997,1.8c-0.476,0.34-1.132,0.396-1.665,0.396
	C92.187,24.837,91.576,24.78,91.145,24.587z M99.085,18.02l-1.483,0.034c-0.577,0.011-0.816,0.079-0.962,0.294
	c-0.102,0.136-0.148,0.26-0.17,0.329c-0.022,0.079-0.045,0.125-0.113,0.125c-0.068,0-0.091-0.057-0.091-0.159
	c0-0.158,0.193-1.087,0.215-1.166c0.022-0.125,0.057-0.181,0.113-0.181c0.079,0,0.181,0.079,0.431,0.113
	c0.294,0.034,0.668,0.045,0.996,0.045h4.042c0.317,0,0.532-0.023,0.679-0.045c0.158-0.023,0.238-0.045,0.272-0.045
	c0.068,0,0.079,0.057,0.079,0.204c0,0.204-0.023,0.917-0.023,1.166c-0.011,0.102-0.034,0.158-0.09,0.158
	c-0.079,0-0.102-0.045-0.114-0.193l-0.011-0.102c-0.022-0.249-0.283-0.543-1.177-0.555l-1.257-0.023v3.895
	c0,0.883,0.011,1.642,0.057,2.061c0.034,0.272,0.091,0.453,0.385,0.498c0.136,0.022,0.362,0.034,0.51,0.034
	c0.113,0,0.158,0.057,0.158,0.102c0,0.068-0.079,0.102-0.192,0.102c-0.657,0-1.325-0.034-1.608-0.034
	c-0.227,0-0.906,0.034-1.303,0.034c-0.124,0-0.193-0.034-0.193-0.102c0-0.045,0.035-0.102,0.159-0.102
	c0.147,0,0.272-0.011,0.351-0.034c0.204-0.045,0.26-0.227,0.294-0.51c0.045-0.407,0.045-1.166,0.045-2.049V18.02z M103.666,21.066
	c0-1.642,1.154-3.771,4.178-3.771c2.514,0,4.076,1.393,4.076,3.601c0,2.208-1.608,3.941-4.178,3.941
	C104.844,24.837,103.666,22.776,103.666,21.066z M110.437,21.247c0-2.129-1.28-3.442-2.888-3.442c-1.11,0-2.412,0.589-2.412,2.967
	c0,1.982,1.132,3.544,3.012,3.544C108.851,24.316,110.437,23.987,110.437,21.247z M113.75,20.217c0-1.461,0-1.732-0.012-2.038
	c-0.023-0.329-0.114-0.43-0.43-0.521c-0.079-0.023-0.249-0.034-0.396-0.034c-0.102,0-0.17-0.034-0.17-0.102
	c0-0.068,0.079-0.091,0.227-0.091c0.521,0,1.155,0.023,1.438,0.023c0.408,0,1.2-0.023,1.653-0.023c1.246,0,1.698,0.408,1.857,0.543
	c0.215,0.204,0.498,0.634,0.498,1.155c0,1.359-1.087,2.333-2.503,2.333c-0.045,0-0.249,0-0.294-0.011
	c-0.057,0-0.124-0.034-0.124-0.102c0-0.079,0.113-0.125,0.328-0.125c0.555,0,1.336-0.577,1.336-1.563
	c0-0.317-0.034-0.951-0.589-1.427c-0.363-0.317-0.77-0.362-0.997-0.362c-0.147,0-0.34,0.011-0.43,0.045
	c-0.057,0.023-0.079,0.079-0.079,0.181v3.816c0,0.883,0,1.642,0.046,2.061c0.034,0.272,0.091,0.453,0.385,0.498
	c0.147,0.022,0.362,0.034,0.509,0.034c0.113,0,0.158,0.057,0.158,0.102c0,0.068-0.079,0.102-0.181,0.102
	c-0.668,0-1.37-0.034-1.631-0.034c-0.227,0-0.861,0.034-1.257,0.034c-0.125,0-0.193-0.034-0.193-0.102
	c0-0.045,0.034-0.102,0.158-0.102c0.147,0,0.26-0.011,0.351-0.034c0.204-0.045,0.261-0.227,0.294-0.51
	c0.046-0.407,0.046-1.166,0.046-2.049V20.217z M125.291,20.568c0.023,0,0.057-0.011,0.057-0.068v-0.204
	c0-1.461-0.011-1.812-0.022-2.117c-0.023-0.329-0.114-0.43-0.431-0.521c-0.079-0.023-0.248-0.034-0.385-0.034
	c-0.113,0-0.17-0.034-0.17-0.102c0-0.068,0.068-0.091,0.215-0.091c0.532,0,1.234,0.023,1.494,0.023c0.238,0,0.895-0.023,1.28-0.023
	c0.147,0,0.215,0.023,0.215,0.091c0,0.068-0.068,0.102-0.181,0.102c-0.079,0-0.17,0.011-0.294,0.034
	c-0.261,0.045-0.34,0.181-0.363,0.521c-0.022,0.306-0.022,0.577-0.022,2.038v1.699c0,0.883,0,1.642,0.045,2.061
	c0.034,0.272,0.091,0.453,0.396,0.498c0.137,0.022,0.351,0.034,0.51,0.034c0.102,0,0.158,0.057,0.158,0.102
	c0,0.068-0.079,0.102-0.204,0.102c-0.645,0-1.302-0.034-1.574-0.034c-0.227,0-0.929,0.034-1.314,0.034
	c-0.135,0-0.215-0.034-0.215-0.102c0-0.045,0.045-0.102,0.159-0.102c0.158,0,0.271-0.011,0.362-0.034
	c0.204-0.045,0.26-0.227,0.294-0.51c0.045-0.407,0.045-1.144,0.045-2.027v-0.736c0-0.034-0.034-0.056-0.057-0.056h-3.759
	c-0.034,0-0.068,0.011-0.068,0.056v0.736c0,0.883,0.011,1.619,0.056,2.038c0.035,0.272,0.091,0.453,0.385,0.498
	c0.136,0.022,0.363,0.034,0.51,0.034c0.114,0,0.158,0.057,0.158,0.102c0,0.068-0.079,0.102-0.204,0.102
	c-0.645,0-1.336-0.034-1.619-0.034c-0.226,0-0.883,0.034-1.279,0.034c-0.124,0-0.192-0.034-0.192-0.102
	c0-0.045,0.034-0.102,0.159-0.102c0.147,0,0.26-0.011,0.35-0.034c0.204-0.045,0.261-0.227,0.295-0.51
	c0.045-0.407,0.045-1.166,0.045-2.049v-1.699c0-1.461,0-1.732-0.011-2.038c-0.023-0.329-0.114-0.43-0.431-0.521
	c-0.079-0.023-0.248-0.034-0.396-0.034c-0.102,0-0.17-0.034-0.17-0.102c0-0.068,0.079-0.091,0.215-0.091
	c0.532,0,1.189,0.023,1.461,0.023c0.237,0,0.928-0.023,1.325-0.023c0.136,0,0.204,0.023,0.204,0.091
	c0,0.068-0.057,0.102-0.181,0.102c-0.079,0-0.17,0.011-0.283,0.034c-0.272,0.045-0.351,0.181-0.374,0.521
	c-0.022,0.306-0.022,0.657-0.022,2.117V20.5c0,0.057,0.034,0.068,0.068,0.068H125.291z M129.814,20.217c0-1.461,0-1.732-0.011-2.038
	c-0.022-0.329-0.113-0.43-0.43-0.521c-0.079-0.023-0.25-0.034-0.396-0.034c-0.102,0-0.17-0.034-0.17-0.102
	c0-0.068,0.079-0.091,0.226-0.091c0.521,0,1.155,0.023,1.438,0.023c0.317,0,2.525,0.011,2.717,0c0.181-0.011,0.34-0.045,0.42-0.057
	c0.056-0.011,0.113-0.045,0.158-0.045c0.057,0,0.068,0.045,0.068,0.09c0,0.068-0.057,0.181-0.079,0.623
	c-0.011,0.102-0.034,0.521-0.057,0.634c-0.011,0.045-0.034,0.159-0.113,0.159c-0.068,0-0.079-0.045-0.079-0.125
	c0-0.068-0.011-0.238-0.068-0.351c-0.079-0.17-0.159-0.306-0.657-0.351c-0.17-0.023-1.359-0.045-1.562-0.045
	c-0.045,0-0.068,0.034-0.068,0.091v2.378c0,0.057,0.011,0.102,0.068,0.102c0.226,0,1.517,0,1.744-0.023
	c0.238-0.022,0.374-0.056,0.476-0.147c0.079-0.068,0.113-0.125,0.158-0.125c0.045,0,0.079,0.045,0.079,0.102
	c0,0.057-0.022,0.215-0.079,0.702c-0.023,0.193-0.045,0.577-0.045,0.646c0,0.079-0.011,0.215-0.102,0.215
	c-0.068,0-0.091-0.034-0.091-0.079c-0.011-0.102-0.011-0.227-0.034-0.351c-0.057-0.192-0.181-0.34-0.555-0.374
	c-0.181-0.023-1.314-0.045-1.562-0.045c-0.046,0-0.057,0.045-0.057,0.102v0.77c0,0.329-0.011,1.144,0,1.427
	c0.023,0.657,0.328,0.804,1.347,0.804c0.261,0,0.679-0.011,0.94-0.125c0.249-0.113,0.363-0.317,0.43-0.713
	c0.023-0.102,0.046-0.147,0.114-0.147c0.079,0,0.091,0.124,0.091,0.226c0,0.215-0.079,0.872-0.136,1.064
	c-0.068,0.249-0.158,0.249-0.532,0.249c-0.747,0-1.348-0.011-1.834-0.034c-0.487-0.011-0.86-0.023-1.155-0.023
	c-0.113,0-0.329,0.011-0.566,0.011c-0.238,0.011-0.487,0.023-0.691,0.023c-0.125,0-0.192-0.034-0.192-0.102
	c0-0.045,0.034-0.102,0.158-0.102c0.148,0,0.261-0.011,0.351-0.034c0.204-0.045,0.26-0.227,0.294-0.51
	c0.045-0.407,0.045-1.166,0.045-2.049V20.217z M136.099,20.217c0-1.461,0-1.732-0.012-2.038c-0.023-0.329-0.114-0.43-0.43-0.521
	c-0.079-0.023-0.249-0.034-0.396-0.034c-0.102,0-0.17-0.034-0.17-0.102c0-0.068,0.079-0.091,0.227-0.091
	c0.521,0,1.155,0.023,1.359,0.023c0.34,0,1.246-0.023,1.552-0.023c0.633,0,1.359,0.056,1.89,0.408
	c0.283,0.192,0.702,0.679,0.702,1.325c0,0.713-0.408,1.348-1.382,2.129c0.883,1.087,1.585,1.959,2.186,2.559
	c0.555,0.555,0.905,0.6,1.064,0.634c0.102,0.023,0.158,0.023,0.237,0.023c0.079,0,0.125,0.057,0.125,0.102
	c0,0.079-0.068,0.102-0.192,0.102h-0.951c-0.555,0-0.827-0.056-1.087-0.192c-0.43-0.215-0.804-0.668-1.359-1.415
	c-0.397-0.521-0.815-1.166-0.94-1.314c-0.057-0.057-0.114-0.068-0.181-0.068l-0.895-0.023c-0.045,0-0.079,0.023-0.079,0.079v0.136
	c0,0.895,0.011,1.642,0.056,2.049c0.035,0.283,0.079,0.464,0.385,0.51c0.148,0.022,0.363,0.034,0.487,0.034
	c0.079,0,0.125,0.057,0.125,0.102c0,0.068-0.079,0.102-0.204,0.102c-0.577,0-1.404-0.034-1.551-0.034
	c-0.192,0-0.827,0.034-1.223,0.034c-0.125,0-0.192-0.034-0.192-0.102c0-0.045,0.034-0.102,0.158-0.102
	c0.147,0,0.26-0.011,0.351-0.034c0.204-0.045,0.261-0.227,0.294-0.51c0.046-0.407,0.046-1.166,0.046-2.049V20.217z M137.367,20.964
	c0,0.102,0.022,0.136,0.091,0.17c0.215,0.068,0.509,0.091,0.758,0.091c0.397,0,0.532-0.034,0.702-0.159
	c0.306-0.215,0.645-0.634,0.645-1.427c0-1.359-0.928-1.71-1.517-1.71c-0.25,0-0.487,0.011-0.589,0.034
	c-0.068,0.023-0.091,0.056-0.091,0.136V20.964z M147.19,24.549c-0.229-0.1-0.272-0.172-0.272-0.487c0-0.788,0.057-1.647,0.072-1.876
	c0.014-0.215,0.057-0.372,0.171-0.372c0.129,0,0.143,0.129,0.143,0.244c0,0.186,0.058,0.487,0.129,0.73
	c0.315,1.06,1.16,1.447,2.048,1.447c1.289,0,1.919-0.874,1.919-1.633c0-0.702-0.215-1.361-1.403-2.292l-0.659-0.516
	c-1.575-1.232-2.12-2.234-2.12-3.394c0-1.576,1.318-2.707,3.308-2.707c0.931,0,1.533,0.143,1.905,0.243
	c0.129,0.029,0.201,0.072,0.201,0.172c0,0.186-0.058,0.602-0.058,1.718c0,0.315-0.043,0.43-0.157,0.43
	c-0.101,0-0.143-0.086-0.143-0.258c0-0.129-0.072-0.573-0.373-0.945c-0.215-0.272-0.63-0.702-1.561-0.702
	c-1.06,0-1.705,0.616-1.705,1.475c0,0.659,0.33,1.16,1.519,2.062l0.401,0.301c1.733,1.303,2.349,2.292,2.349,3.652
	c0,0.831-0.316,1.819-1.346,2.492c-0.716,0.458-1.518,0.587-2.278,0.587C148.45,24.921,147.806,24.821,147.19,24.549z
	 M156.298,18.02l-1.483,0.034c-0.577,0.011-0.815,0.079-0.963,0.294c-0.102,0.136-0.147,0.26-0.17,0.329
	c-0.022,0.079-0.045,0.125-0.113,0.125c-0.068,0-0.091-0.057-0.091-0.159c0-0.158,0.192-1.087,0.215-1.166
	c0.022-0.125,0.057-0.181,0.113-0.181c0.079,0,0.181,0.079,0.43,0.113c0.294,0.034,0.668,0.045,0.996,0.045h4.042
	c0.317,0,0.533-0.023,0.679-0.045c0.159-0.023,0.238-0.045,0.272-0.045c0.068,0,0.079,0.057,0.079,0.204
	c0,0.204-0.023,0.917-0.023,1.166c-0.011,0.102-0.034,0.158-0.09,0.158c-0.079,0-0.102-0.045-0.114-0.193l-0.012-0.102
	c-0.022-0.249-0.283-0.543-1.177-0.555l-1.257-0.023v3.895c0,0.883,0.011,1.642,0.057,2.061c0.034,0.272,0.091,0.453,0.385,0.498
	c0.135,0.022,0.362,0.034,0.509,0.034c0.113,0,0.159,0.057,0.159,0.102c0,0.068-0.079,0.102-0.192,0.102
	c-0.657,0-1.325-0.034-1.608-0.034c-0.226,0-0.905,0.034-1.302,0.034c-0.125,0-0.193-0.034-0.193-0.102
	c0-0.045,0.034-0.102,0.158-0.102c0.148,0,0.272-0.011,0.351-0.034c0.204-0.045,0.26-0.227,0.294-0.51
	c0.045-0.407,0.045-1.166,0.045-2.049V18.02z M162.246,20.217c0-1.461,0-1.732-0.011-2.038c-0.023-0.329-0.114-0.43-0.431-0.521
	c-0.079-0.023-0.248-0.034-0.396-0.034c-0.102,0-0.17-0.034-0.17-0.102c0-0.068,0.079-0.091,0.227-0.091
	c0.52,0,1.155,0.023,1.438,0.023c0.317,0,2.525,0.011,2.717,0c0.181-0.011,0.339-0.045,0.419-0.057
	c0.057-0.011,0.113-0.045,0.159-0.045c0.056,0,0.068,0.045,0.068,0.09c0,0.068-0.057,0.181-0.079,0.623
	c-0.012,0.102-0.035,0.521-0.057,0.634c-0.011,0.045-0.034,0.159-0.113,0.159c-0.068,0-0.079-0.045-0.079-0.125
	c0-0.068-0.011-0.238-0.068-0.351c-0.079-0.17-0.158-0.306-0.656-0.351c-0.17-0.023-1.359-0.045-1.562-0.045
	c-0.045,0-0.068,0.034-0.068,0.091v2.378c0,0.057,0.011,0.102,0.068,0.102c0.227,0,1.517,0,1.744-0.023
	c0.238-0.022,0.373-0.056,0.475-0.147c0.079-0.068,0.114-0.125,0.159-0.125c0.045,0,0.079,0.045,0.079,0.102
	c0,0.057-0.023,0.215-0.079,0.702c-0.022,0.193-0.045,0.577-0.045,0.646c0,0.079-0.011,0.215-0.102,0.215
	c-0.068,0-0.091-0.034-0.091-0.079c-0.011-0.102-0.011-0.227-0.034-0.351c-0.057-0.192-0.181-0.34-0.555-0.374
	c-0.181-0.023-1.313-0.045-1.563-0.045c-0.045,0-0.056,0.045-0.056,0.102v0.77c0,0.329-0.012,1.144,0,1.427
	c0.022,0.657,0.328,0.804,1.347,0.804c0.26,0,0.679-0.011,0.939-0.125c0.25-0.113,0.363-0.317,0.431-0.713
	c0.022-0.102,0.045-0.147,0.113-0.147c0.079,0,0.091,0.124,0.091,0.226c0,0.215-0.079,0.872-0.136,1.064
	c-0.068,0.249-0.158,0.249-0.532,0.249c-0.748,0-1.347-0.011-1.834-0.034c-0.487-0.011-0.861-0.023-1.155-0.023
	c-0.113,0-0.328,0.011-0.566,0.011c-0.237,0.011-0.487,0.023-0.69,0.023c-0.124,0-0.193-0.034-0.193-0.102
	c0-0.045,0.034-0.102,0.159-0.102c0.147,0,0.26-0.011,0.35-0.034c0.204-0.045,0.261-0.227,0.295-0.51
	c0.045-0.407,0.045-1.166,0.045-2.049V20.217z M168.026,18.371c-0.125-0.351-0.204-0.577-0.351-0.668
	c-0.102-0.068-0.294-0.079-0.385-0.079c-0.102,0-0.158-0.034-0.158-0.102c0-0.068,0.079-0.091,0.226-0.091
	c0.509,0,1.064,0.023,1.155,0.023s0.577-0.023,1.155-0.023c0.147,0,0.215,0.023,0.215,0.091c0,0.068-0.079,0.102-0.181,0.102
	c-0.079,0-0.17,0.011-0.248,0.045c-0.091,0.034-0.102,0.091-0.102,0.192c0,0.125,0.091,0.442,0.215,0.883
	c0.17,0.634,1.076,3.544,1.223,3.986h0.034l1.902-4.926c0.102-0.272,0.204-0.351,0.294-0.351c0.114,0,0.204,0.147,0.328,0.453
	l1.993,4.756h0.034c0.192-0.555,0.951-3.091,1.302-4.212c0.068-0.226,0.102-0.419,0.102-0.555c0-0.158-0.091-0.272-0.487-0.272
	c-0.091,0-0.17-0.045-0.17-0.102c0-0.068,0.079-0.091,0.237-0.091c0.521,0,0.974,0.023,1.064,0.023c0.068,0,0.498-0.023,0.827-0.023
	c0.113,0,0.181,0.023,0.181,0.079c0,0.068-0.045,0.113-0.136,0.113c-0.102,0-0.237,0.011-0.351,0.045
	c-0.238,0.091-0.351,0.453-0.555,1.008c-0.464,1.211-1.483,4.269-1.97,5.707c-0.114,0.34-0.17,0.453-0.317,0.453
	c-0.135,0-0.204-0.113-0.351-0.464l-2.027-4.756h-0.023c-0.17,0.408-1.505,3.827-1.913,4.71c-0.181,0.396-0.238,0.51-0.385,0.51
	c-0.125,0-0.181-0.102-0.271-0.351L168.026,18.371z M179.665,22.278c-0.056,0-0.067,0.011-0.09,0.068l-0.532,1.302
	c-0.102,0.238-0.148,0.476-0.148,0.589c0,0.17,0.091,0.272,0.397,0.272h0.147c0.124,0,0.147,0.045,0.147,0.102
	c0,0.079-0.057,0.102-0.158,0.102c-0.328,0-0.792-0.034-1.11-0.034c-0.102,0-0.634,0.034-1.155,0.034
	c-0.125,0-0.181-0.023-0.181-0.102c0-0.056,0.034-0.102,0.114-0.102c0.091,0,0.204-0.011,0.294-0.011
	c0.453-0.068,0.622-0.362,0.826-0.849l2.604-6.013c0.114-0.272,0.192-0.385,0.294-0.385c0.148,0,0.192,0.091,0.294,0.306
	c0.238,0.532,1.903,4.427,2.537,5.888c0.384,0.872,0.668,0.996,0.849,1.031c0.147,0.022,0.26,0.034,0.373,0.034
	c0.091,0,0.137,0.034,0.137,0.102c0,0.079-0.057,0.102-0.431,0.102c-0.351,0-1.076,0-1.913-0.023
	c-0.181-0.011-0.294-0.011-0.294-0.079c0-0.056,0.022-0.091,0.125-0.102c0.067-0.011,0.135-0.102,0.09-0.215l-0.769-1.948
	c-0.023-0.056-0.057-0.068-0.102-0.068H179.665z M181.794,21.746c0.046,0,0.057-0.023,0.046-0.057l-0.94-2.412
	c-0.011-0.034-0.022-0.09-0.045-0.09c-0.035,0-0.046,0.057-0.057,0.09l-0.962,2.401c-0.022,0.045,0,0.068,0.034,0.068H181.794z
	 M186.795,20.217c0-1.461,0-1.732-0.011-2.038c-0.022-0.329-0.113-0.43-0.43-0.521c-0.079-0.023-0.249-0.034-0.396-0.034
	c-0.102,0-0.17-0.034-0.17-0.102c0-0.068,0.079-0.091,0.226-0.091c0.521,0,1.155,0.023,1.359,0.023c0.34,0,1.246-0.023,1.551-0.023
	c0.635,0,1.359,0.056,1.891,0.408c0.283,0.192,0.702,0.679,0.702,1.325c0,0.713-0.407,1.348-1.381,2.129
	c0.883,1.087,1.585,1.959,2.185,2.559c0.555,0.555,0.907,0.6,1.064,0.634c0.102,0.023,0.159,0.023,0.238,0.023
	c0.079,0,0.124,0.057,0.124,0.102c0,0.079-0.068,0.102-0.192,0.102h-0.951c-0.555,0-0.826-0.056-1.087-0.192
	c-0.43-0.215-0.804-0.668-1.359-1.415c-0.396-0.521-0.815-1.166-0.94-1.314c-0.057-0.057-0.113-0.068-0.181-0.068l-0.894-0.023
	c-0.045,0-0.079,0.023-0.079,0.079v0.136c0,0.895,0.011,1.642,0.057,2.049c0.034,0.283,0.079,0.464,0.385,0.51
	c0.147,0.022,0.362,0.034,0.487,0.034c0.079,0,0.124,0.057,0.124,0.102c0,0.068-0.079,0.102-0.204,0.102
	c-0.577,0-1.404-0.034-1.551-0.034c-0.193,0-0.827,0.034-1.223,0.034c-0.124,0-0.192-0.034-0.192-0.102
	c0-0.045,0.035-0.102,0.159-0.102c0.147,0,0.261-0.011,0.351-0.034c0.204-0.045,0.26-0.227,0.295-0.51
	c0.045-0.407,0.045-1.166,0.045-2.049V20.217z M188.063,20.964c0,0.102,0.023,0.136,0.091,0.17c0.215,0.068,0.51,0.091,0.759,0.091
	c0.396,0,0.532-0.034,0.702-0.159c0.306-0.215,0.646-0.634,0.646-1.427c0-1.359-0.929-1.71-1.518-1.71
	c-0.248,0-0.487,0.011-0.589,0.034c-0.068,0.023-0.091,0.056-0.091,0.136V20.964z M195.758,18.02l-1.483,0.034
	c-0.577,0.011-0.815,0.079-0.963,0.294c-0.102,0.136-0.147,0.26-0.17,0.329c-0.023,0.079-0.045,0.125-0.114,0.125
	c-0.067,0-0.09-0.057-0.09-0.159c0-0.158,0.192-1.087,0.215-1.166c0.022-0.125,0.056-0.181,0.113-0.181
	c0.079,0,0.181,0.079,0.43,0.113c0.294,0.034,0.668,0.045,0.997,0.045h4.043c0.317,0,0.532-0.023,0.679-0.045
	c0.158-0.023,0.238-0.045,0.271-0.045c0.068,0,0.079,0.057,0.079,0.204c0,0.204-0.022,0.917-0.022,1.166
	c-0.011,0.102-0.034,0.158-0.091,0.158c-0.079,0-0.102-0.045-0.113-0.193l-0.012-0.102c-0.023-0.249-0.283-0.543-1.177-0.555
	l-1.257-0.023v3.895c0,0.883,0.011,1.642,0.057,2.061c0.034,0.272,0.091,0.453,0.385,0.498c0.136,0.022,0.363,0.034,0.509,0.034
	c0.114,0,0.159,0.057,0.159,0.102c0,0.068-0.079,0.102-0.192,0.102c-0.657,0-1.325-0.034-1.608-0.034
	c-0.226,0-0.905,0.034-1.302,0.034c-0.125,0-0.193-0.034-0.193-0.102c0-0.045,0.034-0.102,0.158-0.102
	c0.147,0,0.271-0.011,0.351-0.034c0.204-0.045,0.261-0.227,0.294-0.51c0.045-0.407,0.045-1.166,0.045-2.049V18.02z M58.949,31.687
	c-0.223-0.533-0.388-0.64-0.736-0.736c-0.145-0.039-0.3-0.039-0.378-0.039c-0.087,0-0.116-0.029-0.116-0.087
	c0-0.078,0.107-0.087,0.252-0.087c0.513,0,1.066,0.029,1.405,0.029c0.242,0,0.707-0.029,1.191-0.029c0.116,0,0.223,0.02,0.223,0.087
	c0,0.068-0.058,0.087-0.145,0.087c-0.155,0-0.3,0.01-0.378,0.068c-0.068,0.048-0.097,0.116-0.097,0.203
	c0,0.126,0.087,0.397,0.223,0.746l1.666,4.398h0.039c0.417-1.066,1.676-4.185,1.908-4.825c0.048-0.126,0.087-0.271,0.087-0.358
	c0-0.078-0.039-0.155-0.126-0.184c-0.116-0.039-0.262-0.048-0.388-0.048c-0.087,0-0.165-0.01-0.165-0.078
	c0-0.078,0.087-0.097,0.271-0.097c0.484,0,0.891,0.029,1.017,0.029c0.165,0,0.62-0.029,0.911-0.029c0.126,0,0.203,0.02,0.203,0.087
	c0,0.068-0.058,0.087-0.155,0.087s-0.3,0-0.475,0.116c-0.126,0.087-0.271,0.252-0.533,0.872c-0.378,0.911-0.639,1.434-1.163,2.626
	c-0.62,1.414-1.075,2.471-1.288,2.955c-0.252,0.562-0.31,0.717-0.446,0.717c-0.126,0-0.184-0.135-0.368-0.591L58.949,31.687z
	 M66.47,34.216c0-1.25,0-1.482-0.01-1.744c-0.019-0.281-0.107-0.378-0.29-0.436c-0.097-0.029-0.203-0.039-0.31-0.039
	c-0.087,0-0.136-0.02-0.136-0.097c0-0.048,0.068-0.068,0.203-0.068c0.32,0,0.901,0.019,1.143,0.019c0.213,0,0.765-0.019,1.095-0.019
	c0.107,0,0.175,0.019,0.175,0.068c0,0.078-0.048,0.097-0.136,0.097c-0.087,0-0.155,0.01-0.252,0.029
	c-0.233,0.039-0.3,0.155-0.32,0.446c-0.019,0.262-0.019,0.494-0.019,1.744v1.453c0,0.794,0,1.453,0.039,1.802
	c0.029,0.223,0.087,0.349,0.339,0.387c0.116,0.02,0.31,0.029,0.436,0.029c0.097,0,0.136,0.049,0.136,0.087
	c0,0.058-0.068,0.087-0.165,0.087c-0.562,0-1.143-0.029-1.375-0.029c-0.194,0-0.775,0.029-1.114,0.029
	c-0.107,0-0.165-0.029-0.165-0.087c0-0.039,0.029-0.087,0.136-0.087c0.126,0,0.223-0.01,0.3-0.029
	c0.174-0.039,0.223-0.155,0.252-0.397c0.039-0.339,0.039-0.998,0.039-1.792V34.216z M70.947,36.938
	c0.02,0.639,0.126,0.833,0.291,0.891c0.145,0.049,0.31,0.058,0.446,0.058c0.097,0,0.145,0.039,0.145,0.087
	c0,0.068-0.077,0.087-0.194,0.087c-0.552,0-0.949-0.029-1.104-0.029c-0.078,0-0.485,0.029-0.921,0.029
	c-0.116,0-0.194-0.01-0.194-0.087c0-0.048,0.058-0.087,0.135-0.087c0.116,0,0.271-0.01,0.388-0.039
	c0.223-0.058,0.252-0.281,0.262-0.998l0.078-4.883c0-0.165,0.058-0.281,0.145-0.281c0.107,0,0.223,0.126,0.368,0.271
	c0.107,0.107,1.386,1.414,2.626,2.626c0.581,0.571,1.715,1.734,1.84,1.85h0.039l-0.087-3.662c-0.01-0.504-0.087-0.649-0.29-0.727
	c-0.126-0.048-0.33-0.048-0.446-0.048c-0.107,0-0.136-0.039-0.136-0.087c0-0.068,0.087-0.078,0.213-0.078
	c0.446,0,0.901,0.019,1.085,0.019c0.097,0,0.417-0.019,0.833-0.019c0.116,0,0.194,0.01,0.194,0.078c0,0.048-0.048,0.087-0.145,0.087
	c-0.087,0-0.155,0-0.262,0.029c-0.233,0.068-0.3,0.213-0.31,0.678l-0.097,5.193c0,0.184-0.068,0.261-0.136,0.261
	c-0.145,0-0.262-0.087-0.349-0.175c-0.533-0.494-1.598-1.511-2.49-2.373c-0.93-0.891-1.831-1.889-1.996-2.035H70.85L70.947,36.938z
	 M78.1,37.955c-0.136-0.058-0.165-0.097-0.165-0.281c0-0.445,0.039-0.959,0.049-1.095c0-0.126,0.039-0.213,0.106-0.213
	c0.077,0,0.087,0.078,0.087,0.136c0,0.106,0.029,0.281,0.077,0.426c0.184,0.611,0.823,0.814,1.356,0.814
	c0.736,0,1.182-0.465,1.182-1.046c0-0.359-0.087-0.717-0.843-1.163l-0.494-0.291c-1.007-0.591-1.337-1.143-1.337-1.87
	c0-1.008,0.969-1.657,2.151-1.657c0.552,0,0.988,0.078,1.211,0.136c0.077,0.019,0.116,0.048,0.116,0.107
	c0,0.107-0.029,0.339-0.029,0.988c0,0.174-0.039,0.262-0.107,0.262c-0.058,0-0.087-0.048-0.087-0.145
	c0-0.078-0.039-0.329-0.223-0.543c-0.126-0.155-0.397-0.388-0.949-0.388c-0.611,0-1.163,0.32-1.163,0.882
	c0,0.368,0.135,0.659,0.901,1.085l0.349,0.194c1.124,0.62,1.473,1.25,1.473,1.996c0,0.61-0.233,1.104-0.853,1.54
	c-0.407,0.291-0.969,0.339-1.424,0.339C78.991,38.168,78.468,38.12,78.1,37.955z M86.706,34.216c0-1.25,0-1.482-0.01-1.744
	c-0.019-0.281-0.097-0.368-0.368-0.446c-0.068-0.019-0.213-0.029-0.339-0.029c-0.087,0-0.145-0.029-0.145-0.087
	c0-0.058,0.068-0.078,0.194-0.078c0.446,0,0.988,0.019,1.23,0.019c0.271,0,2.161,0.01,2.325,0c0.155-0.01,0.291-0.039,0.358-0.048
	c0.049-0.01,0.097-0.039,0.136-0.039c0.048,0,0.058,0.039,0.058,0.078c0,0.058-0.048,0.155-0.068,0.533
	c-0.01,0.087-0.029,0.446-0.048,0.543c-0.01,0.039-0.029,0.136-0.097,0.136c-0.058,0-0.068-0.039-0.068-0.107
	c0-0.058-0.01-0.203-0.058-0.3c-0.068-0.145-0.136-0.261-0.562-0.3c-0.145-0.019-1.163-0.039-1.337-0.039
	c-0.039,0-0.058,0.029-0.058,0.078v2.034c0,0.048,0.01,0.087,0.058,0.087c0.194,0,1.298,0,1.492-0.019
	c0.203-0.019,0.329-0.039,0.407-0.126c0.068-0.058,0.097-0.107,0.136-0.107c0.039,0,0.068,0.039,0.068,0.087
	s-0.019,0.184-0.068,0.601c-0.02,0.165-0.039,0.494-0.039,0.552c0,0.068-0.01,0.184-0.087,0.184c-0.058,0-0.077-0.029-0.077-0.068
	c-0.01-0.087-0.01-0.194-0.029-0.301c-0.048-0.165-0.155-0.29-0.475-0.32c-0.155-0.02-1.124-0.039-1.337-0.039
	c-0.039,0-0.048,0.039-0.048,0.087v0.659c0,0.281-0.01,0.978,0,1.221c0.019,0.562,0.281,0.688,1.153,0.688
	c0.223,0,0.581-0.01,0.804-0.106c0.213-0.097,0.31-0.271,0.368-0.611c0.019-0.087,0.039-0.126,0.097-0.126
	c0.068,0,0.077,0.106,0.077,0.194c0,0.184-0.068,0.746-0.116,0.911c-0.058,0.213-0.135,0.213-0.455,0.213
	c-0.639,0-1.153-0.01-1.569-0.029c-0.417-0.01-0.736-0.02-0.988-0.02c-0.097,0-0.281,0.01-0.484,0.01
	c-0.203,0.01-0.417,0.02-0.591,0.02c-0.107,0-0.165-0.029-0.165-0.087c0-0.039,0.029-0.087,0.136-0.087
	c0.126,0,0.223-0.01,0.3-0.029c0.175-0.039,0.223-0.194,0.252-0.436c0.039-0.349,0.039-0.998,0.039-1.753V34.216z M93.422,32.336
	l-1.269,0.029c-0.494,0.01-0.698,0.068-0.823,0.252c-0.087,0.116-0.126,0.223-0.145,0.281c-0.02,0.068-0.039,0.107-0.097,0.107
	c-0.058,0-0.078-0.049-0.078-0.136c0-0.136,0.165-0.93,0.184-0.998c0.02-0.106,0.049-0.155,0.097-0.155
	c0.068,0,0.155,0.068,0.368,0.097c0.252,0.029,0.572,0.039,0.853,0.039h3.459c0.271,0,0.456-0.019,0.581-0.039
	c0.136-0.019,0.203-0.039,0.233-0.039c0.058,0,0.068,0.048,0.068,0.175c0,0.174-0.019,0.785-0.019,0.998
	c-0.01,0.087-0.029,0.136-0.078,0.136c-0.068,0-0.087-0.039-0.097-0.165l-0.01-0.087c-0.019-0.213-0.242-0.465-1.008-0.475
	l-1.075-0.02v3.333c0,0.755,0.01,1.405,0.048,1.763c0.029,0.232,0.078,0.387,0.329,0.426c0.116,0.02,0.31,0.029,0.436,0.029
	c0.097,0,0.136,0.049,0.136,0.087c0,0.058-0.068,0.087-0.165,0.087c-0.562,0-1.133-0.029-1.375-0.029
	c-0.194,0-0.775,0.029-1.114,0.029c-0.107,0-0.165-0.029-0.165-0.087c0-0.039,0.029-0.087,0.136-0.087c0.126,0,0.233-0.01,0.3-0.029
	c0.175-0.039,0.223-0.194,0.252-0.436c0.039-0.349,0.039-0.998,0.039-1.753V32.336z M100.992,37.945
	c-0.155-0.068-0.184-0.116-0.184-0.329c0-0.533,0.039-1.114,0.048-1.269c0.01-0.145,0.039-0.252,0.116-0.252
	c0.087,0,0.097,0.087,0.097,0.165c0,0.126,0.039,0.329,0.087,0.494c0.213,0.717,0.785,0.978,1.385,0.978
	c0.872,0,1.298-0.591,1.298-1.104c0-0.475-0.145-0.921-0.949-1.55l-0.446-0.349c-1.066-0.833-1.434-1.511-1.434-2.296
	c0-1.066,0.891-1.831,2.238-1.831c0.63,0,1.037,0.097,1.288,0.165c0.087,0.019,0.136,0.048,0.136,0.116
	c0,0.126-0.039,0.407-0.039,1.163c0,0.213-0.029,0.29-0.107,0.29c-0.068,0-0.097-0.058-0.097-0.174c0-0.087-0.048-0.388-0.252-0.639
	c-0.145-0.184-0.426-0.475-1.056-0.475c-0.717,0-1.153,0.417-1.153,0.998c0,0.445,0.223,0.785,1.027,1.395l0.271,0.203
	c1.172,0.882,1.589,1.55,1.589,2.47c0,0.562-0.213,1.231-0.91,1.685c-0.485,0.31-1.027,0.397-1.541,0.397
	C101.844,38.197,101.408,38.13,100.992,37.945z M106.778,34.216c0-1.25,0-1.482-0.01-1.744c-0.019-0.281-0.097-0.368-0.368-0.446
	c-0.068-0.019-0.213-0.029-0.339-0.029c-0.087,0-0.145-0.029-0.145-0.087c0-0.058,0.068-0.078,0.194-0.078
	c0.446,0,0.989,0.019,1.23,0.019c0.349,0,1.027-0.019,1.415-0.019c1.065,0,1.453,0.349,1.589,0.465
	c0.184,0.174,0.426,0.543,0.426,0.988c0,1.163-0.93,1.996-2.141,1.996c-0.039,0-0.213,0-0.252-0.01
	c-0.049,0-0.107-0.029-0.107-0.087c0-0.068,0.097-0.107,0.281-0.107c0.475,0,1.143-0.494,1.143-1.337
	c0-0.271-0.029-0.814-0.504-1.221c-0.31-0.271-0.659-0.31-0.853-0.31c-0.126,0-0.29,0.01-0.368,0.039
	c-0.049,0.019-0.068,0.068-0.068,0.155v3.265c0,0.755,0,1.405,0.039,1.763c0.029,0.232,0.077,0.387,0.329,0.426
	c0.126,0.02,0.31,0.029,0.436,0.029c0.097,0,0.136,0.049,0.136,0.087c0,0.058-0.068,0.087-0.155,0.087
	c-0.572,0-1.172-0.029-1.395-0.029c-0.194,0-0.736,0.029-1.076,0.029c-0.107,0-0.165-0.029-0.165-0.087
	c0-0.039,0.029-0.087,0.136-0.087c0.126,0,0.223-0.01,0.3-0.029c0.174-0.039,0.223-0.194,0.252-0.436
	c0.039-0.349,0.039-0.998,0.039-1.753V34.216z M112.554,34.216c0-1.25,0-1.482-0.01-1.744c-0.02-0.281-0.107-0.378-0.291-0.436
	c-0.097-0.029-0.203-0.039-0.31-0.039c-0.087,0-0.135-0.02-0.135-0.097c0-0.048,0.068-0.068,0.204-0.068
	c0.32,0,0.901,0.019,1.143,0.019c0.213,0,0.766-0.019,1.095-0.019c0.106,0,0.174,0.019,0.174,0.068c0,0.078-0.048,0.097-0.135,0.097
	s-0.155,0.01-0.252,0.029c-0.233,0.039-0.3,0.155-0.32,0.446c-0.019,0.262-0.019,0.494-0.019,1.744v1.453
	c0,0.794,0,1.453,0.039,1.802c0.029,0.223,0.087,0.349,0.339,0.387c0.116,0.02,0.31,0.029,0.436,0.029
	c0.097,0,0.135,0.049,0.135,0.087c0,0.058-0.068,0.087-0.165,0.087c-0.562,0-1.143-0.029-1.375-0.029
	c-0.194,0-0.775,0.029-1.114,0.029c-0.107,0-0.165-0.029-0.165-0.087c0-0.039,0.029-0.087,0.135-0.087c0.126,0,0.223-0.01,0.3-0.029
	c0.174-0.039,0.223-0.155,0.252-0.397c0.039-0.339,0.039-0.998,0.039-1.792V34.216z M116.499,34.216c0-1.25,0-1.482-0.01-1.744
	c-0.02-0.281-0.097-0.368-0.368-0.446c-0.068-0.019-0.213-0.029-0.339-0.029c-0.087,0-0.146-0.029-0.146-0.087
	c0-0.058,0.068-0.078,0.194-0.078c0.446,0,0.988,0.019,1.163,0.019c0.29,0,1.065-0.019,1.327-0.019c0.542,0,1.162,0.048,1.618,0.349
	c0.242,0.165,0.6,0.581,0.6,1.134c0,0.61-0.349,1.153-1.182,1.821c0.756,0.93,1.356,1.676,1.87,2.189
	c0.475,0.475,0.776,0.514,0.911,0.543c0.087,0.019,0.135,0.019,0.203,0.019c0.068,0,0.107,0.049,0.107,0.087
	c0,0.068-0.058,0.087-0.165,0.087h-0.814c-0.475,0-0.707-0.049-0.93-0.165c-0.368-0.184-0.688-0.572-1.162-1.211
	c-0.339-0.446-0.698-0.998-0.804-1.124c-0.049-0.048-0.097-0.058-0.155-0.058l-0.766-0.019c-0.039,0-0.068,0.019-0.068,0.068v0.116
	c0,0.765,0.01,1.405,0.049,1.753c0.029,0.242,0.068,0.397,0.329,0.436c0.126,0.02,0.31,0.029,0.417,0.029
	c0.068,0,0.106,0.049,0.106,0.087c0,0.058-0.068,0.087-0.175,0.087c-0.494,0-1.201-0.029-1.327-0.029
	c-0.165,0-0.707,0.029-1.046,0.029c-0.107,0-0.165-0.029-0.165-0.087c0-0.039,0.029-0.087,0.135-0.087c0.126,0,0.223-0.01,0.3-0.029
	c0.174-0.039,0.223-0.194,0.252-0.436c0.039-0.349,0.039-0.998,0.039-1.753V34.216z M117.584,34.855c0,0.087,0.02,0.116,0.078,0.145
	c0.184,0.058,0.436,0.078,0.649,0.078c0.339,0,0.456-0.029,0.601-0.135c0.261-0.184,0.552-0.543,0.552-1.221
	c0-1.163-0.795-1.463-1.298-1.463c-0.213,0-0.417,0.01-0.504,0.029c-0.058,0.02-0.078,0.048-0.078,0.116V34.855z M123.147,34.216
	c0-1.25,0-1.482-0.01-1.744c-0.02-0.281-0.107-0.378-0.291-0.436c-0.097-0.029-0.203-0.039-0.31-0.039
	c-0.087,0-0.135-0.02-0.135-0.097c0-0.048,0.068-0.068,0.204-0.068c0.32,0,0.901,0.019,1.143,0.019c0.213,0,0.766-0.019,1.095-0.019
	c0.106,0,0.174,0.019,0.174,0.068c0,0.078-0.048,0.097-0.135,0.097s-0.155,0.01-0.252,0.029c-0.233,0.039-0.3,0.155-0.32,0.446
	c-0.019,0.262-0.019,0.494-0.019,1.744v1.453c0,0.794,0,1.453,0.039,1.802c0.029,0.223,0.087,0.349,0.339,0.387
	c0.116,0.02,0.31,0.029,0.436,0.029c0.097,0,0.135,0.049,0.135,0.087c0,0.058-0.068,0.087-0.165,0.087
	c-0.562,0-1.143-0.029-1.375-0.029c-0.194,0-0.775,0.029-1.114,0.029c-0.107,0-0.165-0.029-0.165-0.087
	c0-0.039,0.029-0.087,0.135-0.087c0.126,0,0.223-0.01,0.3-0.029c0.174-0.039,0.223-0.155,0.252-0.397
	c0.039-0.339,0.039-0.998,0.039-1.792V34.216z M128.226,32.336l-1.269,0.029c-0.494,0.01-0.698,0.068-0.824,0.252
	c-0.087,0.116-0.126,0.223-0.145,0.281c-0.019,0.068-0.039,0.107-0.097,0.107s-0.077-0.049-0.077-0.136
	c0-0.136,0.165-0.93,0.184-0.998c0.019-0.106,0.048-0.155,0.097-0.155c0.068,0,0.155,0.068,0.368,0.097
	c0.252,0.029,0.571,0.039,0.852,0.039h3.459c0.271,0,0.455-0.019,0.581-0.039c0.135-0.019,0.203-0.039,0.232-0.039
	c0.058,0,0.068,0.048,0.068,0.175c0,0.174-0.019,0.785-0.019,0.998c-0.01,0.087-0.029,0.136-0.078,0.136
	c-0.068,0-0.087-0.039-0.097-0.165l-0.01-0.087c-0.02-0.213-0.242-0.465-1.008-0.475l-1.076-0.02v3.333
	c0,0.755,0.01,1.405,0.049,1.763c0.029,0.232,0.078,0.387,0.33,0.426c0.116,0.02,0.31,0.029,0.436,0.029
	c0.097,0,0.135,0.049,0.135,0.087c0,0.058-0.068,0.087-0.165,0.087c-0.562,0-1.134-0.029-1.376-0.029
	c-0.194,0-0.775,0.029-1.114,0.029c-0.106,0-0.165-0.029-0.165-0.087c0-0.039,0.029-0.087,0.136-0.087c0.126,0,0.232-0.01,0.3-0.029
	c0.175-0.039,0.223-0.194,0.252-0.436c0.039-0.349,0.039-0.998,0.039-1.753V32.336z M132.858,34.216c0-1.25,0.01-1.482-0.01-1.744
	c-0.02-0.291-0.097-0.368-0.368-0.446c-0.068-0.019-0.213-0.029-0.33-0.029c-0.097,0-0.145-0.029-0.145-0.087
	c0-0.058,0.058-0.078,0.184-0.078c0.455,0,1.027,0.019,1.279,0.019c0.213,0,0.785-0.019,1.095-0.019
	c0.126,0,0.184,0.019,0.184,0.078c0,0.058-0.049,0.087-0.135,0.087c-0.097,0-0.145,0.01-0.252,0.029
	c-0.223,0.039-0.291,0.155-0.31,0.446c-0.02,0.262-0.02,0.494-0.02,1.744v1.153c0,1.201,0.232,1.666,0.649,1.996
	c0.378,0.3,0.785,0.33,1.076,0.33c0.368,0,0.804-0.106,1.143-0.436c0.475-0.445,0.494-1.162,0.494-2.005v-1.037
	c0-1.25-0.01-1.482-0.019-1.744c-0.02-0.281-0.087-0.368-0.359-0.446c-0.068-0.019-0.213-0.029-0.31-0.029
	c-0.097,0-0.145-0.029-0.145-0.087c0-0.058,0.058-0.078,0.175-0.078c0.436,0,1.008,0.019,1.017,0.019
	c0.097,0,0.668-0.019,0.998-0.019c0.116,0,0.175,0.019,0.175,0.078c0,0.058-0.049,0.087-0.145,0.087
	c-0.097,0-0.145,0.01-0.252,0.029c-0.233,0.039-0.29,0.155-0.31,0.446c-0.01,0.262-0.02,0.494-0.02,1.744v0.882
	c0,0.92-0.097,1.889-0.814,2.48c-0.6,0.504-1.25,0.591-1.802,0.591c-0.445,0-1.327-0.019-1.947-0.562
	c-0.436-0.378-0.775-0.988-0.775-2.18V34.216z M140.398,34.216c0-1.25,0-1.482-0.01-1.744c-0.02-0.281-0.097-0.368-0.368-0.446
	c-0.068-0.019-0.213-0.029-0.339-0.029c-0.087,0-0.146-0.029-0.146-0.087c0-0.058,0.068-0.078,0.194-0.078
	c0.446,0,0.988,0.019,1.231,0.019c0.271,0,2.161,0.01,2.325,0c0.155-0.01,0.291-0.039,0.359-0.048
	c0.048-0.01,0.097-0.039,0.135-0.039c0.049,0,0.058,0.039,0.058,0.078c0,0.058-0.049,0.155-0.068,0.533
	c-0.01,0.087-0.029,0.446-0.049,0.543c-0.01,0.039-0.029,0.136-0.097,0.136c-0.058,0-0.068-0.039-0.068-0.107
	c0-0.058-0.01-0.203-0.058-0.3c-0.068-0.145-0.135-0.261-0.562-0.3c-0.145-0.019-1.163-0.039-1.337-0.039
	c-0.039,0-0.058,0.029-0.058,0.078v2.034c0,0.048,0.01,0.087,0.058,0.087c0.194,0,1.298,0,1.492-0.019
	c0.203-0.019,0.329-0.039,0.407-0.126c0.068-0.058,0.097-0.107,0.135-0.107c0.039,0,0.068,0.039,0.068,0.087
	s-0.02,0.184-0.068,0.601c-0.019,0.165-0.039,0.494-0.039,0.552c0,0.068-0.01,0.184-0.087,0.184c-0.058,0-0.077-0.029-0.077-0.068
	c-0.01-0.087-0.01-0.194-0.029-0.301c-0.049-0.165-0.155-0.29-0.475-0.32c-0.155-0.02-1.124-0.039-1.337-0.039
	c-0.039,0-0.048,0.039-0.048,0.087v0.659c0,0.281-0.01,0.978,0,1.221c0.019,0.562,0.281,0.688,1.153,0.688
	c0.223,0,0.581-0.01,0.804-0.106c0.213-0.097,0.31-0.271,0.368-0.611c0.02-0.087,0.039-0.126,0.097-0.126
	c0.068,0,0.077,0.106,0.077,0.194c0,0.184-0.068,0.746-0.116,0.911c-0.058,0.213-0.136,0.213-0.456,0.213
	c-0.64,0-1.153-0.01-1.57-0.029c-0.416-0.01-0.736-0.02-0.988-0.02c-0.097,0-0.281,0.01-0.485,0.01
	c-0.204,0.01-0.417,0.02-0.591,0.02c-0.107,0-0.165-0.029-0.165-0.087c0-0.039,0.029-0.087,0.135-0.087
	c0.126,0,0.223-0.01,0.301-0.029c0.174-0.039,0.223-0.194,0.252-0.436c0.039-0.349,0.039-0.998,0.039-1.753V34.216z M145.613,34.216
	c0-1.25,0.01-1.482-0.01-1.744c-0.02-0.291-0.097-0.368-0.368-0.446c-0.068-0.019-0.213-0.029-0.33-0.029
	c-0.097,0-0.145-0.029-0.145-0.087c0-0.058,0.058-0.078,0.184-0.078c0.455,0,1.027,0.019,1.279,0.019
	c0.213,0,0.785-0.019,1.095-0.019c0.126,0,0.184,0.019,0.184,0.078c0,0.058-0.049,0.087-0.135,0.087
	c-0.097,0-0.146,0.01-0.252,0.029c-0.223,0.039-0.291,0.155-0.31,0.446c-0.02,0.262-0.02,0.494-0.02,1.744v1.153
	c0,1.201,0.232,1.666,0.649,1.996c0.378,0.3,0.785,0.33,1.076,0.33c0.368,0,0.804-0.106,1.143-0.436
	c0.475-0.445,0.494-1.162,0.494-2.005v-1.037c0-1.25-0.01-1.482-0.019-1.744c-0.02-0.281-0.087-0.368-0.359-0.446
	c-0.068-0.019-0.213-0.029-0.31-0.029c-0.097,0-0.145-0.029-0.145-0.087c0-0.058,0.058-0.078,0.175-0.078
	c0.436,0,1.008,0.019,1.017,0.019c0.097,0,0.668-0.019,0.998-0.019c0.116,0,0.175,0.019,0.175,0.078
	c0,0.058-0.049,0.087-0.145,0.087c-0.097,0-0.145,0.01-0.252,0.029c-0.233,0.039-0.29,0.155-0.31,0.446
	c-0.01,0.262-0.02,0.494-0.02,1.744v0.882c0,0.92-0.097,1.889-0.814,2.48c-0.6,0.504-1.25,0.591-1.802,0.591
	c-0.445,0-1.327-0.019-1.947-0.562c-0.436-0.378-0.775-0.988-0.775-2.18V34.216z M155.536,34.603
	c0.271,0.407,1.686,2.645,1.899,2.906c0.145,0.184,0.281,0.271,0.465,0.33c0.116,0.039,0.252,0.048,0.33,0.048
	c0.058,0,0.106,0.039,0.106,0.087c0,0.058-0.068,0.087-0.165,0.087h-0.252c-0.204,0-0.882,0-1.579-0.02
	c-0.223-0.01-0.301-0.029-0.301-0.087c0-0.049,0.039-0.087,0.116-0.107c0.039-0.01,0.097-0.068,0.029-0.175
	c-0.494-0.804-0.959-1.579-1.347-2.209l-1.25,1.938c-0.087,0.135-0.136,0.261-0.126,0.349c0.01,0.077,0.087,0.126,0.165,0.126
	c0.049,0,0.116,0.01,0.184,0.01c0.049,0,0.106,0.049,0.106,0.097c0,0.058-0.058,0.078-0.174,0.078h-0.155
	c-0.049,0-0.611-0.029-0.824-0.029c-0.165,0-0.581,0.029-0.717,0.029h-0.145c-0.087,0-0.126-0.029-0.126-0.078
	c0-0.048,0.049-0.097,0.116-0.097c0.058,0,0.184-0.01,0.31-0.039c0.252-0.068,0.388-0.203,0.678-0.6L154.548,35l-1.502-2.344
	c-0.213-0.329-0.387-0.504-0.688-0.601c-0.135-0.039-0.271-0.058-0.358-0.058c-0.049,0-0.087-0.039-0.087-0.097
	c0-0.048,0.068-0.068,0.174-0.068c0.204,0,0.891,0.019,1.298,0.019c0.116,0,0.64-0.019,0.959-0.019c0.116,0,0.175,0.019,0.175,0.078
	c0,0.058-0.058,0.087-0.136,0.087c-0.048,0-0.135,0.01-0.203,0.029c-0.078,0.02-0.116,0.068-0.116,0.116s0.039,0.155,0.087,0.242
	c0.378,0.659,0.726,1.23,1.065,1.792c0.252-0.368,1.008-1.482,1.153-1.715c0.068-0.116,0.097-0.233,0.097-0.301
	c0-0.058-0.058-0.116-0.146-0.136c-0.087-0.029-0.204-0.029-0.271-0.029c-0.048,0-0.106-0.029-0.106-0.087
	c0-0.058,0.058-0.078,0.184-0.078c0.329,0,0.726,0.019,0.891,0.019c0.165,0,0.514-0.019,0.833-0.019
	c0.097,0,0.155,0.019,0.155,0.078c0,0.048-0.048,0.087-0.135,0.087s-0.194,0.019-0.31,0.048c-0.194,0.048-0.349,0.271-0.611,0.63
	L155.536,34.603z"/>
</svg>
