<?xml version="1.0" encoding="utf-8"?>
<!-- Generator: Adobe Illustrator 21.1.0, SVG Export Plug-In . SVG Version: 6.00 Build 0)  -->
<svg version="1.1" id="Layer_1" xmlns="http://www.w3.org/2000/svg" xmlns:xlink="http://www.w3.org/1999/xlink" x="0px" y="0px"
	 width="327px" height="316px" viewBox="0 0 327 316" style="enable-background:new 0 0 327 316;" xml:space="preserve">
<style type="text/css">
	.st0{opacity:0.67;fill:#D7A871;}
	.st1{fill:#DDEED6;}
	.st2{clip-path:url(#SVGID_2_);fill:#D7A871;}
	.st3{fill:#F9BB15;}
</style>
<path class="st0" d="M126.6,211.8l-1.2,3.9l0.7,1.5h-1.4l-1.3,2.5l-2.7,1.1h-0.1c-0.3-0.1-1.1-0.6-1.8-1.2l-0.5-0.4l-2.8,1.4
	c-0.4-0.3-1.1-0.9-1.9-2.1c-1.2-2-2.2-2.7-3.2-3.4c-0.2-0.2-0.5-0.3-0.7-0.5c-1.1-0.9-2.5-0.7-3.4-0.3l-5-1.7c-1.6-1-3-2.3-3.1-2.8
	c0-0.5-0.2-0.9-0.6-1.2c-0.9-0.7-2.8-0.3-4.3,0c-0.6-1.1-1.8-3.1-2.3-4.1c-0.7-1.4-2.4-1-3.7-0.6c-0.6,0.2-1.6,0.4-1.9,0.3
	c-0.7-0.5-1.1-2.2-1.2-2.9l0-0.2l-1.5-3.1l1.8-3.3l-1.9-1.4v-2.2c0.4-0.6,1.3-2.2,1.7-2.7c0.4-0.6,0.9-2.1,1.3-3h7.4v-3.1l2.3-2.4
	l0-0.4c0-0.4,0.2-3.7,0-5.1c-0.2-1.4-1.9-3.2-2.7-3.9v-2c0.2-0.3,1.1-0.9,1.9-0.9h11l3.7,2.3h1.4v1.5l3.4-0.3l0.9,0.8v2.3l2.7-0.3
	l1.7,0.6l3.1,1.9l3.7,0.3l2.5-2.8l1.5-3.3v-0.6h1.4l2.6,2.4l4.9-0.9l5.8,8.4l2.2-2.6c0.8,1,1.9,2.4,2.5,3.2c1,1.3,4.9,2.8,5.7,3
	l0.2,0.1h1.4l0.1,0.4l0.1,0.2c0.1,0.2,1.7,4,3.1,5.8c0.8,1,1.5,3.2,1.9,4.6l-2.4,0.8v2.7l-2.1,1.4l-1.4,2.9l-1,1.3
	c-0.4,0.6-0.9,2-0.2,3.5c-0.4,0.1-1.3,0.2-2.1-0.5c-2.1-1.8-4.9-0.2-5-0.1l-0.7,0.4l1.8,4.2l2.3,1.9v2.1l-2.1,0.9l-1.8,2.2l-1.3-1
	l-3.6-3l-0.6,1c-0.2,0.4-1.1,1.5-1.9,1.9c-0.3-0.1-1.3-1.2-2.7-4.8c-0.9-2.4-1.6-4.2-1.6-4.2l-0.2-0.5l-0.5-0.1
	c-0.7-0.2-4.3-1.2-5.6-1.2C127.5,206.5,126.7,208.3,126.6,211.8z M192.9,201.2c0.7-0.3,1.3-0.7,1.6-0.9c0-0.4,0-1.3,0-1.8
	c0-0.5-0.1-1-0.1-1.4c0-0.9-0.1-1.3-0.9-2c-0.8-0.8-1.2-2-1.3-2.6l-3.9-2.6l-0.9-0.9h-1.6c-0.3,0.3-0.9,1-1,1.3c0.1,0.6,0,2,0,2.7
	l2.7,3.2l0,0.4c-0.1,1.1-1,3.4-3.5,3.6c-0.3,0-0.5,0.1-0.6,0.2c-0.2,0.3-0.1,0.8,0,1.2c0.2,0.2,0.3,0.3,0.5,0.4l2.2,1.1
	c0.6,0.4,1.9,1,2.7,1c0.1,0,0.1,0,0.2,0c0-0.2,0-0.4,0-0.6c0-0.1,0-0.3,0-0.5c0-0.4,0.2-0.8,0.5-1.1
	C190.3,201.2,192,201.1,192.9,201.2z M199.1,263.2l-3.1-0.3v-2.3l2.8-2c-0.1-0.8-0.2-2,0.2-3.2c0.1-0.2,0.1-0.5,0.1-0.8h-2.4
	l-4.8-3.4l0.4-0.8c0.3-0.6,0.5-1.4,0.6-1.8h-3.4l-0.3-0.3c-0.2-0.2-0.4-0.4-0.5-0.4c0,0-0.1,0.1-0.1,0.2c-0.9,1.6-2.1,2.1-2.6,2.2
	l-1.4,0.6v1.9l-3.7-0.3l-3-1.1c-0.1,0.1-0.2,0.3-0.2,0.6c0,0.4,0.9,1.6,1.8,2.5l0.5,0.5l-1.5,3.1h-4.8l-1.9,1.5
	c-0.9,1.1-2.8,1.9-4.7,1.4c-2.3-0.7-3.4-0.8-3.7-0.7c-0.2,0.1-0.8,0.5-1.4,0.9c0.5,0.6,0.9,1.3,0.8,1.9c0,0.3-0.2,0.6-0.4,0.8
	c0.1,0.1,0.4,0.2,0.6,0.2c0.1,0,0.4-0.3,0.6-0.4c0.5-0.4,1.1-0.9,1.9-0.7c0.8,0.2,1.2,1,1.3,1.2c0.8,1.7,0.2,3.5-0.2,4.6
	c-0.1,0.2-0.2,0.5-0.2,0.6c0,0.3,0.3,2.4,0.7,4.1l0,0.2l0,0.2c0,0-0.4,2-0.4,4l5-1.9l0.4,0.2c1,0.6,3.1,1.8,3.8,2.1
	c0.3-0.1,0.8-0.4,1.1-0.6c0.2-0.1,0.4-0.3,0.6-0.4c0.4-0.2,1.7-1.2,2.6-1.8c-0.2-0.9-0.2-2.2,0.6-2.9c0.3-0.3,1-0.6,2.1-0.1
	c2,0.9,3.8,2.6,4.3,3c0.1,0,0.3,0.1,0.4,0.1c0.1-0.1,0.4-0.5,0.6-0.8c0.9-1.3,2.2-3.2,3.9-2.4c1.1,0.5,2.3,0.3,2.7,0
	c0.7-0.5,3.5-1.5,4.1-1.7l0.2-0.1h0.2l-0.4-4.7l1-2.3L199.1,263.2z M223.7,273.6c1.3-0.3,2.9-0.3,5.1,0c0.4,0,0.8,0.1,1.1,0.2
	l0.8-4.8v-3.4l-0.4-1.1l-0.4-3.4c-3-2.6-3-3.4-3-3.7c0-0.6,0.7-2,2.1-4.1l1.8-4.1c-0.1-0.4-0.3-1.1-0.9-1.1h-2.6l-0.2-4.3H226
	l-3.5,3.7v-4.4l-2.8,0c-0.1,0-3.6-0.5-7-1.6c-3.5-1.2-4.8-1.2-5.2-1.2c0.6,2.3,0,3.5-0.2,3.7l-0.8,1.4l-0.8-1.2
	c-0.1-0.1-0.7-0.4-1.9-0.4c-1.6,0-2.7,1.3-2.9,3.4c-0.1,1.2,0,2.7,0.1,4.1c0.1,1.9,0.2,3.5-0.1,4.5c-0.4,1.3,0,2.9,0,2.9l0.1,0.6
	l-2.4,1.7l1.3,0.1l2.2,1.8l-1.3,3.2l0.2,3c0.3-2.4,0.8-2.5,1.3-2.6c0.3-0.1,0.9-0.1,1.3,0.9c0.2,0.6,0.7,0.8,1.1,0.9
	c0.4-0.7,1.1-1.5,1.9-1.7c0.4-0.1,0.9,0.1,1.2,0.4c0.3,0.1,1.5,0,2.5-0.2l0.7-0.2l0.4,0.6c0.4,0.5,1.5,2.4,1.5,3.5
	c0,1-0.9,3.5-1.2,4.2l-0.4,0.9l1.2-0.5l1,2.9c0.3-0.2,0.6-0.3,0.9-0.3c1,0,1.9,0.9,2.3,1.4c0.5-0.5,1-1,1.1-1.2
	c0-0.8,0.4-2.6,1.6-3.2c0.4-0.2,1.1-0.4,2,0.2c0.4,0.3,0.8,0.5,1.2,0.8c0-0.7,0-1.4,0.3-1.9C223,274,223.3,273.7,223.7,273.6z
	 M208,212.9l-2.1-4.3c-0.2,0-0.4,0-0.7,0c-0.6,0-1-0.3-1.3-0.8c-1-1.8,1.3-6.8,1.8-7.6c0.5-0.8,0.1-2.6,0-3.2c0-0.2-0.1-0.3-0.1-0.4
	c0-0.2,0-0.7,0-2.6c0-1.3,0-2.7,0-3.3c0-1.3,0.9-2.7,1.3-3.2c0.2-0.5,0.7-2.1,0.9-3.2c0.1-0.3-0.7-1-1.1-1.4c-0.5-0.4-0.9-0.8-1-1.2
	c-0.5-1.2,0.8-2,2.3-3c0.6-0.4,1.2-0.8,1.7-1.2c0.5-0.4,0.4-2.2-0.1-3.9c-0.4,0.1-0.7,0.1-0.7,0.1h-2.2l-4.9,3l-3.8,4.9
	c0,0-1.2,1.6-1.4,3.2c-0.1,0.7-0.4,1.1-0.7,1.2c-0.9,0.6-2.2,0.3-3.5-0.1c-0.6-0.2-1.3-0.3-1.8-0.4l-1.4,2.4l0.5,0.6l4.4,2.9
	l0.1,0.4c0.1,0.4,0.3,1.4,0.9,2c1.1,1.1,1.4,2,1.4,3.4c0,0.3,0,0.8,0,1.3c0.1,1.6,0.1,2.3-0.2,2.8c-0.1,0.2-0.4,0.8-2.8,1.8
	l-0.2,0.1l-0.2,0c-0.8-0.1-1.8,0-2.1,0.2c0,0.1,0,0.1,0,0.2c0,0.7,0,1.5-0.5,2.1c-0.4,0.4-0.9,0.6-1.6,0.6c0,0,0,0,0,0
	c-1.5,0-3.4-1.1-3.7-1.3l-1.4-0.7c-0.5,0.9-1,2-1,2.5c0,0.4,0.1,0.4,0.6,0.6c0.2,0,0.3,0.1,0.5,0.2c0.9,0.5,0.8,1.6,0.6,2.3
	c0.2,0.2,0.3,0.4,0.4,0.7c0.1,0.5,0,1.1-0.5,1.8c-0.7,1.1-1,2.8-1,2.8l-0.2,1.2l-1.2-0.4c-0.8-0.3-1.6-0.5-2.1-0.5
	c0,1.4,0,3.2,0,3.3l-1,0c0.3,0.1,0.6,0.1,0.8,0.3c0.4,0.2,1.7,0.4,2.7,0.5c2.2,0.3,3.8,0.5,4.1,1.6c0.5,0.5,2.8,1.4,4.7,2.1h4v0.3
	l4.6,1.7v-3.1l0.6-0.2c1.2-0.4,2.5-1,3.2-1.3c0-0.1,0-0.1,0-0.2l-1.6-1l-3.8-3.3l2.4-0.1c0,0,1.1-0.1,2,0c0.1,0,0.5-0.1,0.7-0.1
	c0.9-0.2,2.2-0.4,3.4,0.2c0.6,0.3,1.8,0.7,2.9,1.1l-0.5-1.6L208,212.9z M177.8,196.7c0.1,1.1,2.1,2.8,2.8,3c0.3,0.1,0.6,0.2,0.9,0.4
	c0.1-0.2,0.1-0.4,0.3-0.6c0.3-0.5,0.9-1.1,2.1-1.2c1.1-0.1,1.5-1,1.7-1.5l-2.6-3.1l0-0.4c0-0.8,0.1-2.4,0-2.8c0-0.2-0.1-0.9,1-2.3
	c1-1.1,1.4-1.1,1.6-1.1h1.8l1.1-1.8c-1.5-0.7-2.9-2.2-3.6-3.1c-1.3-1.8-1.1-2.8-0.7-3.4c0.6-0.9,0.6-1.2-0.1-3.7l-0.1-0.3
	c0-0.1,0-0.1,0-0.1c-0.4,0.2-1.2,0.9-1.8,1.7c-0.3,1-1.8,5.9-2.3,7c-0.5,1.2-1.9,2.4-3.8,3c0.6,0.7,1.3,1.6,1.5,2.6
	c0.3,1.3,0.2,2.4,0.1,3.2c0,0.3-0.1,0.7-0.1,0.8c0.2,0.6,0.2,1.2,0.2,2.1C177.8,195.5,177.7,196.1,177.8,196.7z M237.1,231.3
	l-0.3-0.1c-1.1-0.3-4.6-1.5-5.6-2.5c-0.5-0.5-1.2-0.8-1.9-1c-0.3-0.1-0.6-0.2-0.9-0.3c-0.8-0.4-1.7-1.8-2.2-2.7l-0.9-0.9
	c-1,0.3-3.2,0.9-5.8,1.2c-3,0.4-4.7-1.3-5.5-2.1c-0.1-0.1-0.1-0.1-0.2-0.2c-0.4-0.1-1.2-0.7-3.2-3.3c-0.9-0.2-3.5-1-4.7-1.6
	c-0.6-0.3-1.4-0.2-2.1,0c-0.2,0-0.3,0.1-0.5,0.1l2.1,1.3l0.1,0.5c0.2,1.5,0,1.8-0.1,2c-0.2,0.3-0.3,0.5-3.6,1.8v2.4l1.8,0.6v3.4
	l2.8,4.1l-0.6,0.6c-0.5,0.5-3,2.9-4.5,3.4c-1.1,0.4-1.9,0.3-2.8,0.2c-0.5-0.1-1-0.1-1.6-0.1c-0.9,0-1.6,1.1-1.8,1.5v1.5l1.3,0.7
	l0.1,0.2c1.2,1.8,1.4,2.7,1.3,3.2c0.2,0.2,0.7,0.6,1.2,0.9c0.6-2.5,2.4-4.1,4.7-4.1c0.8,0,1.4,0.1,1.9,0.2c0-0.3-0.1-0.8-0.2-1.3
	c-0.2-1,0.2-1.6,0.5-1.9c1-0.9,2.9-0.7,7.2,0.7c3.1,1,6.1,1.5,6.6,1.5h4.6v1.4l0.6-0.7h3.6l0.2,4.3h0.8c0.1,0,0.2,0,0.3,0l3.8-4
	l0.2-0.1c0.2-0.1,3.9-1.6,5.6-2.1c0.5-0.1,1.2-0.4,2-0.6c0-0.4,0-1,0-1.3c-0.1-0.4-1.2-1.7-1.9-2.5l-0.3-0.3
	c-0.5-0.5-0.6-1.1-0.5-1.6c0.2-0.8,1.1-1.1,1.9-1.4c0.2-0.1,0.4-0.1,0.6-0.2c-0.4-0.2-0.8-0.4-1.1-0.5c-0.5-0.2-0.8-0.4-1.1-0.5
	c-0.2-0.1-1.1,0-1.7,0.1L237.1,231.3z M166.4,252.2c0.9,0.9,1.6,1.4,2,1.6l4-2.2l-0.5,2.2c-0.3,1.3-0.5,2.8-0.3,3.3l1.3-1h4.3
	l0.4-0.7c-0.7-0.8-1.9-2.2-1.9-3.4c0-1.3,0.9-2.3,1.4-2.6l0.4-0.2l0.3,0.1c-0.7-0.6-1.2-1.3-1.2-2.3c0-0.2-0.3-0.3-0.9-0.6
	c-0.7-0.3-2.4-1.1-1.7-2.9c0.4-1.2,1-1.6,1.4-2c0.3-0.2,0.3-0.3,0.4-0.6c0.1-0.3,0-0.7,0-1.1c-0.1-0.7-0.2-1.5,0.3-2.1
	c0.3-0.4,0.8-0.6,1.4-0.6c1,0,1.7,0.7,2.2,1.3c1-1.2,2.8-1.3,3.8-1.2l0.2,0l0.2,0.1c0.4,0.2,1.4,0.9,2,1.2c0.2-0.1,0.7-0.4,1.1-0.8
	V234l0.9-0.1c0.9-0.1,1.9-0.4,2.3-0.6c0.1-1.1,1.2-2.3,2.3-3.2l0.9-1.7v-3.3h-2.4l-0.2-0.1c-4.8-1.7-5.8-2.6-6-3.2
	c-0.5-0.2-1.8-0.4-2.6-0.5c-1.3-0.2-2.6-0.4-3.3-0.7c-0.6-0.3-1.8-0.1-2.8,0c-0.9,0.1-1.6,0.2-2.2,0.1c-0.2,0-0.7,0.2-1.1,0.3
	c-1,0.3-2.1,0.7-3,0.1c-0.3-0.2-0.8-0.6-1-1.4c-0.3-1.2-0.1-2.1,0.1-2.8c0.1-0.6,0.2-0.9,0-1.3c-0.5-1.1-1.5-1.7-2.3-2.1
	c-0.7-0.4-3.1-1.2-3.9-1.6l-0.7-0.2l0-0.7c0-1-0.1-2.1-0.3-2.4c-0.5-0.1-0.9-0.4-1.3-0.7c0,0-0.1-0.1-0.1-0.1c0,0.1-0.1,0.1-0.1,0.3
	c-0.6,1.3-1.4,2.4-1.9,3c0.3,0.4,0.5,0.9,0.4,1.5c-0.1,0.5-0.3,1.1-1.3,1.5c-1.5,0.7-2.7,1.3-2.7,1.3l-0.3,0.2l-1.5-0.1v1.2
	l-2.9,1.3l-2.7,3.3l-2.9-2.2l-1.9-1.6c-0.5,0.7-1.4,1.5-2.4,1.8c-1.7,0.6-3.3-1.3-5.1-5.9c-0.6-1.7-1.2-3.1-1.4-3.8
	c-1.4-0.4-3.4-0.9-4.3-1c-0.3,0.5-0.5,2.1-0.6,3.6l0,0.1l-1.1,3.4l0.7,1.6h1l1.9,1.6l1.5,4.7l3.2,4.1l-1.3,0.5
	c-0.5,0.2-1,0.5-1.2,0.7c0.1,0.7,1,3.9,1.8,6.5l0.1,0.2l0,0.2c-0.2,1.3-1.2,7.8-1.9,9.2c-0.1,0.2-0.3,0.4-0.4,0.6l1.5,2.2l1.6-1.9
	l0.7,0.6c1,0.8,2.2,1.6,2.6,2c0.5,0.1,0.7,0.6,1.1,1.7c0.2,0.5,0.4,1.1,0.4,1.1l0.1,0.2v1.5h2l0.2,0.1c0.5,0.3,3,1.7,3,3.6
	c0,0.7,1.4,3.4,2.2,4.9c0.5,0.9,0.9,1.8,1.2,2.3c0.4,0.9,1,1.9,1.4,2.6l2-1.4l1.6,0.2v-2.3l1.9-5.3l0.6-0.1c0.4,0,1.8-0.4,1.9-1.1
	c0.1-0.4,0.1-0.8,0.1-1.2c0.2-1.6,0.3-3.1,1.2-3.7c0.4-0.3,2.1-1.8,3.1-2.7l0.3-0.3h4.3l-1.3,1.6
	C166.3,250.2,165.5,251.3,166.4,252.2z M226.6,166.7c0.1-1.8-0.1-2.7-0.2-3.1l-2.9,0.9v3.4l-1.2-0.2c0,0-1-0.2-1.9,0
	c-1,0.2-3.3,0.1-4.6,0.1c-0.5,1.1-1.4,3.2-2.8,4.3c-0.5,0.5-1.1,0.8-1.7,1c0.5,1.6,1,4.6-0.6,5.9c-0.6,0.5-1.3,0.9-1.8,1.3
	c-0.4,0.3-1,0.6-1.3,0.9c0.1,0.1,0.2,0.2,0.3,0.2c0.8,0.7,2.1,1.8,1.7,3.3c-0.3,1.4-1,3.4-1,3.5l-0.1,0.2l-0.1,0.1
	c-0.4,0.5-1,1.6-1,2.1c0,0.6,0,2,0,3.4c0,1,0,2.2,0,2.4c0,0,0,0.1,0,0.2c0.2,0.9,0.7,3.2-0.2,4.7c-0.7,1.2-1.8,4.3-1.8,5.3
	c0.5,0,0.6-0.1,1.2-0.2c0.5-0.1,1.4-0.4,3-0.7c4.2-0.9,5.2-1.6,5.5-1.8c0-1.5,1.3-1.9,3.2-2.5l0.9-0.3c1.8-0.6,3.7-1.2,4.4-2.5
	c0.7-1.3,1.2-3.9,1.4-4.9c-0.6-0.9-1.5-2.6-1-3.9c0.2-0.6,0.4-1.4,0.6-2.3c0.1-0.6,0.3-1.3,0.5-2c0.2-0.5,0.4-1,0.6-1.3
	c0.4-0.7,0.5-0.9-0.4-1.9c-2.1-2.3-2.1-5.5-2.1-5.7v-0.5l0.4-0.3c1.1-0.7,2.4-1.7,2.6-1.9c0.1-0.1,0.2-0.2,0.3-0.3
	c0.5-0.4,1.1-0.9,1.2-2.1c0.1-0.4-0.2-0.9-0.6-1.4c-0.1,0-0.1,0-0.2,0c-1.1,0.1-1.4-1.2-1.5-1.7l-0.5-2.3l1.4,0.9
	C226.6,166.9,226.6,166.8,226.6,166.7z M250.2,253.8c1-0.2,1.9-0.3,2.8-0.3c0.7-0.1,1.8-0.1,2-0.3c0.1-0.1,0.4-0.5,0.6-0.8
	c0.6-0.8,1.2-1.7,2.1-2.2v-2.7l-3.7-3.2l0.4-0.7c0.1-0.2,0.3-0.6,0.3-0.8c-0.3-0.2-0.5-0.3-0.7-0.4c-0.4-0.3-0.6-0.4-1.4-0.5
	c-0.9-0.1-1.7-0.6-2.4-1.1c-0.3-0.2-0.7-0.4-0.9-0.5l-1.1,1.2l-1.8-1.2l-1.1,0.1c-0.6,0.2-3.5,1.2-5,1.7c-1.3,0.4-4.4,1.6-5.2,1.9
	l-3.2,3.3c0.5,0.7,0.8,1.5,0.8,2l0,0.3l-2.1,4.8c-0.7,1.1-1.5,2.5-1.7,3c0.3,0.5,1.4,1.6,2.6,2.5l0.3,0.2l0.5,3.9l0.5,1.2l0,4
	l-0.7,4.5c1.5-0.1,2.5-0.3,2.5-0.3l1.2-0.3l0,5.2l-0.5,0.3c-0.3,0.2-0.6,0.3-0.8,0.5c1.3,0.1,2.6,0,3.6-0.5c0.3-0.2,0.6-0.3,0.8-0.5
	c0.8-0.5,1.7-1,2.9-0.2v-3.6l2.2-3.1l1.4-4.2l1.1-1.6l0-1.4c0.1-0.4,0.4-2.1,1.7-2.8c0.4-0.2,1.2-1.7,1.4-2.5c0,0,0,0,0,0
	c-0.5-0.9-1.5-2.6-0.8-4C248.7,254.5,249.2,253.9,250.2,253.8z M241.2,227.7c-0.8,0.1-1.4-0.3-2-0.6c0,0-0.1,0-0.1-0.1
	c-0.1,0.8-0.3,1.5-0.5,2.1c0.6,0,1.2,0.1,1.6,0.4c0.1,0.1,0.5,0.2,0.8,0.4c1.3,0.5,2.6,1.1,2.8,2.2c0,0.3,0,0.8-0.5,1.3
	c-0.5,0.5-1.2,0.7-1.8,0.9c-0.1,0-0.2,0.1-0.3,0.1l0,0.1c1.4,1.7,2.3,2.7,2.4,3.6c0,0.2,0,0.5,0,0.8c0.6-0.2,1-0.4,1-0.4l0.1,0
	l2.1-0.2l1,0.7l0.1-0.1c0.9-1,2.3-0.2,3.2,0.3c0.6,0.3,1.2,0.7,1.7,0.8c1.3,0.2,1.8,0.6,2.3,0.9c0.2,0.1,0.3,0.2,0.6,0.4
	c0.1,0,0.1,0.1,0.2,0.1l2-1.5l1.3-2l-0.2-1c-0.1-0.7,0.1-1.2,0.4-1.4c0.7-0.7,1.8-0.7,2.9-0.7l0.1-0.4c0-0.1,0.7-2,1.3-3.7
	c-0.6,0.1-1.1,0.1-1.6,0.1c-0.7,0-1.2-0.1-1.6-0.3c-0.1-0.1-0.4-0.1-0.6-0.2c-0.7-0.2-1.8-0.4-2.3-1.6c-0.1-0.3-0.2-0.6-0.2-0.8
	c-1.1-0.2-2-0.7-2.8-3.2c-0.3-0.8-0.4-1.5-0.1-2.1c0.3-0.5,0.8-0.7,1.1-0.8c0.3-0.1,0.7-0.2,1.2-0.7c0.2-0.2,0.3-0.3,0.4-0.4
	c-0.2-0.3-0.2-0.6,0-0.9c-0.5,0-1-0.1-1.2,0c-0.2,0.1-0.5,0.1-0.8,0c-1-0.4-3.3-4-3.5-5c-0.2-0.9-0.2-2.1-0.1-2.8l-2.5-1.3
	c-0.8-0.3-4-1.4-4.7-1.9c-0.2-0.1-0.3-0.3-0.5-0.5c0.3,1.7,0.6,3.1-0.6,4.1l-1.4,1.2l-2.5-1.8c-0.2,0.2-0.4,0.5-0.5,0.6
	c0,0.1,0.1,0.4,0.2,0.5c0.3,0.9,0.7,2,0.2,2.8c-0.2,0.3-0.5,0.7-1.2,0.8c-0.7,0.1-1,1.2-1,1.2l-0.2,0.7l-0.8,0
	c-0.5,0-1.1,0.1-1.5,0.1c1,1,3,1.9,3.9,2.2c1.7,0.2,3.7,0.6,3.7,2.1c0,0.2,0.1,0.6,0.2,1c0.3,1.3,0.6,2.7,0,3.5
	C242,227.4,241.6,227.6,241.2,227.7z M136.8,153.2l1.2,3l2.1,2.7c0.1,0,0.2,0.1,0.2,0.1c1-1,5-2.2,6.6-1.6c0.2,0.1,0.4,0.1,0.6,0.1
	c1.3,0.1,1.8,0.8,1.8,2.5c0,1.6-1.2,3.3-2.1,4.5c-0.2,0.3-0.4,0.6-0.6,0.9c0.4,0.4,1.3,1.2,2.2,2l2.3,1.3l1.3,4l2.4,0.9
	c0.5-0.9,1.6-2.2,3.4-2.7c1.8-0.5,2.9-0.1,3.7,0.2c0.3,0.1,0.5,0.2,0.7,0.2c0.2,0,1-0.4,1.5-0.7c1.8-0.9,3.8-1.9,4.9-0.6
	c0.8,1,2.6,3.3,0.9,5.4c-0.9,1.1-2.6,2.7-3.3,3.3v2.6c0.2,0.9,0.4,1.8,0.6,2.3c0.5,0,1.2,0.2,2.2,0.4c1.3,0.3,3,0.7,4.3,0.7
	c2.1,0,3.8-1.4,4.1-2.1c0.3-0.9,1.6-5,2.3-7l0-0.2l0.1-0.1c0.7-0.9,2.3-3,3.9-2.7c0.5,0.1,1.2,0.5,1.5,1.7l0.1,0.3
	c0.6,2.5,0.9,3.5-0.2,5.2c0,0.3,0.4,1.2,1.5,2.2c1.2,1.2,2.1,1.6,2.4,1.6c0.9-0.3,2,0,3.2,0.3c0.6,0.1,1.4,0.4,1.8,0.4
	c0.3-2,1.7-3.9,1.8-4l4-5.2l5.6-3.4h2.8c0,0,1.7,0,3-1.1c1.1-1,2.2-3.3,2.5-4.2l0.2-0.7l0.7,0c1.5,0.1,4,0.2,4.8,0
	c0.5-0.1,1.1-0.1,1.5-0.1v-2.5l2.8-0.9l-1-5l0.2-0.3c3.4-6,4.5-6,4.9-6.1c0.4,0,0.8,0.1,1,0.5c0.5,0.6,1,1.6,1.3,2.3l4.1-1.5
	c0.9-0.4,2.7-1.2,4-0.9c0.3-0.6,0.6-1.7,0.9-2.8l0.1-0.6l6.1-1.5l2,3.8l1.2,3.2l-0.7,0.5l1.2,0.8c0.8,0.6,2.2,1.2,2.5,0.9
	c0.1-0.4-0.3-1.8-0.5-2.6c-0.5-1.7-1-3.4-0.3-4.4c0.2-0.3,0.7-0.7,1.6-0.7c2.3,0,3.9,1.9,4.7,3.2c2.6-1.9,9.9-7.2,14.8-8.8l1.7-2.6
	l-1.8-2l0-0.4c0.2-1.9,0-3.9-0.3-4.4h-3.3l-3.3-1.9l-1.1-3.9v-1.2l-2.8-2.1l0.4-3.7h5.6l0.1-0.4l0.7-4.4l0.2-0.2
	c0.3-0.2,0.5-0.5,0.7-0.7c-1.8-0.1-2.9-1.3-3.2-2l-0.1-0.2l-2.3-7.6l1.5,0.2c1,0.1,4.1,0.3,4.9-1.1c1.1-1.8,2.5-2.8,3.2-3.1l1-4.1
	c-0.4-1.7-1.7-7.8,0.3-9.8c1-1,2.1-4.3,1.3-5.8c-0.4-0.7-1.3-0.9-2.7-0.6c-6.2,1.4-9.5,1.2-9.6,1.2l-0.5,0l-3.9-5.8
	c-1,0.4-2.5,0.9-3.5,0.4c-0.6-0.3-0.9-0.8-1-1.6c-0.1-0.8,0.1-1.9,0.2-3.1c0.1-1,0.4-2.8,0.3-3.6l-0.5-0.8c-2.5,1-4.1,2.5-5.2,3.6
	c-1.5,1.5-0.3,1.9,0.7,2.7c1,0.9,2.9,3.4,2.1,4.5c-0.9,1-2.2,2.2-2.6,3.4c-0.3,1.2-1,2.7-1.2,3.3c-0.2,0.5-1.9,2.4-1.9,2.9
	c0,0.5-0.5,3.4-0.5,3.4s1.7,1,0.5,1.5c-1.2,0.5-3.1,0.9-3.6,1.7c-0.5,0.9-4.3,3.4-4.3,3.4s-0.7-0.7-2.7-1c-2.1-0.3-1.2,0.3-2.2,1.9
	c-1,1.5-2.2,5-2.4,5.8c-0.2,0.9-2.2,2.7-1.9,3.8c0.3,1,2.6,3.4,3.4,3.3c0.9-0.2,2.1-0.3,3.4-0.5c1.4-0.2,2.7,1.7,3.3,0.5
	c0.5-1.2,0-1.2,2.7-1.2c2.7,0,4.8-0.5,6.3,2.1c1.5,2.6,5,4.1,3.3,5c-1.7,0.9-1,1.5-2.9,0.9c-1.9-0.7-3.6-1-3.6-1l-2.9,1
	c0,0-2.4,0.2-2.6,0.7c-0.2,0.5-1.9,1.5-1.9,1.5l-1.9,0.7c0,0-2.4,3.4-2.4,3.9c0,0.5-0.5,2.1-0.5,2.1l-1.9,0.3l-2.6,1.7l-3.1,0.5
	l-4.3,3.6h-5.5c0,0-2.7-1.5-3.8-0.9c-1,0.7-2.4,3.6-2.4,4.3c0,0.7,1.4,2.2,1.7,2.7c0.3,0.5,0.7,2.7,0.7,2.7s-1,1.7-1.5,1.7
	c-0.5,0-2.6,0.9-2.6,0.9s-2,1.2-2.5,2.2c-0.4,1-0.8,2.1-2.5,2.6c-1.7,0.5-0.3-0.7-1.7,0.5c-1.4,1.2-5,1.2-7.2,1.4
	c-2.2,0.2-9.1,0.9-11.3,1.5c-2.2,0.7-4.3,3.6-7.4,3.3c-3.1-0.3-0.9-1.2-3.3-1.4c-2.4-0.2-2.9,0.7-4.6-0.2c-1.7-0.9-2.1-1.4-3.1-2.2
	c-1-0.9-1-1.7-3.4-1.7c-2.4,0-3.9-2.1-3.9-2.1s-1.2-2.2-6.2-2.2c-5,0-5.7,0.3-7.9-0.5c-2.2-0.9-4.6-1.7-6.7-1.9c0,0-0.1,0-0.1,0v5.3
	l1.7,2.4L136.8,153.2z M256.6,204.7l-2.3,3.4l-0.8-0.6c-0.1-0.1-1-0.7-1.6-1.7c-0.4,0.1-1.4,0.6-2.1,1.5c-0.4,0.5-0.9,0.7-1.4,0.7
	c0.5,0.2,1,0.4,1.5,0.5l0.1,0l3.8,1.9l-0.1,0.7c-0.1,0.5-0.2,2.1,0,2.9c0.2,0.7,1.6,2.8,2.2,3.5c0.3,0,0.8,0,1.5,0
	c1.4-2.2,2.3-2,2.6-2c0.3,0.1,0.9,0.3,1.1,1.4c0.1,1.1,0.4,3.1-1.7,3.7c-0.1,0.5-0.4,1.1-1,1.7c-0.7,0.7-1.4,0.9-1.8,1.1
	c0,0.1,0.1,0.2,0.1,0.4c0.6,1.7,0.9,1.8,1.5,1.9c0.7,0.1,1.2,0.4,1.3,1.3c0,0.2,0.1,0.3,0.2,0.6c0.1,0.2,0.3,0.3,1,0.5
	c0.4,0.1,0.8,0.2,1.1,0.4c0.4,0.1,1.7,0,3-0.2c0.4-0.7,0.9-0.9,1.3-0.9c0.9,0,1.5,0.7,1.7,1.2c1,0.9,2.2,1.9,2.7,2.1
	c0.3-0.1,0.9-0.4,1.5-0.8l2-3.6l0.9,0.5c-0.9-0.6-2.1-1.6-2.6-2.2c-0.7-0.9,0.3-1.9,1.5-1.4c1.2,0.5,2.4,1,2.4,1s1.5,0.2,0.2-1.2
	c-1.4-1.4-2.4-1.9-2.7-2.4s-0.2-2.9-1.4-2.9c-1.2,0-2.4,0-2.4,0s0.2-1.9,0-2.4c-0.2-0.5-2.2-1.7-2.2-1.7s-0.9-1.4-0.9-2.6
	c0-1.2-2.4-3.9-4.6-5.8c-2.2-1.9-4.1-2.6-4.1-2.6l0.6,0.8L256.6,204.7z M246.4,206.1c-0.4-0.1-0.8-0.3-1.2-0.5
	c-0.3-0.1-0.5-0.2-0.8-0.4c0.4,0.8,0.8,1.5,1,1.6c0.2,0.1,1.1,0.5,2.2,0.9c-0.4-0.3-0.6-0.7-0.8-1.1
	C246.7,206.5,246.5,206.2,246.4,206.1z M238.3,198.5c-0.2,0.1-0.3,0.2-0.5,0.2c-0.3,0.1-0.4,0.2-2.2,1.9c-0.6,0.6-1.2,1-1.7,1.3
	c0.2,0.1,0.4,0.1,0.6,0.2c0.8,0.2,1.6,0.4,2.3,1.7c0.5,0.9,1.7,1.5,2.6,1.8c0.5-1.1,1.4-2.7,3.1-2.7c1.3,0,2.6,0.6,3.5,1
	c0.4,0.2,0.7,0.3,1,0.4c0.8,0.2,1.2,0.9,1.5,1.5c0,0,0,0.1,0.1,0.1c0.9-0.9,2.5-2.1,3.7-1.9c0.6,0.1,1,0.4,1.3,0.8
	c0.1,0.2,0.2,0.4,0.4,0.5l1.3-1.9l2.1-1.5l0.6,0.8c0,0-1.4-1.9,0.3-2.6c1.7-0.7,2.6-3.1,3.3-3.6c0.7-0.5,2.1-2.7,3.1-3.1
	c1-0.3,0.2-0.5,1.5-1.9c1.4-1.4,1.9-2.9,3.1-2.9c1.2,0,2.1-1.7,2.9-1.7c0.9,0,1.9,1.2,2.7-0.9c0.9-2.1,1-3.6,1-3.6h-2.9
	c0,0-1.5-0.2-2.2,0c-0.7,0.2-3.6-0.1-3.6-0.1s-1.9-2.7-3.3-2.2c-1.4,0.5-2.7,1.9-3.3,2.9s-0.7,3.1-3.1,2.7c-2.4-0.3-3.6-0.7-3.3-1.7
	c0.3-1,0.9-1.4,0.9-1.9c0-0.5-0.9-0.3-0.9-1c0-0.7,1.5-0.6-0.3-1.1c-1.9-0.4-2.2-0.9-3.1,0c-0.6,0.7-1.6,0.8-2.1,0.6l0.3,0.3
	l-1.2,1.2l-0.2,0.1c0,0-1.5,0.6-2.3,1.3c-0.9,0.6-4.6,2.3-6,2.9l-2.9,7.4l-0.2,0.1c1.4,0.7,2.5,1.7,2.6,1.8c0.3,0.3,0.6,0.8,0.6,1.4
	C239.3,197.6,239.1,198.1,238.3,198.5z M199.4,227.1l-4.2-1.6v3.4l-1.4,2.4l-0.2,0.1c-0.8,0.6-1.6,1.5-1.7,1.9c0,0.3,0,0.7-0.2,1
	c-0.5,0.7-1.8,1.1-2.9,1.3v2.8l-0.3,0.3c-0.9,1-2.3,2-3.4,1.5c-0.6-0.3-1.7-0.9-2.2-1.2c-0.7,0-1.7,0.1-2,0.7c-0.3,0.6-0.7,1-1.2,1
	c-0.8,0.1-1.2-0.5-1.6-1c-0.2-0.3-0.5-0.6-0.7-0.7c0,0.1,0,0.3,0,0.4c0.1,0.5,0.1,1.1,0,1.7c-0.2,1-0.7,1.4-1,1.8
	c-0.3,0.2-0.5,0.5-0.8,1.2c0,0,0,0,0,0c0.1,0.1,0.5,0.3,0.7,0.4c0.8,0.3,2.1,0.9,2.1,2.4c0,1,1.8,1.5,1.8,1.5l-0.4,1.7l1.3,0.5
	l1.3,0.1v-1.1l2.8-1.2l0.1,0c0,0,0.7-0.1,1.3-1.2c0.5-0.9,1.2-1.2,1.7-1.2c0.8-0.1,1.5,0.4,1.9,0.7h2.8c0.6,0,1.1,0.3,1.4,0.7
	c0.5,0.8,0.2,2.2-0.2,3.1l3,2.1h1.8c0-0.4,0-0.7-0.1-1.1c-0.1-1.5-0.2-3-0.1-4.4c0-0.2,0-0.4,0.1-0.5l-0.8,1.2
	c-2.4-1.5-2.4-2.5-2.3-2.9c-0.1-0.3-0.5-1-0.9-1.7l-1.9-1.1V239l0.1-0.2c0-0.1,1.2-2.9,3.7-2.9c0.7,0,1.3,0.1,1.8,0.1
	c0.8,0.1,1.3,0.1,2-0.1c0.7-0.2,2.1-1.4,3.1-2.4l-2.2-3.2v-2.5L199.4,227.1z M268.6,258c-0.2-0.1-1.8-0.9-2.2-2.5
	c-0.1,0.1-0.3,0.1-0.4,0.2l-1.9,2.9l-0.8-0.7c-0.1-0.1-2.1-1.7-2.9-4.7c-0.4-1.4-0.5-1.4-1.1-1.3c-0.2,0-0.4,0-0.7,0
	c-0.3,0.1-1.1,1.2-1.5,1.6c-0.3,0.4-0.6,0.8-0.8,1c-0.7,0.7-1.7,0.8-3.2,0.9c-0.8,0.1-1.6,0.1-2.6,0.3c-0.2,0-0.3,0.1-0.3,0.1
	c0,0.1-0.2,0.4,0.8,2.2c0.2,0.4,0.3,0.6,0.3,0.9c0,0.5-1.3,3.6-2.6,4.3c-0.3,0.1-0.5,0.8-0.6,1.3v1.8L247,268l-1.4,4.3l-2,2.8v2.7
	l3-0.8c0.2-0.7,0.5-1.4,1.2-1.5c1.2-0.2,1.8,1.2,2.1,1.9c1.2,2.6,3,7.4,3.5,8.8c0.3-0.3,0.6-0.8,0.8-1.3c1.4-2.7,2.3-3.9,2.3-3.9
	s-1.8-3.2,0-3.2c1.8,0,3.2,1.6,3.9,0c0.7-1.6,0.7-2.3,1.8-3.9c1.1-1.6,1.6-2.5,2.5-2.5c0.9,0,5-0.9,3.4-2.3
	c-1.6-1.4-1.6-4.3,0.4-5.7c1.9-1.4,1.5-2.3,1.9-4.1c0.1-0.6,0.4-1,0.7-1.4l-2.3,0.2L268.6,258z M309.1,129.7l-1.6,1.2l-1.7-1.4
	c-0.2,0.2-0.6,0.7-0.7,1.5c-0.5,2.4-3.1,3.1-4.4,3.1h-0.8l-1-4c-0.4,0.3-1.1,0.6-2.1,0.4c-3-0.6-3.6-2.4-3.7-2.6l-0.1-0.2v-0.8h-1.8
	l-0.2-0.7c0,0-0.4-1-1.2-1.5c0,0,0,0,0,0c-0.1,0-0.3,0.2-0.4,0.2c-0.5,0.4-1.4,1-2.7,0.8c-1.7-0.2-3.5-1.8-4.3-2.6l-5.4,1.1l-3.3-3
	l-1.2-3h-2.7l-0.2,1.5l-0.4,2h-5.4l-0.1,0.8l2.7,2v2l0.8,2.9l2.2,1.3h2.9c0.5,0,0.9,0.2,1.2,0.6c1.1,1.1,1,4.2,0.9,5.6l0.4,0.4
	l2.6-1.2l0.5,0.3c1.7,1,3.7,2.4,4.1,3.5c0.1,0.2,0.7,0.7,1.1,1c1.2,1,2.6,2.2,2.6,3.6c0,0.9-0.4,1.5-0.7,1.9
	c-0.1,0.2-0.3,0.4-0.3,0.5c0,0,0.1,0.2,0.6,0.7c2.1,1.7,3.5,2.1,3.5,2.1l0.7,0.2l0,0.7v3.7h-2v-3c-0.7-0.3-2-1-3.5-2.2
	c-1.9-1.5-1.5-2.7-0.8-3.8c0.2-0.4,0.4-0.6,0.4-0.8c0-0.5-1.3-1.6-1.9-2.1c-0.9-0.7-1.5-1.3-1.7-1.9c-0.2-0.4-1.4-1.3-2.7-2.1
	l-1.1,0.5l0.5,0.6l-2.9,4.5l-0.3,0.1c-5.5,1.6-15.3,9.2-15.4,9.3l-1,0.8l-0.5-1.2c-0.4-0.9-1.7-3.1-3.4-3.1c0,0,0,0,0,0
	c-0.1,0.5,0.3,1.8,0.6,2.6c0.5,1.7,1,3.4,0.2,4.4c-1.7,2-4.9-0.3-5.2-0.5l-3.3-2.3l1.6-1.3l-0.6-1.8l-1.2-2.2l-3.5,0.8
	c-0.8,3.4-1.7,3.7-2,3.8c-0.4,0.2-0.9,0.1-1.2-0.2c-0.3-0.1-1.6,0.3-2.6,0.8l-0.1,0l-5.9,2.1l-0.4-0.8c-0.2-0.4-0.6-1.4-1.1-2.1
	c-0.7,0.8-1.9,2.7-2.9,4.4l0.8,4l0.2-0.1h0.2c0.2,0,0.6,0,1,0.5c0.7,0.8,1,2.4,0.9,4.9c0,0.6-0.1,1.1-0.1,1.5c0.8,0.8,1.7,2,1.5,3.4
	c-0.2,1.9-1.3,2.8-1.9,3.3c-0.1,0.1-0.2,0.1-0.2,0.2c-0.4,0.4-1.7,1.3-2.4,1.9c0.1,0.8,0.4,2.6,1.5,3.9c1.7,1.9,1.3,3,0.6,4.1
	c-0.2,0.3-0.3,0.6-0.4,0.9c-0.2,0.6-0.3,1.3-0.5,1.9c-0.2,0.9-0.4,1.8-0.7,2.6c-0.1,0.3,0.4,1.5,1,2.4l0.3,0.3l-0.1,0.4
	c0,0.2-0.7,3.9-1.7,5.9c-1,2-3.4,2.8-5.5,3.5l-0.9,0.3c-0.7,0.2-1.6,0.5-1.8,0.7c0.1,1.5-1.9,2.6-7,3.7c-1.1,0.2-1.8,0.4-2.3,0.6
	l1.9,3.8l1.4,2.9l1.1,3.3c0.9,1.1,2,2.4,2.4,2.7c0.4,0.1,0.6,0.4,0.9,0.7c0.7,0.7,1.8,1.8,3.9,1.6c3.3-0.4,6-1.3,6-1.3l0.6-0.2
	l1.9,1.9l0.1,0.1c0.5,0.9,1.2,1.9,1.4,2c0.1,0.1,0.4,0.2,0.6,0.2c0.8,0.3,1.8,0.7,2.6,1.4c0.4,0.4,2.2,1.1,3.9,1.7
	c0.2-0.6,0.5-1.5,0.6-2.5c0-0.3,0.2-1.2,0.9-1.5c0.8-0.4,1.5,0,2,0.4c0.1,0.1,0.2,0.1,0.4,0.2c0-0.5-0.2-1.2-0.3-1.6
	c-0.1-0.5-0.2-0.8-0.2-1.2c-0.3-0.2-1.2-0.4-2-0.4l-0.1,0l-0.1,0c-0.4-0.1-3.6-1.3-5.1-3c-0.7-0.8-0.6-1.5-0.4-1.9
	c0.4-1,1.9-1.2,3-1.3c0.4-0.7,1.1-1.6,2.1-1.8c0-0.3-0.2-0.8-0.3-1.1c-0.2-0.5-0.3-0.9-0.3-1.2c0-1,1.1-2,1.7-2.6l0.6-0.5l2.5,1.8
	l0.3-0.2c0.3-0.2,0.2-0.8,0-2.2l-0.1-0.5c0-0.1,0-0.1,0-0.2c-0.2,0.1-0.5,0.2-0.9,0l-0.1,0.2l-0.9-0.2c-0.1,0-3.4-0.7-4.7-2.9
	c-0.4-0.7-0.6-0.7-1.1-0.8c-0.5-0.1-1.3-0.3-2.2-1c-0.7-0.6-1.1-1-1-1.6c0.2-0.7,0.8-0.8,1.1-0.9c0.4-0.1,1.2-0.3,2.2-1.2
	c1.8-1.8,2.1-2,2.7-2.3c-0.4-0.3-1.1-0.8-1.8-1.2c-0.9-0.5-1.1-1.1-1.1-1.5c0-0.7,0.4-1.3,0.8-1.6l3-7.7l0.4-0.2
	c2-0.9,5.4-2.4,6-2.9c0.8-0.6,2.1-1.2,2.5-1.4l0.9-0.9l0.7,0.7c-0.2-0.7-0.7-1.2-1-2.2c-0.3-1,0.7,0.7-0.3-1
	c-0.1-0.2-0.3-0.5-0.4-0.8l0,1c-0.1,0-0.2,0-0.3,0c-0.9,0-3.6-0.1-4.9-1.3c-0.7-0.6-1-0.9-0.9-1.5c0.1-0.4,0.3-0.7,0.8-0.8
	c0.1,0,0.2-0.1,0.4-0.5c0.1-0.4,0.1-0.7,0.1-1c-0.1,0.1-0.3,0.1-0.4,0.1c-0.6,0.2-1.2,0.3-1.7,0.3c-1.2,0-2.3-0.3-3.3-0.7
	c-0.5-0.2-1.1-0.3-1.6-0.4c-1.6-0.4-2.3-1.1-2.1-2.4c0,0,0,0,0,0c-0.2-0.3-0.2-0.7-0.1-1.1c0.3-0.9,1.8-1.6,2.9-1.9l-0.3-0.3v-3.7
	l0.3-0.3c0.1-0.1,2.1-1.9,3-2.6c1.1-0.9,3.6-0.4,4.6-0.2l0.3,0.1l0.2,0.2c0,0,0.6,0.7,1.4,0.7c0.8,0,1.4,0.2,1.7,0.7
	c0.3,0.5,0.3,1,0.1,1.3l-0.1,0.2c-0.3,0.5-0.6,1.1-0.7,1.5c0.3-0.1,0.6,0,0.8,0.1c0.9,0.4,1.3,1.8,1.4,2.9l0.7,1.5h1.4v3.4h-2V170
	h-0.7l-1.4-2.9l0-0.2c-0.1-0.4-0.2-0.9-0.3-1.3c-0.1,0-0.1,0-0.2,0.1l-0.7,4.1l-0.2,0.2c0,0-0.5,0.5-1.3,1.1c0.1,0.5,0.3,1.4,0,2.5
	c-0.1,0.5-0.3,0.8-0.5,1.1c0.8,0.5,2.3,0.6,3.3,0.6c-0.7-2.1-0.8-4.8,1.8-3.5c3.4,1.7,2.9-0.5,6-0.3c3.1,0.2,1.9-1.5,1.9-2.1
	c0-0.5,0.2-2.2,0.7-2.6c0.5-0.3,2.9-2.6,3.4-2.9c0.5-0.3,1.7-1.4,2.2-2.4c0.5-1,0.5-4.3,1.7-4.3c1.2,0,3.8-1.5,4.5,0
	c0.7,1.5,2.6,2.4,1.5,3.9c-1,1.5-2.9,4.6-3.6,5.8c-0.7,1.2,0.9,1.7,1,2.4c0.2,0.7-1.4,0-1.5,1.7c-0.2,1.7,0.9,3.1,1.7,2.2
	c0.9-0.9,7-8.4,9.2-8.9c2.2-0.5,4.6-0.5,7.4-4.3c2.7-3.8,7-6.3,7.4-7.2c0.3-0.9,1.5-6.3,3.1-5.1c1.5,1.2,4.8,1.4,5.7,1.2
	c0.9-0.2,3.1-1,1.7-2.9c-1.4-1.9-0.5-2.4,0.4-2.7c0.9-0.3,2.8-1.4,3.8-1.9c1-0.5,1.9-0.3,1.9-1.7c0-1.4,0.7-5.1,1.7-3.3
	c1,1.9,3.1,3.4,3.1,1.4c0-2.1,0-2.7,0-2.7h1.5v-3.2h-2.6L309.1,129.7z M14.3,169l0.9,1.2l0.9,2.6l-0.2,4.1l1.7,1.4v-1h7.4l4.9-3.6
	l5.4,1.8c0.7-0.2,2.2-0.8,3.9-1.1c3.3-0.6,5.4,0,6.2,1.7c1.1,2.3,4.7,3.8,5.4,4.1h8.6c1.5-0.5,4-1.4,4.7-1.4c0.7,0,8.6,0.2,8.9,0.2
	l0.1,0l7.1,1.2l4,3.4h6.7v-1.9l2.3-2.4c0.1-1.1,0.1-3.4,0-4.3c-0.1-0.7-1.5-2.2-2.4-3.1l-0.3-0.3v-2.9c0-1.4,2.2-2.8,3.8-2.8H105
	l3.2-7.7l0.1-0.1c0.7-0.9,1.9-2.3,2.7-2.6c0.3-0.1,1.5-0.9,2.4-1.6l5.4-5.1l0.5,0.1c0,0,3.4,0.8,6.1,0c1.6-0.5,2-1,2-1.1l0-3.1
	l0.4-1.6l1.9,0.5l-0.4,1.4l0,2.8c0.1,0.6-0.2,2.1-3.4,3.1c-2.5,0.8-5.4,0.4-6.6,0.1l-4.7,4.5c-0.5,0.4-2.2,1.7-3,2
	c-0.2,0.1-1,1-1.7,1.9l-3.1,7.3l2.7,1.7h2.8v1.3l2.1-0.2l2.3,1.9v0.9l0.9-0.1l2.4,0.8l2.9,1.8l2.2,0.2l1.6-1.8l1.2-2.6v-2.1h4.2
	l2.4,2.2l5.2-0.9l5,7.3l2.1-2.5l0.7,1c0,0,2.3,3,3.2,4.1c0.4,0.6,2.7,1.6,4.7,2.4h2.7l0.4,1.8c0.2,0.6,1.6,3.8,2.8,5.2
	c1.5,1.8,2.4,5.9,2.5,6.3l0.2,0.9l-2.7,1v2.3l-2.5,1.7l-1.4,2.7l-1,1.3c-0.1,0.1-0.4,0.8,0,1.6c0.4,0.8,0.2,1.7-0.5,2.3
	c-1,0.8-3.2,0.8-4.7-0.5c-0.6-0.5-1.4-0.4-2-0.2l0.9,2.1l2.7,2.2v1.2l1,0.1c0.5-0.2,1.4-0.8,2.6-1.3c0,0,0,0,0.1,0
	c-0.1-0.1-0.2-0.3-0.3-0.4l-0.8-0.7l0.7-0.7c0,0,1.3-1.3,2.1-3.1c0.2-0.5,0.7-1.3,1.4-1.5c0.8-0.2,1.4,0.2,1.8,0.6
	c0.2,0.2,0.4,0.3,0.6,0.4c1.5,0.3,1.8,2.3,1.8,3.7c1,0.4,2.8,1.1,3.5,1.4c1.1,0.5,2.4,1.3,3.2,3c0.5,1,0.3,1.9,0.2,2.6
	c-0.1,0.6-0.3,1.2-0.1,1.9c0,0.1,0.1,0.2,0.1,0.2c0.2,0.1,1-0.2,1.5-0.3c0.7-0.2,1.4-0.4,2.1-0.3c0.3,0.1,1,0,1.6-0.1
	c0.7-0.1,1.5-0.2,2.2-0.2c0-0.4,0.1-2.3,0-3.5c0-0.5,0.2-1,0.6-1.3c0.7-0.5,2-0.3,3.1,0c0.2-0.7,0.5-1.6,1-2.4
	c0-0.1,0.1-0.1,0.1-0.2c-0.2-0.2-0.5-0.4-0.5-0.9c0-0.2,0-0.3,0.1-0.5c0-0.1,0.1-0.3,0.1-0.5c-0.6-0.2-1.8-0.7-1.8-2.4
	c0-1.2,0.8-2.8,1.3-3.7c-0.8-0.8-1.7-1.4-2-1.5c-1.2-0.3-4.1-2.6-4.3-4.8c0-0.6,0-1.2,0-1.7c0-0.6,0-1.2-0.1-1.4
	c-0.2-0.5-0.1-1.1,0-1.7c0.1-0.7,0.2-1.6,0-2.4c-0.3-1-1.5-2.2-2.1-2.7c-1.4-0.1-3.1-0.4-4.4-0.8c-0.7-0.2-1.6-0.4-1.9-0.4
	c-0.3,0.1-0.6,0-0.9-0.1c-0.2-0.1-1-0.6-1.5-3.8l0-0.2v-3.6l0.3-0.3c0,0,2.4-2.1,3.4-3.4c0.5-0.6,0.3-1.4-0.9-2.8c0,0,0,0,0,0
	c-0.5,0-1.9,0.7-2.5,1c-1.1,0.6-1.8,0.9-2.4,0.9c-0.6,0-1-0.2-1.4-0.3c-0.7-0.3-1.3-0.5-2.4-0.1c-1.8,0.5-2.6,2.4-2.6,2.4L156,176
	l-5-1.9l-1.4-4.2l-1.8-1c-3.1-2.4-3.1-3.2-3.1-3.5c0-0.6,0.4-1.1,1-2c0.7-1,1.7-2.4,1.7-3.4c0-0.2,0-0.4,0-0.5c0,0,0,0,0,0
	c-0.3,0-0.7-0.1-1.2-0.3c-0.7-0.3-3.8,0.6-4.4,1.2c-0.9,0.9-2.1,0.7-2.9,0.1l-0.1-0.1l-2.4-3.2l-1.7-4.3l1.4-1.9l-1.3-1.7v-6h1
	c-2.5-0.1-6.8-0.1-6.8-0.1s-0.7-2.4-1.5-3.9c-0.9-1.5,2.9-4.5-1.5-6.7c-4.5-2.2-6.2-5.8-6.2-5.8s-7.2-3.1-7.9-3.4
	c-0.7-0.3-7.5-2.2-7.5-3.3c0-1-1.4-2.1,0-3.4c1.4-1.4,2.4-3.1,2.4-4.1c0-1,0.3-3.6-0.3-5.5c-0.7-1.9-1.5-4.5-1.5-4.5l-2.7-3.3
	l-2.9-1.4c0,0-3.9-3.4-3.9-6.2c0-2.7,1.2-3.1-1.2-3.1c-2.4,0-3.4-2.1-4.3-1.2c-0.9,0.9-0.2,2.2-1.4,3.1c-1.2,0.9-0.3,1.7-3.6,1.9
	c-3.3,0.2-3.4,1.4-3.4,1.9c0,0.5,0,5.1,0,5.1s0.7,2.1-1,2.1c-1.7,0-5.3-0.2-5.3-0.2l-2.7-1.4l-2.9-3.1l-4.3,3.6l-3.8,5.8
	c0,0-0.5,1.2,0,1.7c0.5,0.5,0.5,1.7,0.5,1.7l-1.7-0.5l-1.5-1.2c0,0-5.8-0.5-7.5-0.5c-1.7,0-1.7,0-1.7,0l-1.9,0.5
	c0,0,2.6,1.9,1.9,3.8c-0.7,1.9-0.3,3.8-0.3,4.6c0,0.9,0.3,5.1,0.3,5.1l-1.9,0.7l-1.9,1.7l-1.2,3.4c0,0,0.2,0.7-2.9,1.2
	c-3.1,0.5-6,0.7-6,0.7l-2.7,0.3l-2.7,0.5l-3.1,1.5c0,0-1.9-2.2-2.6-2.1c-0.7,0.2-3.4,2.6-3.4,2.6s-2.7,0.7-3.8-0.3
	c-1-1-2.9-2.6-2.9-2.6h-1.7l-2.1,1.5H6.4c0,0-1.9,2.9-2.4,2.9s-2.1,1.7-2.1,1.7v1.7v1.9v1.5l2.7,0.9c0,0,1.5,2.2,0.9,4.6
	c-0.7,2.4-1.2,5.3-1.2,5.3l-2.4-0.2H0.6l1.4,1.4l3.1,2.1l1.7,2.2c0,0,0.5,0.7,0.2,2.7c-0.3,2.1-0.3,3.9-0.3,3.9l2.1,0.9l1.9,1.9
	L14.3,169z M251.7,286.8l-0.2-0.4c-0.6-1.7-2.1-5.5-3.1-7.8l-4.6,1.3c-0.4,0.2-2,0.8-3.2-0.1c-0.1-0.1-0.1-0.1-0.1-0.1
	c-0.1,0-0.4,0.2-0.6,0.3c-0.3,0.2-0.6,0.3-0.9,0.5c-1.7,0.9-3.9,0.8-5.8,0.6c-1.1-0.1-1.4-0.7-1.5-1.1c-0.1-0.3-0.2-1.2,2.2-2.7
	v-1.7c-0.7,0.1-1.7,0.2-2.9,0.2c-1,0-1.4,0-1.7-0.2c-0.1,0-0.3,0-0.5-0.1c-1.8-0.2-3.2-0.2-4.2-0.1c-0.1,0.5,0.1,1.7,0.5,2.8
	l0.9,3.1l-2.5-2c0,0-1.8-1.5-3.1-2.3c0,0,0,0,0,0c-0.2,0.2-0.5,1-0.5,1.5c0,1.1-1.3,2.3-2.5,3.3c0.1,1.3,0.1,2.5-0.5,3.1
	c-0.6,0.6-2.9,2.3-3.9,3l-0.5,5.2l-2.8,2.4l-1.1,3.7l-1-0.4c-0.3-0.1-0.8-0.1-1.2,0.9c-0.9,2-2.5,2.5-3.2,2.6l-1.6,1.4l-1.3-1.5
	l2.1-1.8h0.4c0.1,0,1.2-0.1,1.8-1.5c0.7-1.5,1.8-2,2.7-2.1l0.8-2.4l2.7-2.2l0.5-5.3l0.4-0.3c1.3-0.9,3.4-2.5,4-3.1
	c0.1-0.4,0.1-1.6-0.2-2.8c-0.2-0.3-0.5-0.5-0.7-0.6c-0.2,0.1-0.4,0.4-0.5,0.6l-1.1,1.8l-1.5-4.4l-3.8,1.7l2.4-5.5
	c0.5-1.3,1.1-3.1,1.1-3.5c0-0.3-0.4-1.1-0.9-1.9c-1,0.2-2.4,0.3-3.2-0.1c-0.2,0.3-0.5,0.7-0.7,1.1l-0.3,0.6l-0.6,0
	c-0.6,0-1.5-0.2-2.3-0.8c-0.1,0.6-0.1,1.3-0.1,1.9l0,0.9h-3.5c-1.5,0.5-3.2,1.2-3.5,1.4c-1,0.6-2.9,0.9-4.6,0.2
	c-0.3,0.1-1.2,1.3-1.5,1.7c-0.3,0.5-0.6,0.9-0.9,1.2c-1,0.8-2.2,0.4-2.8,0.1l-0.1-0.1c0,0-1.9-1.8-3.8-2.7c0,0.3,0,0.9,0.2,1.3
	l0.2,0.7l-0.5,0.4c-0.3,0.2-2.6,1.9-3.3,2.3c-0.1,0.1-0.3,0.2-0.5,0.3c-0.8,0.6-1.9,1.3-3,0.8c-0.6-0.3-2.6-1.5-3.5-2l-3.5,1.3
	c0.1,0,0.2,0.1,0.4,0.2c1.3,0.7,2.9,1.8,3.3,2.1l2.3,1.2h3.3l0.2,0.7c0.2,0.7,0.5,2.4-0.1,3.3c-0.5,0.7-2.1,1.6-3,2l-1,2.2l-0.9-0.4
	c0.3,0.2,0.6,0.5,1.1,0.7c2.2,1,5.5,0.5,5.8,1c0.3,0.5-0.5,3.1-0.5,3.9c0,0.9,1.7,2.9,1.7,2.9s0.5,3.6,4.1,2.9c3.6-0.7,3.1,1,4.6,1
	s3.9-0.2,3.9-0.2l0.9-0.9c0,0,1.5,0,2.1,1.2c0.5,1.2,1.7,0.5,3.3,0.5c0.9,0,1.7-0.3,2.1-0.1c0.1,0.1,0.2,0.3,0.2,0.4
	c0,0.3,0.1,1.4,1.1,0.9l-0.4,0.7l-0.9,0.1c0,0-0.1,1.2-0.2,1.3s-0.4-0.1-0.6,0.5c-0.2,0.6,0.3,2,0.3,2.2c0,0.2,0.2,1,0.3,1.2
	c0.1,0.2,1,2.5,1,2.5s0.3,0.5,0.6,0.5c0.2,0.1,0.6-0.3,0.6-0.3s0.4,0.1,0.6,0.4c0.1,0.2,0.3,0.1,0.5-0.1c0.1-0.2,1.5-0.4,1.5-0.4
	s0.5-0.3,0.7-0.6c0.2-0.2,0.2-0.8,0.2-0.8l-0.2-0.6c0,0-0.4-0.1-0.5-0.1c-0.1,0,0-0.3,0-0.3l-0.3-0.2c0,0-0.2,0.1-0.3,0.1
	c-0.1,0-0.1-0.1-0.1-0.2c0-0.1,0.1-0.3,0.1-0.3s0.2,0,0.4,0c0.2,0,0.1-0.5,0.1-0.5l-0.1-0.4l-0.4-0.2c0,0-0.6,0.1-0.9,0
	c-0.3-0.1,0-0.9,0.1-1.4c0.1-0.4,0.5-0.6,0.5-0.6l0.1,0.5c0,0,0,0.3-0.1,0.3c-0.1,0-0.1,0.1,0,0.3c0.1,0.2,0.6,0,0.9-0.1
	c0.2,0,0.4,0.1,0.4,0.1l0.1,0.3l0.5,0.2c0,0,0.3,0.2,0.6,0.2s0.2-0.5,0.2-0.6c-0.1-0.2-0.5-0.1-0.5-0.1s-0.1-0.1-0.1-0.3
	c0-0.1-0.1-0.5-0.1-0.5s0.2-0.2,0.4-0.4c0.2-0.2,0.6-1.5,0.6-1.6c0-0.1,0.4-0.2,0.4-0.2l0.6,0l0.7-0.4l0.8-0.2c0,0,0.5-0.2,0.7-0.3
	c0.2-0.1,0.6-0.2,0.6-0.2l0.5,0.6l0.4-0.2l0-0.7c0,0,0.3-0.2,0.5-0.3c0.1-0.1,0.1,0.6,0.1,0.6l1,0l0.6,0l0-0.7l0.6-0.3l0.1-0.5
	l-0.7-0.1l-0.1-0.4l1,0.2l-0.1,0.2c0,0,0,0.2,0.1,0.3c0.1,0.1,0.3,0.4,0.3,0.4s-0.5,0.4-0.6,0.5c-0.1,0.1,0.1,0.2,0.3,0.4
	c0.2,0.2,0.8-0.5,0.8-0.5s0.5-0.1,0.6-0.2c0.2-0.1,0-0.5-0.3-0.5c-0.3,0-0.4-0.1-0.5-0.3c0-0.2,0.5-0.2,0.6-0.4
	c0-0.2-0.5-0.8-0.4-0.9c0.1,0,0.4,0.5,0.7,0.7c0.2,0.2,1.1-0.1,1.1-0.1v0.5l0.3,0.4c0,0,0.6,0,0.7-0.1c0.1-0.1,0.2-0.2,0.2-0.5
	c0-0.2-0.2-1.5-0.2-1.7c0-0.2,0.2-0.2,0.2-0.2l0.2,0.3l0.2,0.3c0,0-0.2,0.2-0.1,0.4c0,0.2,1.3,0.8,1.5,0.8c0.2,0,0.6-1,0.7-1.2
	c0.1-0.2,0.5-0.3,0.6-0.4s0.5,0.7,0.7,0.8s0.8-0.7,0.9-0.7c0.1,0,0.2-0.4-0.1-0.8c-0.2-0.3-0.2-0.9-0.2-0.9l0.3-0.4
	c0,0,0-0.6-0.1-0.8c-0.1-0.2-0.2-0.6-0.2-0.6s0.1-0.5,0.3-0.6c0.2,0,0.3,0.5,0.3,0.5l0.1,1.1l0.1,0.8l0.2,0.5l0.3,0.6h0.2l0.8-0.8
	l0.2-0.7c0,0,0-0.4-0.1-0.6c0-0.2,0.1-0.2,0.1-0.2l0.3,0.6l0.1,0.5c0,0,0.4,0.3,0.6,0.4c0.2,0.1,0.5-0.2,0.6-0.4
	c0.1-0.1,0-0.5-0.1-0.7c-0.1-0.2,0.2-0.3,0.2-0.5c0.1-0.2-0.4-0.8-0.4-0.8l-0.1-0.3l0.2-0.6c0,0,0-0.2,0-0.3c0-0.1,0-0.2-0.1-0.3
	s-0.8-0.6-0.8-0.6s-0.7-0.3-0.8-0.3c0-0.1,0.1-0.1,0.1-0.1s1.1,0.1,1.2,0.1c0.1,0,0.2-0.2,0.3-0.3c0-0.1-0.8-0.6-0.8-0.6l0.1-0.8
	c0,0,0.3,0.2,0.5,0.4c0.1,0.2,0.6,0.9,0.6,0.9l0.7,0.4l0.2,0.7l0.9,1l0.3,0.3c0,0,0,0,0,0c0,0,0,0,0,0s-0.1,0-0.1,0c0,0,0,0,0.1,0
	c0,0,0,0,0,0s0,0,0,0c0,0,0,0,0,0c0,0,0,0.1,0,0.1l0.1,0c0,0,0,0,0,0s0.1,0,0.1,0l0-0.1l0,0l0.1,0.1c0,0,0.1,0,0.1,0.1
	c0,0,0.1,0,0.1,0c0,0,0.1,0,0.1,0c0.1,0,0.1,0,0.1,0l0,0.1l0,0l0,0.1c0,0,0,0,0.1,0c0,0,0,0,0,0s0-0.1,0-0.1c0,0,0,0,0,0l0,0.1
	c0,0,0.1,0,0.1,0c0,0,0,0,0,0l0.1,0c0,0,0,0.1,0,0.1s0,0,0,0l0.1,0l0,0c0,0,0,0,0,0c0,0,0-0.1,0-0.1l0.1,0l0.1,0.1c0,0,0,0,0,0
	s0,0,0,0s0.1-0.1,0.1-0.1c0,0,0,0,0,0l0,0.1l0,0.1l0,0l0,0l0.1,0l0,0c0,0,0,0-0.1,0c0,0,0-0.1,0-0.1s0,0,0.1,0s0-0.1,0-0.1
	s-0.1-0.1-0.1-0.1l-0.1,0c0,0,0,0,0-0.1c0,0,0-0.1,0-0.1c0,0,0,0,0,0l0-0.1c0,0,0,0,0.1,0c0,0,0-0.1,0-0.1l0.1,0c0,0,0.1,0,0.1,0
	c0,0,0,0,0,0s0.1,0.1,0.1,0.1s0,0.1,0,0.1s0,0,0,0.1c0,0,0.1,0,0.1,0s0,0,0,0c0,0,0,0,0.1,0c0,0,0-0.1,0-0.1l0,0l0-0.1l0,0l-0.1,0
	c0,0,0-0.1,0-0.1c0,0,0.1,0,0.1,0l0-0.1l0,0l-0.1,0l0-0.1l0-0.1l0,0c0,0,0,0.1,0,0.1c0,0,0,0.1,0,0.1c0,0,0,0,0,0l0-0.1l0-0.1l0,0
	c0,0,0,0,0-0.1c0,0-0.1,0-0.1,0c0,0,0,0.1,0,0.1l0,0l-0.1,0l0,0.1l0,0.1l0,0l-0.1,0l0-0.1l-0.1,0l-0.1,0l0,0l-0.1,0l0,0.1l0,0l0-0.1
	c0,0,0-0.1,0-0.1c0,0-0.1-0.1-0.1-0.1s0.1,0,0.1,0s0,0,0.1,0c0,0,0-0.1,0-0.1l0,0c0,0,0,0,0.1,0c0,0,0.1,0,0.1,0c0,0,0.1,0,0.1,0
	l0.1,0c0,0,0,0,0.1,0c0,0,0.1-0.1,0.1-0.1s0.1-0.1,0.1-0.1s-0.1,0-0.1,0c0,0-0.1,0-0.1,0c0,0-0.1,0-0.1,0s0,0,0,0c0,0-0.1,0-0.1,0
	s0,0,0,0c0,0,0,0,0-0.1l0.5,0l0.2-0.2l0.7-0.2l0.6,0.4l0.1,0.3l0,0.3l0.2,0l0.3,0l0.1-0.2l0.3-0.1l0.1-0.2l-0.3-0.4l0-0.2l0-0.3
	c0,0-0.1-0.2-0.3-0.2c-0.2,0-0.4-0.1-0.4-0.1l0-0.2l0.2-0.1l0.4-0.1l0.5-0.6l0.7-0.3l0.3-0.1c0,0-0.6,1-0.6,1.3s0.1,0.3,0.2,0.4
	c0.1,0.1,0.3,0.3,0.3,0.3l0.4,0.1l0.5,0l0.3-0.8c0,0,0.5-0.6,0.4-0.7c0-0.2,0.3-0.5,0.3-0.5h1c0,0,1,0.7,1.1,0.8
	c0.1,0.1,0.2-0.1,0.3-0.1c0.1,0,0.4,0.2,0.4,0.2l0.6,0.1l0.2-0.5l-1-1c0,0,0-0.3,0.5-0.4c0.5-0.1,1.6,1.3,1.6,1.3s0.8-0.9,0.9-1.1
	c0.1-0.2,0.7-0.2,0.7-0.2l0.6,0.3c0,0,0.7-1.1,0.8-1.3c0.1-0.2,1.3,0.2,1.3,0.2l0.8-0.7c0,0-0.1-1.3,0.2-1.4
	c0.2-0.2,0.6,0.6,0.6,0.6l1-0.6l-0.4-0.7h-0.9c0,0-0.5-0.1-0.6-0.5c-0.1-0.4,0.6,0.1,0.6,0.1l0.9,0.1l0.2-0.3l0.5-0.7l0.1-0.6
	c0.1,0,0.2,0,0.2,0c0.5-0.3,1.1-0.4,1.1-0.4C251.7,287.2,251.7,287.1,251.7,286.8L251.7,286.8z M243.7,164
	C243.7,164,243.7,164,243.7,164c-0.1-0.8,0.3-1.6,0.6-2.2c-1.1-0.1-1.9-0.7-2.3-1.1c-1.1-0.2-2.4-0.3-2.7-0.1
	c-0.6,0.5-1.9,1.7-2.5,2.2v2.1c0.4,0.4,0.8,1.2,0.5,1.9c-0.1,0.3-0.4,0.9-1.4,1c-0.7,0.1-1.4,0.4-1.8,0.7c0.1,0.3,0,0.6,0,0.8
	c0,0,0,0,0,0c0.1,0,0.3,0.1,0.6,0.2c0.6,0.1,1.2,0.3,1.7,0.5c1.4,0.4,2.7,0.8,3.9,0.4c0.3-0.1,0.6-0.2,0.9-0.4
	c0.1-0.2,0.2-0.4,0.3-0.7c0.1-0.2,0-1.2-0.1-1.7c-0.2-1-0.3-1.9,0.1-2.6C242.2,164.2,243,164.1,243.7,164z M232.6,297.2
	C232.6,297.2,232.6,297.2,232.6,297.2C232.5,297.2,232.5,297.2,232.6,297.2c-0.1,0.1,0,0.1,0,0.1c0,0,0,0,0.1,0s0,0,0,0
	S232.6,297.3,232.6,297.2C232.6,297.2,232.6,297.2,232.6,297.2z M324.6,95.9c-1.4-1-1-6.3-3.6-3.9c-2.6,2.4-6.7,4.8-6.7,4.8
	l-0.5,2.1c0,0-3.9,0.9-5.3,1.2c-1.4,0.3-2.7,0-2.7,0l-1-1.7c0,0,0.5-2.9,0-3.1c-0.5-0.2-1.2-1.9-2.4-1.9s-2.4,0-3.3-0.9
	c-0.9-0.9-1.5-1.9-3.1-1.9c-1.5,0-2.2,0.9-3.9,0c-1.7-0.9-3.8,0-3.8,0l-2.4-4.8c0,0-5.8-19-15.1-20c-9.2-1-7.9-0.7-12.5,0
	c-0.5,0.1-1,0.2-1.5,0.3c0.8,1,0.5,3,0.2,5.3c-0.1,1-0.3,2.1-0.2,2.6c0,0,0,0,0,0c0.4,0.1,1.5-0.3,2.4-0.8l0.8-0.4l4.3,6.5
	c0,0,0,0,0,0c1.1,0,4-0.1,8.6-1.1c3.1-0.7,4.3,0.7,4.8,1.5c1.3,2.4-0.1,6.6-1.6,8.1c-0.9,0.9-0.6,4.9,0.3,8.2l0.1,0.2l-1.3,5.5
	l-0.5,0.2c-0.1,0-1.5,0.6-2.7,2.6c-1.1,1.9-3.8,2.2-5.4,2.2l1.4,4.7c0.1,0.2,0.8,1.1,2.1,0.8c1.2-0.2,1.7,0.2,1.9,0.6
	c0.2,0.4,0.6,1.2-1.7,3.3l-0.1,0.4h3.7l1.5,3.8l2.2,2l5.5-1.2l0.4,0.4c0.8,0.9,2.4,2.3,3.5,2.4c0.5,0.1,0.8-0.1,1.3-0.5
	c0.5-0.4,1.4-1,2.5-0.3c0.9,0.5,1.4,1.3,1.7,1.9h2.4v2.4c0.2,0.2,0.7,0.9,2.2,1.2c0.2,0,0.3,0,0.4,0c0.3-0.3,0.4-1.6,0.2-2.4
	l1.9-0.4l1.6,6.3c0.7-0.1,1.5-0.5,1.7-1.4c0.6-2.9,2.4-3.3,2.6-3.3l0.4-0.1l1.3,1l1.6-1.3l3.3,2.8h1.9v-2.6c0,0-3.9-6-2.1-7
	c1.9-1,1.5-3.3,4.6-3.1c3.1,0.2,4.1-0.2,4.3-3.9c0.2-3.8,1.7-5.5,1.7-5.5v-8.6C322.9,99.3,326,96.9,324.6,95.9z M243.6,166
	c-0.1,0-0.1,0-0.1,0c0,0.1,0,0.3,0,0.5L243.6,166z M277.6,235.8c0,0-3.9-1.6-5.9-0.5c0,0-1.3-0.2-0.3-1.4c1-1.2,1.7-2.1,2.7-2.6
	c1-0.5,1.9,0,1.9-1.2c0-1.2,0.5-2.6-0.3-2.9c0,0-0.1,0-0.2-0.1l-2.2,4l-0.2,0.1c-0.7,0.5-2,1.3-2.9,1.3c-0.3,0-1.1,0-4.1-2.7
	l-0.1-0.1c-0.5,1.3-1.2,3.4-1.5,4.3c0.3,0.4,0.6,0.9,0.4,1.5c-0.1,0.3-0.5,0.9-1.5,0.9c-0.3,0-0.6,0-1,0c-0.4,0-1.1-0.1-1.5,0
	l0.3,1.6l-1.9,3l-2.8,2.1c0,0.2-0.1,0.4-0.1,0.6l3.2,2.8v3.3c1.2,0,2.1,0.6,2.7,2.9c0.3,1.3,0.9,2.2,1.4,2.9l0.8-1.2l0.1-0.1
	c0.4-0.3,1.6-1.1,2.6-0.7c0.3,0.1,0.8,0.5,1,1.3c0.1,0.6,0.6,1,1,1.3l3.2-0.3l0.1,1c0,0,0.5-4.1,2.5-5.3c2.1-1.1,2.3-3,2.3-3
	s-0.2-1.4,0-2.1c0.2-0.7-0.7-2.7,0-3.4c0.7-0.7,2.1-1.6,2.1-1.6V239l1.6-0.9c0,0,0.5-3.2,0-3.9C280.6,233.5,278.5,231.7,277.6,235.8
	z M230.7,297.6C230.7,297.6,230.7,297.6,230.7,297.6c0-0.1,0-0.2,0-0.2s0,0-0.1,0c0,0-0.1,0-0.1,0s0,0.1,0,0.1
	S230.6,297.6,230.7,297.6L230.7,297.6z M231.2,297.3c0,0-0.1,0.1-0.1,0.1s0,0-0.1,0c0,0-0.1,0.1-0.1,0.1s-0.1,0.1-0.1,0.1
	c0,0-0.1,0-0.1,0c0,0,0,0.1,0,0.1l0-0.1l-0.1,0l-0.1,0c0,0,0,0,0,0.1c0,0-0.1,0.1-0.1,0.1l-0.1,0l0,0l0,0c0,0,0,0,0,0c0,0,0,0,0,0
	l0,0l0,0l0,0.1l0,0.1l0,0l0.1,0l0-0.1l0,0l0,0l0,0c0,0,0,0.1,0,0.1l0.1,0v0l0,0l0,0l0,0c0,0,0.1,0,0.1,0s0,0,0,0c0,0,0,0,0,0l0.1,0
	l0,0l0,0.1l0.1,0l0,0l0,0l0.1,0c0,0,0,0,0,0c0,0-0.1-0.1-0.1-0.1l0.1,0l0-0.1l0,0c0,0,0.1,0.1,0.1,0c0,0,0-0.1,0-0.1s0,0,0-0.1
	c0,0,0,0,0,0s0,0,0,0c0,0,0,0,0-0.1s0,0,0,0l0,0L231.2,297.3C231.3,297.4,231.3,297.3,231.2,297.3z M173.1,287.4
	c1.2-0.5,2.4-1.2,2.6-1.5c0.1-0.1,0-0.5,0-1h-2.2l-2.9-1.6c0,0-1.8-1.3-3-2c-0.3-0.1-0.6-0.2-0.8-0.3c-1.3-0.3-2-0.9-2-2.9
	c0-2,0.3-4,0.4-4.6c-0.2-1-0.7-3.7-0.7-4.3c0-0.4,0.1-0.7,0.3-1.2c0.3-0.9,0.7-2.2,0.3-3.1c0,0,0,0,0,0c-0.1,0.1-0.2,0.1-0.2,0.2
	c-0.5,0.4-1,0.8-1.8,0.8c-1.2,0-2.4-0.9-2.6-1.9c-0.1-0.5,0-1.1,0.4-1.4c-0.2-0.3-0.6-0.7-0.9-1l-0.9-0.8l1.1-0.7
	c0.4-0.2,2.1-1.4,2.6-1.7c0.3-0.1,1.1-0.6,5.1,0.6c1.1,0.3,2.1-0.3,2.5-0.6c-0.5-0.7-0.6-1.8-0.4-3l-1.1,0.6l-0.4-0.2
	c-0.1-0.1-1.4-0.6-3.1-2.3c-1-1-1.1-2.1-0.9-3.1c-0.8,0.7-2.2,2.1-2.8,2.5c-0.2,0.3-0.3,1.5-0.4,2.2c0,0.4-0.1,0.9-0.1,1.3
	c-0.2,1.6-1.8,2.4-3,2.7l-1.4,3.9v4.1l-3-0.3l-3,2.2l-0.6-0.9c-0.1-0.1-1.4-2.1-2.1-3.8c-0.2-0.5-0.6-1.3-1.1-2.2
	c-1.5-2.8-2.4-4.7-2.4-5.8c0-0.4-0.8-1.2-1.8-1.8h-3.5v-3.1c-0.2-0.6-0.5-1.3-0.7-1.6c-0.4-0.3-1.1-0.7-2.1-1.5l-2.1,2.5l-2.8-4.3
	v3.6h-5v-2h3v-6.3l1.7,1.7c0.1,0.1,0.3,0.3,0.5,0.3c0,0,0,0,0,0c0.4-0.9,1.3-5.5,1.7-8.4c-0.6-1.9-1.8-6-1.8-6.9
	c0-0.9,0.6-1.5,1.3-1.9l-1.9-2.4l-1.4-4.5l-0.9-0.7h-2.6l-1,2.1l-3.7,1.6h-0.7c-0.2,0-0.7,0-2.4-1.2l-2.6,1.3l-0.4-0.1
	c-0.2-0.1-1.8-0.6-3.3-3.2c-1-1.6-1.8-2.2-2.6-2.8c-0.3-0.2-0.5-0.4-0.8-0.6c-0.6-0.5-1.6,0.1-1.6,0.1l-0.4,0.2l-6-2l-0.1-0.1
	c-1.1-0.7-3.7-2.5-4.1-4.1c-0.6,0-1.9,0.2-3.1,0.6l-0.7,0.2l-0.4-0.7c-0.1-0.1-2-3.3-2.7-4.8c-0.3,0-1,0.2-1.4,0.3
	c-1.2,0.3-2.5,0.7-3.5,0c-1.5-1-1.9-3.5-2-4.2l-1.7-3.7l1.4-2.6l-1.3-0.9v-3.7l0.1-0.2c0.1-0.1,1.4-2.3,1.9-3c0.2-0.2,0.5-1.1,0.8-2
	l-4.1-3.4l-6.5-1.1c-2.9-0.1-8.3-0.2-8.8-0.2c-0.4,0-2.5,0.7-4.2,1.3l-0.2,0.1h-9.2l-0.2-0.1c-0.2-0.1-5.2-1.8-6.8-5.2
	c-0.7-1.5-5.1-0.6-7.9,0.5l-0.3,0.1l-5.1-1.7l-4.6,3.4h-8v-1l-0.9,2.9c0,0-1,1.5-1,2.2c0,0.7,0.5,2.9,0.5,2.9l0.5,0.9
	c0,0-0.5,3.2-0.5,3.8c0,0.5-2.1,1.7-2.1,1.7l-0.9-1.7l-1.5-0.3l-1.2,3.1l0.5,1.5c0,0-0.7,0.9-0.2,3.8c0.5,2.9,1.9,4.8,2.4,4.8
	c0.5,0,3.1,1.4,3.1,1.4s0.9,3.4,1.4,3.8c0.5,0.3,2.2,2.2,2.2,2.2l2.7,2.2l3.4-0.7c0,0,2.2,3.1,2.7,3.8c0.5,0.7,2.4,3.1,3.4,3.8
	c1,0.7,3.8,3.8,3.8,3.8l1.9,0.7c0,0,1,2.9,1.9,3.9c0.9,1,3.4,2.1,3.9,2.2c0.5,0.2,2.4,3.9,3.3,4.6c0.9,0.7,2.2,1.7,2.9,1.7
	c0.7,0,1.4-0.7,2.9,0c1.5,0.7,6.3,2.7,6.3,2.7s3.3,0.2,3.8,0.2c0.5,0,2.4,0,2.4,0l-0.2,3.3l1,3.4l2.2-0.5l0.3-3.1L73,241l3.6,1.4
	l3.6,2.6h2.1l1.7,3.3l0.5,2.1l1.4,3.1l4.8,1.2c0,0,5.5,0.5,6,0.3c0.5-0.2,2.4-4.3,6.2-4.3c3.8,0,5.5-1.7,6.2-2.1
	c0.7-0.3,3.6-1.7,7,0.7c3.4,2.4,3.3,3.1,4.5,2.4c1.2-0.7,1.5-2.6,2.1-3.4c0.5-0.9,1.5-1.4,1.5-1.4l0.7,2.1l1.5,0.5
	c0,0-0.5,2.1,0.9,3.9c1.4,1.9,2.1,2.4,2.1,2.9s0.9,7.2-1,9.8c-1.9,2.6-6.2,5.5-6.2,5.5l-1.7,3.6l-0.2,1.4v1.7l-1.5,1.7l3.8,0.5
	l3.9-1l-0.5,1.5l0.5,2.7l1.2,2.9l2.6,0.7l1.2,0.7l-2.1,1.9c0,0,0,1,0,2.1c0,1-1.2,2.7-1.2,2.7l5.1,1c0,0-1.5,2.2,1.2,3.4
	c2.7,1.2,5,0.2,6.3,0.3c1.4,0.2,1.4,3.6,1.4,3.6h3.8l0.3-3.6l-0.9-3.4c0,0,0-1.9,1.4-1.9c1.4,0,4.1-0.9,4.1-0.9s1.2-0.3,1.9,0.3
	c0.7,0.7,3.1,1.2,3.8,0.7c0.7-0.5,1.2-0.9,2.6-0.9c1.4,0,3.4,0,3.8-0.2c0.3-0.2,1.7-0.2,2.2-0.5c0.5-0.3,0-2.1,3.6-2.7
	c1.8-0.4,2.5-0.2,2.9,0.2l1.2-2.6L173.1,287.4z M231.7,298.1C231.6,298.1,231.6,298.1,231.7,298.1
	C231.6,298.2,231.6,298.2,231.7,298.1c-0.1,0.1-0.1,0.1-0.1,0.1L231.7,298.1L231.7,298.1C231.7,298.2,231.7,298.1,231.7,298.1
	C231.7,298.1,231.7,298.1,231.7,298.1C231.7,298.1,231.7,298.1,231.7,298.1z M232.2,297.9L232.2,297.9l0-0.2l0,0c0,0,0,0,0,0
	s0,0,0,0l0,0l0,0c0,0,0,0-0.1,0c0,0-0.1,0-0.1,0c0,0-0.1,0-0.1,0l-0.1,0c0,0-0.1,0-0.1,0s-0.1,0.1-0.1,0.1l0.1,0.1l0.1,0
	c0,0,0,0,0,0c0,0,0,0,0,0l0,0l0,0l0,0.1l0,0l0,0l0,0l0,0l0,0l0,0c0,0,0,0.1,0,0.1c0,0,0,0.1,0,0.1s0,0,0,0c0,0,0.1-0.1,0.1-0.1l0,0
	l-0.1,0l0,0C232.1,297.9,232.1,297.9,232.2,297.9C232.2,297.9,232.2,298,232.2,297.9c-0.1,0.1,0,0.1,0,0.1l0,0l0.1,0L232.2,297.9z
	 M231.7,298.1L231.7,298.1C231.7,298,231.7,298,231.7,298.1c0-0.1,0-0.1,0-0.1c0,0,0,0,0,0l0,0l0,0.1c0,0,0,0,0,0
	C231.5,298,231.5,298,231.7,298.1C231.6,298,231.6,298,231.7,298.1C231.6,298,231.6,298.1,231.7,298.1
	C231.6,298.1,231.7,298.1,231.7,298.1z M232.3,298.2L232.3,298.2L232.3,298.2L232.3,298.2C232.3,298.3,232.3,298.3,232.3,298.2
	C232.4,298.3,232.4,298.3,232.3,298.2C232.4,298.2,232.3,298.2,232.3,298.2z"/>
<circle class="st1" cx="158.1" cy="113" r="108.3"/>
<polygon class="st1" points="166.2,198.9 232.3,296.3 199.7,188.8 "/>
<g>
	<defs>
		<circle id="SVGID_1_" cx="158.1" cy="113" r="108.3"/>
	</defs>
	<clipPath id="SVGID_2_">
		<use xlink:href="#SVGID_1_"  style="overflow:visible;"/>
	</clipPath>
	<path class="st2" d="M123.5,200.4l1.5,0.6c0,0-0.5,1.6-0.9,1.6c-0.3,0-2.1-0.2-2.1-0.2l-0.3-1.5l1.4-1.5L123.5,200.4z M100.5,122.7
		l-2.5-3.7l-1.3-0.5c0,0-0.9-0.1-1.4-0.3c-0.5-0.2-0.6,0-1,0c-0.3,0-0.8,1-0.8,1l-1.5-0.5l-0.1,1l1.2,0.6l1.9,2.3l1.8,0.4l1.7,0.6
		l1.3-0.1L100.5,122.7z M113.8,185.8c-0.5,0.2-1.3-0.6-1.3-0.6l-1.3,1.3c0,0,1,0.9,1.5,0.9c0.5,0,3.1,0.5,3.1,0.5l1.3-0.4l1.3-2.4
		l-1.7-2C116.7,183,114.3,185.6,113.8,185.8z M99.9,177.9l1.5-0.3l0.3-1.2l-1.1-0.3l-1.4,1L99.9,177.9z M102.2,209.3h-1l0.2,3.2
		l3,0.2l0.9-1.7l-2.5-0.5L102.2,209.3z M103.4,181.7c0.6-0.6,0.2-1.3,0.2-1.3l-1.6-1.6l-1.6,1.5l-1.5,1l0.6,1.3l-0.3,0.8
		c0,0,0,0.5-0.1,1c-0.1,0.4,1.5,0.3,1.5,0.3s0.6-0.4,1.2-0.9C102.4,183.3,102.8,182.4,103.4,181.7z M148.1,187.5l-1.1,0.5
		c0,0-1.8,1.7-2.1,1.9c-0.3,0.2,0.9,1.5,1.2,1.7c0.3,0.2,1.2,0.4,1.8,0.4c0,0,0.3,0.3,0.9,0c0.5-0.3,0.8-1.3,1.2-1.9
		C150.4,189.6,148.1,187.5,148.1,187.5z M104.9,98.3l0.4,0.9l1.6,0.8l1.6-0.3l-3.4-3.1L104.9,98.3z M28.5,182.9c0,0,3.7-1.7,4.1-1.9
		c0.4-0.2,1.7-0.6,2.3-0.8c0.5-0.1,1.9-0.1,2.3-0.3c0.3-0.2,0.8-0.8,0.8-0.8l-1.5-2.7l-3.2,1.3l-2,0.1l-5.3,1.8c0,0-3.2,1.6-3.9,2.1
		c-0.6,0.5-0.8,0.6-0.8,0.6l4,0.4H28.5z M39.5,191.9l-0.8-0.8l-0.3-1.1c0,0-1.1,0.3-1.4,0.2c-0.3-0.1-0.3-1.2-0.3-1.2l0.8-1.2
		l1.3-0.2l0.3-1.3c0,0-0.1-1.8-0.5-2.9l-1-0.8l-1.2,1.2l-1.4-0.4l-2.1-0.4c0,0-3.7,2.1-4,2.1s-1.4-0.6-1.4-0.6l-2.5,0.9l-2.9,2.8
		l0.6,0.8l2-0.2l1.2,0.6v2.6l2.1,1.2l-0.4,0.8l1.3,1l1.8,0.1l1.2-1.8h2.7l3.2-0.3l1.1,1.6l1,0.1l0.9-1.1l-0.3-1.6H39.5z M95.2,172.5
		c0,0,0,1.3,0.5,1.8l1.1,0.5l1.7,0.2l0.1-0.9l-2.4-2L95.2,172.5z M20.2,172.9l-1.4,0.8v1.2l3.3-1.2l2.4-1l2.3-0.4l3.2,0.9l2.8-1.2
		l1.6-1.4l1-1.4v-2.5l-1.9-4.5l-1.3-1.4l-1.5-0.1l-4.7,1l-3.7,0.5l-1.4,1.3c0,0-0.1,3.1,0,3.5c0.1,0.4,0.9,2.8,0.9,3.5
		s-0.2,1.3-0.2,1.3L20.2,172.9z M15.5,196.4l0.3,1.2l1.9,0.3l0.8-0.6l0.4-1.4l1.1-0.8v-1.4l-3.7,1.1L15.5,196.4z M15.6,192.7
		l-1.8,1.1l-0.1,1.3l2-1.5L15.6,192.7z M65.3,116.3l-0.3-1l-2,1l0.4-1.5l-1.1-0.5l-0.8,1.1l-1.3-0.3l-1.9,2.5h-2.1l-0.5,3l-1.1,2.3
		l0.5,2.3l1.6,0.6l1.7-1.5l2.4-0.1l0.2-1.1l-0.2-1.1l3.8-2c0,0-0.3-2-0.4-2.4C64,117.3,65.3,116.3,65.3,116.3z M81.4,221.5
		c0,0-2.1-0.5-2.6-0.6c-0.4-0.1-1.6,1.1-1.7,1.4c-0.1,0.3,0.1,2.5,0.1,2.5l1.9,2.3l2.5-0.1l3.4-2.3l0.3-2.1l-2.6-0.3L81.4,221.5z
		 M95.9,193.1l-0.3,1.1l0.8,0.9l1.4-1l-0.4-1.1L95.9,193.1z M90.2,211.5h-1.4l-2.6,0.2l-1.9-0.3c0,0-0.5,1.8-0.8,2.3
		c-0.2,0.4,0.6,1.2,0.6,1.2l0.3,1.1l1.4,0.3l0.6,1l1.1,1.8c0,0,0.5-1.5,0.9-2c0.3-0.5,1.1-0.5,1.7-0.9c0.6-0.3,0.5-3.7,0.5-3.7
		L90.2,211.5z M76.7,203.6l-2.5,0.6l-2.3,0.9l-0.4,1.2l2,0.5l0.3,1.3l-0.3,1.6c0,0,4-0.3,4.7-0.5s0.3-0.5,0.8-0.9
		c0.4-0.3,0.1-1.3,0.1-1.3l-0.2-1.2l-2.6-0.2l1.3-0.4L76.7,203.6z M72,219.9c-0.4,0.1-1.2,1.6-1.8,1.9c-0.6,0.3-0.1,1.3-0.1,1.7
		c0,0.4,1,0.3,1,0.3l2-0.9l1.3-0.8v-2l-0.6-0.8C73.7,219.5,72.4,219.8,72,219.9z M264.8,10.9c-68.1-92.3-68.1-92.3-68.1-92.3
		l-108-14.4L-2.7-60.5l-26.9,50.1l-24.6,69.1c0,0-29.2,47.7-25,61.2c4.2,13.4-7.4,17.2,7.9,23.2c15.3,6,62.9,17.5,62.9,17.5
		s5.8,1.2,6.3,1.2c0.5,0,7-0.2,7.8-0.4c0.9-0.2,2-1.7,2.6-2.1c0.5-0.4,1.7-1.7,3-2.5c1.3-0.8,0.8-0.5,1.3-1c0.5-0.4,1.3-0.5,1.3-0.5
		v1.1c0,0-1.1,1.7-1.4,2c-0.3,0.3-2,3.5-2.5,4.2s0,3-0.1,3.4c-0.1,0.4,0.9,3.2,0.9,3.2s3.8,2.6,4.1,3c0.3,0.4,2.8,0.8,2.8,0.8
		s0.9,0,1.4-0.1c0.5-0.1,0.9-0.8,0.9-0.8v-1.8l-0.5-6l-0.1-1.7l1.4-0.9l2.5-0.5c0,0,0,0-0.1-1c-0.1-1-1.1-0.8-1.1-0.8l-2,0.3
		c0,0-1.7,0.6-2.4,1c-0.6,0.3,0-1.6,0-1.6l1.8-0.9l4.2,0.4l3.4,1.4l4.7-1.4l4.2,4.9l0.4,0.4l0.9-1.2l3.2-0.1l1.1,0.2l0.3-1.4
		l2.3-1.4l1.6-1.9l3.8-0.9c0,0,0-2.3,0-3c0-0.8-0.3-1-0.3-1s-1.9-0.1-2-0.4c-0.1-0.3-0.2-2.9-0.2-2.9L46,149l-1-2.6l3.7-4.2l2.6,0.1
		l0.9-1.1l-2.9-3.9l1.5-4.6c0,0,1.6,0.4,2.3,0.5c0.6,0.1,1.1,0.2,1.1,0.2l1.7-2.3l0.9-2.1l-2.5,0.8c0,0-4-0.8-5.6-1.2
		c-1.6-0.4-2.7-0.5-2.7-0.5l-1.3-1.3l-0.6,0.8l-2.3-0.6l-2.3-1.2l-0.4-1.4h-1.4l-0.2-2.7l1.4-5.3l2.9-5.5l0.6-2.6l-0.2-1.6l0.5-1.2
		l3.2-3.2l-0.6-5.7l-0.9-0.9c0,0-0.9-2.1-1-2.5c-0.1-0.3,1.2-2.8,1.3-3.1c0.1-0.3-0.2-2.5-0.2-2.5L43,86.5c0,0-2-1.5-2.5-1.7
		c-0.4-0.2-7,0.3-7,0.3l-9-0.2l-3.3-0.4l-3-3.4l0.6-1l6.2,3.7l1.6,0.1c0,0,3.7-1.2,4.2-1.3s3.3,0.1,3.3,0.1s7.6-1.2,8.3-1.3
		c0.6-0.1,2.1,0,2.1,0l-0.5-1.7c0,0-3.5-2.9-3.7-3.8c0,0-0.8-1.2-0.8-1.5c0-0.3-1.8-3.5-1.8-3.5l-1.6-2l-3-3.8l-4.5-4.1L26.6,57
		c0,0-4.6-3.1-5-3.5c-0.4-0.4-2.6-1.6-2.6-1.6l0.3-2l3.8,1l4.8,5L38,62.6l4.8,4.9l3,2.9l2.4,0.5l2.7,0.2l2.3-1.9l0.6-2L53,62.9
		l-1.2-2.6l-6.9-5.5l-0.3-3.1l-1.7-9.9c0,0-0.2-6.2,0-8.2c0.2-2.1,0.8-4.5,0.8-4.5s3.5-4.9,4.3-5.4s13,2.1,14.2,2.3
		c1.2,0.2,13.2,5.6,13.2,5.6l14.8,20.3l-0.8,6.7l4.8,7.5l3.2,3.5l4.8,6.4l1.8,6.4c0,0,1.9,2.9,3,2.8c1.1-0.1,1.8,2.7,1.8,2.7
		l2.4-1.2l6,2.6l4.3,4.1l-1.1,3.2l-3.2,1.1l-0.8,2.1l-4.8,1.9c0,0,0,4.8,1.1,4.8c1.1,0,1.1,0,1.1,0l4.8,1.3l3.7-3.7l2.7,0.3l0.3-2.7
		c0,0-1.9-3.5-1.1-5.1c0.8-1.6,2.4-2.9,2.4-2.9l2.1,0.8c0,0,0,0.3,1.9,0c1.9-0.3,4-1.3,4.8-0.8c0.8,0.5,6.4,2.9,6.4,2.9
		s4.5-0.5,4.5,0.3s0,0.8,0,0.8l2.7-0.8l0.3,2.1l1.6,0.4c0,0,2,0.3,2.4,0.1c0.3-0.2,0.6-1.5,0.6-1.5s0.2-1.8,1.8-1.4
		c1.6,0.4,1.6,0.4,1.6,0.4h1.6c0,0,1-1.2,0.9-1.5c-0.1-0.3-0.6-2.1-0.6-2.1s0.6-1,1.4-1s1.6-0.4,2.6,0c1,0.4,1.7,1.1,2.3,1
		c0.5-0.1,1.6-0.3,1.6-0.3l2-1.6l1.1-0.4l3.1,0.3l1.4-1l0.6-1.5l1.4-1.6l2.8-0.2l1.1,0.8c0,0,0.9,0.4,1.3,0.3
		c0.4-0.1,2.9-0.2,2.9-0.2s2.6-0.1,3,0c0.4,0.1,1.1,0,1.7,0.1c0.6,0.1,1.4,0.8,1.8,1.1c0.4,0.3,0.5,1.7,0.5,1.7l1.6-3.5l8.1-5.7
		l2.3,0.1l1.1,1l4.3-3.1l1.2,0.1l0.6,0.3l2-1l1.6,0.6l0.8,1l6-3.3l4.4-0.8l4.3,0.5l3.2,0.7c0,0,2.4,2.1,2.7,2.2
		c0.3,0.1,1.6,2.6,1.6,2.6l0.2,2.4l1.2,0.9l2.3,0.5l2.7,2.1l2.5,2.8l1.4,1.1l0.4,3.2l-0.4,2.5l-1,1.9l0.1,2.1l0.4,2.1l0.2,1.4
		l0.1,2.4l2.4,0.7l1.2,1.5c0,0,0.8,2.3,1.3,2.7c0.5,0.4,1.9,0.3,1.9,0.3l3.7-3.2l1.6-2.3l7.8-4.3l15.9-13.9
		C283.4,89.2,333,103.1,264.8,10.9z M174.3,212.6c0,0-1.2,1-1.7,1.1c-0.5,0.1-4.1,0.1-4.1,0.1l-0.2,1.2c0,0,5.5,1,6.1,0.9
		c0.6-0.1,1.8-1.1,1.8-1.1l1.3-1.7c0,0,0,0-0.6-1.4C176.3,210.3,174.3,212.6,174.3,212.6z M209.5,196.3l-2.6,2.5
		c0,0-0.9,1.7-1.5,1.8c-0.6,0.1-1.2,0.2-1.7,0.2c-0.5,0-2-0.6-2-0.6s-1.7,0.3-2.3,0.5c-0.5,0.2-0.9,1.3-0.9,1.3l-2.1-0.3l-2.1,1.2
		c0,0-2.3,0.4-2.7,0.6c-0.4,0.2-1.5,1.6-2.6,2.3s0.5,1.4,0.9,1.6l1.1,0.1l4.1-0.5l4.2-2.5l3-0.6c0,0,2.5,0.8,2.9,0.6
		c0.4-0.1,1.9-1.7,1.9-1.7s4-3.8,4.3-4c0.3-0.2,0.1-2.3,0-2.6C211.3,195.9,209.5,196.3,209.5,196.3z M189.4,212.3
		c0.2-0.3,0-1.3,0.5-2.4c0.5-1.1-1.5-1-1.5-1s-4-0.3-4.8-0.3s-2.8-0.2-2.8-0.2l-0.9,1.1l-0.1,3l1.4,1.2c0,0,2.3-1.2,2.6-1.3
		c0.3-0.1,3.2,0.5,5.4,0.2C191.3,212.3,189.1,212.6,189.4,212.3z"/>
</g>
<path class="st3" d="M146.5,155.3l3.1,1l-0.1,2.7l-1.2-0.3l-2.5-2.5L146.5,155.3z M146.6,164.8c-0.2-0.3,0.4-0.5,0.4-0.5l0.4-0.8
	l-0.1-0.5l-1.4,0.5l-0.5,1l0.4,1.4l-0.5,0.5c0,0-0.3-0.1-1.1,0.1c-0.8,0.1-0.1,0.7-0.2,1.1c-0.1,0.4,0.3,0.8,0.3,0.8l1.3,0.1
	l0.3-1.1c0,0,2,0.1,2.5-0.4l-0.8-0.8C147.6,166.3,146.8,165.2,146.6,164.8z M138.9,167.4c-0.1-0.5-0.7-0.7-0.9-0.8
	c-0.2-0.1-1.4,0.7-1.6,0.8c0,0,0.5,1.5,0.5,1.9s0.6,0.5,0.6,0.5s0.8,0.1,1.4,0c0.5-0.1,0.3-1,0.3-1S139,167.8,138.9,167.4z
	 M149.5,148.8c0-0.3-0.5-0.8-0.5-0.8l-0.6-0.1l-0.3,0.8l0.2,1.2l1,0.1C149.3,150.1,149.5,149,149.5,148.8z M153.6,134.1h-0.8
	l-0.2,1.4l1,0.9c0,0,0.1-1.2,0.1-1.4C153.6,134.7,153.6,134.1,153.6,134.1z M126.8,145.1l0.5-1.4l0.7-3.2c0,0-1.9,1.1-2.2,1.2
	c-0.3,0.1-1.3,1.6-1.3,1.6l1.1,2.7l0.8,0.3L126.8,145.1z M151.4,135.8c-0.3-0.5-1.6-0.4-1.6-0.4l-1.2,1.9l-1.2,1.5l-1.5,0.7
	l-0.7-0.1l0.1-1.3l-0.9,0.5l-1.6,1.3l-2.1,2.3c0,0-1.9,1.6-2.1,1.6c-0.2,0-1.9,0.8-1.9,0.8l-0.6,1.5c0,0-0.5-0.1-0.9-0.1
	c-0.4-0.1-1.4-0.1-2.1-0.1c-0.8,0-2.5,1-2.5,1l-2.3,1.4c0,0-0.6,0.1-1,0.1c-0.3,0-0.3-0.5-0.3-0.5l-1.2,0.1c0,0-1.3,1.2-1.5,1.2
	c-0.2,0.1-0.6-0.8-0.6-0.8l-1.1-1.3l-1.3,0.3L120,147l-4.5,2.5v2.6l-1.4-0.6c0,0-2.5,1.8-2.9,1.9c-0.4,0.1-2.3,0.7-2.5,0.8
	c-0.2,0.1-1.1,1-1.1,1l1.6,0.3l0.9,1.4l-0.5,0.5c0,0-0.9,0.4-1.3,0.4c-0.4,0-0.4,1.4-0.4,1.4l-0.6,0.8c0,0-0.7-0.3-1-0.3
	s-1.3,1.4-1.3,1.4l0.1,1.3l1.4,3.4l0.3,1.4l1.1,0.2c0,0,0.7-0.6,1.2-1c0.5-0.4,1-0.4,1-0.4l1.9-0.3l3-2.3l2.4-1l0.3,1.6l1.4,1.2
	l2.3,0.2l3.4-0.4l0.3-0.6l0.1-1c0,0-2.2,0-2.5,0s0.3-1.4,0.3-1.4l1.6-0.1l3.2-2.1l3.1-0.1l1.9-0.5c0,0,0.9-0.5,1.1-0.7
	c0.2-0.1,0.9-0.2,0.9-0.2l0.9,0.5l-0.3,1.8l1.1,1.2c0,0,0.2,1.7,0.2,1.9c0,0.2,0.8,0.6,0.8,0.6l1.2-0.3l1.1-0.8l0.4,0.6
	c0,0,1.3,0.2,1.6,0.1s1.8-2.5,1.9-2.7c0.1-0.2-1.7-0.7-2.2-0.8s-1-0.4-1-0.4l-0.5-2.4c0,0,1.3,0,1.5,0c0.2,0,0.7-1,0.8-1.2
	c0.1-0.2-1.4-1.9-1.4-1.9l-1.9-1.5l1.1-0.9l1.6,0.8l2,0.5l1.4-0.2l-0.1-2.3c0,0-0.2-1-0.3-1.2c-0.1-0.2-0.5-0.9-0.5-0.9l0.3-0.7
	l1.4-0.5l0.3-1.2l-0.8,0.1l-1.6-0.6l-0.1-1.6l1.2-1.2l1.5,0.1l1.5,1l0.8-0.9c0,0,0.3-0.4,0.3-0.7s-1.6-1.4-1.6-1.4l0.8-0.8l1.4,1.8
	l3.4-0.1l-0.1-2.6l0.1-1.6C152.6,138,151.7,136.3,151.4,135.8z M121.9,171.5l0.2-0.8l-1.2-0.3c0,0-0.3-0.3-0.5-0.5
	c-0.2-0.1-0.5,0-0.8,0c-0.3,0-0.2,1.2-0.3,1.4C119.2,171.6,121.9,171.5,121.9,171.5z M215.2,108.2l0.5,1.1l2.1,0.8l0.1-0.9l-1-1
	l-0.8-2.2l-1-0.1L215.2,108.2z M210,93.5l-1,0.4l1.2,1.7c0,0,1.1,0.7,1.5,0.8c0.4,0.1,0.1-1.4,0.1-1.4v-1.8l-0.8-0.4l-0.6,1.3
	L210,93.5z M221,108.4l1.6-1l-0.8-2.1l-1.4-0.8l-1.5,0.8l1.2,2.5L221,108.4z M164.4,136.9c0.1-0.6,0-1.4-0.1-1.6
	c-0.1-0.2-0.4-0.9-0.4-0.9v-1.6l-1.8-0.3l-1.9,0.9l-2.5,0.3l1.2,1.2l0.7,1.1l1.4,1.9l0.1,1l-1.2,1.1l0.8,0.5l0.7-0.4h1.7l0.7-0.7
	C163.7,139.3,164.2,137.6,164.4,136.9z M121.2,173.7c-0.2-0.1-0.5,0.8-0.8,0.9c-0.3,0.1-0.7,0.3-0.9,0.3c-0.2,0.1-0.3,0.8-0.3,1.1
	c0,0.3,1.6,0,1.6,0s1-0.1,1.3-0.1s0.5-0.5,0.5-0.5s-0.1-1.4-0.1-1.6C122.5,173.5,121.4,173.8,121.2,173.7z M208,97.7l-1,0.4l-1-0.4
	l-0.5,1l1.2,1l1.3-0.2l3.6-1.8c0,0-1.9-1.2-2.2-1.4L208,97.7z M204.9,92.1l-0.2,0.8l-0.6,0.9c0.3,0.1,3.4,0.3,3.4,0.3l-0.8-2.6
	c0,0,1.7-0.5,1.9-0.5c0.2,0,1.7-0.7,1.7-0.7s-0.1-0.5-0.3-0.5c-0.2,0-2.5-0.3-2.5-0.3l-2.1-0.5l-1.2,1c0,0-0.6,0.7-0.3,1
	C204,91.3,204.9,92.1,204.9,92.1z M213.7,134l-1.6-2.6l-0.5-2.3h-2.5l-0.8-0.4l-1.2,0.2l1.1,3.6l-0.7,1.9l1.5,1.6c0,0,1.3,0.1,1.6,0
	c0.3-0.1,2.7-0.1,2.7-0.1L213.7,134z M220.9,140.9l-0.5,1.2l1.9,2.3l0.8-1.8l-1.2-1.9L220.9,140.9z M173.9,164.8l-2.5,0.6l-3.3,1.6
	l-0.1-1.1l1.6-0.6l0.7-0.4l0.1-1.9h-0.6l-0.5,1l-1.1-0.2l-0.4-1.2l-0.2-1.9c0,0,0.4-0.8-0.1-0.8c-0.5,0-4-0.3-4-0.3l0.7,2.7
	l-0.1,1.1l-0.5,0.8c0,0,1,0.3,1.2,0.3s1-0.3,1.3-0.1c0.3,0.1,0.6,1.4,0.6,1.4l0.1,3.2l-1.6,3c0,0,1.7,0.8,2.1,0.8s3,0,3,0l0.4-3
	l2.5,2.9l0.7-0.5l-0.8-1.6l-1.6-2.5l1.9-0.9l1.7-0.1l0.8-0.7l-0.3-0.7L173.9,164.8z M218,129.9l-3.9,1.8l1.2,1.7l-0.4,1.2l0.9,0.5
	l1.9-1.4l0.6,0.8l-0.3,2.2l0.5,0.7l1,0.1l0.5-1l-0.1-1.6l1.6,0.4l3.1-2l-4-1.3L218,129.9z M216.6,142.2l1,0.8l1.3-0.7l0.6-2
	l-1.7,0.1L216.6,142.2z M196.9,112.2l-0.5-2.1l-1.6,2.1H196.9z M230.5,119.4l-1.4-1.9l-0.4-0.8c0,0,1.4-0.5,1.4-1.1
	c-0.1-0.5-1.7-1.2-1.7-1.2l-0.9-0.7l-1.2,1l-3.4,0.3l-0.6-1.4l0.5-1.4l-2.3-2.1l-0.4,2.3l-0.7,1.2c0,0,0.1,1.9,0.3,2.5
	c0.3,0.6,0.3,1.1,0.2,1.4c-0.1,0.3-0.8,1.5-1.1,1.3c-0.3-0.2-0.8-0.6-0.9-0.9s-0.5-2.3-0.5-2.3l-1.4,0.9l-0.7-1.1c0,0-0.3-0.6,0-0.8
	c0.3-0.2,0.9-0.7,0.9-0.7l0.5-0.9l-1.4-2.7l-1.2-2.3c0,0,0.3-1,0.1-1c-0.2,0-1.3,0-1.3,0l-0.7-1.5l-1.5,1.7l-3,1.6l0.2,2.5l-1.7-0.1
	l-0.9-0.6l-0.4,2.2l-1.4-0.5l-1.4,0.8v0.8l0.8,0.2c0,0,0.2,1.2,0.2,1.4c0,0.2-0.5,0.6,0.2,1.2c0.8,0.5,1.2,1.2,1.2,1.2l-2.5,1.9
	l-0.5,1.1l-1.1-1.2l-0.8-1.9l0.9-0.9l-0.3-0.8l-2.1,0.1l-2.3,0.1c0,0-1-1.6-1.2-1.6c-0.3,0-1.2,0.9-1.2,0.9l-0.1,1.6l-3.4,4.4
	l-2.3,2.5l-0.1,2.1c0,0-3.9,1.9-4.1,2c-0.2,0.1-0.5-0.8-0.5-0.8s4.8-5.2,4.8-5.4c0-0.2-0.1-3.8-0.1-3.8l-2.7-1.2l-0.8-1.8l-7.8-3.6
	l0.5-1l2.5,0.3l2.7-1.4l1.8,1.1l1.4-0.4l2.2,1.4l0.3,0.9l1.4-0.4l-0.3-1.1l0.1-0.6l-2.1-1.1l-0.1-1.3h2.3l1.4-0.7l2.3,0.7l1.4-3.5
	l0.3-1.4l2.5,1.2l2.4,0.1l3.5-1.5l0.3,1.6l1,0.3l-0.5,1.1l-2.2,0.3l-2.8,0.5l-1.2,1.2l1.1,1.6l3.5-2.1l5.4-1l1.8-3l2-0.2l4.3-4.2
	l-0.9-0.8l-7.1,2.7l-3.2-2.1l-3.6-0.1l-0.1-1.2h2.1l1.6-1.6l-2.1-2.1l-1.7,1.6l-1.5-0.1l-0.5-0.8l2-1.4l-0.2-0.8l-2.3-0.3l-0.1-0.8
	l0.4-0.9l-0.8-0.5l-1.2,0.8l-1.9-0.2l-2.4,3.4l-1.4,0.3l-0.8-0.6h-2.6l4.9-3.4c0,0,0-1.4-0.5-1.7c-0.4-0.3-1.2-1-1.8-1.1
	c-0.6-0.1-1.3,0-1.7-0.1c-0.4-0.1-3,0-3,0s-2.5,0.1-2.9,0.2c-0.4,0.1-1.3-0.3-1.3-0.3l-1.1-0.8l-2.8,0.2l-1.4,1.6l-0.6,1.5l-1.4,1
	l-3.1-0.3l-1.1,0.4l-2,1.6c0,0-1.1,0.2-1.6,0.3c-0.5,0.1-1.3-0.5-2.3-1s-1.8,0-2.6,0c-0.8,0-1.4,1-1.4,1s0.5,1.8,0.6,2.1
	c0.1,0.3-0.9,1.5-0.9,1.5h-1.6c0,0,0,0-1.6-0.4c-1.6-0.4-1.8,1.4-1.8,1.4s-0.3,1.3-0.6,1.5c-0.3,0.2-2.4-0.1-2.4-0.1l-1.6-0.4
	c-0.3,2.4-2.1,2.4-2.1,3.2c0,0.8-1.1,5.3-1.1,5.3l3.5,3.7l-4,0.5l-0.8-2.4l-1.3-1.9l-1.2,0.1l0.4-2.3l-1.8,1.6l-1-1.8l-0.7,1.6
	l-2.3,0.5l-1.4,3.7l-2.2,1.2l-2.1,0.5l-2.1,1.8l-0.7,1.6l-2.9,1l0.8,1.2l-1.5,0.7h-2.2l-1.2,0.4l-2.9,2.1l3.2,1.1l-0.4,2.2
	c0,0,1.2,0.3,1.6,1.5c0.4,1.2,0.4,1.2,0.4,1.2l-1.8,0.3c0,0,1.9,1.8,3.3,2.1c1.4,0.3,2.6,0.3,2.6,0.3l5.2-1.2c0,0-1-2.6,0.5-3.2
	c1.5-0.5,2.3,0.5,2.3,0.5l0.1,2.1l3.8,0.5c0,0-0.7,2.7,0.1,3c0.8,0.3,2.3,0.8,2.3,0.8l1.9-0.1l1,1.4l2.3-0.1c0,0,2.5-0.5,3.6-0.7
	c1.1-0.1,4.8-1,4.8-1s4.1-0.8,5.8-1.2c1.6-0.4,2.6-1,3.2-0.4c0.5,0.5,0.8,2.1,0.8,2.1s-0.7,1.8,0,1.9c0.7,0.1,3-1.6,3-1.6l-0.5,3.6
	c0,0,2.9,2.2,4.1,2.3c1.2,0.1,3.7,0.7,3.7,0.7s-0.8,1.5-0.1,2.2c0.7,0.7,2.6,0.7,2.6,0.7s-1.2,2.2-1.1,2.7c0.1,0.5,1.2,1.5,1.2,1.5
	l1.5,0.1l1.6-1.9l1,0.7c0,0-0.1-3.7,0.8-3.8c1-0.1,2.3,2.3,3.2,1.9s-1.2-2.6-0.8-3.3s2.9,2.1,2.9,2.1s0,2.1,1,2.6c1,0.5,2.7,1,2.7,1
	s0.1,3.2,1.5,3.2c1.4,0,3.3-3,3.3-3l-0.3-1.6l1.9-1.9c0,0-2.7-2.1-2.3-2.5l2.2,1.1c0,0,2.3,0.4,2.3,0.8c0,0.4-1,1.8-1,1.8l2.1,4.3
	l0.3,1.5l1.1,1c0,0-1.1,0.8-1.1,1.5c0,0.7,1.1,1,1.1,1l1.6-0.3l2.1,2.2c0,0,0-1.2,0.5-1.4c0.5-0.1-0.7-1.8-0.7-1.8v-1.4l-1.6,0.4
	c0,0-0.7-0.7-0.4-2.5h1.1l1.8,0.4l2.2-2.7l-2.2-2.6l-1.8,0.8c0,0-1.4-1.4-1.4-2.2l-2.9-1.2l-1.5-3l-0.7-1.1l0.4-1.5l-1.4-0.7
	l-2.5-0.8l0.4-1.1h1.8l1.1-1.6l1,1.9c0,0-1.1,0.8-0.5,1c0.5,0.1,1.9,0.5,1.9,0.5l-1.4-5.2c0,0,1.4-1.9,1.8-2.5
	c0.4-0.6,0.3-1.2,0.5-1.3c0.2-0.1,1.2-0.1,1.6-0.1s0.8,0.7,0.8,0.7s0.8,1.2,1.6,1.3c0.8,0.1,1.9,0,1.9,0s0.1-0.9,0.8-0.9
	c0.8,0,1.1,1,1.6,1.2c0.5,0.3,2.8,1,2.8,1l1.6,0.1c0,0-0.3-0.9,0.6-1.3c0.9-0.4,2,1.4,2,1.4s1.9,0.4,2.1,0.4c0.2,0,1.5,0.4,1.5,0.4
	l2.7,2.1c0,0-0.6-1.9,0.5-2.3c1.1-0.5,1.4,2,1.9,1.9c0.5-0.1,0.3-3,0.3-3.2c0-0.2,0.1-1,0.1-1l-2.8-3l-0.8-0.5c0,0-0.1-1,0.4-1.4
	c0.5-0.4,3.1-2.2,3.1-2.2l1.9-0.4c0,0,0.3,2.3,1.1,1.6S230.5,119.4,230.5,119.4z M204.2,130.4l1.4,3.2h0.8l0.1-1.9l-0.3-1l-0.9-1.3
	L204.2,130.4z M212.8,137.2c0,0-1.6-0.1-1.9-0.1l0.7,2.1l0.8,0.5l1.6-0.3l-0.1-1.2L212.8,137.2z M189.1,165
	c-0.1-0.2-0.3-0.9-0.3-0.9l-1.1-0.1l-0.3,0.6l-0.1,1.6l-0.6,1.6v1.2l2.1-0.3l0.6-0.9l-0.2-1.1C189.2,166.8,189.2,165.2,189.1,165z
	 M174.5,158.1l-1,0.5l1.1,2.1l1.2-0.1l-0.3-1.8L174.5,158.1z M197.5,166.1c0.4-0.1-0.3-1.2-0.5-1.6c-0.1-0.4-1.5-2-1.5-2l1.5-1.4
	l-0.8-0.1c0,0-0.1-1.2-0.1-1.4c0-0.2-0.8-0.7-0.8-0.7l-0.2-1.5l1.7-0.1l0.5-2.5l-0.8-0.6L194,154l-1.2-0.9l0.7-1.4l0.3-0.9l-0.9-1
	l-1.1-0.1l-1.2,0.8l-0.5-0.5l-2.5-2.4l-1.7-0.6l-1.6,0.3c0,0-2.5,1.9-3,2.1c-0.4,0.2-2.5,0.3-2.5,0.3l-4.8-1.2c0,0-1.2-0.1-1.4-0.2
	c-0.3-0.1-2.2,0.1-2.2,0.1l-3.8,2.2l-0.5,2.1l3.2,4.2l3,1c0,0,1.6-0.3,1.8-0.5c0.2-0.1,1.8-0.1,1.8-0.1l1.2,2.9l0.4,1l1.2-0.4
	l1.8-2.9l2.1,1.4l1.1,1.5l-0.1,1.2l-0.7,0.4l0.3,0.5l0.6,0.8l-0.4,1.3l0.3,0.8l1.6-0.6l2.4-2.1l2-1.6l1-0.9c0,0-0.3-1.9-0.3-2.1
	c-0.1-0.2-0.2-1.9-0.2-1.9l0.8-0.1l0.8,5l0.3,2.3l1,0.8l0.6,1.8c0,0,1.6,0.1,1.8,0.2C195.6,166.4,197.1,166.2,197.5,166.1z
	 M172.7,141.5l-3.4-0.6l-0.3,0.8l2.4,0.4L172.7,141.5z M200.8,173.3l-0.7-1.6c0,0-2.8,2.1-3.2,2.3c-0.3,0.2-1.3,1.2-1.3,1.2l0.5,1.3
	v0.9l1.6,0.3l1.4-1.7l1.9,0.8l0.5-0.9c0,0-0.8-1.2-0.8-1.4C200.7,174,200.8,173.3,200.8,173.3z M197.7,170.4L196,170l-1-0.2
	l-0.8,0.1l-0.1,2.3l3-0.9L197.7,170.4z M203.2,156.1l-0.5,1.6l1.4,1.6l1.2-0.2l1.8-2.1l-1.9-1.9L203.2,156.1z"/>
</svg>
